<svg width="14" height="16" viewBox="0 0 14 16" fill="none" xmlns="http://www.w3.org/2000/svg">
<g clip-path="url(#clip0_513_1023)">
<path d="M8.00009 14C7.74421 14 7.48821 13.9023 7.29321 13.707C6.90259 13.3164 6.90259 12.6836 7.29321 12.293L11.5876 7.99999L7.29384 3.70624C6.90321 3.31561 6.90321 2.6828 7.29384 2.29218C7.68446 1.90155 8.31728 1.90155 8.7079 2.29218L13.7079 7.29218C14.0985 7.6828 14.0985 8.31561 13.7079 8.70624L8.7079 13.7062C8.51259 13.9031 8.25634 14 8.00009 14Z" fill="white"/>
<path opacity="0.4" d="M10.5874 9H0.99995C0.447762 9 0 8.55313 0 8C0 7.44687 0.447762 7 0.99995 7H10.5874L11.5874 8L10.5874 9Z" fill="aqua"/>
</g>
<defs>
<clipPath id="clip0_513_1023">
<rect width="14" height="16" fill="white"/>
</clipPath>
</defs>
</svg>
