<svg width="32" height="28" viewBox="0 0 32 28" fill="none" xmlns="http://www.w3.org/2000/svg">
<g clip-path="url(#clip0_513_1098)">
<path d="M28.4444 0C30.4056 0 32 1.5668 32 3.5V10.5H5.33333V3.5C5.33333 1.5668 6.92778 0 8.88889 0H28.4444ZM10.6667 3.5C9.68333 3.5 8.88889 4.28367 8.88889 5.25C8.88889 6.21797 9.68333 7 10.6667 7C11.65 7 12.4444 6.21797 12.4444 5.25C12.4444 4.28367 11.65 3.5 10.6667 3.5ZM15.5556 6.5625H27.1111C27.85 6.5625 28.4444 5.97734 28.4444 5.25C28.4444 4.52539 27.85 3.9375 27.1111 3.9375H15.5556C14.8167 3.9375 14.2222 4.52539 14.2222 5.25C14.2222 5.97734 14.8167 6.5625 15.5556 6.5625ZM2.66667 20.5625C2.66667 23.2203 4.85556 25.375 7.55556 25.375H25.3333C26.0722 25.375 26.6667 25.9602 26.6667 26.6875C26.6667 27.4148 26.0722 28 25.3333 28H7.55556C3.38278 28 0 24.6695 0 20.5625V6.5625C0 5.83516 0.597222 5.25 1.33333 5.25C2.06944 5.25 2.66667 5.83516 2.66667 6.5625V20.5625Z" fill="#651FFF"/>
<path opacity="0.4" d="M12.4444 5.25C12.4444 6.21797 11.6499 7 10.6666 7C9.68325 7 8.88881 6.21797 8.88881 5.25C8.88881 4.28367 9.68325 3.5 10.6666 3.5C11.6499 3.5 12.4444 4.28367 12.4444 5.25ZM8.88881 22.75C6.9277 22.75 5.33325 21.1805 5.33325 19.25V10.5H31.9999V19.25C31.9999 21.1805 30.4055 22.75 28.4444 22.75H8.88881Z" fill="#651FFF"/>
</g>
<defs>
<clipPath id="clip0_513_1098">
<rect width="32" height="28" fill="white"/>
</clipPath>
</defs>
</svg>
