<svg width="39" height="32" viewBox="0 0 39 32" fill="none" xmlns="http://www.w3.org/2000/svg">
<g clip-path="url(#clip0_528_1503)">
<path d="M14.2898 6.79375C14.849 6.79375 15.3148 7.27162 15.3148 7.845C15.3148 8.22731 15.1284 8.56188 14.8022 8.75313L12.1459 10.3781C11.7731 10.6188 11.5842 11 11.5842 11.3813V12.1456C11.5842 12.7669 12.0967 13.2925 12.7024 13.2925C13.3081 13.2925 13.8206 12.7668 13.8206 12.1456V12.05L15.9644 10.7119C16.9467 10.0938 17.55 8.99375 17.55 7.84375C17.55 5.98187 16.1058 4.5 14.2898 4.5H11.8645C10.0474 4.5 8.60254 5.98187 8.60254 7.84562C8.60254 8.46694 9.11515 8.9925 9.72074 8.9925C10.3264 8.9925 10.8389 8.46675 10.8389 7.84562C10.8389 7.272 11.3049 6.79437 11.8639 6.79437H14.2898V6.79375ZM12.7055 14.9438C11.8645 14.9438 11.2125 15.6125 11.2125 16.4688C11.2125 17.3313 11.8645 18 12.7055 18C13.5446 18 14.1966 17.3306 14.1966 16.4706C14.1923 15.6125 13.5403 14.9438 12.7055 14.9438ZM36.5381 27.7313C38.0737 25.8688 39 23.5375 39 21C39 14.925 33.7594 10 27.3 10C27.2808 10 27.2623 10.0026 27.2431 10.0027C27.2695 10.3313 27.3 10.6625 27.3 11C27.3 17.1637 22.4445 22.325 15.9595 23.6562C17.227 28.4438 21.7608 32 27.3 32C29.353 32 31.2804 31.4995 32.958 30.6262C34.4419 31.375 36.3248 32 38.5308 32C38.7172 32 38.8818 31.8922 38.9586 31.7122C39.0334 31.5322 38.9987 31.3279 38.8707 31.1901C38.8537 31.1687 37.5314 29.7063 36.5381 27.7313Z" fill="#651FFF"/>
<path opacity="0.4" d="M12.6749 0C5.67498 0 -0.000131165 4.925 -0.000131165 11C-0.000131165 13.4731 0.951712 15.7475 2.53913 17.5875C1.54037 19.635 0.148556 21.17 0.126619 21.1925C-0.00134991 21.3303 -0.0360843 21.5347 0.0388079 21.7146C0.11565 21.8937 0.280303 22 0.46665 22C2.8036 22 4.77859 21.305 6.30081 20.4975C8.17768 21.4438 10.3471 22 12.6749 22C19.6766 22 25.3499 17.075 25.3499 11C25.3499 4.925 19.6766 0 12.6749 0ZM12.7053 18C11.8644 18 11.2124 17.3312 11.2124 16.4688C11.2124 15.6081 11.865 14.9394 12.7035 14.9394C13.5426 14.9394 14.1946 15.6088 14.1946 16.4688C14.1922 17.3312 13.5402 18 12.7053 18ZM15.9106 10.7125L13.8205 12.05V12.1456C13.8205 12.7669 13.3079 13.2924 12.7023 13.2924C12.0967 13.2924 11.5841 12.7687 11.5841 12.15V11.3813C11.5841 10.9989 11.7705 10.6169 12.1432 10.3775L14.7995 8.7525C15.1246 8.5625 15.3135 8.225 15.3135 7.84375C15.3135 7.27012 14.8474 6.7925 14.2885 6.7925H11.8644C11.3051 6.7925 10.8394 7.27038 10.8394 7.84375C10.8394 8.46506 10.3268 8.99063 9.72123 8.99063C9.11545 8.99063 8.60302 8.46488 8.60302 7.84375C8.60424 5.98187 10.0485 4.5 11.8644 4.5H14.2873C16.1056 4.5 17.5499 5.98187 17.5499 7.84375C17.5499 8.99375 16.9466 10.0938 15.9106 10.7125Z" fill="#651FFF"/>
</g>
<defs>
<clipPath id="clip0_528_1503">
<rect width="39" height="32" fill="white"/>
</clipPath>
</defs>
</svg>
