<svg width="418" height="279" viewBox="0 0 418 279" fill="none" xmlns="http://www.w3.org/2000/svg">
<path d="M20.5099 252.713H410.337" stroke="#263238" stroke-linecap="round" stroke-linejoin="round"/>
<g opacity="0.15">
<path d="M113.629 44.4283C111.277 46.744 104.316 49.2327 104.31 49.2327C104.305 49.2327 104.065 44.1381 104.093 43.8145C104.394 40.0647 107.181 32.9893 111.283 32.0239C114.237 31.3264 116.856 33.5417 117.252 36.4321C117.647 39.3226 115.635 42.453 113.629 44.4283Z" fill="black"/>
<path d="M109.416 138.284C109.449 138.451 109.483 138.607 109.51 138.775L107.326 140.795C107.203 140.119 107.08 139.439 106.963 138.73C106.612 136.732 106.283 134.59 105.966 132.386C103.844 132.352 101.726 132.194 99.6233 131.911C98.4417 134.869 94.2617 139.4 93.7155 139.98C95.0754 141.436 96.4186 142.842 97.7061 144.154C98.5866 145.054 99.4412 145.913 100.27 146.732L97.6615 147.736L95.9003 145.884C94.5125 144.405 93.0579 142.798 91.5754 141.141C90.8954 141.576 85.3165 145.125 82.2512 145.571C79.4645 145.973 75.814 145.711 73.7017 143.613C71.5894 141.514 71.4724 138.122 73.8076 136.191C77.0569 133.507 84.3691 135.566 87.5347 137.597C87.7242 137.72 89.608 139.243 90.7784 140.225C90.1765 139.545 89.5857 138.886 88.9782 138.178C87.7577 136.783 86.5872 135.354 85.3221 133.82L83.5442 131.515C82.9367 130.756 82.3905 129.875 81.8053 129.054C80.4789 127.118 79.236 125.087 78.0266 123.017C76.8061 124.083 72.4031 127.793 69.7056 128.597C67.0081 129.4 63.3688 129.713 60.9611 127.961C58.5534 126.209 57.9236 122.872 59.9412 120.606C62.7278 117.459 70.2908 118.374 73.724 119.914C73.9414 120.009 76.2822 121.382 77.5585 122.146C76.8395 120.896 76.1205 119.652 75.435 118.363C73.4565 114.647 71.5727 110.819 69.6778 107.008C69.1204 105.842 68.5018 104.686 67.911 103.526C67.4819 103.911 62.3377 108.436 59.3225 109.357C56.6362 110.177 52.9856 110.473 50.5835 108.721C48.1814 106.969 47.5405 103.632 49.5636 101.366C52.3503 98.2192 59.9077 99.1344 63.3465 100.674C63.6028 100.792 66.9747 102.773 67.8051 103.314C66.5065 100.764 65.1912 98.2304 63.7923 95.7864C61.9195 92.4778 59.8344 89.2942 57.5502 86.2557C57.3496 86.4343 52.0159 91.1829 48.9171 92.1259C46.2307 92.9461 42.5802 93.2419 40.1725 91.4898C37.7649 89.7376 37.1351 86.4008 39.1582 84.1353C41.9449 80.9882 49.5023 81.9033 52.941 83.4434C53.2086 83.5662 56.8424 85.6754 57.461 86.1274C57.3273 85.9544 57.2102 85.7591 57.0709 85.5694C54.698 82.5844 52.0624 79.8187 49.1958 77.3054C47.6352 75.8937 46.058 74.6326 44.503 73.444C43.5946 74.4261 39.4201 78.8901 36.7282 80.0452C34.1422 81.1612 30.5474 81.8475 27.9669 80.3744C25.3865 78.9013 24.3889 75.6537 26.1445 73.1762C28.5912 69.7445 36.1765 69.8282 39.7713 70.9777C39.9663 71.0391 41.878 71.8872 43.2602 72.5233C42.5468 71.9988 41.8222 71.4408 41.1312 70.9498C38.5396 69.0972 36.0483 67.5683 33.8357 66.2235C32.5705 65.4702 31.4113 64.8174 30.3189 64.2147C28.9256 64.7169 23.2965 66.6811 20.4262 66.4467C17.556 66.2124 14.1116 65.2861 12.5009 62.7695C10.8902 60.2529 11.4977 56.9161 14.2008 55.5434C17.9461 53.6239 24.6452 57.2174 27.3037 59.8735C27.5322 60.1078 30.709 64.1199 30.6477 64.1478L30.5641 64.1757C31.6286 64.7337 32.76 65.3475 33.9806 66.0394C36.2099 67.3339 38.7625 68.8294 41.4042 70.6206C44.2713 72.5289 47.0237 74.6045 49.6472 76.8367C52.6039 79.32 55.3327 82.0633 57.801 85.0337C57.8319 85.0685 57.8599 85.1058 57.8846 85.1453C57.422 83.9958 56.2126 80.7483 56.1792 80.4916C55.2986 76.8311 55.7444 69.2367 59.3392 67.0382C61.9308 65.4591 65.1244 66.7369 66.3839 69.3651C67.6435 71.9932 66.7239 75.5923 65.4309 78.0922C63.9818 80.9101 58.5868 85.1676 58.1577 85.508C60.5996 88.5904 62.8339 91.8321 64.8457 95.2116C66.0217 97.1758 67.153 99.1902 68.2566 101.221C67.8887 100.217 67.571 99.3185 67.5376 99.1902C66.657 95.5297 67.1029 87.9353 70.6977 85.7424C73.2893 84.1576 76.4828 85.441 77.7424 88.0636C79.002 90.6862 78.0824 94.2909 76.7949 96.7908C75.5075 99.2906 70.9596 103.052 69.7502 104.017C70.1626 104.804 70.5918 105.579 71.0042 106.366C72.9828 110.138 74.9446 113.91 76.9844 117.526C77.6978 118.809 78.4558 120.043 79.2137 121.287C78.8905 120.394 78.623 119.641 78.5951 119.524C77.7145 115.863 78.1604 108.269 81.7552 106.07C84.3412 104.491 87.5403 105.769 88.7999 108.397C90.0594 111.025 89.1343 114.624 87.8468 117.124C86.5594 119.624 82.4518 123.017 81.0195 124.177C81.8276 125.422 82.6302 126.672 83.4662 127.849C84.057 128.636 84.5809 129.434 85.2051 130.193L87.0331 132.464C88.2425 133.859 89.4854 135.315 90.7004 136.649C91.542 137.586 92.3724 138.457 93.1805 139.344C92.4504 138.077 91.0738 135.561 90.9846 135.337C89.8439 132.228 89.5195 128.877 90.0427 125.606C89.9022 125.265 89.7922 124.912 89.7139 124.551C89.1175 121.7 90.8787 118.737 93.8939 118.413C98.085 117.967 103.045 123.725 104.567 127.168C104.662 127.369 105.386 129.685 105.821 131.147C105.698 130.248 105.564 129.372 105.447 128.446C105.202 126.61 105.013 124.769 104.801 122.794C104.734 121.834 104.662 120.863 104.595 119.886C104.528 118.91 104.533 117.883 104.494 116.873C104.461 114.53 104.539 112.147 104.673 109.753C103.068 109.965 97.3494 110.629 94.6407 109.826C91.9321 109.022 88.7441 107.253 87.6964 104.463C86.6486 101.673 87.9694 98.5429 90.901 97.7673C94.9751 96.6959 100.755 101.634 102.778 104.804C102.906 105.005 104.104 107.443 104.734 108.793C104.829 107.354 104.912 105.92 105.052 104.469C105.447 100.273 105.982 96.043 106.501 91.819C106.662 90.5244 106.802 89.2299 106.952 87.913C106.395 87.9911 99.6066 88.9285 96.5747 88.0302C93.8827 87.2266 90.6781 85.4578 89.6359 82.6678C88.5937 79.8778 89.9034 76.7474 92.8405 75.9718C96.9091 74.9004 102.689 79.8387 104.712 83.0082C104.868 83.2481 106.584 86.7635 106.98 87.673C107.303 84.8328 107.599 81.9926 107.777 79.1803C108.041 75.3873 108.058 71.5811 107.827 67.7859C107.56 67.8194 100.493 68.835 97.3884 67.9087C94.6965 67.1107 91.4918 65.3363 90.4496 62.5519C89.4074 59.7675 90.7171 56.6259 93.6542 55.8559C97.7228 54.7789 103.502 59.7172 105.525 62.8867C105.687 63.1378 107.532 66.921 107.822 67.6297C107.822 67.4065 107.822 67.1777 107.822 66.9601C107.463 63.1871 106.775 59.4528 105.765 55.8001C105.208 53.7578 104.617 51.8383 103.976 49.9857C102.677 50.3094 96.7307 51.7211 93.8493 51.1966C91.0626 50.7 87.7186 49.2938 86.3643 46.6377C85.01 43.9816 85.9798 40.7173 88.811 39.6292C92.7402 38.1115 99.0269 42.3858 101.39 45.3153C101.518 45.4715 102.644 47.2404 103.447 48.5349C103.14 47.7035 102.845 46.8609 102.538 46.0462C101.423 43.0721 100.164 40.416 99.0548 38.0724C98.4139 36.7444 97.8064 35.5614 97.2267 34.4566C95.7888 34.105 90.0149 32.6319 87.7521 30.8742C85.4893 29.1165 83.1764 26.3433 83.2098 23.3691C83.2433 20.395 85.5952 17.9398 88.6104 18.2802C92.796 18.7489 96.413 25.4393 97.1543 29.1277C97.2156 29.4457 97.6503 34.5514 97.5779 34.5347H97.4943C98.0516 35.5837 98.6758 36.7221 99.3167 37.972C100.476 40.2933 101.769 42.9326 102.984 45.8956C104.323 49.0597 105.48 52.2976 106.451 55.5936C107.546 59.2981 108.31 63.0925 108.736 66.9322C108.733 66.9786 108.733 67.0252 108.736 67.0717C108.981 65.8608 109.783 62.5017 109.878 62.2506C111.16 58.7073 115.713 52.6251 119.91 52.7646C122.942 52.8762 124.926 55.7108 124.503 58.5957C124.079 61.4805 121.354 63.9748 118.929 65.3475C116.143 66.8987 109.315 67.4679 108.775 67.5125C109.108 71.4317 109.18 75.3687 108.992 79.2975C108.897 81.5853 108.725 83.8898 108.529 86.1943C108.775 85.1565 109.003 84.2302 109.048 84.1018C110.33 80.5641 114.889 74.4763 119.08 74.6158C122.112 74.7219 124.096 77.5565 123.672 80.4414C123.249 83.3262 120.523 85.8261 118.099 87.1987C115.674 88.5714 109.789 89.1964 108.245 89.3359C108.156 90.2175 108.084 91.1047 107.994 91.9864C107.571 96.2272 107.125 100.457 106.818 104.619C106.713 106.081 106.657 107.532 106.601 108.983C106.818 108.057 107.014 107.281 107.053 107.17C108.334 103.626 112.893 97.5441 117.085 97.6836C120.116 97.7952 122.101 100.63 121.677 103.515C121.253 106.4 118.528 108.894 116.076 110.266C113.623 111.639 108.329 112.203 106.495 112.376C106.495 113.866 106.462 115.35 106.495 116.789C106.551 117.777 106.54 118.726 106.651 119.708C106.763 120.69 106.835 121.65 106.924 122.609C107.164 124.445 107.398 126.342 107.677 128.128C107.861 129.372 108.061 130.555 108.234 131.744C108.329 130.282 108.563 127.425 108.613 127.191C109.343 123.497 112.927 116.795 117.107 116.304C120.122 115.952 122.485 118.458 122.53 121.371C122.574 124.283 120.233 127.168 118.021 128.898C115.58 130.801 109.17 132.369 108.368 132.559C108.719 134.567 109.065 136.481 109.416 138.284Z" fill="black"/>
<path d="M44.3804 72.6962C44.3358 72.7576 41.3652 68.5837 41.2092 68.2991C39.3978 65.0014 37.8262 57.5632 40.7131 54.4942C42.792 52.2622 46.2084 52.6751 48.1201 54.8736C50.0318 57.0722 50.0875 60.7885 49.5023 63.5394C48.8168 66.7702 44.3804 72.6906 44.3804 72.6962Z" fill="black"/>
</g>
<g opacity="0.15">
<path d="M271.349 59.0811C273.701 61.3968 280.662 63.8855 280.667 63.8855C280.673 63.8855 280.913 58.7909 280.885 58.4673C280.584 54.7175 277.797 47.6421 273.695 46.6768C270.741 45.9793 268.122 48.1945 267.732 51.085C267.342 53.9754 269.348 57.1058 271.349 59.0811Z" fill="black"/>
<path d="M275.562 152.937C275.529 153.104 275.501 153.261 275.468 153.428L277.658 155.448C277.775 154.773 277.898 154.092 278.02 153.383C278.366 151.386 278.694 149.243 279.012 147.039C281.136 147.005 283.255 146.847 285.36 146.565C286.536 149.522 290.722 154.053 291.262 154.633C289.902 156.09 288.559 157.496 287.277 158.802C286.391 159.705 285.539 160.565 284.708 161.385L287.316 162.384C287.874 161.787 288.476 161.173 289.078 160.537C290.465 159.058 291.92 157.451 293.403 155.794C294.082 156.229 299.667 159.778 302.732 160.224C305.519 160.626 309.164 160.364 311.276 158.266C313.389 156.168 313.506 152.775 311.17 150.844C307.921 148.16 300.581 150.219 297.443 152.251C297.254 152.368 295.375 153.897 294.2 154.879C294.801 154.198 295.392 153.54 296.005 152.831C297.22 151.436 298.391 150.007 299.656 148.473L301.434 146.168C302.041 145.41 302.587 144.528 303.178 143.708C304.499 141.771 305.742 139.74 306.951 137.67C308.177 138.736 312.575 142.447 315.272 143.25C317.97 144.054 321.609 144.366 324.017 142.614C326.425 140.862 327.054 137.525 325.037 135.259C322.25 132.112 314.693 133.027 311.254 134.568C311.037 134.662 308.696 136.035 307.419 136.8C308.138 135.55 308.863 134.305 309.543 133.016C311.521 129.294 313.405 125.472 315.306 121.661C315.863 120.495 316.476 119.34 317.067 118.179C317.496 118.564 322.64 123.09 325.655 124.01C328.342 124.825 331.992 125.126 334.394 123.374C336.796 121.622 337.437 118.285 335.414 116.02C332.628 112.873 325.07 113.788 321.631 115.328C321.375 115.439 318.003 117.42 317.173 117.967C318.471 115.417 319.787 112.884 321.186 110.44C323.058 107.131 325.144 103.948 327.428 100.909C327.628 101.088 332.962 105.836 336.061 106.779C338.747 107.594 342.398 107.895 344.805 106.143C347.213 104.391 347.843 101.054 345.82 98.7886C343.033 95.6415 335.476 96.5566 332.037 98.0967C331.769 98.2139 328.136 100.329 327.517 100.781C327.651 100.608 327.768 100.412 327.907 100.223C330.28 97.2377 332.915 94.472 335.782 91.9587C337.343 90.5469 338.92 89.2859 340.48 88.0973C341.383 89.0794 345.558 93.5434 348.283 94.6985C350.864 95.8145 354.458 96.5008 357.039 95.0277C359.619 93.5546 360.623 90.3014 358.861 87.8295C356.415 84.3978 348.829 84.4815 345.235 85.631C345.039 85.6923 343.133 86.5405 341.746 87.1766C342.459 86.6521 343.184 86.0941 343.875 85.6031C346.466 83.7505 348.958 82.216 351.17 80.8768C352.441 80.1235 353.595 79.4706 354.687 78.868C356.08 79.3702 361.709 81.3344 364.58 81.1C367.45 80.8656 370.894 79.8501 372.505 77.3502C374.116 74.8504 373.508 71.508 370.805 70.0962C367.06 68.1767 360.361 71.7702 357.702 74.4263C357.474 74.6551 354.297 78.6727 354.358 78.7006L354.442 78.7285C353.377 79.2865 352.246 79.9003 351.025 80.5922C348.796 81.8868 346.249 83.3822 343.602 85.1734C340.723 87.1219 337.961 89.2386 335.331 91.5123C332.367 93.9876 329.631 96.7234 327.155 99.687L327.071 99.793C327.534 98.6491 328.743 95.4015 328.776 95.1449C329.657 91.4844 329.211 83.89 325.616 81.6915C323.03 80.1123 319.831 81.3902 318.572 84.0183C317.312 86.6465 318.237 90.2456 319.525 92.7455C320.974 95.5355 326.369 99.8209 326.77 100.161C324.326 103.242 322.092 106.484 320.082 109.865C318.901 111.829 317.769 113.843 316.666 115.875C317.033 114.87 317.351 113.972 317.385 113.843C318.265 110.183 317.819 102.589 314.224 100.39C311.633 98.8109 308.439 100.089 307.18 102.717C305.92 105.345 306.84 108.944 308.127 111.444C309.415 113.944 313.963 117.705 315.172 118.67C314.76 119.457 314.336 120.233 313.918 121.019C311.939 124.791 309.978 128.563 307.938 132.207C307.224 133.491 306.466 134.724 305.708 135.968C306.032 135.075 306.299 134.322 306.327 134.205C307.208 130.539 306.762 122.95 303.173 120.751C300.581 119.172 297.382 120.45 296.128 123.078C294.874 125.707 295.788 129.306 297.075 131.805C298.363 134.305 302.47 137.698 303.903 138.859C303.095 140.103 302.292 141.353 301.456 142.53C300.865 143.317 300.341 144.115 299.717 144.874L297.895 147.139C296.68 148.54 295.437 149.991 294.222 151.33C293.38 152.267 292.55 153.138 291.742 154.025C292.472 152.753 293.848 150.242 293.938 150.019C295.078 146.909 295.403 143.558 294.879 140.287C295.02 139.946 295.13 139.593 295.208 139.232C295.805 136.381 294.043 133.418 291.028 133.094C286.837 132.654 281.877 138.412 280.355 141.855C280.266 142.056 279.536 144.372 279.101 145.834C279.224 144.935 279.358 144.059 279.475 143.133C279.72 141.297 279.909 139.456 280.121 137.48C280.188 136.521 280.261 135.55 280.327 134.573C280.394 133.597 280.394 132.57 280.428 131.56C280.461 129.216 280.383 126.834 280.249 124.44C281.86 124.652 287.573 125.316 290.281 124.512C292.99 123.709 296.184 121.94 297.226 119.15C298.268 116.36 296.953 113.23 294.021 112.454C289.947 111.383 284.168 116.321 282.144 119.49C282.016 119.691 280.818 122.13 280.188 123.48C280.099 122.04 280.015 120.606 279.876 119.156C279.475 114.959 278.94 110.73 278.421 106.5C278.26 105.211 278.12 103.917 277.97 102.628C278.527 102.706 285.316 103.643 288.348 102.745C291.039 101.941 294.244 100.172 295.286 97.3824C296.329 94.5924 295.019 91.4621 292.087 90.6864C288.013 89.6151 282.234 94.5534 280.21 97.7228C280.054 97.9628 278.338 101.473 277.942 102.388C277.619 99.5475 277.323 96.7073 277.145 93.8949C276.881 90.102 276.864 86.2957 277.095 82.5006C277.362 82.5341 284.429 83.5496 287.534 82.6233C290.226 81.8198 293.43 80.051 294.473 77.2665C295.515 74.4821 294.205 71.3406 291.274 70.5705C287.199 69.4992 281.42 74.4375 279.397 77.6069C279.235 77.858 277.39 81.6413 277.106 82.3499C277.106 82.1267 277.106 81.8979 277.106 81.6803C277.477 77.875 278.186 74.1104 279.224 70.431C279.753 68.3888 280.372 66.4692 281.013 64.6167C282.312 64.9403 288.258 66.3521 291.14 65.8275C293.926 65.3309 297.27 63.9192 298.63 61.2687C299.99 58.6182 299.009 55.3483 296.178 54.2546C292.277 52.7424 285.962 57.0446 283.605 59.9462C283.476 60.1025 282.345 61.8713 281.548 63.1659C281.849 62.3345 282.144 61.4919 282.451 60.6772C283.593 57.7031 284.825 55.047 285.934 52.7034C286.575 51.3753 287.183 50.1868 287.762 49.0875C289.2 48.736 294.974 47.2629 297.237 45.5052C299.5 43.7475 301.813 40.9742 301.779 38.0001C301.746 35.0259 299.399 32.5707 296.39 32.9223C292.204 33.391 288.587 40.0814 287.846 43.7698C287.779 44.0879 287.344 49.1936 287.417 49.1768H287.506C286.949 50.2259 286.319 51.3642 285.678 52.6141C284.519 54.9354 283.226 57.5747 282.016 60.5377C280.673 63.7146 279.517 66.9677 278.555 70.2804C277.455 73.9835 276.69 77.7784 276.27 81.6189C276.27 81.6636 276.27 81.7138 276.27 81.7584C276.025 80.5476 275.222 77.1884 275.128 76.9373C273.846 73.394 269.292 67.3118 265.096 67.4513C262.064 67.5629 260.08 70.3976 260.503 73.2824C260.927 76.1673 263.652 78.6615 266.076 80.0342C268.863 81.5855 275.69 82.1546 276.237 82.1993C275.899 86.1181 275.824 90.0553 276.014 93.9842C276.108 96.272 276.281 98.5766 276.476 100.881C276.231 99.8432 276.003 98.9169 275.958 98.7886C274.676 95.2509 270.117 89.1631 265.926 89.3026C262.894 89.4086 260.938 92.2433 261.334 95.1281C261.729 98.013 264.483 100.513 266.935 101.885C269.387 103.258 275.245 103.883 276.794 104.023C276.878 104.904 276.95 105.786 277.039 106.673C277.468 110.914 277.909 115.144 278.215 119.306C278.321 120.768 278.377 122.219 278.438 123.67C278.215 122.744 278.02 121.968 277.981 121.856C276.699 118.313 272.146 112.231 267.949 112.37C264.917 112.482 262.961 115.317 263.357 118.201C263.752 121.086 266.506 123.581 268.93 124.953C271.354 126.326 276.677 126.889 278.511 127.062C278.511 128.552 278.544 130.037 278.511 131.476C278.449 132.464 278.466 133.413 278.349 134.395C278.232 135.377 278.171 136.336 278.081 137.296C277.842 139.132 277.602 141.029 277.323 142.815C277.14 144.059 276.939 145.242 276.766 146.431C276.677 144.969 276.437 142.112 276.387 141.877C275.657 138.183 272.073 131.482 267.893 130.991C264.878 130.639 262.515 133.145 262.471 136.057C262.426 138.97 264.767 141.855 266.985 143.579C269.42 145.488 275.83 147.056 276.632 147.245C276.259 149.221 275.913 151.135 275.562 152.937Z" fill="black"/>
<path d="M340.598 87.3495C340.648 87.4109 343.613 83.237 343.769 82.9525C345.586 79.6547 347.157 72.2165 344.27 69.1475C342.186 66.9155 338.769 67.3285 336.863 69.527C334.957 71.7255 334.89 75.4418 335.476 78.1927C336.161 81.4235 340.598 87.3439 340.598 87.3495Z" fill="black"/>
</g>
<path d="M275.986 240.643V220.042C275.987 216.841 277.258 213.772 279.518 211.509C281.779 209.246 284.844 207.974 288.041 207.972H174.378C171.181 207.972 168.115 209.244 165.854 211.507C163.593 213.771 162.323 216.841 162.323 220.042V240.643C162.323 242.228 162.634 243.798 163.24 245.263C163.845 246.727 164.733 248.058 165.853 249.179C166.972 250.3 168.301 251.189 169.764 251.795C171.227 252.402 172.795 252.713 174.378 252.713H288.041C284.844 252.713 281.778 251.441 279.517 249.178C277.256 246.914 275.986 243.844 275.986 240.643Z" fill="#263238" stroke="#263238" stroke-linecap="round" stroke-linejoin="round"/>
<path d="M389.258 209.607L390.613 208.714C390.683 208.665 390.737 208.595 390.765 208.514C390.794 208.433 390.795 208.345 390.771 208.262C390.746 208.18 390.696 208.107 390.627 208.055C390.559 208.003 390.476 207.974 390.39 207.972H288.041C284.844 207.974 281.779 209.246 279.518 211.509C277.258 213.772 275.987 216.841 275.986 220.042V240.643C275.986 243.844 277.256 246.914 279.517 249.178C281.778 251.441 284.844 252.713 288.041 252.713H390.39C390.478 252.715 390.564 252.688 390.635 252.636C390.706 252.585 390.759 252.511 390.784 252.427C390.809 252.342 390.806 252.252 390.775 252.17C390.744 252.087 390.687 252.017 390.613 251.97L389.258 251.078V209.607Z" fill="#949494" stroke="#263238" stroke-linecap="round" stroke-linejoin="round"/>
<path d="M294.071 209.607H389.258V251.1H294.071C289.868 251.1 285.836 249.428 282.863 246.452C279.891 243.476 278.221 239.439 278.221 235.23V225.476C278.221 221.268 279.891 217.231 282.863 214.255C285.836 211.279 289.868 209.607 294.071 209.607Z" fill="white" stroke="#263238" stroke-linecap="round" stroke-linejoin="round"/>
<path d="M281.693 217.24H321.626" stroke="#263238" stroke-linecap="round" stroke-linejoin="round"/>
<path d="M311.142 221.035H348.4" stroke="#263238" stroke-linecap="round" stroke-linejoin="round"/>
<path d="M333.675 225.728H297.978" stroke="#263238" stroke-linecap="round" stroke-linejoin="round"/>
<path d="M282.585 240.023H306.009" stroke="#263238" stroke-linecap="round" stroke-linejoin="round"/>
<path d="M299.99 243.372H335.013" stroke="#263238" stroke-linecap="round" stroke-linejoin="round"/>
<path d="M295.749 246.502H305.118" stroke="#263238" stroke-linecap="round" stroke-linejoin="round"/>
<path d="M322.077 236.899H381.64" stroke="#263238" stroke-linecap="round" stroke-linejoin="round"/>
<path d="M388.556 227.29H376.289" stroke="#263238" stroke-linecap="round" stroke-linejoin="round"/>
<path d="M386.55 224.165H374.054" stroke="#263238" stroke-linecap="round" stroke-linejoin="round"/>
<path d="M386.55 244.27H355.317" stroke="#263238" stroke-linecap="round" stroke-linejoin="round"/>
<path d="M270.624 195.69V175.089C270.624 173.504 270.935 171.934 271.54 170.469C272.146 169.005 273.034 167.674 274.154 166.553C275.273 165.432 276.602 164.543 278.065 163.937C279.528 163.33 281.096 163.019 282.679 163.02H169.011C167.428 163.02 165.861 163.332 164.399 163.938C162.937 164.545 161.608 165.434 160.489 166.555C159.37 167.676 158.483 169.006 157.877 170.471C157.272 171.935 156.961 173.504 156.962 175.089V195.69C156.962 198.891 158.231 201.96 160.491 204.223C162.75 206.486 165.815 207.758 169.011 207.76H282.707C281.122 207.764 279.551 207.454 278.085 206.849C276.62 206.244 275.287 205.356 274.165 204.235C273.043 203.114 272.152 201.782 271.545 200.316C270.937 198.85 270.624 197.278 270.624 195.69Z" fill="#8C8C8C" stroke="#263238" stroke-linecap="round" stroke-linejoin="round"/>
<path d="M383.891 164.655L385.251 163.762C385.326 163.715 385.383 163.645 385.414 163.563C385.445 163.48 385.448 163.39 385.422 163.306C385.397 163.221 385.345 163.148 385.274 163.096C385.202 163.044 385.116 163.017 385.028 163.02H282.68C281.096 163.019 279.528 163.331 278.065 163.937C276.602 164.543 275.273 165.432 274.154 166.553C273.034 167.674 272.146 169.005 271.541 170.47C270.935 171.934 270.624 173.504 270.624 175.089V195.691C270.624 198.892 271.894 201.962 274.155 204.225C276.416 206.488 279.482 207.76 282.68 207.76H385.028C385.114 207.758 385.197 207.729 385.266 207.677C385.334 207.625 385.384 207.553 385.409 207.47C385.434 207.388 385.432 207.3 385.404 207.218C385.375 207.137 385.322 207.067 385.251 207.018L383.891 206.125V164.655Z" fill="#949494" stroke="#263238" stroke-linecap="round" stroke-linejoin="round"/>
<path d="M288.699 164.654H383.891V206.125H288.699C284.5 206.123 280.473 204.454 277.502 201.483C274.531 198.512 272.86 194.482 272.854 190.278V180.524C272.854 176.316 274.523 172.28 277.494 169.304C280.466 166.328 284.496 164.656 288.699 164.654Z" fill="white" stroke="#263238" stroke-linecap="round" stroke-linejoin="round"/>
<path d="M276.331 172.288H316.264" stroke="#263238" stroke-linecap="round" stroke-linejoin="round"/>
<path d="M305.781 176.083H343.039" stroke="#263238" stroke-linecap="round" stroke-linejoin="round"/>
<path d="M328.314 180.775H292.617" stroke="#263238" stroke-linecap="round" stroke-linejoin="round"/>
<path d="M277.223 195.071H300.648" stroke="#263238" stroke-linecap="round" stroke-linejoin="round"/>
<path d="M294.623 198.419H329.652" stroke="#263238" stroke-linecap="round" stroke-linejoin="round"/>
<path d="M290.387 201.544H299.756" stroke="#263238" stroke-linecap="round" stroke-linejoin="round"/>
<path d="M316.71 191.94H376.278" stroke="#263238" stroke-linecap="round" stroke-linejoin="round"/>
<path d="M383.195 182.337H370.928" stroke="#263238" stroke-linecap="round" stroke-linejoin="round"/>
<path d="M381.188 179.213H368.693" stroke="#263238" stroke-linecap="round" stroke-linejoin="round"/>
<path d="M381.188 199.312H349.955" stroke="#263238" stroke-linecap="round" stroke-linejoin="round"/>
<path d="M364.892 231.587L355.712 222.396L346.555 231.587V179.179H364.892V231.587Z" fill="#263238" stroke="#263238" stroke-linecap="round" stroke-linejoin="round"/>
<path d="M280.584 150.738V130.131C280.582 126.931 279.312 123.862 277.051 121.6C274.79 119.338 271.725 118.067 268.529 118.067H382.191C383.774 118.066 385.342 118.378 386.804 118.984C388.267 119.59 389.596 120.478 390.715 121.598C391.835 122.719 392.723 124.049 393.329 125.513C393.935 126.977 394.246 128.546 394.246 130.131V150.738C394.246 152.323 393.935 153.892 393.329 155.356C392.723 156.82 391.835 158.15 390.715 159.27C389.596 160.391 388.267 161.279 386.804 161.885C385.342 162.491 383.774 162.802 382.191 162.802H268.529C271.725 162.802 274.79 161.531 277.051 159.269C279.312 157.006 280.582 153.938 280.584 150.738Z" fill="#651FFF" stroke="#263238" stroke-linecap="round" stroke-linejoin="round"/>
<path d="M167.311 119.696L165.957 118.809C165.883 118.762 165.825 118.692 165.794 118.61C165.764 118.528 165.76 118.437 165.786 118.353C165.811 118.269 165.863 118.195 165.935 118.143C166.006 118.092 166.092 118.065 166.18 118.067H268.529C271.725 118.067 274.79 119.338 277.051 121.6C279.312 123.862 280.582 126.931 280.584 130.131V150.738C280.582 153.938 279.312 157.006 277.051 159.269C274.79 161.531 271.725 162.802 268.529 162.802H166.18C166.092 162.804 166.006 162.777 165.935 162.726C165.863 162.674 165.811 162.6 165.786 162.516C165.76 162.432 165.764 162.341 165.794 162.259C165.825 162.176 165.883 162.106 165.957 162.06L167.311 161.173V119.696Z" fill="#949494" stroke="#263238" stroke-linecap="round" stroke-linejoin="round"/>
<path d="M262.498 161.172L167.311 161.172V119.702L262.498 119.702C266.701 119.702 270.732 121.373 273.704 124.348C276.677 127.323 278.347 131.358 278.349 135.566V145.275C278.353 147.361 277.945 149.428 277.15 151.357C276.356 153.285 275.189 155.038 273.716 156.514C272.244 157.991 270.496 159.162 268.571 159.962C266.646 160.761 264.582 161.172 262.498 161.172Z" fill="white" stroke="#263238" stroke-linecap="round" stroke-linejoin="round"/>
<path d="M274.877 127.33H234.938" stroke="#263238" stroke-linecap="round" stroke-linejoin="round"/>
<path d="M245.427 131.13H208.17" stroke="#263238" stroke-linecap="round" stroke-linejoin="round"/>
<path d="M222.894 135.817H258.586" stroke="#263238" stroke-linecap="round" stroke-linejoin="round"/>
<path d="M273.98 150.113H250.555" stroke="#263238" stroke-linecap="round" stroke-linejoin="round"/>
<path d="M256.58 153.466H221.551" stroke="#263238" stroke-linecap="round" stroke-linejoin="round"/>
<path d="M260.821 156.591H251.447" stroke="#263238" stroke-linecap="round" stroke-linejoin="round"/>
<path d="M234.492 146.988H174.925" stroke="#263238" stroke-linecap="round" stroke-linejoin="round"/>
<path d="M168.008 137.385H180.281" stroke="#263238" stroke-linecap="round" stroke-linejoin="round"/>
<path d="M170.02 134.254H182.51" stroke="#263238" stroke-linecap="round" stroke-linejoin="round"/>
<path d="M170.02 154.359H201.253" stroke="#263238" stroke-linecap="round" stroke-linejoin="round"/>
<path d="M294.239 147.825V133.161H297.688C298.642 133.119 299.593 133.287 300.475 133.652C301.124 133.955 301.635 134.49 301.907 135.153C302.213 135.975 302.357 136.849 302.331 137.726V143.082C302.356 143.985 302.212 144.883 301.907 145.733C301.646 146.414 301.144 146.975 300.497 147.312C299.649 147.692 298.723 147.868 297.794 147.825H294.239ZM296.914 145.962H297.727C298.189 146.001 298.652 145.888 299.043 145.638C299.323 145.395 299.499 145.053 299.533 144.684C299.599 144.177 299.629 143.666 299.622 143.155V137.541C299.633 137.062 299.592 136.583 299.5 136.113C299.465 135.949 299.398 135.794 299.302 135.657C299.206 135.52 299.084 135.404 298.942 135.315C298.545 135.118 298.103 135.031 297.661 135.064H296.886L296.914 145.962Z" fill="#263238"/>
<path d="M304.376 147.825V133.161H307.018V147.825H304.376Z" fill="#263238"/>
<path d="M313.221 148.026C312.335 148.076 311.454 147.855 310.697 147.39C310.093 146.97 309.644 146.362 309.42 145.66C309.166 144.844 309.044 143.993 309.058 143.138V137.904C309.042 137.022 309.164 136.142 309.42 135.298C309.637 134.6 310.088 133.999 310.697 133.596C311.455 133.217 312.289 133.013 313.137 133C313.985 132.986 314.825 133.163 315.596 133.518C316.163 133.85 316.595 134.371 316.816 134.991C317.07 135.707 317.192 136.463 317.178 137.223V138.456H314.609V137.19C314.613 136.817 314.592 136.444 314.548 136.074C314.522 135.774 314.401 135.49 314.202 135.265C314.07 135.152 313.916 135.068 313.751 135.017C313.585 134.966 313.41 134.95 313.238 134.969C312.876 134.938 312.516 135.05 312.235 135.281C312.013 135.516 311.87 135.815 311.828 136.135C311.764 136.534 311.735 136.937 311.739 137.34V143.707C311.729 144.149 311.77 144.591 311.861 145.024C311.923 145.328 312.086 145.602 312.324 145.8C312.591 145.987 312.913 146.079 313.238 146.062C313.409 146.08 313.583 146.061 313.746 146.006C313.91 145.951 314.06 145.862 314.185 145.744C314.386 145.508 314.509 145.215 314.537 144.907C314.588 144.517 314.613 144.123 314.609 143.729V142.407H317.178V143.584C317.19 144.366 317.074 145.145 316.833 145.889C316.621 146.535 316.199 147.09 315.635 147.468C314.901 147.884 314.063 148.078 313.221 148.026Z" fill="#263238"/>
<path d="M320.506 147.825V135.136H318.17V133.161H325.483V135.136H323.186V147.825H320.506Z" fill="#263238"/>
<path d="M326.887 147.825V133.161H329.529V147.825H326.887Z" fill="#263238"/>
<path d="M335.765 148.026C334.903 148.074 334.044 147.881 333.285 147.468C332.668 147.077 332.202 146.486 331.964 145.794C331.685 144.968 331.551 144.099 331.569 143.227V137.742C331.55 136.877 331.684 136.016 331.964 135.198C332.208 134.523 332.674 133.953 333.285 133.579C334.064 133.209 334.915 133.016 335.777 133.016C336.639 133.016 337.49 133.209 338.268 133.579C338.877 133.956 339.342 134.526 339.589 135.198C339.876 136.014 340.014 136.876 339.996 137.742V143.244C340.012 144.11 339.874 144.971 339.589 145.789C339.345 146.477 338.881 147.066 338.268 147.463C337.505 147.887 336.636 148.082 335.765 148.026ZM335.765 146.051C336.117 146.082 336.468 145.978 336.746 145.761C336.972 145.548 337.122 145.268 337.176 144.963C337.251 144.596 337.286 144.221 337.281 143.847V137.095C337.287 136.72 337.252 136.346 337.176 135.979C337.121 135.682 336.97 135.412 336.746 135.209C336.456 135.027 336.12 134.93 335.777 134.93C335.434 134.93 335.098 135.027 334.807 135.209C334.58 135.41 334.427 135.681 334.372 135.979C334.294 136.346 334.256 136.72 334.261 137.095V143.847C334.257 144.221 334.291 144.595 334.361 144.963C334.41 145.269 334.561 145.551 334.79 145.761C335.068 145.976 335.416 146.08 335.765 146.051Z" fill="#263238"/>
<path d="M341.963 147.825V133.161H343.824L347.391 141.531V133.161H349.621V147.825H347.848L344.27 139.065V147.825H341.963Z" fill="#263238"/>
<path d="M351.075 147.825L354.007 133.161H356.861L359.792 147.825H357.312L356.755 144.438H354.185L353.589 147.825H351.075ZM354.464 142.736H356.454L355.456 136.598L354.464 142.736Z" fill="#263238"/>
<path d="M361.185 147.825V133.161H364.691C365.539 133.142 366.385 133.263 367.193 133.518C367.836 133.724 368.386 134.149 368.748 134.718C369.147 135.424 369.34 136.229 369.306 137.039C369.311 137.574 369.256 138.107 369.144 138.63C369.046 139.066 368.856 139.477 368.587 139.835C368.302 140.181 367.931 140.447 367.511 140.605L369.512 147.825H366.837L365.064 141.129H363.838V147.825H361.185ZM363.861 139.427H364.691C365.115 139.445 365.538 139.367 365.928 139.199C366.233 139.052 366.47 138.794 366.592 138.479C366.733 138.068 366.799 137.635 366.787 137.201C366.831 136.614 366.688 136.028 366.38 135.527C366.184 135.319 365.943 135.16 365.675 135.063C365.406 134.966 365.119 134.934 364.836 134.969H363.861V139.427Z" fill="#263238"/>
<path d="M373.19 147.825V142.245L370.225 133.172H372.717L374.528 138.975L376.2 133.161H378.641L375.715 142.234V147.814L373.19 147.825Z" fill="#263238"/>
<path d="M375.737 152.367H294.434V154.236H375.737V152.367Z" fill="#263238" stroke="#263238" stroke-linecap="round" stroke-linejoin="round"/>
<path d="M375.737 127.28H294.434V129.149H375.737V127.28Z" fill="#263238" stroke="#263238" stroke-linecap="round" stroke-linejoin="round"/>
<path d="M279.497 84.3866C279.496 83.7704 279.25 83.18 278.814 82.7448C278.379 82.3097 277.788 82.0653 277.173 82.0653H104.065C103.751 82.0499 103.437 82.0985 103.142 82.2084C102.847 82.3182 102.577 82.4869 102.349 82.7042C102.121 82.9216 101.939 83.183 101.815 83.4727C101.691 83.7623 101.627 84.0742 101.627 84.3894C101.627 84.7045 101.691 85.0164 101.815 85.3061C101.939 85.5957 102.121 85.8572 102.349 86.0745C102.577 86.2918 102.847 86.4605 103.142 86.5703C103.437 86.6802 103.751 86.7289 104.065 86.7134H274.609L262.136 247.975H158.667L152.815 241.776L145.013 247.975H73.7352C73.4208 247.96 73.1066 248.009 72.8115 248.119C72.5165 248.228 72.2468 248.397 72.0188 248.614C71.7908 248.832 71.6093 249.093 71.4853 249.383C71.3613 249.672 71.2974 249.984 71.2974 250.3C71.2974 250.615 71.3613 250.927 71.4853 251.216C71.6093 251.506 71.7908 251.767 72.0188 251.985C72.2468 252.202 72.5165 252.371 72.8115 252.48C73.1066 252.59 73.4208 252.639 73.7352 252.624H263.619C263.769 252.668 263.924 252.696 264.081 252.707C264.385 252.731 264.691 252.694 264.981 252.599C265.271 252.504 265.54 252.353 265.771 252.154C266.003 251.955 266.193 251.712 266.33 251.439C266.468 251.166 266.55 250.869 266.573 250.565L279.391 84.9892C279.452 84.7937 279.488 84.5912 279.497 84.3866Z" fill="#263238" stroke="#263238" stroke-linecap="round" stroke-linejoin="round"/>
<path d="M153.356 244.147C154.275 244.516 156.07 247.635 157.14 249.616H264.488L255.855 229.026C255.855 229.026 247.59 225.276 226.01 218.167C204.43 211.058 190.775 208.597 176.296 211.605C161.816 214.613 156.087 216.504 156.087 216.504C156.087 216.504 151.171 212.403 136.145 212.129C121.12 211.856 76.4717 229.003 76.4717 229.003L73.3228 249.594H148.73C150.118 247.306 152.425 243.774 153.356 244.147Z" fill="white" stroke="#263238" stroke-linecap="round" stroke-linejoin="round"/>
<path d="M172.428 65.9669L154.866 225.432C154.866 225.432 174.027 217.442 186.4 217.062C196.544 216.733 227.085 223.931 237.758 226.548C240.295 227.169 242.87 227.624 245.466 227.91L255.855 229.07L268.228 71.2065C268.228 71.2065 247.874 66.4133 233.116 61.6145C218.358 56.8157 189.192 53.1775 172.428 65.9669Z" fill="white" stroke="#263238" stroke-linecap="round" stroke-linejoin="round"/>
<path d="M242.702 77.7017L244.062 67.6577L246.169 68.3775C246.778 68.5699 247.352 68.8601 247.868 69.2369C248.279 69.5405 248.593 69.9574 248.771 70.4366C248.946 70.9766 248.988 71.5508 248.894 72.1106C248.85 72.4582 248.758 72.7981 248.621 73.1205C248.511 73.3862 248.33 73.6161 248.097 73.7846C247.857 73.946 247.571 74.0244 247.283 74.0078L248.091 79.5375L246.681 79.0577L245.94 73.885L244.825 73.4944L244.19 78.1983L242.702 77.7017ZM244.931 72.4956L245.489 72.6853C245.817 72.8143 246.167 72.8824 246.52 72.8862C246.643 72.8854 246.765 72.8569 246.876 72.8028C246.986 72.7488 247.084 72.6705 247.161 72.5737C247.341 72.2903 247.449 71.9661 247.473 71.6307C247.571 71.1641 247.515 70.678 247.311 70.2468C246.997 69.8231 246.543 69.5245 246.029 69.4043L245.383 69.1811L244.931 72.4956Z" fill="black"/>
<path d="M249.685 76.7085L249.819 75.7041L252.712 76.6918L252.572 77.6962L249.685 76.7085Z" fill="black"/>
<path d="M254.735 81.8196L255.95 72.8302L254.172 72.222L254.317 71.1841L259.277 72.8581L259.132 73.896L257.41 73.3101L256.195 82.2939L254.735 81.8196Z" fill="black"/>
<path d="M172.428 65.967L154.866 225.432C154.866 225.432 142.499 217.442 132.941 217.062C125.64 216.755 103.291 222.971 93.1137 225.929C89.5629 226.957 85.9417 227.724 82.2791 228.222L76.4717 229.031L97.9736 73.5837C97.9736 73.5837 107.682 70.3361 120.133 65.5373C132.584 60.7385 161.894 53.1776 172.428 65.967Z" fill="white" stroke="#263238" stroke-linecap="round" stroke-linejoin="round"/>
<path d="M106.362 79.8388L107.443 71.8538L109.26 71.2958C109.732 71.1363 110.227 71.057 110.725 71.0615C110.881 71.0566 111.035 71.0927 111.172 71.1662C111.309 71.2396 111.424 71.3479 111.506 71.48C111.664 71.8294 111.707 72.2204 111.628 72.596C111.588 72.898 111.511 73.194 111.4 73.4776C111.294 73.7501 111.143 74.0029 110.954 74.2253C110.758 74.4528 110.522 74.642 110.257 74.7833L110.999 78.4047L109.784 78.7674L109.109 75.3748L108.128 75.6705L107.621 79.4147L106.362 79.8388ZM108.234 74.9172L108.714 74.7722C109.024 74.6851 109.322 74.5576 109.6 74.3927C109.83 74.2573 110.022 74.0653 110.157 73.8347C110.299 73.5735 110.39 73.2875 110.425 72.9921C110.486 72.5234 110.425 72.2165 110.268 72.0659C110.112 71.9152 109.711 71.932 109.154 72.0994L108.596 72.2667L108.234 74.9172Z" fill="black"/>
<path d="M112.336 75.5754L112.448 74.7775L114.933 74.0298L114.811 74.8277L112.336 75.5754Z" fill="black"/>
<path d="M116.717 76.7307L117.687 69.5716L116.159 70.0347L116.271 69.2033L120.54 67.9199L120.429 68.7513L118.946 69.1977L117.976 76.3513L116.717 76.7307Z" fill="black"/>
<path d="M268.228 71.1616L275.991 86.9028L264.488 249.616L255.855 229.025L268.228 71.1616Z" fill="white" stroke="#263238" stroke-linecap="round" stroke-linejoin="round"/>
<path d="M148.73 249.616C148.73 249.616 143.424 245.978 138.107 244.65C132.79 243.322 117.625 245.18 102.995 246.514" stroke="#263238" stroke-linecap="round" stroke-linejoin="round"/>
<path d="M149.009 245.978C149.009 245.978 143.435 241.452 136.246 240.922" stroke="#263238" stroke-linecap="round" stroke-linejoin="round"/>
<path d="M151.405 243.316C151.405 243.316 142.627 236.129 131.72 236.129C123.438 236.129 113.367 237.993 113.367 237.993" stroke="#263238" stroke-linecap="round" stroke-linejoin="round"/>
<path d="M152.202 236.927C152.202 236.927 145.286 231.866 139.166 231.347C133.047 230.828 125.339 232.128 125.339 232.128" stroke="#263238" stroke-linecap="round" stroke-linejoin="round"/>
<path d="M152.709 230.538C152.709 230.538 147.66 226.007 140.743 224.958C136.421 224.325 132.03 224.325 127.707 224.958" stroke="#263238" stroke-linecap="round" stroke-linejoin="round"/>
<path d="M155.39 232.402C155.39 232.402 163.906 226.264 178.241 227.871" stroke="#263238" stroke-linecap="round" stroke-linejoin="round"/>
<path d="M154.861 238.266C154.861 238.266 159.119 235.074 170.02 235.074" stroke="#263238" stroke-linecap="round" stroke-linejoin="round"/>
<path d="M155.658 243.846C155.658 243.846 164.436 240.381 172.417 241.179C180.398 241.977 181.457 242.513 191.299 243.578" stroke="#263238" stroke-linecap="round" stroke-linejoin="round"/>
<path d="M160.445 247.579C164.79 246.036 169.426 245.489 174.011 245.978" stroke="#263238" stroke-linecap="round" stroke-linejoin="round"/>
<path d="M175.075 235.331C175.075 235.331 183.586 235.861 187.838 237.457" stroke="#263238" stroke-linecap="round" stroke-linejoin="round"/>
<path d="M124.007 225.477L118.69 226.805" stroke="#263238" stroke-linecap="round" stroke-linejoin="round"/>
<path d="M110.179 239.059L106.189 240.119" stroke="#263238" stroke-linecap="round" stroke-linejoin="round"/>
<path d="M181.457 228.668L185.715 229.472" stroke="#263238" stroke-linecap="round" stroke-linejoin="round"/>
<path d="M243.694 245.18C243.694 245.18 255.131 245.978 259.383 245.978" stroke="#263238" stroke-linecap="round" stroke-linejoin="round"/>
<path d="M259.383 244.114L254.863 243.852" stroke="#263238" stroke-linecap="round" stroke-linejoin="round"/>
<path d="M243.427 238.523C243.427 238.523 252.472 239.081 256.992 239.589" stroke="#263238" stroke-linecap="round" stroke-linejoin="round"/>
<path d="M77.7313 234.265C83.1349 233.679 88.475 232.609 93.6878 231.068" stroke="#263238" stroke-linecap="round" stroke-linejoin="round"/>
<path d="M83.8452 236.659C83.8452 236.659 90.2323 236.129 93.9552 234.795" stroke="#263238" stroke-linecap="round" stroke-linejoin="round"/>
<path d="M253.798 233.729C253.798 233.729 246.352 234.795 235.713 232.401C229.657 231.008 223.53 229.941 217.36 229.204" stroke="#263238" stroke-linecap="round" stroke-linejoin="round"/>
<path d="M231.193 245.715L238.372 245.978" stroke="#263238" stroke-linecap="round" stroke-linejoin="round"/>
<path d="M271.884 80.6143L268.958 118.43" stroke="#263238" stroke-linecap="round" stroke-linejoin="round"/>
<path d="M273.484 90.4688L272.151 106.98" stroke="#263238" stroke-linecap="round" stroke-linejoin="round"/>
<path d="M268.696 152.513L266.032 187.399" stroke="#263238" stroke-linecap="round" stroke-linejoin="round"/>
<path d="M264.705 197.516L262.047 232.402" stroke="#263238" stroke-linecap="round" stroke-linejoin="round"/>
<path d="M266.695 148.518L264.973 171.156" stroke="#263238" stroke-linecap="round" stroke-linejoin="round"/>
<path d="M264.566 175.145L262.844 197.783" stroke="#263238" stroke-linecap="round" stroke-linejoin="round"/>
<path d="M176.948 84.2974C176.948 84.2974 188.223 76.3906 208.526 79.7776" stroke="#B2B2B2" stroke-linecap="round" stroke-linejoin="round"/>
<path d="M176.351 89.336C176.351 89.336 187.66 81.4013 207.963 84.7158" stroke="#B2B2B2" stroke-linecap="round" stroke-linejoin="round"/>
<path d="M175.761 94.3745C175.761 94.3745 187.097 86.4119 207.4 89.6483" stroke="#B2B2B2" stroke-linecap="round" stroke-linejoin="round"/>
<path d="M175.17 99.4076C175.17 99.4076 186.534 91.4171 206.832 94.5809" stroke="#B2B2B2" stroke-linecap="round" stroke-linejoin="round"/>
<path d="M174.573 104.447C174.573 104.447 185.971 96.4282 206.269 99.5196" stroke="#B2B2B2" stroke-linecap="round" stroke-linejoin="round"/>
<path d="M173.983 109.486C173.983 109.486 185.403 101.439 205.706 104.464" stroke="#B2B2B2" stroke-linecap="round" stroke-linejoin="round"/>
<path d="M173.386 114.524C173.386 114.524 184.84 106.444 205.154 109.385" stroke="#B2B2B2" stroke-linecap="round" stroke-linejoin="round"/>
<path d="M172.773 119.563C172.773 119.563 184.254 111.455 204.541 114.318" stroke="#B2B2B2" stroke-linecap="round" stroke-linejoin="round"/>
<path d="M172.216 124.602C172.216 124.602 183.725 116.466 204.023 119.256" stroke="#B2B2B2" stroke-linecap="round" stroke-linejoin="round"/>
<path d="M171.609 129.64C171.609 129.64 183.151 121.471 203.449 124.188" stroke="#B2B2B2" stroke-linecap="round" stroke-linejoin="round"/>
<path d="M171.018 134.679C171.018 134.679 182.582 126.482 202.886 129.099" stroke="#B2B2B2" stroke-linecap="round" stroke-linejoin="round"/>
<path d="M170.427 139.712C170.427 139.712 182.02 131.493 202.323 134.054" stroke="#B2B2B2" stroke-linecap="round" stroke-linejoin="round"/>
<path d="M169.831 144.751C169.831 144.751 181.457 136.498 201.76 138.992" stroke="#B2B2B2" stroke-linecap="round" stroke-linejoin="round"/>
<path d="M169.24 149.79C169.24 149.79 180.894 141.509 201.197 143.925" stroke="#B2B2B2" stroke-linecap="round" stroke-linejoin="round"/>
<path d="M168.644 154.828C168.644 154.828 180.348 146.52 200.629 148.858" stroke="#B2B2B2" stroke-linecap="round" stroke-linejoin="round"/>
<path d="M168.053 159.867C168.053 159.867 179.757 151.53 200.066 153.79" stroke="#B2B2B2" stroke-linecap="round" stroke-linejoin="round"/>
<path d="M167.462 164.906C167.462 164.906 179.199 156.536 199.503 158.729" stroke="#B2B2B2" stroke-linecap="round" stroke-linejoin="round"/>
<path d="M166.866 169.944C166.866 169.944 178.636 161.547 198.968 163.661" stroke="#B2B2B2" stroke-linecap="round" stroke-linejoin="round"/>
<path d="M166.275 174.984C166.275 174.984 178.074 166.558 198.377 168.594" stroke="#B2B2B2" stroke-linecap="round" stroke-linejoin="round"/>
<path d="M165.684 180.016C165.684 180.016 177.511 171.563 197.809 173.538" stroke="#B2B2B2" stroke-linecap="round" stroke-linejoin="round"/>
<path d="M165.088 185.055C165.088 185.055 176.948 176.573 197.246 178.465" stroke="#B2B2B2" stroke-linecap="round" stroke-linejoin="round"/>
<path d="M164.497 190.094C164.497 190.094 176.379 181.585 196.683 183.398" stroke="#B2B2B2" stroke-linecap="round" stroke-linejoin="round"/>
<path d="M163.901 195.133C163.901 195.133 175.816 186.59 196.12 188.331" stroke="#B2B2B2" stroke-linecap="round" stroke-linejoin="round"/>
<path d="M163.299 200.172C163.299 200.172 175.242 191.601 195.546 193.269" stroke="#B2B2B2" stroke-linecap="round" stroke-linejoin="round"/>
<path d="M162.741 205.21C162.741 205.21 174.713 196.611 195.017 198.202" stroke="#B2B2B2" stroke-linecap="round" stroke-linejoin="round"/>
<path d="M162.123 210.249C162.123 210.249 174.128 201.617 194.448 203.135" stroke="#B2B2B2" stroke-linecap="round" stroke-linejoin="round"/>
<path d="M161.532 215.288C161.532 215.288 173.565 206.628 193.857 208.067" stroke="#B2B2B2" stroke-linecap="round" stroke-linejoin="round"/>
<path d="M217.917 80.5308C217.917 80.5308 233.707 78.2988 255.888 89.9442" stroke="#B2B2B2" stroke-linecap="round" stroke-linejoin="round"/>
<path d="M217.36 85.5136C217.36 85.5136 233.394 83.382 255.404 94.8936" stroke="#B2B2B2" stroke-linecap="round" stroke-linejoin="round"/>
<path d="M216.803 90.4909C216.803 90.4909 233.082 88.4932 254.919 99.843" stroke="#B2B2B2" stroke-linecap="round" stroke-linejoin="round"/>
<path d="M216.279 95.4741C216.279 95.4741 232.804 93.6048 254.462 104.798" stroke="#B2B2B2" stroke-linecap="round" stroke-linejoin="round"/>
<path d="M215.727 100.44C215.727 100.44 232.503 98.7048 253.988 109.736" stroke="#B2B2B2" stroke-linecap="round" stroke-linejoin="round"/>
<path d="M215.175 105.462C215.175 105.462 232.196 103.855 253.509 114.725" stroke="#B2B2B2" stroke-linecap="round" stroke-linejoin="round"/>
<path d="M214.629 110.412C214.629 110.412 231.906 108.939 253.035 119.652" stroke="#B2B2B2" stroke-linecap="round" stroke-linejoin="round"/>
<path d="M214.077 115.394C214.077 115.394 231.589 114.044 252.533 124.601" stroke="#B2B2B2" stroke-linecap="round" stroke-linejoin="round"/>
<path d="M213.531 120.372C213.531 120.372 231.288 119.155 252.076 129.551" stroke="#B2B2B2" stroke-linecap="round" stroke-linejoin="round"/>
<path d="M212.979 125.355C212.979 125.355 230.981 124.239 251.603 134.501" stroke="#B2B2B2" stroke-linecap="round" stroke-linejoin="round"/>
<path d="M212.428 130.332C212.428 130.332 230.68 129.378 251.123 139.456" stroke="#B2B2B2" stroke-linecap="round" stroke-linejoin="round"/>
<path d="M211.881 135.315C211.881 135.315 230.374 134.489 250.65 144.405" stroke="#B2B2B2" stroke-linecap="round" stroke-linejoin="round"/>
<path d="M211.33 140.292C211.33 140.292 230.073 139.601 250.17 149.354" stroke="#B2B2B2" stroke-linecap="round" stroke-linejoin="round"/>
<path d="M210.783 145.276C210.783 145.276 229.766 144.718 249.691 154.31" stroke="#B2B2B2" stroke-linecap="round" stroke-linejoin="round"/>
<path d="M210.232 150.253C210.232 150.253 229.465 149.817 249.245 159.259" stroke="#B2B2B2" stroke-linecap="round" stroke-linejoin="round"/>
<path d="M209.68 155.236C209.68 155.236 229.159 154.929 248.738 164.208" stroke="#B2B2B2" stroke-linecap="round" stroke-linejoin="round"/>
<path d="M209.134 160.213C209.134 160.213 228.858 160.04 248.259 169.141" stroke="#B2B2B2" stroke-linecap="round" stroke-linejoin="round"/>
<path d="M208.582 165.196C208.582 165.196 228.551 165.151 247.785 174.124" stroke="#B2B2B2" stroke-linecap="round" stroke-linejoin="round"/>
<path d="M208.036 170.19C208.036 170.19 228.25 170.279 247.306 179.079" stroke="#B2B2B2" stroke-linecap="round" stroke-linejoin="round"/>
<path d="M207.484 175.156C207.484 175.156 227.944 175.374 246.832 184.012" stroke="#B2B2B2" stroke-linecap="round" stroke-linejoin="round"/>
<path d="M206.938 180.134C206.938 180.134 227.643 180.48 246.352 188.967" stroke="#B2B2B2" stroke-linecap="round" stroke-linejoin="round"/>
<path d="M206.386 185.117C206.386 185.117 227.336 185.591 245.873 193.916" stroke="#B2B2B2" stroke-linecap="round" stroke-linejoin="round"/>
<path d="M205.834 190.094C205.834 190.094 227.013 190.702 245.405 198.866" stroke="#B2B2B2" stroke-linecap="round" stroke-linejoin="round"/>
<path d="M205.288 195.077C205.288 195.077 226.729 195.814 244.92 203.821" stroke="#B2B2B2" stroke-linecap="round" stroke-linejoin="round"/>
<path d="M204.736 200.054C204.736 200.054 226.428 200.925 244.446 208.77" stroke="#B2B2B2" stroke-linecap="round" stroke-linejoin="round"/>
<path d="M204.19 205.037C204.19 205.037 226.121 206.036 243.967 213.72" stroke="#B2B2B2" stroke-linecap="round" stroke-linejoin="round"/>
<path d="M203.638 210.015C203.638 210.015 225.82 211.131 243.488 218.675" stroke="#B2B2B2" stroke-linecap="round" stroke-linejoin="round"/>
<path d="M104.065 86.7133C104.065 86.7133 109.639 80.1568 127.696 79.7773" stroke="#B2B2B2" stroke-linecap="round" stroke-linejoin="round"/>
<path d="M103.385 91.7129C103.385 91.7129 108.959 85.2513 127.044 84.7603" stroke="#B2B2B2" stroke-linecap="round" stroke-linejoin="round"/>
<path d="M102.7 96.7184C102.7 96.7184 108.273 90.346 126.392 89.7378" stroke="#B2B2B2" stroke-linecap="round" stroke-linejoin="round"/>
<path d="M102.02 101.724C102.02 101.724 107.593 95.4461 125.746 94.7207" stroke="#B2B2B2" stroke-linecap="round" stroke-linejoin="round"/>
<path d="M101.34 106.723C101.34 106.723 106.913 100.54 125.094 99.6978" stroke="#B2B2B2" stroke-linecap="round" stroke-linejoin="round"/>
<path d="M100.654 111.729C100.654 111.729 106.228 105.635 124.441 104.681" stroke="#B2B2B2" stroke-linecap="round" stroke-linejoin="round"/>
<path d="M99.9745 116.728C99.9745 116.728 105.548 110.73 123.789 109.658" stroke="#B2B2B2" stroke-linecap="round" stroke-linejoin="round"/>
<path d="M99.2946 121.733C99.2946 121.733 104.868 115.83 123.143 114.641" stroke="#B2B2B2" stroke-linecap="round" stroke-linejoin="round"/>
<path d="M98.609 126.739C98.609 126.739 104.216 120.924 122.491 119.619" stroke="#B2B2B2" stroke-linecap="round" stroke-linejoin="round"/>
<path d="M97.9291 131.738C97.9291 131.738 103.536 126.019 121.839 124.602" stroke="#B2B2B2" stroke-linecap="round" stroke-linejoin="round"/>
<path d="M97.2491 136.744C97.2491 136.716 102.856 131.114 121.187 129.579" stroke="#B2B2B2" stroke-linecap="round" stroke-linejoin="round"/>
<path d="M96.5692 141.732C96.5692 141.704 102.176 136.202 120.535 134.551" stroke="#B2B2B2" stroke-linecap="round" stroke-linejoin="round"/>
<path d="M95.8613 146.754C95.8892 146.721 101.474 141.314 119.866 139.545" stroke="#B2B2B2" stroke-linecap="round" stroke-linejoin="round"/>
<path d="M95.2037 151.776C95.2316 151.737 100.816 146.425 119.236 144.522" stroke="#B2B2B2" stroke-linecap="round" stroke-linejoin="round"/>
<path d="M94.5238 156.754C94.5517 156.714 100.136 151.497 118.584 149.5" stroke="#B2B2B2" stroke-linecap="round" stroke-linejoin="round"/>
<path d="M93.8383 161.759C93.8717 161.714 99.4562 156.597 117.937 154.505" stroke="#B2B2B2" stroke-linecap="round" stroke-linejoin="round"/>
<path d="M93.1583 166.759C93.1918 166.714 98.7763 161.692 117.285 159.46" stroke="#B2B2B2" stroke-linecap="round" stroke-linejoin="round"/>
<path d="M92.4784 171.764C92.5118 171.714 98.0963 166.786 116.633 164.443" stroke="#B2B2B2" stroke-linecap="round" stroke-linejoin="round"/>
<path d="M91.7928 176.769C91.8319 176.719 97.4163 171.881 115.981 169.42" stroke="#B2B2B2" stroke-linecap="round" stroke-linejoin="round"/>
<path d="M91.1129 181.768C91.1519 181.718 96.7364 176.981 115.335 174.403" stroke="#B2B2B2" stroke-linecap="round" stroke-linejoin="round"/>
<path d="M90.433 186.774C90.472 186.718 96.0565 182.076 114.683 179.38" stroke="#B2B2B2" stroke-linecap="round" stroke-linejoin="round"/>
<path d="M89.7307 191.774C89.7809 191.718 95.3598 187.17 114.014 184.363" stroke="#B2B2B2" stroke-linecap="round" stroke-linejoin="round"/>
<path d="M89.0675 196.779C89.1177 196.718 94.6966 192.265 113.378 189.341" stroke="#B2B2B2" stroke-linecap="round" stroke-linejoin="round"/>
<path d="M88.3876 201.784C88.4377 201.717 94.0166 197.365 112.732 194.324" stroke="#B2B2B2" stroke-linecap="round" stroke-linejoin="round"/>
<path d="M87.702 206.784C87.7578 206.717 93.3422 202.459 112.08 199.301" stroke="#B2B2B2" stroke-linecap="round" stroke-linejoin="round"/>
<path d="M87.0221 211.789C87.0778 211.716 92.6623 207.554 111.428 204.284" stroke="#B2B2B2" stroke-linecap="round" stroke-linejoin="round"/>
<path d="M86.342 216.789C86.3978 216.716 91.9823 212.648 110.776 209.261" stroke="#B2B2B2" stroke-linecap="round" stroke-linejoin="round"/>
<path d="M134.841 78.2763C134.841 78.2763 148.424 73.3826 161.159 82.0372" stroke="#B2B2B2" stroke-linecap="round" stroke-linejoin="round"/>
<path d="M134.217 83.2428C134.217 83.2428 147.755 78.377 160.651 86.9479" stroke="#B2B2B2" stroke-linecap="round" stroke-linejoin="round"/>
<path d="M133.593 88.2032C133.593 88.2032 147.086 83.371 160.144 91.8526" stroke="#B2B2B2" stroke-linecap="round" stroke-linejoin="round"/>
<path d="M132.974 93.1859C132.974 93.1859 146.423 88.3816 159.637 96.7795" stroke="#B2B2B2" stroke-linecap="round" stroke-linejoin="round"/>
<path d="M132.35 98.1356C136.808 96.8183 141.492 96.4521 146.1 97.0605C150.708 97.6689 155.138 99.2384 159.102 101.668" stroke="#B2B2B2" stroke-linecap="round" stroke-linejoin="round"/>
<path d="M131.731 103.102C136.21 101.786 140.912 101.416 145.541 102.015C150.17 102.613 154.625 104.167 158.623 106.578" stroke="#B2B2B2" stroke-linecap="round" stroke-linejoin="round"/>
<path d="M131.107 108.068C135.604 106.759 140.321 106.387 144.967 106.974C149.614 107.561 154.09 109.096 158.121 111.483" stroke="#B2B2B2" stroke-linecap="round" stroke-linejoin="round"/>
<path d="M130.489 113.034C130.489 113.034 143.753 108.341 157.614 116.382" stroke="#B2B2B2" stroke-linecap="round" stroke-linejoin="round"/>
<path d="M129.859 118C129.859 118 143.079 113.336 157.101 121.298" stroke="#B2B2B2" stroke-linecap="round" stroke-linejoin="round"/>
<path d="M129.246 122.967C129.246 122.967 142.421 118.33 156.6 126.209" stroke="#B2B2B2" stroke-linecap="round" stroke-linejoin="round"/>
<path d="M128.621 127.933C128.621 127.933 141.752 123.329 156.092 131.113" stroke="#B2B2B2" stroke-linecap="round" stroke-linejoin="round"/>
<path d="M127.997 132.894C127.997 132.894 141.083 128.324 155.591 136.024" stroke="#B2B2B2" stroke-linecap="round" stroke-linejoin="round"/>
<path d="M127.379 137.859C127.379 137.859 140.42 133.317 155.084 140.928" stroke="#B2B2B2" stroke-linecap="round" stroke-linejoin="round"/>
<path d="M126.754 142.848C126.754 142.848 139.751 138.334 154.576 145.862" stroke="#B2B2B2" stroke-linecap="round" stroke-linejoin="round"/>
<path d="M126.136 147.792C126.136 147.792 139.083 143.328 154.069 150.744" stroke="#B2B2B2" stroke-linecap="round" stroke-linejoin="round"/>
<path d="M125.511 152.758C125.511 152.758 138.419 148.294 153.562 155.654" stroke="#B2B2B2" stroke-linecap="round" stroke-linejoin="round"/>
<path d="M124.893 157.724C124.893 157.724 137.751 153.294 153.06 160.559" stroke="#B2B2B2" stroke-linecap="round" stroke-linejoin="round"/>
<path d="M124.285 162.691C124.285 162.691 137.104 158.288 152.57 165.481" stroke="#B2B2B2" stroke-linecap="round" stroke-linejoin="round"/>
<path d="M123.65 167.657C123.65 167.657 136.419 163.282 152.046 170.38" stroke="#B2B2B2" stroke-linecap="round" stroke-linejoin="round"/>
<path d="M123.026 172.623C123.026 172.623 135.75 168.276 151.539 175.285" stroke="#B2B2B2" stroke-linecap="round" stroke-linejoin="round"/>
<path d="M122.402 177.589C122.402 177.589 135.081 173.27 151.032 180.195" stroke="#B2B2B2" stroke-linecap="round" stroke-linejoin="round"/>
<path d="M121.783 182.55C121.783 182.55 134.412 178.265 150.53 185.1" stroke="#B2B2B2" stroke-linecap="round" stroke-linejoin="round"/>
<path d="M121.159 187.516C121.159 187.516 133.749 183.264 150.023 190.01" stroke="#B2B2B2" stroke-linecap="round" stroke-linejoin="round"/>
<path d="M120.54 192.51C120.54 192.51 133.08 188.286 149.521 194.943" stroke="#B2B2B2" stroke-linecap="round" stroke-linejoin="round"/>
<path d="M119.916 197.448C119.916 197.448 132.411 193.252 149.009 199.826" stroke="#B2B2B2" stroke-linecap="round" stroke-linejoin="round"/>
<path d="M119.297 202.415C119.297 202.415 131.748 198.246 148.502 204.73" stroke="#B2B2B2" stroke-linecap="round" stroke-linejoin="round"/>
<path d="M118.673 207.381C118.673 207.381 131.079 203.24 148 209.641" stroke="#B2B2B2" stroke-linecap="round" stroke-linejoin="round"/>
<path d="M176.446 63.149L168.682 134.127L175.632 124.311L180.944 130.014L188.301 58.8301C188.301 58.8301 181.758 59.2653 176.446 63.149Z" fill="#263238" stroke="#263238" stroke-linecap="round" stroke-linejoin="round"/>
<path d="M47.2675 254.281C47.2675 254.281 46.5541 254.549 47.1783 255.173C47.8025 255.798 50.3105 256.25 52.5454 256.072C54.4844 255.825 56.3804 255.312 58.1801 254.549C59.0718 254.191 58.4476 252.222 58.4476 252.222L47.2675 254.281Z" fill="#263238" stroke="#263238" stroke-linecap="round" stroke-linejoin="round"/>
<path d="M51.2747 238.004C51.2747 238.004 52.6179 247.925 52.6179 248.371C52.6179 248.818 49.129 252.757 47.4291 253.65C45.7293 254.543 50.1155 255.352 51.9937 255.173C53.8719 254.995 56.6419 254.459 57.1769 254.102C57.7119 253.745 58.3417 253.471 58.4309 252.221C58.5201 250.971 57.8067 247.116 57.8067 247.116L57.9627 237.674L51.2747 238.004Z" fill="white" stroke="#263238" stroke-linecap="round" stroke-linejoin="round"/>
<path d="M57.8457 247.25C56.0979 247.645 54.2898 247.694 52.5232 247.395C52.59 247.953 52.6346 248.293 52.6346 248.371C52.3822 248.887 52.047 249.358 51.6426 249.766C52.5287 249.604 54.3289 249.437 55.477 250.374C56.3298 251.072 56.6976 252.311 56.5583 254.052C56.553 254.148 56.5682 254.245 56.6028 254.336C56.8088 254.283 57.0072 254.204 57.1936 254.102C57.4246 253.961 57.6445 253.802 57.8513 253.627C57.907 251.714 57.3831 250.279 56.2796 249.381C56.0278 249.176 55.7528 249.002 55.4603 248.862C56.3363 248.823 57.2073 248.708 58.0631 248.516C57.9627 247.936 57.8847 247.467 57.8457 247.25Z" fill="#263238"/>
<path d="M54.7971 251.412C53.6484 250.72 52.3084 250.415 50.9738 250.542C50.5391 251.016 50.0598 251.507 49.5804 251.97C50.9348 251.741 52.9244 251.652 54.0391 252.472C54.384 252.73 54.6615 253.068 54.8478 253.457C55.0342 253.845 55.1238 254.273 55.1092 254.704C55.1092 254.704 55.1092 254.704 55.1092 254.732C55.5774 254.637 56.0121 254.537 56.3632 254.436C56.3472 253.847 56.1981 253.268 55.9268 252.744C55.6556 252.221 55.2693 251.765 54.7971 251.412Z" fill="#263238"/>
<path d="M82.2345 253.672C82.1502 253.729 82.0783 253.803 82.0233 253.889C81.9683 253.975 81.9314 254.072 81.9147 254.172C81.898 254.273 81.9019 254.376 81.9263 254.475C81.9506 254.574 81.9948 254.668 82.0562 254.749C82.5021 255.374 84.1128 255.374 85.0045 255.374C85.8962 255.374 90.55 255.463 90.55 255.463C90.55 255.463 97.3439 255.374 98.3526 255.106C99.3614 254.838 99.4227 254.303 99.066 254.029C98.7359 253.862 98.3625 253.799 97.9959 253.851C96.3627 254.047 94.7139 254.077 93.0747 253.94C91.1073 253.672 85.2051 253.761 84.3134 253.672C83.6214 253.621 82.9266 253.621 82.2345 253.672Z" fill="#263238" stroke="#263238" stroke-linecap="round" stroke-linejoin="round"/>
<path d="M79.0688 238.416C79.0688 238.416 82.0562 247.406 82.1453 247.852C82.2787 248.776 82.3384 249.709 82.3237 250.642C82.3237 251.892 81.5155 253.237 82.9479 254.13C84.3802 255.023 88.315 254.403 90.2824 254.582C92.307 254.717 94.3383 254.717 96.3629 254.582C99.0437 254.492 100.03 253.058 99.4004 252.791C98.7706 252.523 98.5086 253.237 95.5548 251.535C92.6009 249.833 87.4177 247.328 87.2394 246.792C87.061 246.256 86.0801 238.377 86.0801 238.377L79.0688 238.416Z" fill="white" stroke="#263238" stroke-linecap="round" stroke-linejoin="round"/>
<path d="M92.5174 249.861C91.958 251.397 91.6786 253.02 91.6925 254.655C92.1161 254.655 92.5397 254.655 92.9744 254.655C92.9665 253.228 93.1963 251.81 93.6543 250.458L92.5174 249.861Z" fill="#263238"/>
<path d="M86.2362 254.615C86.4627 252.172 87.4138 249.851 88.9671 247.953C88.5212 247.702 88.1367 247.473 87.8524 247.283C86.1855 249.376 85.1802 251.919 84.9655 254.587C85.3612 254.615 85.7903 254.621 86.2362 254.615Z" fill="#263238"/>
<path d="M87.2394 246.781C87.2116 246.697 87.167 246.435 87.1057 246.056C85.4073 246.543 83.6549 246.816 81.889 246.87C82.0339 247.4 82.1287 247.769 82.1454 247.852L82.19 248.148C84.066 248.076 85.9246 247.759 87.7187 247.205C87.5307 247.1 87.3673 246.955 87.2394 246.781Z" fill="#263238"/>
<path d="M72.041 112.236C72.041 112.236 72.4646 116.041 73.256 117.676C74.0474 119.311 75.9479 120.639 75.4853 124.021C75.0227 127.402 72.5259 129.149 71.205 129.417C70.4726 129.573 69.7243 129.643 68.9757 129.623L69.2376 133.378C71.4041 133.297 73.5719 133.5 75.686 133.981C78.4392 134.746 82.9313 136.274 84.9265 136.581C86.9218 136.888 94.5461 137.279 96.0732 138.958C97.6003 140.638 97.2157 142.173 96.3017 143.088C95.3877 144.003 90.5779 143.768 84.241 143.768H77.9097C77.9097 143.768 79.3588 147.513 79.1303 150.191C78.9018 152.869 76.6111 157.607 76.6111 157.607C76.6111 157.607 76.8396 162.958 77.2966 167.093C77.7537 171.228 77.854 173.895 77.854 173.895C77.854 173.895 80.3731 190.942 83.3493 202.258C86.3255 213.574 86.0245 230.465 86.788 233.445C87.5516 236.424 87.9863 239.382 87.9863 239.382C87.9863 239.382 80.6574 240.833 78.0602 240.989C76.7898 241.081 75.5155 241.107 74.2425 241.067L72.7154 226.157C72.7154 226.157 69.7392 206.359 69.5832 206.069C69.4271 205.779 65.1579 191.237 65.1579 191.237L62.4827 217.062L59.9636 240.604L48.4881 239.175L48.7166 210.661C48.7166 210.661 48.1091 194.072 48.2596 187.192C48.4101 180.312 50.5502 174.196 52.4563 171.747C54.3624 169.297 59.0997 162.261 59.0997 162.261L58.2637 157.445L53.805 148.656C53.805 148.656 43.539 156.044 41.7834 157.272C40.0278 158.5 37.882 157.579 37.3247 154.672C36.7674 151.765 50.4165 139.712 52.5566 138.183C54.6968 136.654 62.0313 132.525 62.0313 132.525L61.7248 128.853C61.7248 128.853 59.1276 128.016 58.2136 125.951C57.2995 123.887 60.6547 121.287 60.7327 119.607C60.8107 117.927 59.5121 114.864 61.6467 114.1C63.7813 113.335 72.041 112.236 72.041 112.236Z" fill="white" stroke="#263238" stroke-linecap="round" stroke-linejoin="round"/>
<path d="M74.2424 241.09C75.5155 241.129 76.7898 241.103 78.0602 241.011C80.6573 240.855 87.9863 239.404 87.9863 239.404C87.9863 239.404 87.5293 236.425 86.7657 233.439C86.0022 230.454 86.3087 213.563 83.327 202.253C80.3452 190.942 77.8317 173.89 77.8317 173.89C77.8317 173.89 77.7536 171.211 77.2743 167.088C77.0793 165.347 76.9288 163.388 76.8173 161.708L59.0328 161.865L59.0997 162.266C59.0997 162.266 54.3679 169.303 52.4563 171.752C50.5446 174.202 48.41 180.318 48.2596 187.198C48.1091 194.078 48.7166 210.667 48.7166 210.667L48.4881 239.176L59.9413 240.626L62.4827 217.062L65.1579 191.221C65.1579 191.221 69.4327 205.729 69.5831 206.053C69.7336 206.376 72.7153 226.141 72.7153 226.141L74.2424 241.09Z" fill="#651FFF" stroke="#263238" stroke-linecap="round" stroke-linejoin="round"/>
<path d="M70.8203 167.651L76.271 167.573" stroke="#263238" stroke-linecap="round" stroke-linejoin="round"/>
<path d="M62.9286 167.768L69.4773 167.673" stroke="#263238" stroke-linecap="round" stroke-linejoin="round"/>
<path d="M73.2838 167.667L74.5824 179.134" stroke="#263238" stroke-linecap="round" stroke-linejoin="round"/>
<path d="M74.1812 169.163L77.1685 182.628" stroke="#263238" stroke-linecap="round" stroke-linejoin="round"/>
<path d="M62.0312 168.767L59.4452 178.538" stroke="#263238" stroke-linecap="round" stroke-linejoin="round"/>
<path d="M61.29 180.786L61.1339 182.326" stroke="#263238" stroke-linecap="round" stroke-linejoin="round"/>
<path d="M62.3322 170.363L61.4739 178.939" stroke="#263238" stroke-linecap="round" stroke-linejoin="round"/>
<path d="M64.8235 117.252C65.1501 116.932 65.5415 116.686 65.9713 116.53C66.401 116.374 66.8591 116.312 67.3148 116.348" stroke="#263238" stroke-miterlimit="10"/>
<path d="M70.4971 115.132C70.8632 114.711 71.3752 114.446 71.9294 114.39" stroke="#263238" stroke-miterlimit="10"/>
<path d="M75.8921 117.37C75.8921 117.907 75.7329 118.433 75.4346 118.88C75.1364 119.326 74.7125 119.675 74.2165 119.88C73.7206 120.086 73.1748 120.14 72.6483 120.035C72.1218 119.93 71.6382 119.671 71.2586 119.291C70.879 118.911 70.6205 118.427 70.5158 117.9C70.411 117.373 70.4648 116.826 70.6702 116.33C70.8757 115.833 71.2236 115.409 71.6699 115.11C72.1163 114.812 72.641 114.652 73.1778 114.652C73.8977 114.652 74.5881 114.939 75.0971 115.448C75.6061 115.958 75.8921 116.649 75.8921 117.37Z" stroke="#263238" stroke-linecap="round" stroke-linejoin="round"/>
<path d="M69.0481 123.664C69.5418 123.949 70.0915 124.124 70.6592 124.176C71.2269 124.228 71.7991 124.156 72.3364 123.965" stroke="#263238" stroke-linecap="round" stroke-linejoin="round"/>
<path d="M69.5831 119.646C69.5831 120.183 69.4242 120.707 69.1266 121.153C68.8289 121.599 68.4059 121.947 67.911 122.152C67.416 122.357 66.8714 122.411 66.346 122.306C65.8206 122.202 65.3379 121.943 64.9591 121.564C64.5803 121.185 64.3223 120.702 64.2178 120.176C64.1133 119.649 64.1669 119.104 64.372 118.609C64.577 118.113 64.9241 117.69 65.3696 117.392C65.815 117.094 66.3387 116.935 66.8744 116.935C67.5928 116.935 68.2817 117.22 68.7897 117.729C69.2977 118.237 69.5831 118.927 69.5831 119.646Z" stroke="#263238" stroke-linecap="round" stroke-linejoin="round"/>
<path d="M68.1284 119.49C68.212 119.97 68.0838 120.394 67.833 120.439C67.5822 120.483 67.3147 120.132 67.2255 119.658C67.1364 119.183 67.2701 118.754 67.5209 118.709C67.7717 118.664 68.0392 119.01 68.1284 119.49Z" fill="#263238"/>
<path d="M72.5759 117.9C72.6651 118.374 72.5369 118.798 72.2861 118.843C72.0353 118.888 71.7622 118.542 71.6786 118.062C71.595 117.582 71.7232 117.163 71.9684 117.113C72.2136 117.063 72.4923 117.42 72.5759 117.9Z" fill="#263238"/>
<path d="M64.3163 120.606L60.27 122.514" stroke="#263238" stroke-linecap="round" stroke-linejoin="round"/>
<path d="M69.5106 118.854C69.6044 118.714 69.7324 118.601 69.8823 118.525C70.0322 118.45 70.1991 118.414 70.3669 118.421C70.5347 118.428 70.6979 118.478 70.8407 118.567C70.9835 118.655 71.1013 118.779 71.1826 118.926" stroke="#263238" stroke-linecap="round" stroke-linejoin="round"/>
<path d="M70.224 118.156C70.457 118.518 70.8074 118.788 71.2161 118.921C71.8291 119.077 73.5847 119.228 73.4454 120.07C73.3882 120.417 73.247 120.744 73.0342 121.023C72.8214 121.302 72.5435 121.525 72.2248 121.672" stroke="#263238" stroke-linecap="round" stroke-linejoin="round"/>
<path d="M61.5352 115.199C61.5352 115.199 62.0089 118.357 61.6132 120.416C61.2175 122.475 59.4842 123.256 59.7183 124.919C59.9524 126.582 62.505 129.026 62.505 129.026C61.831 129.839 60.987 130.493 60.0327 130.944C59.0783 131.394 58.0368 131.629 56.9818 131.632C53.2477 131.688 50.16 130.287 50.16 124.049C50.16 117.81 51.0295 110.774 55.5272 108.564C60.0248 106.355 68.4684 107.22 70.3634 107.934C72.2583 108.648 74.3873 111.092 73.6739 112.275C72.9605 113.458 64.6897 115.595 61.5352 115.199Z" fill="#263238" stroke="#263238" stroke-linecap="round" stroke-linejoin="round"/>
<path d="M61.4906 123.508C61.4906 123.508 59.1999 121.521 58.2859 122.514C57.3719 123.508 58.5144 125.265 59.3504 126.259C59.483 126.432 59.6549 126.571 59.8521 126.665C60.0492 126.758 60.2657 126.803 60.4837 126.796C60.7017 126.789 60.9149 126.73 61.1055 126.624C61.2961 126.518 61.4587 126.368 61.5797 126.186" fill="white"/>
<path d="M61.4906 123.508C61.4906 123.508 59.1999 121.521 58.2859 122.514C57.3719 123.508 58.5144 125.265 59.3504 126.259C59.483 126.432 59.6549 126.571 59.8521 126.665C60.0492 126.758 60.2657 126.803 60.4837 126.796C60.7017 126.789 60.9149 126.73 61.1055 126.624C61.2961 126.518 61.4587 126.368 61.5797 126.186" stroke="#263238" stroke-linecap="round" stroke-linejoin="round"/>
<path d="M68.9811 129.629L66.2614 129.261L69.1316 132.726L68.9811 129.629Z" fill="#263238" stroke="#263238" stroke-linecap="round" stroke-linejoin="round"/>
<path d="M94.273 142.92C93.1938 142.793 92.1603 142.41 91.2578 141.804C89.9314 140.845 89.4186 137.898 88.2427 135.761C87.0667 133.624 80.9973 123.212 80.9973 123.212C80.4058 123.184 79.8308 123.007 79.3253 122.699C78.5172 122.18 77.7091 121.516 76.4606 121.37C75.2122 121.225 74.5434 121.443 74.1031 121.298C73.6628 121.153 73.9582 119.897 74.9893 119.624C76.0203 119.351 77.5642 119.92 77.5642 119.92C77.643 119.128 77.5673 118.328 77.3412 117.565C76.9734 116.605 75.725 115.5 74.8388 114.987C73.9526 114.474 72.9996 114.468 73.3674 113.955C73.7353 113.441 74.2536 113.291 75.3571 113.436C76.4606 113.581 78.3723 115.573 78.3723 115.573C78.3723 115.573 80.0443 116.901 80.4288 116.901C80.8134 116.901 82.3461 116.828 83.0818 118.017C83.8174 119.205 84.4751 121.7 84.4026 122.364C84.3597 122.779 84.3597 123.198 84.4026 123.614C84.4026 123.614 92.7013 133.295 94.4346 134.986C96.1679 136.676 97.3774 140.566 97.082 141.542C96.9155 142.102 96.6596 142.632 96.324 143.11" fill="white"/>
<path d="M94.273 142.92C93.1938 142.793 92.1603 142.41 91.2578 141.804C89.9314 140.845 89.4186 137.898 88.2427 135.761C87.0667 133.624 80.9973 123.212 80.9973 123.212C80.4058 123.184 79.8308 123.007 79.3253 122.699C78.5172 122.18 77.7091 121.516 76.4606 121.37C75.2122 121.225 74.5434 121.443 74.1031 121.298C73.6628 121.153 73.9582 119.897 74.9893 119.624C76.0203 119.351 77.5642 119.92 77.5642 119.92C77.643 119.128 77.5673 118.328 77.3412 117.565C76.9734 116.605 75.725 115.5 74.8388 114.987C73.9526 114.474 72.9996 114.468 73.3674 113.955C73.7353 113.441 74.2536 113.291 75.3571 113.436C76.4606 113.581 78.3723 115.573 78.3723 115.573C78.3723 115.573 80.0443 116.901 80.4288 116.901C80.8134 116.901 82.3461 116.828 83.0818 118.017C83.8174 119.205 84.4751 121.7 84.4026 122.364C84.3597 122.779 84.3597 123.198 84.4026 123.614C84.4026 123.614 92.7013 133.295 94.4346 134.986C96.1679 136.676 97.3774 140.566 97.082 141.542C96.9155 142.102 96.6596 142.632 96.324 143.11" stroke="#263238" stroke-linecap="round" stroke-linejoin="round"/>
<path d="M80.0888 116.064C80.0046 115.886 79.876 115.732 79.7154 115.618C78.6007 114.803 78.1548 116.382 78.1883 117.113C78.2378 117.692 78.3868 118.259 78.6286 118.787C78.7066 118.977 78.8404 119.194 79.0577 119.183C79.1109 119.18 79.1628 119.165 79.21 119.14C79.2571 119.115 79.2983 119.081 79.3308 119.038C79.7432 118.575 79.3921 117.861 79.6262 117.308C79.7599 116.985 80.0943 116.75 80.1389 116.393C80.1507 116.281 80.1334 116.168 80.0888 116.064Z" fill="white" stroke="#263238" stroke-linecap="round" stroke-linejoin="round"/>
<path d="M81.5602 116.142C81.4761 115.964 81.3475 115.81 81.1868 115.696C80.0721 114.887 79.6263 116.46 79.6597 117.191C79.7091 117.77 79.8581 118.337 80.1 118.865C80.178 119.049 80.3118 119.272 80.5291 119.261C80.5825 119.256 80.6342 119.24 80.6811 119.214C80.7281 119.188 80.7693 119.153 80.8022 119.111C81.2147 118.653 80.8635 117.939 81.0976 117.386C81.2314 117.063 81.5658 116.828 81.6104 116.466C81.6204 116.355 81.6032 116.244 81.5602 116.142Z" fill="white" stroke="#263238" stroke-linecap="round" stroke-linejoin="round"/>
<path d="M82.9145 116.756C82.8405 116.595 82.7251 116.456 82.5801 116.354C81.5936 115.618 81.1701 117.046 81.1979 117.704C81.2412 118.235 81.3751 118.754 81.5936 119.239C81.6661 119.406 81.7887 119.607 81.9838 119.596C82.0324 119.592 82.0797 119.578 82.1228 119.555C82.1659 119.532 82.204 119.5 82.2346 119.462C82.608 119.049 82.2847 118.402 82.4965 117.9C82.6191 117.61 82.9201 117.381 82.9647 117.068C82.9758 116.962 82.9585 116.854 82.9145 116.756Z" fill="white" stroke="#263238" stroke-linecap="round" stroke-linejoin="round"/>
<path d="M80.7521 120.65C80.8278 121.301 81.0264 121.932 81.3373 122.509C81.717 122.895 82.2285 123.125 82.7696 123.15" stroke="#263238" stroke-linecap="round" stroke-linejoin="round"/>
<path d="M76.6111 157.607C76.6111 157.607 78.9018 152.864 79.1303 150.191C79.3588 147.518 77.9097 143.769 77.9097 143.769C77.9097 143.769 73.5736 135.533 72.3364 133.451C71.7289 133.401 71.1715 133.379 70.6644 133.373C71.1973 134.14 71.6511 134.959 72.0187 135.817C72.2472 136.66 74.1588 141.47 74.1588 141.47L69.3491 146.28L61.9142 142.848C61.6208 140.706 61.0044 138.622 60.0862 136.665C59.6935 135.891 59.2465 135.145 58.7486 134.433L57.7788 134.991C58.0912 135.42 58.3778 135.867 58.6371 136.33C59.9301 138.624 60.2367 143.278 60.2367 143.278C60.2367 143.278 57.3385 147.329 56.653 149.466C56.3621 150.361 56.0063 151.234 55.5885 152.077L58.286 157.428L58.6873 159.727L76.639 158.238C76.6223 157.847 76.6111 157.607 76.6111 157.607Z" fill="#651FFF" stroke="#263238" stroke-linecap="round" stroke-linejoin="round"/>
<path d="M40.3956 150.068C40.3956 150.068 36.3437 153.288 36.2769 154.995C36.21 156.703 49.9817 169.319 51.035 170.061C52.0884 170.804 53.0693 171.044 53.6601 170.781C54.2509 170.519 57.5949 168.616 57.5949 168.616C57.5949 168.616 61.6578 168.287 61.9198 167.896C62.1817 167.506 61.9866 167.433 61.2008 167.366C60.415 167.299 59.4285 167.104 59.2334 167.104C59.0383 167.104 58.0519 166.976 58.0519 166.976C58.0519 166.976 62.4492 165.335 62.7112 165.268C62.9731 165.201 64.1547 165.134 63.954 164.677C63.7534 164.219 62.5105 163.561 61.3959 163.232C60.2812 162.902 57.528 162.64 56.7421 163.232C55.9563 163.823 52.8074 167.5 52.8074 167.5C51.3024 165.779 50.1645 163.768 49.4634 161.591C48.3487 158.042 44.0238 153.104 42.5803 152.105" fill="white"/>
<path d="M40.3956 150.068C40.3956 150.068 36.3437 153.288 36.2769 154.995C36.21 156.703 49.9817 169.319 51.035 170.061C52.0884 170.804 53.0693 171.044 53.6601 170.781C54.2509 170.519 57.5949 168.616 57.5949 168.616C57.5949 168.616 61.6578 168.287 61.9198 167.896C62.1817 167.506 61.9866 167.433 61.2008 167.366C60.415 167.299 59.4285 167.104 59.2334 167.104C59.0383 167.104 58.0519 166.976 58.0519 166.976C58.0519 166.976 62.4492 165.335 62.7112 165.268C62.9731 165.201 64.1547 165.134 63.954 164.677C63.7534 164.219 62.5105 163.561 61.3959 163.232C60.2812 162.902 57.528 162.64 56.7421 163.232C55.9563 163.823 52.8074 167.5 52.8074 167.5C51.3024 165.779 50.1645 163.768 49.4634 161.591C48.3487 158.042 44.0238 153.104 42.5803 152.105" stroke="#263238" stroke-linecap="round" stroke-linejoin="round"/>
<path d="M57.8568 165.581C57.8568 165.581 59.4954 164.989 60.6769 164.593C61.8585 164.197 62.7725 163.873 63.3633 164.264" stroke="#263238" stroke-linecap="round" stroke-linejoin="round"/>
<path d="M57.3329 164.331C58.6341 163.787 59.9995 163.412 61.3958 163.215" stroke="#263238" stroke-linecap="round" stroke-linejoin="round"/>
<path d="M56.9373 163.673C57.5292 163.303 58.1686 163.016 58.8378 162.819" stroke="#263238" stroke-linecap="round" stroke-linejoin="round"/>
</svg>
