<svg width="405" height="289" viewBox="0 0 405 289" fill="none" xmlns="http://www.w3.org/2000/svg">
<path d="M272.507 249.436H392.271" stroke="#263238" stroke-miterlimit="10"/>
<path d="M43.9714 249.436H267.3" stroke="#263238" stroke-miterlimit="10"/>
<path d="M33.8175 249.436H38.7643" stroke="#263238" stroke-miterlimit="10"/>
<path d="M358.871 147.396L366.924 224.519" stroke="#263238" stroke-width="2" stroke-miterlimit="10"/>
<path d="M365.628 209.756L361.972 205.907" stroke="#263238" stroke-width="2" stroke-miterlimit="10"/>
<path d="M363.083 207.057C363.075 206.468 362.942 205.887 362.692 205.354C362.441 204.82 362.079 204.347 361.63 203.965C360.693 203.127 355.758 201.075 355.266 202.809C354.78 204.681 359.831 208.386 363.083 207.057Z" fill="#651FFF" stroke="#263238" stroke-miterlimit="10"/>
<path d="M363.083 207.057L358.385 204.138" stroke="#263238" stroke-width="0.5" stroke-miterlimit="10"/>
<path d="M366.542 218.531L362.892 214.675" stroke="#263238" stroke-width="2" stroke-miterlimit="10"/>
<path d="M363.997 215.831C363.991 215.241 363.859 214.659 363.608 214.124C363.357 213.59 362.995 213.115 362.544 212.733C361.607 211.901 356.672 209.843 356.18 211.577C355.7 213.45 360.745 217.155 363.997 215.831Z" fill="#651FFF" stroke="#263238" stroke-miterlimit="10"/>
<path d="M363.997 215.831L359.304 212.906" stroke="#263238" stroke-width="0.5" stroke-miterlimit="10"/>
<path d="M363.389 188.359L359.738 184.503" stroke="#263238" stroke-width="2" stroke-miterlimit="10"/>
<path d="M360.849 185.659C360.841 185.069 360.707 184.487 360.456 183.953C360.204 183.418 359.841 182.944 359.391 182.561C358.454 181.729 353.524 179.671 353.056 181.405C352.547 183.278 357.598 186.983 360.849 185.659Z" fill="#651FFF" stroke="#263238" stroke-miterlimit="10"/>
<path d="M360.849 185.66L356.151 182.735" stroke="#263238" stroke-width="0.5" stroke-miterlimit="10"/>
<path d="M364.309 197.127L360.653 193.272" stroke="#263238" stroke-width="2" stroke-miterlimit="10"/>
<path d="M361.763 194.428C361.756 193.838 361.623 193.258 361.373 192.724C361.122 192.191 360.76 191.717 360.311 191.335C359.374 190.497 354.439 188.445 353.947 190.179C353.461 192.046 358.512 195.757 361.763 194.428Z" fill="#651FFF" stroke="#263238" stroke-miterlimit="10"/>
<path d="M361.763 194.428L357.065 191.503" stroke="#263238" stroke-width="0.5" stroke-miterlimit="10"/>
<path d="M361.902 174.111L358.251 170.256" stroke="#263238" stroke-width="2" stroke-miterlimit="10"/>
<path d="M359.356 171.412C359.351 170.822 359.218 170.24 358.968 169.705C358.717 169.17 358.355 168.696 357.904 168.314C356.967 167.481 352.032 165.424 351.54 167.158C351.06 169.031 356.105 172.735 359.356 171.412Z" fill="#651FFF" stroke="#263238" stroke-miterlimit="10"/>
<path d="M359.357 171.412L354.664 168.487" stroke="#263238" stroke-width="0.5" stroke-miterlimit="10"/>
<path d="M360.41 159.8L356.753 155.944" stroke="#263238" stroke-width="2" stroke-miterlimit="10"/>
<path d="M357.864 157.1C357.857 156.511 357.723 155.931 357.473 155.397C357.222 154.864 356.861 154.39 356.412 154.008C355.474 153.17 350.539 151.118 350.047 152.852C349.561 154.719 354.612 158.43 357.864 157.1Z" fill="#651FFF" stroke="#263238" stroke-miterlimit="10"/>
<path d="M357.864 157.1L353.166 154.176" stroke="#263238" stroke-width="0.5" stroke-miterlimit="10"/>
<path d="M365.009 204.572L367.786 200.046" stroke="#263238" stroke-width="2" stroke-miterlimit="10"/>
<path d="M366.942 201.404C366.826 200.826 366.836 200.229 366.971 199.655C367.106 199.081 367.362 198.542 367.723 198.075C368.469 197.064 372.866 194.029 373.682 195.619C374.573 197.364 370.396 202.034 366.942 201.404Z" fill="#651FFF" stroke="#263238" stroke-miterlimit="10"/>
<path d="M366.942 201.404L371.171 197.364" stroke="#263238" stroke-width="0.5" stroke-miterlimit="10"/>
<path d="M362.602 181.486L365.379 176.966" stroke="#263238" stroke-width="2" stroke-miterlimit="10"/>
<path d="M364.529 178.325C364.415 177.746 364.427 177.149 364.562 176.575C364.698 176.001 364.955 175.462 365.316 174.995C366.056 173.984 370.459 170.949 371.275 172.539C372.16 174.284 367.971 178.949 364.529 178.325Z" fill="#651FFF" stroke="#263238" stroke-miterlimit="10"/>
<path d="M364.529 178.325L368.758 174.285" stroke="#263238" stroke-width="0.5" stroke-miterlimit="10"/>
<path d="M361.543 171.349L364.321 166.823" stroke="#263238" stroke-width="2" stroke-miterlimit="10"/>
<path d="M363.47 168.198C363.356 167.62 363.367 167.024 363.501 166.449C363.636 165.875 363.892 165.337 364.251 164.869C364.998 163.857 369.395 160.823 370.216 162.412C371.101 164.152 366.93 168.811 363.47 168.198Z" fill="#651FFF" stroke="#263238" stroke-miterlimit="10"/>
<path d="M363.47 168.181L367.7 164.141" stroke="#263238" stroke-width="0.5" stroke-miterlimit="10"/>
<path d="M359.987 156.476L362.764 151.951" stroke="#263238" stroke-width="2" stroke-miterlimit="10"/>
<path d="M361.919 153.314C361.804 152.736 361.814 152.139 361.949 151.565C362.083 150.991 362.34 150.452 362.701 149.985C363.447 148.974 367.844 145.939 368.66 147.529C369.551 149.268 365.374 153.939 361.919 153.314Z" fill="#651FFF" stroke="#263238" stroke-miterlimit="10"/>
<path d="M361.92 153.315L366.149 149.274" stroke="#263238" stroke-width="0.5" stroke-miterlimit="10"/>
<path d="M358.801 146.968C358.686 146.391 358.695 145.795 358.83 145.222C358.965 144.648 359.221 144.111 359.582 143.645C360.328 142.633 364.726 139.599 365.541 141.188C366.432 142.928 362.255 147.598 358.801 146.968Z" fill="#651FFF" stroke="#263238" stroke-miterlimit="10"/>
<path d="M358.801 146.968L363.03 142.934" stroke="#263238" stroke-width="0.5" stroke-miterlimit="10"/>
<path d="M359.044 147.141C358.457 147.196 357.865 147.125 357.308 146.931C356.751 146.738 356.242 146.427 355.816 146.02C354.884 145.17 352.344 140.483 353.993 139.841C355.821 139.136 360.033 143.777 359.044 147.141Z" fill="#651FFF" stroke="#263238" stroke-miterlimit="10"/>
<path d="M359.044 147.142L355.469 142.518" stroke="#263238" stroke-width="0.5" stroke-miterlimit="10"/>
<path d="M380.116 158.02L372.108 235.142" stroke="#263238" stroke-width="2" stroke-miterlimit="10"/>
<path d="M373.879 220.432L371.096 215.912" stroke="#263238" stroke-width="2" stroke-miterlimit="10"/>
<path d="M371.946 217.27C372.06 216.692 372.048 216.095 371.913 215.521C371.777 214.947 371.52 214.408 371.159 213.941C370.413 212.93 366.016 209.895 365.2 211.49C364.309 213.23 368.486 217.906 371.946 217.27Z" fill="#651FFF" stroke="#263238" stroke-miterlimit="10"/>
<path d="M371.946 217.27L367.954 213.444" stroke="#263238" stroke-width="0.5" stroke-miterlimit="10"/>
<path d="M376.1 199.029L373.323 194.509" stroke="#263238" stroke-width="2" stroke-miterlimit="10"/>
<path d="M374.168 195.867C374.282 195.288 374.27 194.692 374.134 194.118C373.999 193.543 373.742 193.005 373.381 192.538C372.64 191.526 368.238 188.492 367.422 190.087C366.537 191.827 370.714 196.52 374.168 195.867Z" fill="#651FFF" stroke="#263238" stroke-miterlimit="10"/>
<path d="M374.168 195.867L370.176 192.041" stroke="#263238" stroke-width="0.5" stroke-miterlimit="10"/>
<path d="M375.186 207.803L372.409 203.277" stroke="#263238" stroke-width="2" stroke-miterlimit="10"/>
<path d="M373.259 204.612C373.373 204.034 373.362 203.439 373.226 202.865C373.091 202.292 372.834 201.755 372.473 201.289C371.726 200.277 367.329 197.243 366.513 198.832C365.622 200.601 369.8 205.266 373.259 204.612Z" fill="#651FFF" stroke="#263238" stroke-miterlimit="10"/>
<path d="M373.26 204.635L369.262 200.809" stroke="#263238" stroke-width="0.5" stroke-miterlimit="10"/>
<path d="M377.582 184.781L374.799 180.261" stroke="#263238" stroke-width="2" stroke-miterlimit="10"/>
<path d="M375.649 181.619C375.763 181.04 375.751 180.444 375.616 179.87C375.48 179.295 375.223 178.757 374.862 178.29C374.116 177.278 369.719 174.244 368.903 175.839C368.012 177.579 372.189 182.249 375.649 181.619Z" fill="#651FFF" stroke="#263238" stroke-miterlimit="10"/>
<path d="M375.649 181.619L371.657 177.787" stroke="#263238" stroke-width="0.5" stroke-miterlimit="10"/>
<path d="M379.068 170.47L376.285 165.95" stroke="#263238" stroke-width="2" stroke-miterlimit="10"/>
<path d="M377.136 167.308C377.25 166.729 377.238 166.133 377.102 165.559C376.967 164.984 376.71 164.446 376.349 163.979C375.603 162.967 371.206 159.933 370.39 161.528C369.499 163.268 373.676 167.938 377.136 167.308Z" fill="#651FFF" stroke="#263238" stroke-miterlimit="10"/>
<path d="M377.136 167.308L373.138 163.482" stroke="#263238" stroke-width="0.5" stroke-miterlimit="10"/>
<path d="M374.347 215.23L377.998 211.375" stroke="#263238" stroke-width="2" stroke-miterlimit="10"/>
<path d="M376.887 212.531C376.895 211.941 377.028 211.359 377.278 210.825C377.529 210.291 377.891 209.816 378.339 209.432C379.277 208.594 384.206 206.542 384.704 208.276C385.19 210.143 380.121 213.86 376.887 212.531Z" fill="#651FFF" stroke="#263238" stroke-miterlimit="10"/>
<path d="M376.887 212.531L381.857 209.444" stroke="#263238" stroke-width="0.5" stroke-miterlimit="10"/>
<path d="M376.743 192.145L380.393 188.29" stroke="#263238" stroke-width="2" stroke-miterlimit="10"/>
<path d="M379.282 189.446C379.29 188.857 379.423 188.276 379.673 187.742C379.924 187.209 380.286 186.735 380.735 186.353C381.672 185.515 386.607 183.463 387.099 185.197C387.585 187.059 382.54 190.769 379.282 189.446Z" fill="#651FFF" stroke="#263238" stroke-miterlimit="10"/>
<path d="M379.282 189.445L384.252 186.365" stroke="#263238" stroke-width="0.5" stroke-miterlimit="10"/>
<path d="M377.796 182.007L381.446 178.146" stroke="#263238" stroke-width="2" stroke-miterlimit="10"/>
<path d="M380.335 179.302C380.343 178.713 380.476 178.132 380.726 177.598C380.977 177.065 381.339 176.591 381.788 176.209C382.725 175.371 387.66 173.319 388.152 175.053C388.638 176.92 383.593 180.631 380.335 179.302Z" fill="#651FFF" stroke="#263238" stroke-miterlimit="10"/>
<path d="M380.335 179.301L385.311 176.221" stroke="#263238" stroke-width="0.5" stroke-miterlimit="10"/>
<path d="M379.34 167.135L382.991 163.279" stroke="#263238" stroke-width="2" stroke-miterlimit="10"/>
<path d="M381.857 164.435C381.865 163.845 381.998 163.264 382.248 162.73C382.499 162.195 382.861 161.721 383.309 161.337C384.247 160.499 389.182 158.447 389.674 160.181C390.183 162.048 385.138 165.759 381.857 164.435Z" fill="#651FFF" stroke="#263238" stroke-miterlimit="10"/>
<path d="M381.88 164.435L386.856 161.349" stroke="#263238" stroke-width="0.5" stroke-miterlimit="10"/>
<path d="M380.121 157.586C380.129 156.996 380.262 156.415 380.513 155.88C380.763 155.346 381.125 154.872 381.574 154.488C382.511 153.656 387.44 151.598 387.938 153.332C388.441 155.199 383.39 158.91 380.121 157.586Z" fill="#651FFF" stroke="#263238" stroke-miterlimit="10"/>
<path d="M380.139 157.586L385.109 154.505" stroke="#263238" stroke-width="0.5" stroke-miterlimit="10"/>
<path d="M380.341 157.794C379.755 157.725 379.191 157.531 378.686 157.226C378.181 156.921 377.747 156.512 377.414 156.025C376.679 155.008 375.099 149.893 376.905 149.61C378.837 149.309 382.002 154.713 380.341 157.794Z" fill="#651FFF" stroke="#263238" stroke-miterlimit="10"/>
<path d="M380.341 157.806L377.796 152.546" stroke="#263238" stroke-width="0.5" stroke-miterlimit="10"/>
<path d="M370.934 126.617V224.143" stroke="#263238" stroke-width="2" stroke-miterlimit="10"/>
<path d="M371.015 209.479L367.781 205.265" stroke="#263238" stroke-width="2" stroke-miterlimit="10"/>
<path d="M368.764 206.531C368.819 205.944 368.747 205.351 368.554 204.794C368.36 204.237 368.049 203.727 367.642 203.3C366.797 202.37 362.105 199.798 361.457 201.474C360.757 203.3 365.391 207.502 368.764 206.531Z" fill="#651FFF" stroke="#263238" stroke-miterlimit="10"/>
<path d="M368.764 206.531L364.396 203.132" stroke="#263238" stroke-width="0.5" stroke-miterlimit="10"/>
<path d="M371.015 191.151L367.781 186.937" stroke="#263238" stroke-width="2" stroke-miterlimit="10"/>
<path d="M368.764 188.203C368.819 187.615 368.747 187.023 368.554 186.466C368.36 185.908 368.049 185.399 367.642 184.972C366.797 184.041 362.105 181.469 361.457 183.145C360.757 184.96 365.391 189.185 368.764 188.203Z" fill="#651FFF" stroke="#263238" stroke-miterlimit="10"/>
<path d="M368.764 188.203L364.396 184.804" stroke="#263238" stroke-width="0.5" stroke-miterlimit="10"/>
<path d="M371.015 169.632L367.781 165.418" stroke="#263238" stroke-width="2" stroke-miterlimit="10"/>
<path d="M368.764 166.684C368.819 166.096 368.747 165.504 368.554 164.947C368.36 164.389 368.049 163.88 367.642 163.453C366.797 162.528 362.105 159.95 361.457 161.632C360.757 163.453 365.391 167.666 368.764 166.684Z" fill="#651FFF" stroke="#263238" stroke-miterlimit="10"/>
<path d="M368.764 166.684L364.396 163.285" stroke="#263238" stroke-width="0.5" stroke-miterlimit="10"/>
<path d="M371.015 155.309L367.781 151.095" stroke="#263238" stroke-width="2" stroke-miterlimit="10"/>
<path d="M368.764 152.361C368.819 151.773 368.747 151.181 368.554 150.624C368.36 150.066 368.049 149.557 367.642 149.13C366.797 148.199 362.105 145.627 361.457 147.303C360.757 149.124 365.391 153.343 368.764 152.361Z" fill="#651FFF" stroke="#263238" stroke-miterlimit="10"/>
<path d="M368.764 152.361L364.396 148.962" stroke="#263238" stroke-width="0.5" stroke-miterlimit="10"/>
<path d="M371.015 140.922L367.781 136.708" stroke="#263238" stroke-width="2" stroke-miterlimit="10"/>
<path d="M368.764 137.969C368.819 137.382 368.747 136.791 368.553 136.234C368.36 135.678 368.049 135.17 367.642 134.744C366.797 133.813 362.105 131.241 361.457 132.917C360.757 134.744 365.391 138.951 368.764 137.969Z" fill="#651FFF" stroke="#263238" stroke-miterlimit="10"/>
<path d="M368.764 137.969L364.396 134.576" stroke="#263238" stroke-width="0.5" stroke-miterlimit="10"/>
<path d="M370.945 215.074L374.174 210.86" stroke="#263238" stroke-width="2" stroke-miterlimit="10"/>
<path d="M373.178 212.126C373.13 211.536 373.208 210.943 373.407 210.385C373.607 209.828 373.923 209.32 374.336 208.895C375.18 207.97 379.873 205.392 380.515 207.074C381.203 208.895 376.563 213.109 373.178 212.126Z" fill="#651FFF" stroke="#263238" stroke-miterlimit="10"/>
<path d="M373.19 212.126L377.819 208.548" stroke="#263238" stroke-width="0.5" stroke-miterlimit="10"/>
<path d="M370.945 185.926L374.174 181.712" stroke="#263238" stroke-width="2" stroke-miterlimit="10"/>
<path d="M373.179 182.978C373.129 182.388 373.207 181.794 373.407 181.237C373.606 180.679 373.923 180.171 374.336 179.747C375.181 178.816 379.873 176.244 380.515 177.92C381.203 179.758 376.563 183.96 373.179 182.978Z" fill="#651FFF" stroke="#263238" stroke-miterlimit="10"/>
<path d="M373.19 182.978L377.819 179.4" stroke="#263238" stroke-width="0.5" stroke-miterlimit="10"/>
<path d="M370.945 171.539L374.174 167.325" stroke="#263238" stroke-width="2" stroke-miterlimit="10"/>
<path d="M373.179 168.591C373.129 168.001 373.207 167.408 373.407 166.851C373.606 166.293 373.923 165.785 374.336 165.36C375.181 164.43 379.873 161.858 380.515 163.534C381.203 165.36 376.563 169.574 373.179 168.591Z" fill="#651FFF" stroke="#263238" stroke-miterlimit="10"/>
<path d="M373.19 168.591L377.819 165.013" stroke="#263238" stroke-width="0.5" stroke-miterlimit="10"/>
<path d="M370.945 152.523L374.174 148.309" stroke="#263238" stroke-width="2" stroke-miterlimit="10"/>
<path d="M373.179 149.575C373.129 148.985 373.207 148.392 373.407 147.834C373.606 147.277 373.923 146.769 374.336 146.344C375.181 145.414 379.873 142.842 380.515 144.518C381.203 146.344 376.563 150.558 373.179 149.575Z" fill="#651FFF" stroke="#263238" stroke-miterlimit="10"/>
<path d="M373.19 149.575L377.819 145.997" stroke="#263238" stroke-width="0.5" stroke-miterlimit="10"/>
<path d="M370.945 137.57L374.174 133.362" stroke="#263238" stroke-width="2" stroke-miterlimit="10"/>
<path d="M373.179 134.622C373.129 134.033 373.207 133.44 373.407 132.884C373.607 132.328 373.923 131.821 374.336 131.397C375.18 130.466 379.873 127.888 380.515 129.57C381.203 131.397 376.563 135.605 373.179 134.622Z" fill="#651FFF" stroke="#263238" stroke-miterlimit="10"/>
<path d="M373.19 134.622L377.819 131.044" stroke="#263238" stroke-width="0.5" stroke-miterlimit="10"/>
<path d="M370.749 127.992C370.695 127.405 370.768 126.813 370.962 126.256C371.155 125.699 371.465 125.189 371.871 124.761C372.721 123.836 377.408 121.259 378.056 122.941C378.762 124.761 374.122 128.975 370.749 127.992Z" fill="#651FFF" stroke="#263238" stroke-miterlimit="10"/>
<path d="M370.749 127.992L375.377 124.415" stroke="#263238" stroke-width="0.5" stroke-miterlimit="10"/>
<path d="M370.974 128.189C370.384 128.182 369.803 128.049 369.269 127.799C368.735 127.548 368.261 127.187 367.879 126.738C367.04 125.796 364.986 120.866 366.722 120.38C368.602 119.895 372.305 124.946 370.974 128.189Z" fill="#651FFF" stroke="#263238" stroke-miterlimit="10"/>
<path d="M370.974 128.189L367.896 123.218" stroke="#263238" stroke-width="0.5" stroke-miterlimit="10"/>
<path d="M374.955 249.436H364.616L363.32 223.351H376.245L374.955 249.436Z" fill="#263238" stroke="#263238" stroke-miterlimit="10"/>
<path d="M156.122 45.4194H150.637V48.0378H156.122V45.4194Z" stroke="#263238" stroke-miterlimit="10"/>
<path d="M162.561 45.4194H157.076V48.0378H162.561V45.4194Z" stroke="#263238" stroke-miterlimit="10"/>
<path d="M169.001 45.4194H163.516V48.0378H169.001V45.4194Z" stroke="#263238" stroke-miterlimit="10"/>
<path d="M175.44 45.4194H169.955V48.0378H175.44V45.4194Z" stroke="#263238" stroke-miterlimit="10"/>
<path d="M181.874 45.4194H176.389V48.0378H181.874V45.4194Z" stroke="#263238" stroke-miterlimit="10"/>
<path d="M188.313 45.4194H182.829V48.0378H188.313V45.4194Z" stroke="#263238" stroke-miterlimit="10"/>
<path d="M194.753 45.4194H189.268V48.0378H194.753V45.4194Z" stroke="#263238" stroke-miterlimit="10"/>
<path d="M201.187 45.4194H195.702V48.0378H201.187V45.4194Z" stroke="#263238" stroke-miterlimit="10"/>
<path d="M156.122 49.708H150.637V52.3263H156.122V49.708Z" stroke="#263238" stroke-miterlimit="10"/>
<path d="M162.561 49.708H157.076V52.3263H162.561V49.708Z" stroke="#263238" stroke-miterlimit="10"/>
<path d="M169.001 49.708H163.516V52.3263H169.001V49.708Z" stroke="#263238" stroke-miterlimit="10"/>
<path d="M175.44 49.708H169.955V52.3263H175.44V49.708Z" stroke="#263238" stroke-miterlimit="10"/>
<path d="M181.874 49.708H176.389V52.3263H181.874V49.708Z" stroke="#263238" stroke-miterlimit="10"/>
<path d="M188.313 49.708H182.829V52.3263H188.313V49.708Z" stroke="#263238" stroke-miterlimit="10"/>
<path d="M194.753 49.708H189.268V52.3263H194.753V49.708Z" stroke="#263238" stroke-miterlimit="10"/>
<path d="M201.187 49.708H195.702V52.3263H201.187V49.708Z" stroke="#263238" stroke-miterlimit="10"/>
<path d="M156.122 53.9966H150.637V56.6149H156.122V53.9966Z" stroke="#263238" stroke-miterlimit="10"/>
<path d="M162.561 53.9966H157.076V56.6149H162.561V53.9966Z" stroke="#263238" stroke-miterlimit="10"/>
<path d="M169.001 53.9966H163.516V56.6149H169.001V53.9966Z" stroke="#263238" stroke-miterlimit="10"/>
<path d="M175.44 53.9966H169.955V56.6149H175.44V53.9966Z" stroke="#263238" stroke-miterlimit="10"/>
<path d="M181.874 53.9966H176.389V56.6149H181.874V53.9966Z" stroke="#263238" stroke-miterlimit="10"/>
<path d="M188.313 53.9966H182.829V56.6149H188.313V53.9966Z" stroke="#263238" stroke-miterlimit="10"/>
<path d="M194.753 53.9966H189.268V56.6149H194.753V53.9966Z" stroke="#263238" stroke-miterlimit="10"/>
<path d="M201.187 53.9966H195.702V56.6149H201.187V53.9966Z" stroke="#263238" stroke-miterlimit="10"/>
<path d="M156.122 58.2856H150.637V60.904H156.122V58.2856Z" stroke="#263238" stroke-miterlimit="10"/>
<path d="M162.561 58.2856H157.076V60.904H162.561V58.2856Z" stroke="#263238" stroke-miterlimit="10"/>
<path d="M181.4 58.2856H163.516V60.904H181.4V58.2856Z" stroke="#263238" stroke-miterlimit="10"/>
<path d="M188.313 58.2856H182.829V60.904H188.313V58.2856Z" stroke="#263238" stroke-miterlimit="10"/>
<path d="M194.753 58.2856H189.268V60.904H194.753V58.2856Z" stroke="#263238" stroke-miterlimit="10"/>
<path d="M201.187 58.2856H195.702V60.904H201.187V58.2856Z" stroke="#263238" stroke-miterlimit="10"/>
<path d="M207.377 89.8733C207.377 89.8733 222.264 69.0653 244.985 57.147" stroke="#263238" stroke-miterlimit="10"/>
<path d="M229.305 67.4238L230.387 50.9219" stroke="#263238" stroke-miterlimit="10"/>
<path d="M223.896 72.2095L239.644 73.6429" stroke="#263238" stroke-miterlimit="10"/>
<path d="M229.623 58.9849C229.623 58.9849 225.863 57.0197 226.042 50.9392C226.223 47.1955 227.747 43.6419 230.335 40.9282C232.287 43.7975 233.461 47.1232 233.743 50.5808C234.096 56.1238 229.623 58.9849 229.623 58.9849Z" stroke="#263238" stroke-miterlimit="10"/>
<path d="M217.097 71.1402C217.097 71.1402 213.343 69.175 213.516 63.0945C213.699 59.35 215.225 55.7963 217.815 53.0835C219.761 55.9546 220.931 59.2798 221.211 62.7361C221.593 68.2791 217.097 71.1402 217.097 71.1402Z" stroke="#263238" stroke-miterlimit="10"/>
<path d="M232.84 72.9262C233.687 71.9577 234.733 71.1844 235.908 70.6595C237.083 70.1346 238.358 69.8706 239.644 69.8859C244.117 69.8859 248.589 75.9664 248.589 75.9664C245.51 77.106 242.227 77.5922 238.95 77.3941C233.558 77.0357 232.84 72.9262 232.84 72.9262Z" stroke="#263238" stroke-miterlimit="10"/>
<path d="M238.209 61.4879C238.209 61.4879 236.422 55.9449 242.144 53.6213C245.451 52.2268 249.17 52.1626 252.523 53.4421C252.523 53.4421 252.523 59.3435 247.316 61.6671C242.109 63.9906 238.209 61.4879 238.209 61.4879Z" stroke="#263238" stroke-miterlimit="10"/>
<path d="M217.635 77.9316L217.277 64.1694" stroke="#263238" stroke-miterlimit="10"/>
<path d="M342.451 53.1299H314.754V70.5624H330.445L329.93 78.5214L336.086 70.5624H342.451V53.1299Z" stroke="#263238" stroke-miterlimit="10"/>
<path d="M357.291 73.2153H338.279V85.1857H349.047L348.694 90.6478L352.923 85.1857H357.291V73.2153Z" stroke="#263238" stroke-miterlimit="10"/>
<path d="M324.422 61.8458C324.422 62.1465 324.333 62.4404 324.166 62.6904C323.999 62.9404 323.761 63.1352 323.483 63.2503C323.205 63.3653 322.899 63.3954 322.604 63.3368C322.309 63.2781 322.038 63.1333 321.825 62.9207C321.612 62.7081 321.467 62.4373 321.408 62.1424C321.35 61.8475 321.38 61.5419 321.495 61.2641C321.61 60.9863 321.805 60.7489 322.055 60.5819C322.306 60.4148 322.6 60.3257 322.901 60.3257C323.101 60.3249 323.299 60.3637 323.484 60.4399C323.669 60.516 323.837 60.6279 323.978 60.7692C324.12 60.9105 324.232 61.0784 324.308 61.2632C324.384 61.448 324.423 61.646 324.422 61.8458V61.8458Z" stroke="#263238" stroke-miterlimit="10"/>
<path d="M330.868 61.8458C330.867 62.1451 330.777 62.4373 330.609 62.6856C330.442 62.9338 330.205 63.127 329.928 63.2408C329.651 63.3545 329.346 63.3837 329.053 63.3246C328.759 63.2655 328.489 63.1208 328.278 62.9088C328.066 62.6968 327.923 62.427 327.865 62.1334C327.807 61.8398 327.837 61.5356 327.952 61.2592C328.067 60.9828 328.261 60.7466 328.51 60.5805C328.759 60.4144 329.052 60.3257 329.352 60.3257C329.551 60.3257 329.749 60.365 329.933 60.4415C330.118 60.518 330.285 60.63 330.426 60.7713C330.567 60.9125 330.678 61.0801 330.754 61.2645C330.83 61.4489 330.868 61.6465 330.868 61.8458V61.8458Z" stroke="#263238" stroke-miterlimit="10"/>
<path d="M337.307 61.8458C337.306 62.1451 337.216 62.4373 337.049 62.6856C336.882 62.9338 336.645 63.127 336.368 63.2408C336.091 63.3545 335.786 63.3837 335.492 63.3246C335.199 63.2655 334.929 63.1208 334.718 62.9088C334.506 62.6968 334.362 62.427 334.304 62.1334C334.246 61.8398 334.277 61.5356 334.392 61.2592C334.506 60.9828 334.701 60.7466 334.95 60.5805C335.199 60.4144 335.492 60.3257 335.791 60.3257C335.991 60.3257 336.189 60.365 336.373 60.4415C336.557 60.518 336.725 60.63 336.865 60.7713C337.006 60.9125 337.118 61.0801 337.194 61.2645C337.269 61.4489 337.308 61.6465 337.307 61.8458V61.8458Z" stroke="#263238" stroke-miterlimit="10"/>
<path d="M37.9427 103.988H58.9102V117.189H47.0321L47.4197 123.212L42.7623 117.189H37.9427V103.988Z" stroke="#263238" stroke-miterlimit="10"/>
<path d="M26.7069 119.195H41.1018V128.258H32.9497L33.2158 132.397L30.0163 128.258H26.7069V119.195Z" stroke="#263238" stroke-miterlimit="10"/>
<path d="M52.7427 111.739C53.3785 111.739 53.894 111.224 53.894 110.589C53.894 109.953 53.3785 109.438 52.7427 109.438C52.1068 109.438 51.5913 109.953 51.5913 110.589C51.5913 111.224 52.1068 111.739 52.7427 111.739Z" stroke="#263238" stroke-miterlimit="10"/>
<path d="M47.8595 111.739C48.4954 111.739 49.0108 111.224 49.0108 110.589C49.0108 109.953 48.4954 109.438 47.8595 109.438C47.2236 109.438 46.7081 109.953 46.7081 110.589C46.7081 111.224 47.2236 111.739 47.8595 111.739Z" stroke="#263238" stroke-miterlimit="10"/>
<path d="M42.9763 111.739C43.6122 111.739 44.1277 111.224 44.1277 110.589C44.1277 109.953 43.6122 109.438 42.9763 109.438C42.3404 109.438 41.825 109.953 41.825 110.589C41.825 111.224 42.3404 111.739 42.9763 111.739Z" stroke="#263238" stroke-miterlimit="10"/>
<path d="M64.0017 64.9675C63.9081 64.6803 63.865 64.3792 63.8744 64.0773C63.8744 60.8926 66.3738 60.6093 66.3738 56.9795C66.3738 55.9391 65.9572 55.5403 65.2167 55.5403C64.4761 55.5403 64.0595 55.9391 64.0595 56.9795V58.5574H61.9072V57.124C61.9072 54.812 63.0644 53.4595 65.2861 53.4595C67.5078 53.4595 68.6592 54.7947 68.6592 57.124C68.6592 60.9099 65.9514 61.4937 65.9514 64.1583C65.9494 64.4301 65.9766 64.7014 66.0324 64.9675H64.0017ZM66.1019 65.9905V68.2043H63.8975V65.9963L66.1019 65.9905Z" stroke="#263238" stroke-miterlimit="10"/>
<path d="M139.436 220.045C139.342 219.756 139.299 219.452 139.309 219.149C139.309 215.964 141.808 215.681 141.808 212.051C141.808 211.01 141.391 210.617 140.651 210.617C139.91 210.617 139.494 211.01 139.494 212.051V213.635H137.33V212.201C137.33 209.889 138.487 208.537 140.703 208.537C142.919 208.537 144.076 209.866 144.076 212.201C144.076 215.987 141.368 216.571 141.368 219.235C141.366 219.508 141.395 219.779 141.455 220.045H139.436ZM141.542 221.068V223.27H139.332V221.068H141.542Z" stroke="#263238" stroke-miterlimit="10"/>
<path d="M115.315 156.453H149.225V180.336H115.315V249.262H89.0421V82.249H158.529V106.109H115.315V156.453Z" fill="#651FFF" stroke="#263238" stroke-miterlimit="10"/>
<path d="M155.647 88.7114V103.219H112.422V159.343H133.251" stroke="#263238" stroke-miterlimit="10"/>
<path d="M91.9349 110.785V85.1392H155.647V87.4743" stroke="#263238" stroke-miterlimit="10"/>
<path d="M91.9349 233.795V114.01" stroke="#263238" stroke-miterlimit="10"/>
<path d="M112.422 194.612V246.372H91.9349V237.269" stroke="#263238" stroke-miterlimit="10"/>
<path d="M112.422 185.931V190.89" stroke="#263238" stroke-miterlimit="10"/>
<path d="M136.728 159.343H146.332V177.423H112.422V183.7" stroke="#263238" stroke-miterlimit="10"/>
<path d="M253.119 249.262H226.609L222.073 218.963H189.829L185.293 249.262H161.173L187.92 82.249H226.372L253.119 249.262ZM193.173 196.294H218.492L205.833 111.837L193.173 196.294Z" fill="#651FFF" stroke="#263238" stroke-miterlimit="10"/>
<path d="M167.143 230.263L180.96 143.985M226.927 231.87L224.567 216.073H187.336L182.828 246.372H164.563L166.628 233.564M246.79 227.951L249.74 246.372H229.114L227.309 234.333M231.556 132.859L246.28 224.842M181.631 139.795L190.385 85.1392H223.907L230.723 127.663M219.151 180.758L208.737 109.542H203.015L189.823 199.184H221.853L219.776 184.994" stroke="#263238" stroke-miterlimit="10"/>
<path d="M262.914 122.333C262.914 95.6126 277.003 80.3418 302.795 80.3418C328.588 80.3418 342.682 95.6126 342.682 122.333V209.178C342.682 218.484 341.01 226.356 337.666 232.564C338.858 235.662 340.773 236.142 345.072 236.142H347.455V259.522H343.874C332.169 259.522 324.781 255.227 321.188 248.072C315.284 250.164 309.06 251.212 302.795 251.17C277.003 251.17 262.914 235.905 262.914 209.178V122.333ZM289.182 210.848C289.182 222.778 294.441 227.31 302.795 227.31C311.15 227.31 316.409 222.778 316.409 210.848V120.68C316.409 108.75 311.156 104.219 302.795 104.219C294.435 104.219 289.182 108.75 289.182 120.68V210.848Z" fill="#651FFF" stroke="#263238" stroke-miterlimit="10"/>
<path d="M330.538 253.771C327.614 252.207 325.25 249.773 323.774 246.806L322.617 244.494L320.193 245.378C314.607 247.36 308.717 248.35 302.79 248.303C290.836 248.303 281.579 244.916 275.284 238.24C274.343 237.237 273.471 236.171 272.675 235.049M337.886 224.385C337.21 226.749 336.283 229.034 335.12 231.2L334.489 232.356L334.964 233.593C336.821 238.408 340.536 238.986 344.562 239.02V256.632H343.874C340.491 256.692 337.12 256.214 333.888 255.216M339.789 131.616V209.178C339.821 213.187 339.443 217.188 338.661 221.12M266.056 116.444C266.918 106.664 270.013 98.8957 275.313 93.3238C281.585 86.619 290.842 83.2319 302.795 83.2319C314.749 83.2319 324.012 86.619 330.306 93.3007C336.601 99.9824 339.789 109.745 339.789 122.334V127.9M270.303 231.061C267.312 225.16 265.807 217.837 265.807 209.178V122.334C265.807 121.53 265.807 120.738 265.848 119.952M286.289 209.49V210.849C286.289 226.848 295.268 230.2 302.795 230.2C310.323 230.2 319.302 226.848 319.302 210.849V130.628M286.289 145.506V206.265M319.302 126.657V120.663C319.302 104.67 310.328 101.312 302.795 101.312C295.262 101.312 286.289 104.67 286.289 120.663V141.032" stroke="#263238" stroke-miterlimit="10"/>
<path d="M308.679 130.05C308.679 130.05 313.123 130.94 315.784 133.096C318.446 135.252 320.222 140.443 318.955 143.737C317.688 147.032 317.346 146.818 318.868 148.72C320.39 150.621 319.123 153.922 319.123 153.922L309.356 150.881C309.424 148.536 309.617 146.195 309.935 143.87C310.438 140.449 310.184 134.114 308.662 132.339L308.679 130.05Z" fill="#263238" stroke="#263238" stroke-linecap="round" stroke-linejoin="round"/>
<path d="M294.898 211.548L296.547 220.421C296.363 224.044 296.704 227.675 297.559 231.2C298.954 236.402 299.972 248.055 299.972 248.055C299.972 248.055 297.814 249.824 295.529 251.344C293.243 252.864 291.855 254.263 295.025 254.263C298.196 254.263 299.845 253.372 301.742 252.615C303.64 251.858 305.168 251.459 305.168 250.459C305.168 249.459 304.155 245.257 304.155 245.257C304.155 245.257 304.537 230.437 304.537 225.605C304.558 222.835 304.259 220.071 303.646 217.369V212.589L294.898 211.548Z" fill="white" stroke="#263238" stroke-linecap="round" stroke-linejoin="round"/>
<path d="M301.742 252.627C303.646 251.864 305.168 251.471 305.168 250.471C305.135 249.96 305.065 249.452 304.959 248.951C304.062 249.396 303.038 249.928 302.379 250.344C300.984 251.234 299.081 252.118 297.941 252.118C297.093 252.029 296.271 251.774 295.523 251.367C293.243 252.881 291.855 254.257 295.025 254.257C298.196 254.257 299.845 253.384 301.742 252.627Z" fill="#263238" stroke="#263238" stroke-linecap="round" stroke-linejoin="round"/>
<path d="M302.252 214.363L302.634 220.317C302.634 220.317 301.87 227.536 302.634 232.455C303.397 237.373 303.391 246.772 303.391 248.292C303.391 249.812 302.234 251.459 300.221 253.234C300.221 253.234 298.572 255.135 299.336 256.274C300.099 257.413 305.55 255.263 305.7 253.997C305.85 252.731 307.094 249.951 307.094 249.055V245.009C307.094 244.124 310.647 232.218 310.265 227.906C309.883 223.594 309.883 217.265 309.883 217.265L310.01 212.832C310.01 212.832 304.41 214.618 302.252 214.363Z" fill="white" stroke="#263238" stroke-linecap="round" stroke-linejoin="round"/>
<path d="M304.028 253.892C302.171 254.765 301.135 253.101 300.915 252.621C300.701 252.835 300.47 253.043 300.221 253.257C300.221 253.257 298.572 255.158 299.336 256.297C300.099 257.436 305.55 255.285 305.7 254.02C305.85 252.754 307.094 249.974 307.094 249.078C306.481 250.76 305.411 253.239 304.028 253.892Z" fill="#263238" stroke="#263238" stroke-linecap="round" stroke-linejoin="round"/>
<path d="M294.134 175.209C294.134 175.209 289.315 185.856 288.927 191.555C288.539 197.254 291.976 212.334 291.976 212.334C291.976 212.334 298.19 215.224 303.385 214.993C306.472 214.859 309.52 214.26 312.429 213.219C312.429 213.219 316.993 199.925 315.599 192.064C314.205 184.203 310.78 176.1 310.78 176.1L294.493 174.071L294.134 175.209Z" fill="#263238" stroke="#263238" stroke-linecap="round" stroke-linejoin="round"/>
<path d="M301.621 148.35C301.621 148.35 303.773 147.084 305.422 147.084H307.962C307.962 147.084 309.119 151.644 309.119 152.153C309.119 152.662 304.3 175.972 304.3 175.972L295.17 175.082C295.17 175.082 295.17 160.39 296.437 155.951C297.704 151.511 301.621 148.35 301.621 148.35Z" fill="white" stroke="#263238" stroke-linecap="round" stroke-linejoin="round"/>
<path d="M294.493 130.189C294.493 130.189 293.608 135.512 294.747 139.188C295.887 142.864 299.058 146.789 300.331 146.916C301.272 146.919 302.195 146.654 302.992 146.153L302.523 147.847L301.511 153.8L306.076 154.182C306.076 154.182 307.979 147.465 307.979 147.084C307.979 146.702 307.939 145.778 307.939 145.778L307.43 140.708C308.129 139.561 308.764 138.376 309.333 137.16C309.715 136.148 308.824 134.501 308.824 134.501C308.824 134.501 309.738 129.021 306.672 126.264C302.865 122.843 296.258 125.883 294.62 127.53C292.983 129.177 294.493 130.189 294.493 130.189Z" fill="white" stroke="#263238" stroke-linecap="round" stroke-linejoin="round"/>
<path d="M302.975 146.153L304.716 145.645L302.217 150.043L302.975 146.153Z" fill="#263238" stroke="#263238" stroke-linecap="round" stroke-linejoin="round"/>
<path d="M306.643 126.264C302.593 122.843 296.229 125.883 294.591 127.53C292.954 129.177 294.464 130.189 294.464 130.189C294.464 130.189 295.355 129.305 297.635 130.189C299.914 131.073 301.685 135.639 303.345 136.148C304.386 136.461 305.445 136.714 306.516 136.905C306.516 136.905 306.516 135.004 307.401 134.749C307.854 134.61 308.322 134.526 308.795 134.501C308.795 134.501 309.808 128.923 306.643 126.264Z" fill="#263238" stroke="#263238" stroke-linecap="round" stroke-linejoin="round"/>
<path d="M297.392 135.894L298.41 137.414L297.901 141.465L299.55 141.72" stroke="#263238" stroke-linecap="round" stroke-linejoin="round"/>
<path d="M299.041 143.113C299.385 143.178 299.741 143.154 300.074 143.044C300.407 142.934 300.706 142.741 300.944 142.483" stroke="#263238" stroke-linecap="round" stroke-linejoin="round"/>
<path d="M295.494 136.651L295.87 138.425C296.516 138.499 297.17 138.411 297.773 138.171" stroke="#263238" stroke-linecap="round" stroke-linejoin="round"/>
<path d="M300.689 135.894L300.944 137.795C300.944 137.795 302.72 138.298 303.357 137.917" stroke="#263238" stroke-linecap="round" stroke-linejoin="round"/>
<path d="M294.985 135.385C295.617 135.087 296.329 134.998 297.015 135.131" stroke="#263238" stroke-linecap="round" stroke-linejoin="round"/>
<path d="M299.7 134.628C299.7 134.628 300.209 134.119 301.604 134.373" stroke="#263238" stroke-linecap="round" stroke-linejoin="round"/>
<path d="M302.506 147.847C302.506 147.847 296.923 150.505 295.656 150.737C294.389 150.968 292.103 152.003 292.231 152.887C292.358 153.771 291.727 167.458 292.103 168.348C292.479 169.238 292.103 176.331 291.855 177.215C291.606 178.099 287.55 189.653 287.55 189.653C287.55 189.653 288.441 190.671 290.345 189.908C292.248 189.145 294.909 181.041 295.413 177.874C295.916 174.706 299.347 160.765 300.232 157.598C301.118 154.43 302.506 147.847 302.506 147.847Z" fill="white" stroke="#263238" stroke-linecap="round" stroke-linejoin="round"/>
<path d="M307.962 147.084C307.962 147.084 305.422 156.841 304.155 160.765C302.888 164.69 301.621 166.979 301.841 170.013C302.061 173.048 301.714 188.382 303.999 190.538C306.284 192.694 309.206 194.081 312.099 194.081C314.114 194.03 316.115 193.733 318.058 193.197C318.058 193.197 314.506 173.811 314.506 173.308C314.506 172.805 320.089 154.933 319.962 153.413C319.835 151.893 307.962 147.084 307.962 147.084Z" fill="white" stroke="#263238" stroke-linecap="round" stroke-linejoin="round"/>
<path d="M297.559 159.118C297.576 161.439 297.748 163.756 298.074 166.054C298.971 162.378 299.81 158.968 300.221 157.586C301.112 154.419 302.535 147.835 302.535 147.835C302.535 147.835 301.141 148.5 299.584 149.194C298.867 151.355 297.559 155.852 297.559 159.118Z" fill="#651FFF" stroke="#263238" stroke-linecap="round" stroke-linejoin="round"/>
<path d="M307.962 147.084C307.962 147.084 305.422 156.841 304.155 160.765C303.472 162.869 302.795 164.505 302.35 166.031C304.191 164.584 305.786 162.849 307.071 160.892C309.154 157.777 310.467 150.737 310.866 148.309C309.194 147.581 307.962 147.084 307.962 147.084Z" fill="#651FFF" stroke="#263238" stroke-linecap="round" stroke-linejoin="round"/>
<path d="M285.236 174.198L283.969 177.874L282.696 173.186C283.172 173.086 283.667 173.128 284.119 173.308C284.571 173.488 284.96 173.797 285.236 174.198Z" fill="#263238" stroke="#263238" stroke-linecap="round" stroke-linejoin="round"/>
<path d="M276.239 159.857L283.465 172.527L292.85 173.036L286.636 159.857H276.239Z" fill="#263238" stroke="#263238" stroke-linecap="round" stroke-linejoin="round"/>
<path d="M282.719 173.186C282.719 173.186 279.172 167.984 278.669 166.724C278.228 165.678 277.969 164.563 277.905 163.43C277.905 162.667 278.16 162.412 278.542 163.302C278.924 164.193 279.699 166.088 279.699 166.088L280.335 162.285C280.335 162.285 280.717 161.655 281.093 162.412C281.469 163.17 281.093 166.088 281.093 166.088L282.111 161.655C282.111 161.655 282.615 160.765 282.997 161.401C283.379 162.037 282.742 165.58 282.742 165.58L283.899 162.921C284.079 162.924 284.253 162.989 284.391 163.105C284.529 163.221 284.623 163.38 284.657 163.557C284.784 164.187 283.772 167.603 283.772 167.603L285.421 165.955C285.421 165.955 286.052 165.701 285.797 166.464C285.333 167.399 284.783 168.289 284.154 169.123C284.464 169.864 284.717 170.627 284.912 171.406C284.805 171.891 284.634 172.36 284.403 172.799L285.294 174.192L284.784 175.203L282.719 173.186Z" fill="white" stroke="#263238" stroke-linecap="round" stroke-linejoin="round"/>
<path d="M291.855 177.238C292.055 175.877 292.171 174.504 292.202 173.128L285.132 173.706L283.975 177.891L291.496 178.209C291.704 177.706 291.814 177.365 291.855 177.238Z" fill="white" stroke="#263238" stroke-linecap="round" stroke-linejoin="round"/>
<path d="M302.633 169.51C302.633 169.51 298.531 166.285 297.704 165.574C296.587 164.621 294.643 164.95 294.643 164.95C294.643 164.95 291.6 166.979 291.091 167.482C290.582 167.985 290.582 168.499 291.091 168.372C292.013 167.928 292.902 167.42 293.752 166.852L293.88 168.747L296.547 169.51L297.305 168.747C297.68 169.042 298.111 169.258 298.572 169.383C299 169.45 299.438 169.406 299.845 169.256L302.251 171.412L302.633 169.51Z" fill="white" stroke="#263238" stroke-linecap="round" stroke-linejoin="round"/>
<path d="M315.698 151.136C315.698 151.136 320.644 152.153 321.275 153.8C321.906 155.448 321.402 181.169 320.893 181.926C320.384 182.683 300.857 172.822 300.857 172.822L302.506 169.019L313.794 172.059L313.007 159.627" fill="white"/>
<path d="M315.698 151.136C315.698 151.136 320.644 152.153 321.275 153.8C321.906 155.448 321.402 181.169 320.893 181.926C320.384 182.683 300.857 172.822 300.857 172.822L302.506 169.019L313.794 172.059L313.007 159.627" stroke="#263238" stroke-linecap="round" stroke-linejoin="round"/>
<path d="M294.672 168.869C294.672 168.869 294.834 165.84 294.939 165.47" stroke="#263238" stroke-linecap="round" stroke-linejoin="round"/>
<path d="M295.685 169.03C295.685 169.03 295.951 166.216 296.055 165.736" stroke="#263238" stroke-linecap="round" stroke-linejoin="round"/>
<path d="M297.305 168.747L297.282 168.019L296.639 167.915" stroke="#263238" stroke-linecap="round" stroke-linejoin="round"/>
<path d="M188.776 250.384C188.776 250.384 188.018 252.835 188.609 254.014C189.199 255.193 190.472 255.453 192.242 255.285C194.012 255.118 200.868 253.592 201.8 253.424C202.489 253.285 203.166 253.091 203.825 252.846C201.584 252.108 199.298 251.516 196.98 251.072C193.937 250.563 189.372 249.719 189.372 249.719L188.776 250.384Z" fill="white" stroke="#263238" stroke-linecap="round" stroke-linejoin="round"/>
<path d="M189.372 249.696L188.794 250.373C188.794 250.373 188.036 252.823 188.626 254.002C189.071 254.893 189.893 255.257 191.033 255.309C190.456 254.771 190.034 254.088 189.812 253.332C189.648 252.747 189.622 252.132 189.736 251.536C189.849 250.939 190.099 250.377 190.466 249.893L189.372 249.696Z" fill="white" stroke="#263238" stroke-linecap="round" stroke-linejoin="round"/>
<path d="M194.979 230.871L191.935 240.332L182.042 239.575C182.042 239.575 188.047 245.234 192.456 247.852C196.865 250.471 204.797 252.916 209.784 251.736C214.772 250.557 226.8 239.402 226.8 239.402L216.235 239.575L214.071 230.622L194.979 230.871Z" fill="#263238" stroke="#263238" stroke-linecap="round" stroke-linejoin="round"/>
<path d="M203.825 184.711C203.825 184.711 197.611 185.867 196.853 187.752C196.095 189.636 196.726 194.11 197.235 197C197.744 199.89 199.005 200.294 196.853 202.45C194.701 204.606 196.726 206.883 198.757 208.022C200.788 209.161 203.576 207.646 204.207 206.375" fill="#263238"/>
<path d="M203.825 184.711C203.825 184.711 197.611 185.867 196.853 187.752C196.095 189.636 196.726 194.11 197.235 197C197.744 199.89 199.005 200.294 196.853 202.45C194.701 204.606 196.726 206.883 198.757 208.022C200.788 209.161 203.576 207.646 204.207 206.375" stroke="#263238" stroke-linecap="round" stroke-linejoin="round"/>
<path d="M187.596 220.565C187.596 220.565 184.298 229.692 184.634 230.449C184.969 231.206 193.341 240.165 193.596 240.165C193.85 240.165 195.204 241.009 195.627 241.009C195.883 241.034 196.141 241.005 196.385 240.922C196.861 240.84 197.342 240.785 197.825 240.754L198.757 241.598L201.8 241.263C201.8 241.263 199.856 238.645 199.005 238.304C198.155 237.963 194.527 237.547 194.527 237.547L189.899 228.929L192.265 223.524L187.596 220.565Z" fill="white" stroke="#263238" stroke-linecap="round" stroke-linejoin="round"/>
<path d="M198.757 208.49C198.757 208.49 192.074 208.993 191.397 209.167C191.137 209.206 190.889 209.302 190.67 209.448C190.451 209.594 190.267 209.786 190.13 210.011C189.876 210.433 185.502 220.062 185.502 220.062L192.664 224.368L193.596 222.004L194.979 230.871H214.17L214.679 222.258L216.542 224.877L224.318 219.299C224.318 219.299 216.797 208.745 214.679 208.49C212.561 208.236 198.757 208.49 198.757 208.49Z" fill="white" stroke="#263238" stroke-linecap="round" stroke-linejoin="round"/>
<path d="M201.459 204.179C201.459 204.179 201.036 206.294 200.782 207.069C200.527 207.843 198.757 208.508 198.757 208.508C198.757 208.508 200.278 212.646 204.334 213.577C207.308 214.253 209.495 211.462 209.917 210.872C210.34 210.282 210.762 208.167 210.762 208.167C210.762 208.167 208.899 206.566 208.818 206.225C208.737 205.884 208.558 204.491 208.558 204.491C208.558 204.491 203.999 205.364 201.459 204.179Z" fill="white" stroke="#263238" stroke-linecap="round" stroke-linejoin="round"/>
<path d="M203.322 189.272L198.375 195.988C198.375 195.988 196.344 193.203 196.344 195.861C196.344 198.52 197.501 199.156 197.866 199.283C198.23 199.41 198.757 199.537 198.757 199.537C199.286 201.38 200.241 203.073 201.545 204.479C203.576 206.502 205.595 206.884 207.377 205.872C209.159 204.861 210.421 201.688 210.421 201.688C210.421 201.688 211.694 197.509 211.439 195.48C211.184 193.451 205.347 188.515 203.322 189.272Z" fill="white" stroke="#263238" stroke-linecap="round" stroke-linejoin="round"/>
<path d="M202.841 198.029C202.905 198.433 202.731 198.798 202.454 198.838C202.176 198.879 201.875 198.59 201.835 198.179C201.794 197.769 201.95 197.41 202.228 197.37C202.506 197.33 202.784 197.619 202.841 198.029Z" fill="#263238"/>
<path d="M206.66 198.029C206.602 198.433 206.776 198.798 207.053 198.838C207.331 198.879 207.632 198.59 207.673 198.179C207.713 197.769 207.557 197.41 207.279 197.37C207.001 197.33 206.724 197.619 206.66 198.029Z" fill="#263238"/>
<path d="M204.056 201.786C204.082 201.878 204.126 201.964 204.186 202.039C204.246 202.114 204.32 202.176 204.404 202.222C204.488 202.267 204.581 202.296 204.676 202.305C204.771 202.315 204.867 202.305 204.959 202.277C205.154 202.25 205.336 202.165 205.481 202.033C205.627 201.901 205.729 201.728 205.775 201.537" stroke="#263238" stroke-linecap="round" stroke-linejoin="round"/>
<path d="M203.403 203.011C203.403 203.011 205.202 203.826 206.348 202.849" stroke="#263238" stroke-linecap="round" stroke-linejoin="round"/>
<path d="M200.868 196.798C200.868 196.798 201.192 195.734 203.241 196.144" stroke="#263238" stroke-linecap="round" stroke-linejoin="round"/>
<path d="M205.775 196.225C206.018 196.11 206.284 196.05 206.553 196.05C206.822 196.05 207.088 196.11 207.331 196.225" stroke="#263238" stroke-linecap="round" stroke-linejoin="round"/>
<path d="M203.194 188.763C203.194 188.763 209.559 200.04 209.917 201.688C210.276 203.335 207.887 205.364 209.154 206.889C210.421 208.415 212.324 210.311 212.324 210.311C212.324 210.311 209.431 211.467 210.421 212.34C211.41 213.213 216.635 211.831 218.156 210.311C219.678 208.791 217.526 206.508 216.999 205.109C216.473 203.71 218.266 200.549 217.763 196.37C217.259 192.191 211.798 185.469 208.627 184.33C205.457 183.192 202.922 184.584 201.91 185.85" fill="#263238"/>
<path d="M203.194 188.763C203.194 188.763 209.559 200.04 209.917 201.687C210.276 203.335 207.887 205.364 209.154 206.889C210.421 208.415 212.324 210.311 212.324 210.311C212.324 210.311 209.431 211.467 210.421 212.34C211.41 213.213 216.635 211.831 218.156 210.311C219.678 208.791 217.526 206.508 216.999 205.109C216.473 203.71 218.266 200.549 217.763 196.37C217.259 192.191 211.798 185.469 208.627 184.33C205.457 183.192 202.922 184.584 201.91 185.85" stroke="#263238" stroke-linecap="round" stroke-linejoin="round"/>
<path d="M202.338 205.462C202.338 205.462 201.441 206.774 202.095 207.196C202.749 207.618 203.484 208.097 203.484 208.097C203.484 208.097 203.241 210.409 203.732 211.12C204.224 211.831 206.348 212.854 206.348 212.854C206.348 212.854 210.195 217.843 212.897 220.623C215.599 223.403 220.916 228.882 222.229 228.882C223.543 228.882 225.336 226.102 225.174 223.894C225.012 221.686 218.544 218.825 217.317 217.843C216.091 216.86 208.558 212.063 208.558 212.063C208.558 212.063 208.234 208.219 208.315 207.404C208.396 206.589 208.234 205.092 208.558 204.514C208.882 203.936 207.904 204.271 207.401 205.092C207.131 205.482 206.963 205.933 206.909 206.404L202.338 205.462Z" fill="white" stroke="#263238" stroke-linecap="round" stroke-linejoin="round"/>
<path d="M217.439 229.015H191.484V244.644H217.439V229.015Z" fill="#B0B0B0" stroke="#263238" stroke-linecap="round" stroke-linejoin="round"/>
<path d="M204.675 249.286C204.675 249.286 217.184 244.136 220.569 241.517C223.953 238.899 227.419 237.627 229.444 238.223C231.469 238.818 232.661 242.696 231.729 245.234C230.798 247.771 223.525 248.95 220.401 250.049C217.277 251.147 207.707 252.748 207.707 252.748L203.31 250.297L204.675 249.286Z" fill="#263238" stroke="#263238" stroke-linecap="round" stroke-linejoin="round"/>
<path d="M205.52 249.454C205.52 249.454 208.818 250.217 211.774 251.06C214.731 251.904 215.246 251.991 215.246 251.991C215.246 251.991 222.351 250.552 223.45 250.298C224.549 250.043 226.829 250.974 227.083 252.581C227.338 254.187 226.748 255.199 225.926 255.621C225.105 256.043 223.641 256.043 222.629 256.043C221.616 256.043 215.946 255.534 215.107 255.465C214.268 255.395 204.791 253.604 204.791 253.604L205.52 249.454Z" fill="white" stroke="#263238" stroke-linecap="round" stroke-linejoin="round"/>
<path d="M215.015 255.476H215.072C215.917 255.557 221.581 256.054 222.594 256.054C223.606 256.054 225.041 256.054 225.892 255.632C226.742 255.21 227.327 254.199 227.049 252.592C226.771 250.985 224.515 250.06 223.415 250.309C222.316 250.557 215.229 252.008 215.229 252.008C215.229 252.008 215.94 254.158 215.015 255.476Z" fill="white" stroke="#263238" stroke-linecap="round" stroke-linejoin="round"/>
<path d="M204.675 249.286C200.786 247.99 197.066 246.232 193.596 244.049C188.018 240.5 180.659 237.691 179.646 237.628C178.634 237.564 176.013 239.997 176.684 242.864C177.355 245.731 183.048 248.951 184.125 249.373C185.201 249.795 200.359 253.846 203.403 253.846L204.675 249.286Z" fill="#263238" stroke="#263238" stroke-linecap="round" stroke-linejoin="round"/>
<path d="M202.645 248.355C202.645 248.355 201.291 252.916 201.204 253.257C201.117 253.598 200.955 254.014 201.626 254.268C202.481 254.52 203.363 254.661 204.253 254.69C204.756 254.69 205.098 253.534 205.266 253.089C205.633 251.904 205.886 250.687 206.024 249.454C206.024 248.696 204.589 248.442 204.08 248.298C203.603 248.209 203.113 248.229 202.645 248.355Z" fill="#D9D9D9" stroke="#263238" stroke-linecap="round" stroke-linejoin="round"/>
<path d="M147.461 77.3305C147.461 77.3305 147.756 77.6253 149.028 77.7236C150.301 77.8218 151.678 78.2149 153.148 77.8218C154.617 77.4288 155.497 77.2438 155.011 77.9201C154.525 78.5964 151.088 80.4633 150.596 80.6598C150.105 80.8563 148.542 80.9546 148.149 81.3476C147.756 81.7407 147.461 82.8158 146.483 82.914C145.505 83.0123 143.642 79.4865 143.642 79.4865L146.679 76.9375L147.461 77.3305Z" fill="#B0B0B0" stroke="#263238" stroke-linecap="round" stroke-linejoin="round"/>
<path d="M116.981 72.7299C116.981 72.7299 125.116 65.7939 130.213 62.7421C135.31 59.6903 136.387 58.829 137.075 59.0198C137.764 59.2105 148.647 76.8453 148.647 76.8453L142.959 81.4693L135.71 67.3661C135.71 67.3661 125.417 77.2557 122.773 79.0186C120.129 80.7815 114.829 75.6893 114.54 74.909C114.25 74.1287 116.981 72.7299 116.981 72.7299Z" fill="#263238" stroke="#263238" stroke-linecap="round" stroke-linejoin="round"/>
<path d="M131.446 83.3996L145.389 83.4689L142.057 80.4922L129.606 80.1396L131.446 83.3996Z" fill="white" stroke="#263238" stroke-linecap="round" stroke-linejoin="round"/>
<path d="M145.389 83.4688L153.692 72.6486L148.78 71.1343L142.057 80.4921L145.389 83.4688Z" fill="white" stroke="#263238" stroke-linecap="round" stroke-linejoin="round"/>
<path d="M123.056 57.2627L127.569 68.1291L134.622 77.7239C134.622 77.7239 137.174 77.8222 137.66 77.9204C138.146 78.0187 139.523 78.1169 140.113 78.799C140.597 79.5546 140.961 80.3816 141.189 81.2497L140.61 81.348L139.453 80.0763L137.301 79.5851C137.301 79.5851 134.749 79.3885 134.165 79.0938C133.581 78.799 130.734 76.6488 130.734 76.6488L121.321 64.8981L119.851 60.7827L123.056 57.2627Z" fill="#B0B0B0" stroke="#263238" stroke-linecap="round" stroke-linejoin="round"/>
<path d="M134.13 76.481L131.978 78.215L121.257 67.0827L120.152 61.2738L123.843 57.748L127.627 66.8053L134.13 76.481Z" fill="#651FFF" stroke="#263238" stroke-linecap="round" stroke-linejoin="round"/>
<path d="M118.648 111.699C118.648 111.699 114.823 117.571 114.731 118.357C114.68 118.726 114.76 119.101 114.956 119.418C115.153 119.734 115.454 119.972 115.807 120.091C116.588 120.386 118.156 120.97 119.139 121.461C120.123 121.952 122.275 123.126 123.843 123.126C125.411 123.126 125.805 122.634 125.313 122.149C124.821 121.663 121.882 119.109 121.587 118.525C121.143 117.545 120.783 116.53 120.511 115.49C120.511 115.196 121.39 112.456 121.39 112.456L118.648 111.699Z" fill="#B0B0B0" stroke="#263238" stroke-linecap="round" stroke-linejoin="round"/>
<path d="M104.34 71.0942C102.693 73.2818 101.923 76.0048 102.182 78.7296C102.76 83.7235 106.885 85.0009 110.611 86.076C114.337 87.1511 128.449 90.8734 128.449 90.8734C128.449 90.8734 124.433 95.0812 122.958 98.607C121.483 102.133 117.572 112.317 117.572 112.317L124.723 115.6L133.939 96.8152C133.939 96.8152 136.19 92.8039 136.583 90.7462C136.977 88.6886 136.387 87.417 136.19 87.1222C135.993 86.8274 123.843 78.6082 121.587 77.1343C120.293 76.2788 118.914 75.5582 117.473 74.9842L104.34 71.0942Z" fill="#263238" stroke="#263238" stroke-linecap="round" stroke-linejoin="round"/>
<path d="M122.657 51.7774C122.657 51.7774 121.089 46.4887 118.607 45.8067C116.125 45.1246 113.313 47.5407 111.086 50.211C108.858 52.8814 109.223 59.118 109.223 60.8809C109.223 62.6438 104.224 70.3832 103.732 72.0421C103.732 72.0421 105.792 73.516 109.813 74.3946C112.489 74.9341 115.219 75.1649 117.948 75.0824C117.948 75.0824 118.729 69.4989 118.925 67.736C119.122 65.9731 120.493 63.4299 121.569 62.7421C122.646 62.0542 123.727 60.1006 123.826 57.7481C123.924 55.3957 122.657 51.7774 122.657 51.7774Z" fill="#651FFF" stroke="#263238" stroke-linecap="round" stroke-linejoin="round"/>
<path d="M130.705 77.6255L133.054 78.7006C133.054 78.7006 137.955 78.9953 138.348 78.9953C138.741 78.9953 139.621 81.8333 139.621 81.8333C139.621 81.8333 139.326 82.1281 138.938 81.7408C138.55 81.3536 138.151 80.8565 138.151 80.8565C138.151 80.8565 135.704 81.053 134.72 81.053C133.737 81.053 131.978 79.897 131.978 79.897L129.6 78.8971L130.705 77.6255Z" fill="#B0B0B0" stroke="#263238" stroke-linecap="round" stroke-linejoin="round"/>
<path d="M113.157 52.5577C113.157 52.5577 116.2 63.0368 117.276 65.6783C118.353 68.3198 121.101 71.5566 122.079 72.8282C123.056 74.0998 130.41 79.7642 130.41 79.7642L131.978 78.1978L124.167 66.5106C124.167 66.5106 120.216 50.9046 120.314 50.3902C120.412 49.8758 119.157 48.529 118.254 48.3325" fill="#651FFF"/>
<path d="M113.157 52.5577C113.157 52.5577 116.2 63.0368 117.276 65.6783C118.353 68.3198 121.101 71.5566 122.079 72.8282C123.056 74.0998 130.41 79.7642 130.41 79.7642L131.978 78.1978L124.167 66.5106C124.167 66.5106 120.216 50.9046 120.314 50.3902C120.412 49.8758 119.157 48.529 118.254 48.3325" stroke="#263238" stroke-linecap="round" stroke-linejoin="round"/>
<path d="M136.583 35.4259C136.583 35.4259 136.878 38.9517 136.387 40.125C135.895 41.2983 133.65 41.9862 133.65 42.963C133.65 43.9398 133.748 44.9224 133.257 45.3154C132.765 45.7085 131.885 45.3154 131.885 45.3154C131.711 45.8632 131.369 46.3424 130.908 46.6853C130.121 47.2633 130.26 47.2633 130.26 47.2633C129.607 47.8851 128.763 48.268 127.864 48.3499C126.591 48.3499 125.614 46.587 125.319 46.3905C125.024 46.194 124.225 46.7489 123.456 47.2749C122.443 47.9627 121.691 51.6792 121.691 51.6792C121.691 51.6792 118.85 46.2923 118.555 46.194C118.26 46.0957 116.466 45.9744 116.466 45.9744C116.466 45.9744 119.359 44.5294 119.73 43.356C120.1 42.1827 119.73 40.3215 119.73 39.9285C119.73 39.5354 119.926 35.5241 121.593 33.4664C123.259 31.4088 130.312 30.825 132.956 30.6342C135.6 30.4435 136.583 35.4259 136.583 35.4259Z" fill="#B0B0B0" stroke="#263238" stroke-linecap="round" stroke-linejoin="round"/>
<path d="M136.583 35.4256C136.583 35.4256 135.606 34.8476 135.426 36.5007C135.247 38.1538 135.525 38.2636 134.344 38.3619C133.164 38.4601 132.678 38.7549 132.678 39.4427C132.678 40.1305 131.799 40.4195 131.11 40.4195C130.422 40.4195 129.837 39.4427 129.444 40.4195C129.05 41.3964 127.708 41.8877 126.8 41.8877C125.891 41.8877 125.822 42.4657 124.254 42.772C122.686 43.0783 122.391 41.3964 122.391 41.3964C121.548 41.573 120.696 41.7042 119.84 41.7894C119.261 41.7894 119.354 39.3445 119.354 39.3445C118.61 39.4842 117.854 39.5481 117.097 39.5352C116.519 39.4427 116.021 38.0671 116.021 37.5816C116.021 37.096 114.939 36.3042 114.939 35.6221V34.4661C114.939 34.4661 114.65 32.8015 114.841 32.4085C115.032 32.0154 116.293 31.212 116.293 30.7265C116.293 30.241 115.899 27.9868 116.582 27.1024C117.265 26.2181 117.959 25.3684 118.642 25.3684C119.325 25.3684 119.527 24.0968 120.603 23.9003C121.345 23.7491 122.103 23.6832 122.86 23.7038C123.641 23.7038 124.133 22.727 125.012 22.5478C126.17 22.4537 127.336 22.5872 128.443 22.9408C128.836 23.1373 129.131 23.1373 129.912 22.8426C130.422 22.7325 130.95 22.7366 131.459 22.8546C131.967 22.9725 132.442 23.2013 132.852 23.5246C133.449 24.072 134.204 24.416 135.01 24.5072C135.501 24.5072 135.987 24.2124 136.676 25.484C137.364 26.7556 138.539 26.9521 139.222 27.5417C139.508 27.7936 139.722 28.1167 139.843 28.478C139.964 28.8394 139.987 29.2262 139.91 29.5994C139.812 30.2814 140.304 30.871 140.697 31.6513C140.877 31.9685 140.963 32.3302 140.946 32.6943C140.928 33.0585 140.808 33.4103 140.599 33.709C140.205 34.2003 140.5 35.1771 140.599 35.5701C140.697 35.9632 139.615 36.7261 138.736 37.0382C137.856 37.3504 136.977 37.7781 136.583 35.4256Z" fill="#263238" stroke="#263238" stroke-linecap="round" stroke-linejoin="round"/>
<path d="M133.372 42.2518C133.158 42.6333 132.852 42.8703 132.684 42.7778C132.516 42.6853 132.545 42.2981 132.753 41.9166C132.962 41.5351 133.268 41.2981 133.442 41.3906C133.615 41.4831 133.581 41.8704 133.372 42.2518Z" fill="#263238"/>
<path d="M132.886 40.1535C132.886 40.1535 133.939 39.6275 134.553 41.2055" stroke="#263238" stroke-linecap="round" stroke-linejoin="round"/>
<path d="M56.7 153.864C56.7 153.864 58.4704 156.638 58.9738 157.482C59.4771 158.326 59.3961 160.187 59.3961 160.187L61.4269 162.21L59.0143 164.071C59.0143 164.071 56.4743 162.383 55.971 162.129C55.4621 161.9 54.9185 161.757 54.3626 161.707C54.108 161.707 51.7416 158.748 51.7416 158.748L50.3357 157.794L51.1688 155.482L54.8891 156.58L56.7 153.864Z" fill="#CFCFCF" stroke="#263238" stroke-linecap="round" stroke-linejoin="round"/>
<path d="M48.0388 154.228L56.4107 162.21L59.454 159.551L51.9731 152.453L48.0388 154.228Z" fill="#263238" stroke="#263238" stroke-linecap="round" stroke-linejoin="round"/>
<path d="M55.4793 153.534C55.3398 153.542 55.207 153.597 55.1021 153.689C54.9973 153.781 54.9263 153.906 54.9007 154.043C54.7271 154.968 54.4378 156.869 54.9991 157.031C55.1237 157.082 55.2589 157.103 55.3931 157.091C55.5274 157.079 55.6567 157.034 55.7702 156.962C55.8838 156.889 55.9781 156.79 56.0453 156.674C56.1125 156.557 56.1505 156.426 56.1562 156.291C56.2603 155.76 56.8968 154.286 56.6827 153.864C56.5033 153.528 56.0752 153.523 55.4793 153.534Z" fill="#CFCFCF" stroke="#263238" stroke-linecap="round" stroke-linejoin="round"/>
<path d="M49.8151 155.372C49.8151 155.372 48.6579 157.523 49.5605 158.158C50.4631 158.794 50.4515 157.523 50.7177 156.765C50.9838 156.008 50.9549 154.991 49.8151 155.372Z" fill="#CFCFCF" stroke="#263238" stroke-linecap="round" stroke-linejoin="round"/>
<path d="M51.9731 157.522C51.9731 157.522 50.9548 159.551 51.3367 160.187C51.7185 160.823 52.2277 160.187 52.4938 159.551C52.7137 159.163 52.8442 158.731 52.8757 158.285C52.8814 157.176 51.9731 157.522 51.9731 157.522Z" fill="#CFCFCF" stroke="#263238" stroke-linecap="round" stroke-linejoin="round"/>
<path d="M53.0261 158.43C53.0261 158.43 52.0136 160.453 52.3896 161.088C52.7657 161.724 53.2806 161.088 53.5468 160.453C53.7682 160.065 53.897 159.632 53.9229 159.187C53.9402 158.077 53.0261 158.43 53.0261 158.43Z" fill="#CFCFCF" stroke="#263238" stroke-linecap="round" stroke-linejoin="round"/>
<path d="M54.2295 159.43C54.2295 159.43 53.217 161.459 53.5989 162.094C53.9807 162.73 54.4841 162.094 54.756 161.459C54.976 161.07 55.1064 160.638 55.1379 160.193C55.1437 159.083 54.2295 159.43 54.2295 159.43Z" fill="#CFCFCF" stroke="#263238" stroke-linecap="round" stroke-linejoin="round"/>
<path d="M61.2302 161.031L57.5968 164.747L67.23 172.602L68.1615 166.1L61.2302 161.031Z" fill="#651FFF" stroke="#263238" stroke-linecap="round" stroke-linejoin="round"/>
<path d="M65.9225 177.105C65.9225 177.105 64.0942 183.827 64.1868 184.856C64.2561 185.461 64.2947 186.068 64.3025 186.677C64.3025 186.677 59.1648 192.948 56.5438 198.532C53.9229 204.115 53.6915 207.311 54.4899 207.878C55.2883 208.444 66.125 213.236 67.2648 213.467L68.4219 213.693L77.6791 216.883L78.5932 217.912L80.4157 217.334C81.2141 216.877 81.6712 213.802 81.9026 212.548C82.1341 211.294 82.7011 210.722 82.1283 210.612C81.5978 210.549 81.0619 210.549 80.5314 210.612C80.5314 210.612 80.8728 209.924 80.3058 209.924H78.6858C78.6858 209.924 71.1643 206.849 69.9031 206.167C68.6418 205.485 65.4538 203.774 65.4538 203.774L72.9001 198.422C72.9001 198.422 81.9142 193.179 83.1697 191.012C84.4252 188.844 85.1079 184.741 85.1079 183.03C85.1079 181.319 72.6686 175.516 70.5048 175.516C68.3409 175.516 66.0324 175.966 65.9225 177.105Z" fill="#263238" stroke="#263238" stroke-linecap="round" stroke-linejoin="round"/>
<path d="M82.1225 210.618C82.1225 210.618 88.4868 210.843 89.4241 211.3C90.3614 211.756 90.3382 213.352 90.3382 214.49C90.3382 215.629 89.4241 218.253 89.6555 219.507C89.8869 220.762 89.9274 222.253 90.1068 224.068C90.4539 227.484 89.453 227.842 88.8571 227.715C86.6874 227.258 86.456 224.634 85.4319 222.131C84.4079 219.629 83.8351 218.253 83.8351 218.253L80.4215 217.328C80.4215 217.328 81.0984 212.329 82.1225 210.618Z" fill="white" stroke="#263238" stroke-linecap="round" stroke-linejoin="round"/>
<path d="M89.4241 211.299C88.8991 211.129 88.3549 211.024 87.8041 210.987C88.2616 212.727 88.4988 214.518 88.5099 216.316C88.5099 219.848 89.1984 223.952 88.8571 226.576C88.7992 226.998 88.7414 227.35 88.6835 227.663C88.7403 227.683 88.7982 227.701 88.8571 227.715C89.4357 227.842 90.4539 227.483 90.1068 224.067C89.9274 222.253 89.8812 220.761 89.6555 219.507C89.4299 218.253 90.3382 215.629 90.3382 214.49C90.3382 213.351 90.3382 211.756 89.4241 211.299Z" fill="white" stroke="#263238" stroke-linecap="round" stroke-linejoin="round"/>
<path d="M67.3168 186.694C67.3168 186.694 68.7112 195.312 68.202 200.375C67.6929 205.439 68.0805 216.721 68.5839 219.889C69.0872 223.056 68.7112 232.558 68.7112 234.206C68.7275 235.011 68.685 235.817 68.5839 236.616C68.5839 236.616 67.1895 236.489 67.3168 237.246C67.3959 237.749 67.4385 238.257 67.4441 238.766C68.3296 239.472 69.3744 239.95 70.4874 240.159C72.3909 240.541 74.4217 240.922 74.7977 240.413C75.1738 239.905 75.0523 238.263 75.0523 238.263C75.2601 238.069 75.4243 237.834 75.534 237.572C75.6437 237.309 75.6965 237.027 75.6887 236.743V235.188C75.6887 235.188 77.4649 227.842 77.3377 223.409C77.2104 218.975 76.3194 216.438 76.574 215.317C76.8285 214.195 82.5332 196.821 82.5332 196.821C82.5332 196.821 84.3095 193.017 84.6913 190.613C84.9606 188.52 84.4722 186.401 83.3143 184.636C82.5506 183.625 70.8866 180.458 70.8866 180.458" fill="#263238"/>
<path d="M67.3168 186.694C67.3168 186.694 68.7112 195.312 68.202 200.375C67.6929 205.439 68.0805 216.721 68.5839 219.889C69.0872 223.056 68.7112 232.558 68.7112 234.206C68.7275 235.011 68.685 235.817 68.5839 236.616C68.5839 236.616 67.1895 236.489 67.3168 237.246C67.3959 237.749 67.4385 238.257 67.4441 238.766C68.3296 239.472 69.3744 239.95 70.4874 240.159C72.3909 240.541 74.4217 240.922 74.7977 240.413C75.1738 239.905 75.0523 238.263 75.0523 238.263C75.2601 238.069 75.4243 237.834 75.534 237.572C75.6437 237.309 75.6965 237.027 75.6887 236.743V235.188C75.6887 235.188 77.4649 227.842 77.3377 223.409C77.2104 218.975 76.3194 216.438 76.574 215.317C76.8285 214.195 82.5332 196.821 82.5332 196.821C82.5332 196.821 84.3095 193.017 84.6913 190.613C84.9606 188.52 84.4722 186.401 83.3143 184.636C82.5506 183.625 70.8866 180.458 70.8866 180.458" stroke="#263238" stroke-linecap="round" stroke-linejoin="round"/>
<path d="M70.5337 147.228C70.5337 147.228 67.4267 153.714 67.4267 157.76C67.4267 161.806 66.206 168.666 66.206 170.545C66.206 172.423 64.5107 175.25 65.2629 176.868C66.015 178.487 70.3427 178.463 70.7188 178.463C71.0949 178.463 73.548 178.556 74.0167 178.371C74.4853 178.186 75.3358 162.667 75.3358 159.095C75.3358 155.523 75.5209 146.379 75.4284 145.269C75.3358 144.159 71.6619 145.159 70.5337 147.228Z" fill="white" stroke="#263238" stroke-linecap="round" stroke-linejoin="round"/>
<path d="M75.6888 140.801C73.1561 145.099 71.5979 149.899 71.1238 154.864C70.2328 163.354 67.826 178.429 69.6022 180.076C71.3784 181.723 75.816 182.862 77.841 183.879C79.866 184.897 83.1697 186.538 84.3095 187.174C85.4493 187.81 87.3527 187.047 87.3527 187.047C87.3527 187.047 88.8744 173.614 88.371 167.661C87.8677 161.707 87.104 151.696 84.6913 146.881C82.2787 142.067 76.3194 140.165 75.6888 140.801Z" fill="#651FFF" stroke="#263238" stroke-linecap="round" stroke-linejoin="round"/>
<path d="M75.9433 183.879L74.4216 185.527L76.9558 188.943L78.4774 186.03L75.9433 183.879Z" fill="#CFCFCF" stroke="#263238" stroke-linecap="round" stroke-linejoin="round"/>
<path d="M75.9433 149.413C75.9433 149.413 73.7853 154.991 74.9251 159.551C76.0649 164.112 79.1139 173.614 79.1139 173.614L75.3069 183.879L79.1139 187.301C79.1139 187.301 87.104 174.123 87.104 172.348C87.104 170.574 85.3278 152.453 84.5641 150.049C83.8004 147.644 82.5333 145.361 80.6356 145.361" fill="#651FFF"/>
<path d="M75.9434 149.413C75.9434 149.413 73.7853 154.991 74.9251 159.551C76.0649 164.112 79.1139 173.614 79.1139 173.614L75.3069 183.879L79.1139 187.301C79.1139 187.301 87.104 174.123 87.104 172.348C87.104 170.574 85.3278 152.453 84.5641 150.049C83.8004 147.644 82.5333 145.361 80.6356 145.361" stroke="#263238" stroke-linecap="round" stroke-linejoin="round"/>
<path d="M67.9532 239.119C67.9532 239.119 67.0622 239.5 67.0622 240.13C67.0622 240.76 66.3043 244.176 66.3043 244.176C66.3043 244.176 60.0904 246.326 58.9448 246.581C57.7993 246.835 57.4232 248.864 57.7877 249.471C58.1522 250.078 62.3526 250.627 66.0323 250.742C69.712 250.858 74.0224 250.869 74.4043 250.234C74.7861 249.598 74.653 243.39 74.653 243.39L74.7803 240.35C72.4711 240.154 70.1853 239.742 67.9532 239.119Z" fill="white" stroke="#263238" stroke-linecap="round" stroke-linejoin="round"/>
<path d="M57.6893 249.153C57.7058 249.276 57.745 249.396 57.805 249.505C58.1869 250.141 62.37 250.661 66.0497 250.777C69.7294 250.893 74.0398 250.904 74.4216 250.268C74.507 250.04 74.5558 249.801 74.5663 249.557C69.1219 250.488 61.2707 249.638 57.6893 249.153Z" fill="white" stroke="#263238" stroke-linecap="round" stroke-linejoin="round"/>
<path d="M57.5505 125.218C57.5505 125.218 54.8891 127.622 55.1436 131.044C55.3982 134.466 55.9016 135.732 56.3008 136.113C56.7775 136.494 57.2867 136.833 57.8224 137.125C57.8224 137.125 57.5678 140.801 58.3316 141.055C59.0383 141.207 59.7641 141.25 60.4838 141.182C60.4838 141.182 62.5146 144.853 63.6544 144.98C64.7942 145.107 67.0796 142.83 67.0796 142.83L70.8866 146.246L75.1969 139.656L72.7901 136.998C72.7901 136.998 73.9472 129.906 72.2809 126.102C70.6146 122.299 60.75 120.403 57.5505 125.218Z" fill="#CFCFCF" stroke="#263238" stroke-linecap="round" stroke-linejoin="round"/>
<path d="M67.0623 142.824L68.8327 141.038L68.555 143.662L67.0623 142.824Z" fill="#263238" stroke="#263238" stroke-linecap="round" stroke-linejoin="round"/>
<path d="M68.85 136.489C68.85 136.489 71.1122 136.662 72.8422 136.587C73.0505 135.021 73.6869 129.356 72.2636 126.102C70.6147 122.299 60.6922 120.403 57.5505 125.218C56.618 126.135 55.9093 127.255 55.4792 128.489C55.6586 128.784 55.9132 128.952 56.2835 128.634C57.1687 127.877 59.8359 127.622 60.0905 129.015C60.345 130.408 60.0905 131.68 61.6121 131.299C62.4032 131.047 63.2588 131.092 64.019 131.426C64.019 131.426 65.0315 133.2 65.6679 132.819C66.3043 132.437 65.7952 131.663 66.5589 130.79C67.3226 129.917 70.2328 131.299 70.3601 133.2C70.4874 135.102 68.85 136.489 68.85 136.489Z" fill="#263238" stroke="#263238" stroke-linecap="round" stroke-linejoin="round"/>
<path d="M60.1714 136.038C60.4491 136.373 60.5186 136.772 60.3218 136.934C60.1251 137.096 59.7433 136.934 59.4713 136.616C59.1994 136.298 59.1242 135.882 59.3209 135.72C59.5176 135.558 59.8648 135.703 60.1714 136.038Z" fill="#263238"/>
<path d="M58.2563 135.587C58.2563 135.587 57.9497 134.431 59.4135 134.431" stroke="#263238" stroke-linecap="round" stroke-linejoin="round"/>
<path d="M74.8614 138.483L69.4055 146.754L71.8529 149.95L77.3088 140.269L74.8614 138.483Z" fill="white" stroke="#263238" stroke-linecap="round" stroke-linejoin="round"/>
</svg>
