<svg width="38" height="32" viewBox="0 0 38 32" fill="none" xmlns="http://www.w3.org/2000/svg">
<g clip-path="url(#clip0_513_966)">
<path d="M14.7778 10V0L25.3334 10H14.7778ZM37.2282 15.6313C38.2573 16.6063 38.2573 18.1938 37.2282 19.1688L35.282 21.0063L30.6046 16.575L32.5441 14.7313C33.5733 13.7563 35.2424 13.7563 36.2782 14.7313L37.2282 15.6313ZM20.5768 26.0688L29.107 17.9875L33.791 22.425L25.2608 30.5063C24.9903 30.7625 24.6539 30.9438 24.2844 31.0313L20.3129 31.9688C19.9501 32.0563 19.574 31.9563 19.3101 31.7063C19.0462 31.4563 18.9407 31.1 19.033 30.7563L20.0226 26.9938C20.115 26.6438 20.3063 26.325 20.5768 26.0688Z" fill="#651FFF"/>
<path opacity="0.4" d="M0 4C0 1.79063 1.8901 0 4.22222 0H14.7778V10H25.3333V18.7188L19.0858 24.6437C18.5448 25.1562 18.1622 25.7938 17.9774 26.4438L16.9813 30.2563C16.8295 30.8438 16.8691 31.45 17.0736 32H4.22222C1.8901 32 0 30.2062 0 28V4Z" fill="#651FFF"/>
</g>
<defs>
<clipPath id="clip0_513_966">
<rect width="38" height="32" fill="white"/>
</clipPath>
</defs>
</svg>
