<svg width="32" height="32" viewBox="0 0 32 32" fill="none" xmlns="http://www.w3.org/2000/svg">
<path d="M23.3376 19.9312L21.8869 19.0938C21.9563 18.7375 22.0001 18.3188 22.0001 18C22.0001 17.6813 21.9555 17.2638 21.8901 16.9088L23.3407 16.0713C23.5415 15.9555 23.6413 15.7153 23.5713 15.4941C23.4126 14.9813 23.2063 14.4812 22.9313 14C22.6563 13.5187 22.32 13.0906 21.9588 12.6962C21.8022 12.5251 21.5443 12.4912 21.3434 12.6074L19.8772 13.4536C19.3251 12.9812 18.6938 12.6125 18.0001 12.3687V10.6812C18.0001 10.4493 17.8419 10.2427 17.6154 10.1927C17.0938 10.075 16.5563 10 16.0001 10C15.4438 10 14.9063 10.075 14.3876 10.1875C14.1563 10.2375 14.0001 10.4437 14.0001 10.6812V12.37C13.3063 12.6125 12.6751 12.9813 12.1251 13.4563L10.6626 12.6062C10.4563 12.4937 10.2001 12.525 10.0438 12.6938C9.68132 13.0875 9.35008 13.5187 9.06883 14C8.79383 14.4812 8.58757 14.9812 8.43132 15.4937C8.35632 15.7125 8.45633 15.9563 8.66258 16.0688L10.1132 16.9062C10.0438 17.2625 10.0001 17.625 10.0001 18C10.0001 18.375 10.0446 18.7362 10.1101 19.0912L8.66258 19.9312C8.46164 20.047 8.36201 20.2872 8.43189 20.5084C8.58757 21.0188 8.79383 21.5188 9.06883 22C9.34739 22.4824 9.68026 22.9094 10.0413 23.3037C10.1981 23.4749 10.4559 23.5088 10.6568 23.3926L12.1224 22.5464C12.6751 23.0188 13.3063 23.3875 14.0001 23.6313V25.32C14.0001 25.5519 14.1583 25.7585 14.3848 25.8083C14.9063 25.925 15.4438 26 16.0001 26C16.5572 26 17.0932 25.9253 17.6157 25.8096C17.8438 25.7625 18.0001 25.5563 18.0001 25.3188V23.63C18.6951 23.3827 19.3244 23.0133 19.8744 22.5438L21.3407 23.39C21.5415 23.5062 21.7994 23.4722 21.9561 23.3011C22.3188 22.9125 22.6501 22.4812 22.9313 22C23.2126 21.5188 23.4133 21.0156 23.5744 20.5056C23.6438 20.2875 23.5438 20.0437 23.3376 19.9312ZM16.0001 20.5C14.6194 20.5 13.5001 19.3806 13.5001 18C13.5001 16.6194 14.6188 15.5 16.0001 15.5C17.3813 15.5 18.5001 16.6188 18.5001 18C18.5001 19.3813 17.3813 20.5 16.0001 20.5Z" fill="#651FFF"/>
<path opacity="0.4" d="M29 6H17L13 2H3C1.34375 2 0 3.34375 0 5V27C0 28.6562 1.34375 30 3 30H29C30.6562 30 32 28.6562 32 27V9C32 7.34375 30.6562 6 29 6ZM22.9312 22C22.6527 22.4824 22.3199 22.9094 21.9587 23.3037C21.8021 23.4749 21.5442 23.5088 21.3434 23.3926L19.8771 22.5464C19.325 23.0188 18.6938 23.3875 18 23.6313V25.32C18 25.5519 17.8418 25.7585 17.6154 25.8083C17.0938 25.925 16.5562 26 16 26C15.443 26 14.9069 25.9253 14.385 25.8096C14.1562 25.7625 14 25.5562 14 25.3188V23.63C13.305 23.3827 12.6756 23.0133 12.1256 22.5438L10.6625 23.3937C10.4616 23.5099 10.2037 23.476 10.047 23.3049C9.68125 22.9125 9.35 22.4813 9.06875 22C8.79031 21.5176 8.58694 21.0156 8.42562 20.5056C8.35625 20.2875 8.45625 20.0437 8.6625 19.9312L10.1131 19.0938C10.0437 18.7375 10 18.3188 10 18C10 17.6812 10.0446 17.2638 10.11 16.9088L8.6625 16.0688C8.45625 15.9563 8.35625 15.7125 8.43125 15.4937C8.5875 14.9812 8.79375 14.4812 9.06875 14C9.34731 13.5176 9.68019 13.0906 10.0413 12.6962C10.2 12.525 10.4563 12.4937 10.6625 12.6062L12.1281 13.4525C12.675 12.9813 13.3062 12.6125 14 12.3687V10.6812C14 10.4493 14.1582 10.2428 14.3848 10.1927C14.9062 10.075 15.4438 10 16 10C16.5571 10 17.0931 10.0747 17.6156 10.1902C17.8438 10.2375 18 10.4437 18 10.6812V12.37C18.695 12.6173 19.3244 12.9867 19.8744 13.4563L21.3406 12.61C21.5414 12.4938 21.7994 12.5278 21.956 12.6989C22.3187 13.0875 22.65 13.5188 22.9312 14C23.2125 14.4812 23.4132 14.9844 23.5744 15.4944C23.6443 15.7156 23.5446 15.9558 23.3438 16.0715L21.8932 16.909C21.9562 17.2625 22 17.625 22 18C22 18.375 21.9554 18.7362 21.89 19.0912L23.3406 19.9287C23.5414 20.0445 23.6412 20.2847 23.5713 20.5059C23.4125 21.0187 23.2062 21.5187 22.9312 22ZM16 15.5C14.6187 15.5 13.5 16.6187 13.5 18C13.5 19.3813 14.6194 20.5 16 20.5C17.3806 20.5 18.5 19.3813 18.5 18C18.5 16.6187 17.3813 15.5 16 15.5Z" fill="#651FFF"/>
</svg>
