<svg width="16" height="16" viewBox="0 0 16 16" fill="none" xmlns="http://www.w3.org/2000/svg">
<path d="M4.96874 8.46875C5.11561 8.32188 5.30624 8.25 5.49999 8.25C5.69374 8.25 5.88374 8.32325 6.0303 8.46972L7.24999 9.69063V6.25C7.24999 5.8375 7.58749 5.5 7.99999 5.5C8.41249 5.5 8.74999 5.83594 8.74999 6.25V9.69063L9.96967 8.47094C10.2626 8.17797 10.7372 8.17797 11.0303 8.47094C11.3234 8.76391 11.3233 9.23844 11.0303 9.53156L8.5303 12.0316C8.23733 12.3245 7.7628 12.3245 7.46967 12.0316L4.96967 9.53156C4.67811 9.2375 4.67811 8.7625 4.96874 8.46875Z" fill="white"/>
<path opacity="0.4" d="M14.5 3H8.5L6.5 1H1.5C0.671875 1 0 1.67188 0 2.5V13.5C0 14.3281 0.671875 15 1.5 15H14.5C15.3281 15 16 14.3281 16 13.5V4.5C16 3.67188 15.3281 3 14.5 3ZM4.96875 8.46875C5.11562 8.32188 5.30625 8.25 5.5 8.25C5.69375 8.25 5.88375 8.32325 6.03031 8.46972L7.25 9.69063V6.25C7.25 5.8375 7.5875 5.5 8 5.5C8.4125 5.5 8.75 5.83594 8.75 6.25V9.69063L9.96969 8.47094C10.2627 8.17797 10.7372 8.17797 11.0303 8.47094C11.3234 8.76391 11.3233 9.23844 11.0303 9.53156L8.53031 12.0316C8.23734 12.3245 7.76281 12.3245 7.46969 12.0316L4.96969 9.53156C4.67812 9.2375 4.67812 8.7625 4.96875 8.46875Z" fill="white"/>
</svg>
