<svg width="621" height="535" viewBox="0 0 621 535" fill="none" xmlns="http://www.w3.org/2000/svg">
<path d="M517.28 227.963C505.233 207.239 509.787 163.587 509.787 163.587L507.143 166.085C519.19 134.485 509.053 121.698 509.053 121.698C479.229 77.3105 434.568 106.706 434.568 106.706C434.568 106.706 401.806 111.997 413.853 151.093C414.588 153.445 414.881 156.385 415.028 159.324C414.881 159.618 409.886 178.284 408.123 181.812C406.801 184.31 413.412 187.838 417.232 189.602C425.753 226.64 427.663 225.317 427.663 225.317C442.648 226.052 454.548 223.554 464.244 219.291C465.566 226.199 466.889 233.842 466.889 233.842C470.121 259.416 434.127 275.878 434.127 275.878L502.441 301.746L570.462 258.387C570.462 258.093 531.971 253.243 517.28 227.963Z" fill="white" stroke="#263238" stroke-miterlimit="10"/>
<path d="M175.267 455.779L403.863 434.908L536.672 472.094L537.26 481.5L308.664 502.371L175.855 465.186L175.267 455.779Z" fill="white" stroke="#263238" stroke-miterlimit="10" stroke-linejoin="round"/>
<path d="M181.437 456.661L405.479 443.433L371.248 302.922L152.202 313.21L181.437 456.661Z" fill="white" stroke="#263238" stroke-miterlimit="10" stroke-linejoin="round"/>
<path d="M271.495 312.769C271.789 314.239 271.054 315.856 269.732 316.15C268.41 316.444 267.087 315.415 266.647 313.945C266.353 312.475 267.087 310.859 268.41 310.565C269.732 310.271 271.201 311.3 271.495 312.769Z" fill="#263238"/>
<path d="M152.202 313.21L371.249 302.922L152.202 313.21L181.437 456.661L175.267 455.926L148.088 317.473L152.202 313.21Z" fill="white"/>
<path d="M152.202 313.21L371.249 302.922L152.202 313.21ZM152.202 313.21L181.437 456.661L175.267 455.926L148.088 317.473L152.202 313.21Z" stroke="#263238" stroke-miterlimit="10" stroke-linejoin="round"/>
<path d="M169.244 324.528L360.671 315.562L386.087 426.677L193.925 443.874L169.244 324.528Z" fill="#651FFF" stroke="#263238" stroke-miterlimit="10"/>
<path d="M175.267 455.779L308.076 492.818L536.672 472.094L403.863 434.908L175.267 455.779Z" fill="white" stroke="#263238" stroke-miterlimit="10" stroke-linejoin="round"/>
<path d="M273.845 477.238L207.735 458.718L403.275 440.934L467.623 458.865L273.845 477.238Z" fill="white" stroke="#263238" stroke-miterlimit="10" stroke-linejoin="round"/>
<path d="M221.838 462.687L418.114 445.05" stroke="#263238" stroke-miterlimit="10" stroke-linejoin="round"/>
<path d="M238.292 467.243L434.568 449.753" stroke="#263238" stroke-miterlimit="10" stroke-linejoin="round"/>
<path d="M254.747 471.946L451.022 454.309" stroke="#263238" stroke-miterlimit="10" stroke-linejoin="round"/>
<path d="M231.388 456.808L296.176 474.886" stroke="#263238" stroke-miterlimit="10" stroke-linejoin="round"/>
<path d="M253.278 454.897L318.213 472.975" stroke="#263238" stroke-miterlimit="10" stroke-linecap="round" stroke-linejoin="round"/>
<path d="M272.083 452.986L337.018 471.065" stroke="#263238" stroke-miterlimit="10" stroke-linecap="round" stroke-linejoin="round"/>
<path d="M291.034 451.223L355.823 469.301" stroke="#263238" stroke-miterlimit="10" stroke-linecap="round" stroke-linejoin="round"/>
<path d="M309.839 449.312L374.628 467.39" stroke="#263238" stroke-miterlimit="10" stroke-linecap="round" stroke-linejoin="round"/>
<path d="M329.525 447.842L393.579 465.627" stroke="#263238" stroke-miterlimit="10" stroke-linecap="round" stroke-linejoin="round"/>
<path d="M348.33 445.932L412.972 463.863" stroke="#263238" stroke-miterlimit="10" stroke-linecap="round" stroke-linejoin="round"/>
<path d="M367.429 444.168L431.776 462.099" stroke="#263238" stroke-miterlimit="10" stroke-linecap="round" stroke-linejoin="round"/>
<path d="M386.968 442.551L450.581 460.188" stroke="#263238" stroke-miterlimit="10" stroke-linecap="round" stroke-linejoin="round"/>
<path d="M274.286 339.519L346.126 335.257C346.714 335.257 347.155 335.551 347.302 336.139L354.5 364.799C354.647 365.534 354.207 366.269 353.472 366.269L294.266 370.679C293.972 370.679 293.825 370.826 293.532 370.972L284.423 381.408C283.688 381.996 282.66 381.702 282.366 380.673L272.964 340.842C272.964 340.254 273.552 339.519 274.286 339.519Z" fill="white" stroke="#263238" stroke-miterlimit="10" stroke-linejoin="round"/>
<path d="M285.158 393.754L359.055 388.022L364.05 405.071L360.524 405.365L357.145 405.806L289.565 411.832L285.158 393.754Z" fill="white" stroke="#263238" stroke-miterlimit="10" stroke-linejoin="round"/>
<path d="M271.936 411.685L255.481 340.107L203.915 342.165L196.569 347.015L212.142 422.121L264.443 416.536L271.936 411.685Z" fill="white" stroke="#263238" stroke-miterlimit="10" stroke-linejoin="round"/>
<path d="M203.915 342.165L255.481 340.107L271.936 411.685L219.488 417.27L203.915 342.165Z" fill="white" stroke="#263238" stroke-miterlimit="10" stroke-linejoin="round"/>
<path d="M212.142 422.121L219.488 417.271" stroke="#263238" stroke-miterlimit="10"/>
<path d="M237.852 340.842L240.643 355.54C240.643 355.981 241.231 355.981 241.378 355.687L243.728 352.306C243.875 352.012 244.316 352.012 244.463 352.159L247.695 354.805C247.989 355.099 248.43 354.805 248.43 354.364L245.344 340.548L237.852 340.842Z" fill="#263238"/>
<path d="M221.251 373.03L253.572 370.531" stroke="#263238" stroke-miterlimit="10" stroke-linecap="round" stroke-linejoin="round"/>
<path d="M222.426 379.938L254.747 377.439" stroke="#263238" stroke-miterlimit="10" stroke-linecap="round" stroke-linejoin="round"/>
<path d="M300.877 348.485L311.749 347.75" stroke="#263238" stroke-miterlimit="10" stroke-linecap="round" stroke-linejoin="round"/>
<path d="M301.171 353.335L341.572 351.13" stroke="#263238" stroke-miterlimit="10" stroke-linecap="round" stroke-linejoin="round"/>
<path d="M301.906 358.333L342.307 356.275" stroke="#263238" stroke-miterlimit="10" stroke-linecap="round" stroke-linejoin="round"/>
<path d="M294.707 353.335C295.442 356.715 293.825 359.949 290.887 360.684C287.949 361.272 285.011 359.214 284.276 355.834C283.542 352.453 285.158 349.22 288.096 348.485C291.034 347.75 293.972 349.954 294.707 353.335Z" fill="white" stroke="#263238" stroke-miterlimit="10" stroke-linejoin="round"/>
<path d="M294.413 399.78C294.56 400.662 294.119 401.397 293.385 401.691C292.65 401.838 291.916 401.25 291.769 400.515C291.622 399.633 292.063 398.898 292.797 398.604C293.532 398.31 294.266 398.898 294.413 399.78Z" fill="#263238"/>
<path d="M299.702 399.192C299.849 400.074 299.408 400.809 298.674 401.103C297.939 401.25 297.205 400.662 297.058 399.927C296.911 399.045 297.352 398.31 298.086 398.016C298.821 397.722 299.555 398.31 299.702 399.192Z" fill="#263238"/>
<path d="M305.138 398.604C305.285 399.486 304.844 400.221 304.11 400.515C303.375 400.662 302.64 400.074 302.493 399.339C302.347 398.457 302.787 397.722 303.522 397.429C304.11 397.135 304.844 397.722 305.138 398.604Z" fill="#263238"/>
<path d="M568.112 270.587C568.112 270.587 565.173 254.419 563.557 310.859C562.088 363.771 561.5 419.328 561.5 419.328C561.5 419.328 532.852 420.21 502.148 433.585L482.314 441.816C482.314 441.816 533.881 470.33 570.462 481.794C604.252 492.229 607.337 466.508 603.371 403.749C603.371 403.749 584.272 274.996 568.112 270.587Z" fill="white" stroke="#263238" stroke-miterlimit="10" stroke-linejoin="round"/>
<path d="M432.658 92.8901C432.658 92.8901 389.613 115.819 414.294 138.894L443.53 109.646L432.658 92.8901Z" fill="#263238"/>
<path d="M497.006 202.977C497.006 202.977 506.702 202.683 512.432 215.764C512.432 215.764 506.114 200.919 517.133 188.573L497.006 202.977Z" fill="#263238"/>
<path d="M432.658 92.8903C432.658 92.8903 380.063 144.48 411.503 130.076C477.466 99.9452 474.087 175.933 474.087 175.933C474.087 175.933 483.196 167.702 479.817 176.374L497.006 202.977C497.006 202.977 533.734 189.161 535.644 142.863C536.378 127.136 520.953 55.5578 432.658 92.8903Z" fill="#263238"/>
<path d="M455.282 123.462C456.311 131.398 455.282 162.852 469.239 165.203C483.196 167.555 466.889 125.666 466.889 125.666L455.282 123.462Z" fill="#263238"/>
<path d="M411.062 292.927C394.461 367.886 386.674 445.344 386.674 445.344C386.674 445.344 353.766 435.937 322.473 430.94L288.39 421.827C287.214 421.386 275.461 415.801 271.642 412.126C267.675 408.158 265.324 419.181 271.789 424.179C273.698 425.648 275.168 426.971 276.343 428.147L268.116 429.47C266.647 429.617 265.324 430.352 264.296 431.234C258.566 436.378 239.908 453.721 243.434 454.75C244.316 455.044 245.344 455.044 246.373 454.897C240.055 460.188 239.468 465.626 241.231 465.92C243.875 466.214 247.254 464.304 250.633 461.511C247.695 464.892 244.022 472.534 248.136 472.24C253.571 471.947 258.273 467.684 262.68 460.482C262.68 460.482 261.652 462.393 262.092 461.952L258.86 467.243C258.86 467.243 265.471 473.122 270.319 475.768C274.874 478.414 277.665 468.86 271.054 464.892C271.054 464.892 273.405 462.54 275.314 457.543C275.314 457.543 293.679 466.361 302.934 459.453L309.104 460.041C325.118 470.036 406.361 506.633 417.526 505.751C442.795 503.841 447.643 454.162 459.837 345.398C459.69 345.251 418.554 259.269 411.062 292.927Z" fill="white" stroke="#263238" stroke-miterlimit="10" stroke-linejoin="round"/>
<path d="M386.674 445.343C386.674 445.343 378.741 449.606 377.272 461.217" stroke="#263238" stroke-miterlimit="10"/>
<path d="M586.182 403.308C599.257 401.103 620.266 393.901 620.266 393.901C620.266 393.901 612.185 292.192 586.622 262.062C585.3 259.269 581.04 253.39 567.23 251.479C563.116 250.892 559.15 250.157 555.33 249.275C541.814 246.335 530.943 242.367 527.857 240.309C527.857 240.309 527.857 240.456 527.857 240.603C527.857 240.603 527.711 240.456 527.564 240.456C527.564 240.456 528.151 243.249 527.27 246.335C527.123 246.629 527.123 246.923 526.976 247.217C526.976 247.364 526.829 247.511 526.829 247.658C526.682 248.099 526.388 248.54 526.094 248.981C521.834 255.889 494.067 258.681 466.154 243.984C466.154 243.984 418.261 271.174 405.626 280.581C386.087 322.323 377.713 416.536 377.713 412.126C377.713 410.951 417.526 431.821 443.53 432.997C443.676 440.346 440.02 519.29 440.02 519.29C440.02 519.29 539.014 519.29 597.887 519.29C597.887 519.29 580.158 447.401 582.509 429.029C582.509 426.971 585.594 408.746 586.182 403.308Z" fill="#651FFF" stroke="#263238" stroke-miterlimit="10"/>
<path d="M437.212 92.3022C437.212 92.3022 381.973 79.3681 385.499 93.625C389.025 107.882 403.275 120.228 403.275 120.228C403.275 120.228 386.968 119.787 395.489 128.018C404.01 136.249 411.209 135.661 411.209 135.661L437.212 92.3022Z" fill="#263238"/>
<path d="M464.244 219.291C464.244 219.291 469.974 217.822 480.405 208.856" stroke="#263238" stroke-miterlimit="10"/>
<path d="M474.381 152.416C474.381 152.416 470.561 81.279 433.246 89.9507" stroke="white" stroke-width="2" stroke-miterlimit="10"/>
<path d="M496.662 172.811C497.513 159.608 487.766 148.231 474.892 147.401C462.018 146.571 450.893 156.602 450.042 169.806C449.192 183.009 458.939 194.386 471.813 195.216C484.686 196.046 495.812 186.015 496.662 172.811Z" fill="#651FFF" stroke="#263238" stroke-miterlimit="10"/>
<path d="M489.072 171.964C488.485 181.518 480.845 188.72 472.177 188.132C463.363 187.544 456.752 179.46 457.486 169.907C458.074 160.353 465.713 153.151 474.381 153.739C483.049 154.327 489.66 162.558 489.072 171.964Z" fill="white" stroke="#263238" stroke-miterlimit="10"/>
<path d="M422.08 164.469C422.08 166.379 423.256 167.849 424.725 167.849C426.194 167.849 427.369 166.232 427.369 164.322C427.369 162.411 426.194 160.941 424.725 160.941C423.256 160.941 422.08 162.558 422.08 164.469Z" fill="#263238"/>
<path d="M435.009 154.474C432.805 151.534 429.867 150.506 427.369 149.771C424.725 148.889 422.08 148.007 420.905 149.33C420.17 150.065 420.17 151.534 420.758 152.416C421.64 153.592 423.403 153.592 425.019 153.739C431.63 154.474 435.449 158.442 436.184 157.414C436.625 156.679 435.596 155.209 435.009 154.474Z" fill="#263238"/>
<path d="M422.521 198.861C422.521 198.861 429.72 198.567 434.421 193.717" stroke="#263238" stroke-miterlimit="10"/>
<path d="M395.048 82.0138C395.489 82.0138 417.232 75.9877 433.686 94.6539" stroke="#263238" stroke-miterlimit="10"/>
<path d="M525.507 95.3889L523.891 112.291C523.891 112.291 528.298 103.914 536.966 109.499" stroke="#263238" stroke-miterlimit="10"/>
<path d="M416.791 113.761C416.791 113.761 398.427 139.776 407.83 139.776C422.08 139.629 436.037 121.257 433.539 120.228C430.748 119.346 416.791 113.761 416.791 113.761Z" fill="#263238"/>
<path d="M250.633 461.364L257.832 446.078L265.618 439.905" fill="white"/>
<path d="M250.633 461.364L257.832 446.078L265.618 439.905" stroke="#263238" stroke-miterlimit="10"/>
<path d="M246.226 454.75L254.6 445.344" stroke="#263238" stroke-miterlimit="10"/>
<path d="M276.196 441.669L266.794 448.43L261.946 461.805" fill="white"/>
<path d="M276.196 441.669L266.794 448.43L261.946 461.805" stroke="#263238" stroke-miterlimit="10" stroke-linejoin="round"/>
<path d="M405.479 280.581C405.479 280.581 464.979 265.883 463.657 341.283L460.865 431.674C460.865 431.674 449.7 434.026 438.241 432.556" stroke="#263238" stroke-miterlimit="10"/>
<path d="M583.978 299.541C583.978 299.541 596.466 329.672 596.613 356.275C596.759 370.532 586.182 403.602 586.182 403.602" stroke="#263238" stroke-miterlimit="10"/>
<path d="M276.196 428L286.48 426.53" stroke="#263238" stroke-miterlimit="10" stroke-linejoin="round"/>
<path d="M66.6985 458.571H175.855" stroke="#263238" stroke-miterlimit="10" stroke-linejoin="round"/>
<path d="M386.674 225.317C386.674 227.375 385.058 228.992 383.001 228.992C380.945 228.992 379.329 227.375 379.329 225.317C379.329 223.26 380.945 221.643 383.001 221.643C385.058 221.643 386.674 223.26 386.674 225.317Z" fill="white" stroke="#263238" stroke-miterlimit="10" stroke-linejoin="round"/>
<path d="M557.24 198.861C557.24 200.919 555.624 202.536 553.567 202.536C551.51 202.536 549.894 200.919 549.894 198.861C549.894 196.804 551.51 195.187 553.567 195.187C555.624 195.334 557.24 196.951 557.24 198.861Z" fill="white" stroke="#263238" stroke-miterlimit="10" stroke-linejoin="round"/>
<path d="M345.098 113.32C345.098 115.378 343.482 116.994 341.425 116.994C339.368 116.994 337.752 115.378 337.752 113.32C337.752 111.262 339.368 109.646 341.425 109.646C343.482 109.792 345.098 111.409 345.098 113.32Z" fill="white" stroke="#263238" stroke-miterlimit="10" stroke-linejoin="round"/>
<path d="M214.346 217.968C214.346 220.026 212.73 221.643 210.673 221.643C208.616 221.643 207 220.026 207 217.968C207 215.911 208.616 214.294 210.673 214.294C212.73 214.441 214.346 216.058 214.346 217.968Z" fill="white" stroke="#263238" stroke-miterlimit="10" stroke-linejoin="round"/>
<path d="M309.839 182.253C314.393 181.959 318.066 178.137 318.066 173.581C318.066 168.731 314.099 164.762 309.251 164.762C308.37 164.762 307.488 164.909 306.754 165.203C305.285 159.03 299.702 154.474 293.238 154.474C286.774 154.474 281.191 158.883 279.722 165.056C279.134 164.909 278.399 164.909 277.812 164.909C272.964 164.909 268.997 168.878 268.997 173.728C268.997 178.284 272.523 182.106 277.077 182.4L309.839 182.253Z" fill="white" stroke="#263238" stroke-miterlimit="10" stroke-linejoin="round"/>
<path d="M354.794 30.8653C359.642 30.5714 363.462 26.6029 363.462 21.7527C363.462 16.7554 359.348 12.64 354.353 12.64C353.472 12.64 352.59 12.787 351.709 13.081C350.093 6.76092 344.363 1.91064 337.605 1.91064C330.847 1.91064 325.118 6.61394 323.502 12.934C322.914 12.787 322.18 12.64 321.445 12.64C316.45 12.64 312.336 16.7554 312.336 21.7527C312.336 26.6029 316.009 30.4244 320.71 30.8653H354.794Z" fill="white" stroke="#263238" stroke-miterlimit="10" stroke-linejoin="round"/>
<path d="M501.413 0V4.11538" stroke="#263238" stroke-miterlimit="10" stroke-linejoin="round"/>
<path d="M488.191 7.34888L491.717 9.40657" stroke="#263238" stroke-miterlimit="10" stroke-linejoin="round"/>
<path d="M487.897 22.3407L491.423 20.283" stroke="#263238" stroke-miterlimit="10" stroke-linejoin="round"/>
<path d="M500.825 30.2775V26.0151" stroke="#263238" stroke-miterlimit="10" stroke-linejoin="round"/>
<path d="M514.047 22.9285L510.375 20.8708" stroke="#263238" stroke-miterlimit="10" stroke-linejoin="round"/>
<path d="M514.341 7.78979L510.668 9.84749" stroke="#263238" stroke-miterlimit="10" stroke-linejoin="round"/>
<path d="M254.747 63.9355V68.0509" stroke="#263238" stroke-miterlimit="10" stroke-linejoin="round"/>
<path d="M241.524 71.2844L245.05 73.3421" stroke="#263238" stroke-miterlimit="10" stroke-linejoin="round"/>
<path d="M241.231 86.4232L244.757 84.2185" stroke="#263238" stroke-miterlimit="10" stroke-linejoin="round"/>
<path d="M254.159 94.213V89.9507" stroke="#263238" stroke-miterlimit="10" stroke-linejoin="round"/>
<path d="M267.381 86.8641L263.708 84.8064" stroke="#263238" stroke-miterlimit="10" stroke-linejoin="round"/>
<path d="M267.675 71.7253L264.002 73.783" stroke="#263238" stroke-miterlimit="10" stroke-linejoin="round"/>
<path d="M284.57 238.545V242.661" stroke="#263238" stroke-miterlimit="10" stroke-linejoin="round"/>
<path d="M271.348 245.747L274.874 247.952" stroke="#263238" stroke-miterlimit="10" stroke-linejoin="round"/>
<path d="M271.054 260.886L274.58 258.828" stroke="#263238" stroke-miterlimit="10" stroke-linejoin="round"/>
<path d="M283.982 268.676V264.561" stroke="#263238" stroke-miterlimit="10" stroke-linejoin="round"/>
<path d="M297.204 261.474L293.531 259.416" stroke="#263238" stroke-miterlimit="10" stroke-linejoin="round"/>
<path d="M297.498 246.335L293.825 248.393" stroke="#263238" stroke-miterlimit="10" stroke-linejoin="round"/>
<path d="M62.5847 417.417C78.7311 417.417 91.8204 415.377 91.8204 412.861C91.8204 410.345 78.7311 408.305 62.5847 408.305C46.4384 408.305 33.3491 410.345 33.3491 412.861C33.3491 415.377 46.4384 417.417 62.5847 417.417Z" fill="#263238"/>
<path d="M55.2392 467.243H69.7836C75.2194 466.949 79.7737 466.361 82.565 465.479L90.6452 413.008H90.4983C90.4983 415.359 77.8638 417.417 62.438 417.417C46.8652 417.417 34.3776 415.506 34.3776 413.008H34.2307L42.3109 465.479C45.3961 466.361 49.8035 466.949 55.2392 467.243Z" fill="white" stroke="#263238" stroke-miterlimit="10" stroke-linejoin="round"/>
<path d="M21.7431 350.249C10.137 350.249 0.734619 359.655 0.734619 371.266C0.734619 373.177 1.02844 374.941 1.46918 376.705C2.05683 376.411 2.7914 376.264 3.67287 376.264C6.3173 376.264 8.52099 378.468 8.52099 381.114C8.52099 382.878 7.63952 384.494 6.17039 385.229C9.99012 389.492 15.5728 392.137 21.7431 392.137C33.3492 392.137 42.7517 382.731 42.7517 371.119C42.6047 359.655 33.2023 350.249 21.7431 350.249Z" fill="#651FFF" stroke="#263238" stroke-miterlimit="10"/>
<path d="M37.316 365.387C37.316 367.004 35.9937 368.327 34.3777 368.327C32.7617 368.327 31.4395 367.004 31.4395 365.387C31.4395 363.771 32.7617 362.448 34.3777 362.448C35.9937 362.448 37.316 363.771 37.316 365.387Z" fill="white" stroke="#263238" stroke-miterlimit="10" stroke-linejoin="round"/>
<path d="M111.456 369.337C118.03 359.772 115.609 346.687 106.049 340.11C96.4879 333.533 83.4082 335.955 76.8341 345.52C70.26 355.085 72.6811 368.17 82.2417 374.747C91.8023 381.324 104.882 378.902 111.456 369.337Z" fill="#651FFF" stroke="#263238" stroke-miterlimit="10"/>
<path d="M92.8488 357.745C92.8488 357.745 62.7317 375.235 65.2292 410.216" stroke="#263238" stroke-miterlimit="10" stroke-linejoin="round"/>
<path d="M52.8886 350.836C61.1157 358.92 74.3378 358.92 82.5649 350.689C90.6451 342.459 90.6451 329.231 82.418 321C74.1909 312.916 60.9688 312.916 52.7417 321.147C44.5145 329.525 44.6615 342.753 52.8886 350.836Z" fill="#651FFF" stroke="#263238" stroke-miterlimit="10"/>
<path d="M66.6985 336.874C66.6985 336.874 45.69 388.757 65.0825 414.772" stroke="#263238" stroke-miterlimit="10" stroke-linejoin="round"/>
<path d="M22.4778 371.12C22.4778 371.12 55.3862 382.437 59.7936 417.271" stroke="#263238" stroke-miterlimit="10" stroke-linejoin="round"/>
<path d="M86.5317 366.416C98.1378 366.416 107.54 375.823 107.54 387.434C107.54 389.345 107.246 391.108 106.806 392.872C106.218 392.578 105.483 392.431 104.602 392.431C101.958 392.431 99.7539 394.636 99.7539 397.281C99.7539 399.045 100.635 400.662 102.104 401.397C98.2847 405.659 92.702 408.305 86.5317 408.305C74.9256 408.305 65.5232 398.898 65.5232 387.287C65.5232 375.823 74.9256 366.416 86.5317 366.416Z" fill="#651FFF" stroke="#263238" stroke-miterlimit="10"/>
<path d="M70.959 381.555C70.959 383.172 72.2812 384.494 73.8972 384.494C75.5133 384.494 76.8355 383.172 76.8355 381.555C76.8355 379.938 75.5133 378.615 73.8972 378.615C72.2812 378.615 70.959 379.938 70.959 381.555Z" fill="white" stroke="#263238" stroke-miterlimit="10" stroke-linejoin="round"/>
<path d="M90.7921 382.73C90.7921 382.73 67.5799 391.99 61.8503 416.241" stroke="#263238" stroke-miterlimit="10" stroke-linejoin="round"/>
<path d="M27.2575 117.035C14.2184 117.974 3.52446 128.392 2.21117 141.345C1.64833 146.507 2.49259 151.294 4.46253 155.611C4.83775 156.456 4.83775 157.301 4.55633 158.146L1.83594 166.499C1.36691 168.095 2.77401 169.597 4.36872 169.221L12.2485 167.25C13.1865 167.062 14.2184 167.156 14.9689 167.625C19.753 170.629 25.4752 172.131 31.6665 171.661C44.8932 170.629 55.681 159.835 56.7128 146.601C58.0261 129.706 44.0489 115.721 27.2575 117.035Z" fill="white" stroke="#263238" stroke-miterlimit="10" stroke-linejoin="round"/>
<path d="M41.9851 141.157V151.482C41.9851 151.482 39.1709 155.518 29.884 155.518C20.5972 155.518 17.783 151.482 17.783 151.482V141.157" fill="#651FFF"/>
<path d="M41.9851 141.157V151.482C41.9851 151.482 39.1709 155.518 29.884 155.518C20.5972 155.518 17.783 151.482 17.783 151.482V141.157" stroke="#263238" stroke-miterlimit="10"/>
<path d="M38.6082 142.94V158.802" stroke="#263238" stroke-miterlimit="10"/>
<path d="M29.5089 146.976L11.2166 139.186C10.56 138.904 10.56 137.966 11.2166 137.778L29.5089 131.02C29.6965 130.926 29.8841 130.926 30.0717 131.02L48.364 137.778C49.0207 138.06 49.0207 138.904 48.364 139.186L30.0717 146.976C29.9779 147.07 29.6965 147.07 29.5089 146.976Z" fill="#651FFF" stroke="#263238" stroke-miterlimit="10"/>
<path d="M38.608 161.618C37.8576 161.618 37.2009 160.961 37.2009 160.21C37.2009 159.46 37.8576 158.802 38.608 158.802C39.3585 158.802 40.0151 159.46 40.0151 160.21C40.0151 161.055 39.4523 161.618 38.608 161.618Z" fill="#263238"/>
</svg>
