<svg width="36" height="36" viewBox="0 0 36 36" fill="none" xmlns="http://www.w3.org/2000/svg">
<path d="M20.8055 7.70625C21.1571 7.90312 21.375 8.27578 21.375 8.68359C21.375 9.54844 20.4399 10.0898 19.6946 9.66094L17.986 8.69062V16.9172H20.236C20.8618 16.9172 21.361 17.4164 21.361 18.0422C21.361 18.6609 20.8618 19.1672 20.236 19.1672H17.986V28.1672C17.986 28.7859 17.4868 29.2922 16.861 29.2922C16.2422 29.2922 15.736 28.7859 15.736 28.1672V6.77391C15.736 6.66352 15.75 6.55172 15.7852 6.44273C15.7571 6.30773 15.8836 6.18328 15.961 6.075C16.0454 5.96953 16.1368 5.88094 16.2422 5.81133C16.425 5.6932 16.636 5.625 16.861 5.625H16.868C16.9032 5.625 16.9383 5.62711 16.9735 5.62992C17.1422 5.64609 17.304 5.70164 17.4446 5.78742L20.8055 7.70625ZM23.0696 11.5875C22.718 11.3836 22.5 11.0109 22.5 10.6102C22.5 9.74531 23.4352 9.20391 24.1805 9.63281L29.243 12.5227C29.7844 12.832 29.9743 13.5211 29.6649 14.0555C29.3555 14.5969 28.6665 14.7867 28.1321 14.4773L26.986 13.8234V24.7922C26.986 25.4109 26.4868 25.9172 25.861 25.9172C25.2422 25.9172 24.736 25.4109 24.736 24.7922V12.5437L23.0696 11.5875ZM13.486 25.9172C13.486 26.4656 13.0922 26.9367 12.5438 27.0281C12.0024 27.1125 11.475 26.7961 11.2993 26.2688L8.98599 19.35V23.6672C8.98599 24.2859 8.48677 24.7922 7.86099 24.7922C7.24224 24.7922 6.7395 24.2859 6.7395 23.6672V12.4172C6.7395 11.8617 7.13677 11.3906 7.68521 11.3063C8.22661 11.2148 8.75396 11.5383 8.92974 12.0586L11.236 18.9211V10.1672C11.236 9.54141 11.7422 9.04219 12.361 9.04219C12.9868 9.04219 13.486 9.54141 13.486 10.1672V25.9172Z" fill="#651FFF"/>
<path opacity="0.4" d="M15.532 1.24105C17.1 0.33648 19.0266 0.33648 20.5945 1.24105L31.3453 7.44613C32.9133 8.35316 33.8766 10.0266 33.8766 11.8336V24.2508C33.8766 26.0578 32.9133 27.7313 31.3453 28.6313L20.5945 34.8399C19.0266 35.7469 17.1 35.7469 15.532 34.8399L4.78125 28.6313C3.21469 27.7313 2.25 26.0578 2.25 24.2508V11.8336C2.25 10.0266 3.21469 8.35316 4.78125 7.44613L15.532 1.24105ZM21.375 8.68363C21.375 8.27582 21.157 7.90316 20.8055 7.70628L17.4445 5.78746C17.3039 5.70167 17.1422 5.64613 16.9734 5.62996C16.9383 5.62714 16.9031 5.62503 16.868 5.62503H16.8609C16.6359 5.62503 16.425 5.69394 16.2422 5.81136C16.1367 5.88097 16.0453 5.96957 15.9609 6.07503C15.8836 6.18332 15.757 6.30777 15.7852 6.44277C15.75 6.55175 15.7359 6.66355 15.7359 6.77394V28.1672C15.7359 28.786 16.2422 29.2922 16.8609 29.2922C17.4867 29.2922 17.9859 28.786 17.9859 28.1672V19.1672H20.2359C20.8617 19.1672 21.3609 18.661 21.3609 18.0422C21.3609 17.4164 20.8617 16.9172 20.2359 16.9172H17.9859V8.69066L19.6945 9.66097C20.4398 10.0899 21.375 9.54847 21.375 8.68363ZM22.5 10.6102C22.5 11.011 22.718 11.3836 23.0695 11.5875L24.7359 12.5438V24.7922C24.7359 25.411 25.2422 25.9172 25.8609 25.9172C26.4867 25.9172 26.9859 25.411 26.9859 24.7922V13.8235L28.132 14.4774C28.6664 14.7868 29.3555 14.5969 29.6648 14.0555C29.9742 13.5211 29.7844 12.8321 29.243 12.5227L24.1805 9.63285C23.4352 9.20394 22.5 9.74535 22.5 10.6102ZM11.2359 10.1672V18.9211L8.92969 12.0586C8.75391 11.5383 8.22656 11.2149 7.68516 11.3063C7.13672 11.3907 6.73945 11.8618 6.73945 12.4172V23.6672C6.73945 24.286 7.24219 24.7922 7.86094 24.7922C8.48672 24.7922 8.98594 24.286 8.98594 23.6672V19.35L11.2992 26.2688C11.475 26.7961 12.0023 27.1125 12.5437 27.0282C13.0922 26.9368 13.4859 26.4657 13.4859 25.9172V10.1672C13.4859 9.54144 12.9867 9.04222 12.3609 9.04222C11.7422 9.04222 11.2359 9.54144 11.2359 10.1672Z" fill="#651FFF"/>
</svg>
