<svg width="16" height="16" viewBox="0 0 16 16" fill="none" xmlns="http://www.w3.org/2000/svg">
<g clip-path="url(#clip0_442_630)">
<path d="M5 5.5C5 2.4625 7.4625 0 10.5 0C13.5375 0 16 2.4625 16 5.5C16 8.5375 13.5375 11 10.5 11C9.91563 11 9.35 10.9094 8.82187 10.7406L5.25938 7.17812C5.09063 6.65 5 6.08437 5 5.5ZM11.75 3C11.0594 3 10.5 3.55938 10.5 4.25C10.5 4.94063 11.0594 5.5 11.75 5.5C12.4406 5.5 13 4.94063 13 4.25C13 3.55938 12.4406 3 11.75 3Z" fill="white"/>
<path opacity="0.4" d="M5.25938 7.17822L8.82187 10.7407L7.75313 11.7532C7.64062 11.922 7.45 12.0001 7.25 12.0001H6V13.2501C6 13.6657 5.66563 14.0001 5.25 14.0001H4V15.2501C4 15.6657 3.66563 16.0001 3.25 16.0001H0.75C0.335938 16.0001 0 15.6657 0 15.2501V12.7501C0 12.5501 0.0790312 12.3595 0.219656 12.2188L5.25938 7.17822Z" fill="white"/>
</g>
<defs>
<clipPath id="clip0_442_630">
<rect width="16" height="16" fill="white"/>
</clipPath>
</defs>
</svg>
