<svg width="24" height="24" viewBox="0 0 24 24" fill="none" xmlns="http://www.w3.org/2000/svg">
<g clip-path="url(#clip0_499_1045)">
<path d="M23.4516 20.7984L17.8407 15.1875C17.1362 16.2328 16.2347 17.1347 15.189 17.8392L20.7999 23.4502C21.5321 24.1823 22.7194 24.1823 23.4516 23.4502C24.1829 22.7203 24.1829 21.5297 23.4516 20.7984Z" fill="#C4C7CF"/>
<path opacity="0.4" d="M9.70758 0C4.36477 0 -0.000244141 4.36547 -0.000244141 9.75C-0.000244141 15.1345 4.36477 19.5 9.70758 19.5C15.0504 19.5 19.4576 15.1345 19.4576 9.75C19.4576 4.36547 15.1357 0 9.70758 0ZM9.70758 15.75C6.39914 15.75 3.70758 13.0584 3.70758 9.75C3.70758 6.44156 6.39914 3.75 9.70758 3.75C13.016 3.75 15.7076 6.44156 15.7076 9.75C15.7076 13.0594 13.0591 15.75 9.70758 15.75Z" fill="#C4C7CF"/>
</g>
<defs>
<clipPath id="clip0_499_1045">
<rect width="24" height="24" fill="white"/>
</clipPath>
</defs>
</svg>
