<svg width="28" height="36" viewBox="0 0 28 36" fill="none" xmlns="http://www.w3.org/2000/svg">
<g clip-path="url(#clip0_525_1305)">
<path d="M0 13.5C0 12.2555 1.0449 11.25 2.33333 11.25H25.6667C26.9573 11.25 28 12.2555 28 13.5C28 14.7445 26.9573 15.75 25.6667 15.75V18C25.6667 23.4422 21.6562 27.9211 16.3333 29.025V36H11.6667V29.025C6.34156 27.9211 2.33333 23.4422 2.33333 18V15.75C1.0449 15.75 0 14.7445 0 13.5Z" fill="#651FFF"/>
<path opacity="0.4" d="M9.33341 11.25H4.66675V2.25C4.66675 1.00758 5.71164 0 7.00008 0C8.29071 0 9.33341 1.00758 9.33341 2.25V11.25ZM23.3334 11.25H18.6667V2.25C18.6667 1.00758 19.7095 0 21.0001 0C22.2907 0 23.3334 1.00758 23.3334 2.25V11.25Z" fill="#651FFF"/>
</g>
<defs>
<clipPath id="clip0_525_1305">
<rect width="28" height="36" fill="white"/>
</clipPath>
</defs>
</svg>
