<svg width="20" height="32" viewBox="0 0 20 32" fill="none" xmlns="http://www.w3.org/2000/svg">
<path d="M12.7688 2.00073H6C2.69125 2.00073 0 4.69198 0 8.00073C0 9.10511 0.894375 9.94448 2 9.94448C3.10563 9.94448 4 9.04948 4 8.00073C4 6.89823 4.89625 6.00073 6 6.00073H12.7688C14.55 6.00073 16 7.45011 16 9.23761C16 10.4701 15.3144 11.5795 14.0938 12.1957L7.9875 15.7751C7.31875 16.1376 7 16.7939 7 17.5001V20.0001C7 21.1045 7.89437 21.9995 9 21.9995C10.1056 21.9995 11 21.1045 11 20.0001V18.6439L16 15.7064C18.4669 14.472 20 11.9926 20 9.23761C20 5.24698 16.7563 2.00073 12.7688 2.00073Z" fill="#651FFF"/>
<path opacity="0.4" d="M9 25C7.61937 25 6.5 26.1194 6.5 27.5C6.5 28.8806 7.61937 29.9438 9 29.9438C10.3806 29.9438 11.5 28.825 11.5 27.5C11.5 26.175 10.3812 25 9 25Z" fill="#651FFF"/>
</svg>
