<svg width="25" height="32" viewBox="0 0 25 32" fill="none" xmlns="http://www.w3.org/2000/svg">
<g clip-path="url(#clip0_513_1091)">
<path d="M5.20825 10C5.20825 9.45 5.6744 9 6.24992 9H18.7499C19.3228 9 19.7916 9.45 19.7916 10C19.7916 10.55 19.3228 11 18.7499 11H6.24992C5.6744 11 5.20825 10.55 5.20825 10ZM5.20825 22C5.20825 21.45 5.6744 21 6.24992 21H18.7499C19.3228 21 19.7916 21.45 19.7916 22C19.7916 22.55 19.3228 23 18.7499 23H6.24992C5.6744 23 5.20825 22.55 5.20825 22ZM18.7499 15C19.3228 15 19.7916 15.45 19.7916 16C19.7916 16.55 19.3228 17 18.7499 17H6.24992C5.6744 17 5.20825 16.55 5.20825 16C5.20825 15.45 5.6744 15 6.24992 15H18.7499Z" fill="#651FFF"/>
<path opacity="0.4" d="M0.909505 0.13725C1.46419 -0.1075 2.11589 -0.0200875 2.57943 0.361125L5.20833 2.52438L7.83854 0.361125C8.42448 -0.120375 9.28385 -0.120375 9.86979 0.361125L12.5 2.52438L15.1302 0.361125C15.7161 -0.120375 16.5755 -0.120375 17.1615 0.361125L19.7917 2.52438L22.4219 0.361125C22.8841 -0.0200875 23.5352 -0.1075 24.0885 0.13725C24.6419 0.382063 25 0.914375 25 1.5V30.5C25 31.0875 24.6419 31.6188 24.0885 31.8625C23.5352 32.1063 22.8841 32.0188 22.4219 31.6375L19.7917 29.475L17.1615 31.6375C16.5755 32.1188 15.7161 32.1188 15.1302 31.6375L12.5 29.475L9.86979 31.6375C9.28385 32.1188 8.42448 32.1188 7.83854 31.6375L5.20833 29.475L2.57943 31.6375C2.11589 32.0188 1.46419 32.1063 0.909505 31.8625C0.355208 31.6188 0 31.0875 0 30.5V1.5C0 0.914375 0.355208 0.382 0.909505 0.13725ZM6.25 9C5.67448 9 5.20833 9.45 5.20833 10C5.20833 10.55 5.67448 11 6.25 11H18.75C19.3229 11 19.7917 10.55 19.7917 10C19.7917 9.45 19.3229 9 18.75 9H6.25ZM6.25 23H18.75C19.3229 23 19.7917 22.55 19.7917 22C19.7917 21.45 19.3229 21 18.75 21H6.25C5.67448 21 5.20833 21.45 5.20833 22C5.20833 22.55 5.67448 23 6.25 23ZM6.25 15C5.67448 15 5.20833 15.45 5.20833 16C5.20833 16.55 5.67448 17 6.25 17H18.75C19.3229 17 19.7917 16.55 19.7917 16C19.7917 15.45 19.3229 15 18.75 15H6.25Z" fill="#651FFF"/>
</g>
<defs>
<clipPath id="clip0_513_1091">
<rect width="25" height="32" fill="white"/>
</clipPath>
</defs>
</svg>
