<svg width="18" height="16" viewBox="0 0 18 16" fill="none" xmlns="http://www.w3.org/2000/svg">
<g clip-path="url(#clip0_442_788)">
<path d="M17.7781 5.51553L13.0625 9.83428C12.65 10.2124 12 9.87803 12 9.31866V6.97178C8 6.99991 5.83437 7.88116 7.09375 11.8874C7.23353 12.3318 6.69375 12.6762 6.31437 12.4018C5.1 11.5249 4 9.84053 4 8.14366C4 3.94053 7.5375 3.05085 12 2.99991V0.682409C12 0.0949091 12.6503 -0.211653 13.0631 0.166159L17.7787 4.48491C18.075 4.75616 18.075 5.24366 17.7781 5.51553Z" fill="white"/>
<path opacity="0.4" d="M13 12C12.4478 12 12 12.4478 12 13V13.9719L2 13.9718V4H3C3.55219 4 4 3.5525 4 3C4 2.4475 3.55312 2 3 2H2C0.895313 2 0 2.89531 0 4V13.9719C0 15.0763 0.895313 15.9719 2 15.9719L12 15.9718C13.1047 15.9718 14 15.0762 14 13.9718V13C14 12.4469 13.5531 12 13 12Z" fill="white"/>
</g>
<defs>
<clipPath id="clip0_442_788">
<rect width="18" height="16" fill="white"/>
</clipPath>
</defs>
</svg>
