<svg width="16" height="16" viewBox="0 0 16 16" fill="none" xmlns="http://www.w3.org/2000/svg">
<g clip-path="url(#clip0_442_782)">
<path d="M12.7063 5.70625C13.0966 5.31594 13.0966 4.68281 12.7063 4.29219L8.70626 0.292188C8.51251 0.0976563 8.25626 0 8.00001 0C7.74376 0 7.48813 0.0976562 7.29313 0.292969L3.29313 4.29297C2.90282 4.68328 2.90282 5.31641 3.29313 5.70703C3.68376 6.09734 4.31688 6.09766 4.7072 5.70706L7.00001 3.41563V11C7.00001 11.5522 7.44782 12 8.00001 12C8.5522 12 9.00001 11.5522 9.00001 11V3.41563L11.2938 5.70625C11.6844 6.09688 12.3156 6.09688 12.7063 5.70625Z" fill="white"/>
<path opacity="0.4" d="M1 11H6C6 12.1047 6.89531 13 8 13C9.10469 13 10 12.1047 10 11H15C15.5522 11 16 11.4478 16 12V15C16 15.5522 15.5522 16 15 16H1C0.447812 16 0 15.5522 0 15V12C0 11.4469 0.446875 11 1 11ZM2.5 14.25C2.9125 14.25 3.25 13.9125 3.25 13.5C3.25 13.0875 2.9125 12.75 2.5 12.75C2.0875 12.75 1.75 13.0875 1.75 13.5C1.75 13.9125 2.0875 14.25 2.5 14.25Z" fill="white"/>
</g>
<defs>
<clipPath id="clip0_442_782">
<rect width="16" height="16" fill="white" transform="matrix(-1 0 0 1 16 0)"/>
</clipPath>
</defs>
</svg>
