<svg width="16" height="14" viewBox="0 0 16 14" fill="none" xmlns="http://www.w3.org/2000/svg">
<g clip-path="url(#clip0_442_779)">
<path d="M7.99751 8.75C9.43276 8.75 10.575 7.47687 10.575 5.90625C10.575 4.33563 9.41151 3.0625 7.99751 3.0625C6.56226 3.0625 5.42001 4.33563 5.42001 5.90625C5.39751 7.47578 6.56251 8.75 7.99751 8.75ZM9.24751 9.625H6.75251C4.79001 9.625 3.20001 11.2574 3.20001 13.2699C3.20001 13.6746 3.51751 14 3.91001 14H12.09C12.4825 14 12.8 13.6746 12.8 13.2699C12.8 11.2574 11.21 9.625 9.24751 9.625Z" fill="white"/>
<path opacity="0.4" d="M3.2 4.375C4.3045 4.375 5.2 3.39555 5.2 2.1875C5.2 0.979453 4.305 0 3.2 0C2.0955 0 1.2 0.979453 1.2 2.1875C1.2 3.39555 2.0955 4.375 3.2 4.375ZM12.8 4.375C13.9045 4.375 14.8 3.39555 14.8 2.1875C14.8 0.979453 13.905 0 12.8 0C11.6955 0 10.8 0.979453 10.8 2.1875C10.8 3.39555 11.695 4.375 12.8 4.375ZM13.7975 5.25H12.2515C11.9315 5.25 11.6295 5.33304 11.355 5.47531C11.37 5.61914 11.395 5.75859 11.395 5.90625C11.395 6.82801 11.0755 7.66199 10.566 8.3125H15.5585C15.8025 8.3125 16 8.08281 16 7.80117C16 6.39297 15.015 5.25 13.7975 5.25ZM4.6375 5.47148C4.365 5.30742 4.065 5.25 3.7475 5.25H2.202C0.986 5.25 0 6.39297 0 7.80117C0 8.08281 0.197175 8.3125 0.4405 8.3125H5.428C4.9185 7.66199 4.599 6.82801 4.599 5.90625C4.5975 5.75859 4.6225 5.61641 4.6375 5.47148Z" fill="white"/>
</g>
<defs>
<clipPath id="clip0_442_779">
<rect width="16" height="14" fill="white"/>
</clipPath>
</defs>
</svg>
