<svg width="411" height="414" viewBox="0 0 411 414" fill="none" xmlns="http://www.w3.org/2000/svg">
<path d="M386.157 3.43555H80.9652C68.9891 3.43555 59.2805 13.1439 59.2805 25.1198V388.277C59.2805 400.253 68.9891 409.961 80.9652 409.961H386.157C398.133 409.961 407.842 400.253 407.842 388.277V25.1198C407.842 13.1439 398.133 3.43555 386.157 3.43555Z" fill="white" stroke="#0B0D0E" stroke-width="3" stroke-miterlimit="10"/>
<path d="M257.526 79.073H159.552C157.307 79.073 155.486 80.8933 155.486 83.1388V93.3101C155.486 95.5555 157.307 97.3759 159.552 97.3759H257.526C259.772 97.3759 261.592 95.5555 261.592 93.3101V83.1388C261.592 80.8933 259.772 79.073 257.526 79.073Z" fill="#C4C7CF"/>
<path d="M333.26 104.166H159.552C157.307 104.166 155.486 105.986 155.486 108.232V112.304C155.486 114.55 157.307 116.37 159.552 116.37H333.26C335.506 116.37 337.326 114.55 337.326 112.304V108.232C337.326 105.986 335.506 104.166 333.26 104.166Z" fill="#E2E4E9"/>
<path d="M237.285 149.228H159.552C157.307 149.228 155.486 151.049 155.486 153.294V163.465C155.486 165.711 157.307 167.531 159.552 167.531H237.285C239.531 167.531 241.351 165.711 241.351 163.465V153.294C241.351 151.049 239.531 149.228 237.285 149.228Z" fill="#651FFF"/>
<path d="M313.981 174.328H159.552C157.307 174.328 155.486 176.148 155.486 178.394V182.466C155.486 184.712 157.307 186.532 159.552 186.532H313.981C316.227 186.532 318.047 184.712 318.047 182.466V178.394C318.047 176.148 316.227 174.328 313.981 174.328Z" fill="#5C5F6E"/>
<path d="M252.871 219.54H159.552C157.307 219.54 155.486 221.36 155.486 223.605V233.777C155.486 236.022 157.307 237.842 159.552 237.842H252.871C255.116 237.842 256.937 236.022 256.937 233.777V223.605C256.937 221.36 255.116 219.54 252.871 219.54Z" fill="#C4C7CF"/>
<path d="M313.981 244.632H159.552C157.307 244.632 155.486 246.453 155.486 248.698V252.771C155.486 255.016 157.307 256.836 159.552 256.836H313.981C316.227 256.836 318.047 255.016 318.047 252.771V248.698C318.047 246.453 316.227 244.632 313.981 244.632Z" fill="#E2E4E9"/>
<path d="M274.508 292.521H159.552C157.307 292.521 155.486 294.341 155.486 296.586V306.758C155.486 309.003 157.307 310.823 159.552 310.823H274.508C276.754 310.823 278.574 309.003 278.574 306.758V296.586C278.574 294.341 276.754 292.521 274.508 292.521Z" fill="#C4C7CF"/>
<path d="M312.599 317.62H159.552C157.307 317.62 155.486 319.44 155.486 321.686V325.758C155.486 328.004 157.307 329.824 159.552 329.824H312.599C314.844 329.824 316.665 328.004 316.665 325.758V321.686C316.665 319.44 314.844 317.62 312.599 317.62Z" fill="#E2E4E9"/>
<path d="M122.024 74.7158H94.8978C88.9097 74.7158 84.0554 79.57 84.0554 85.558V112.684C84.0554 118.672 88.9097 123.526 94.8978 123.526H122.024C128.012 123.526 132.866 118.672 132.866 112.684V85.558C132.866 79.57 128.012 74.7158 122.024 74.7158Z" fill="#E2E4E9"/>
<path d="M122.024 145.102H94.8978C88.9097 145.102 84.0554 149.956 84.0554 155.944V183.069C84.0554 189.057 88.9097 193.911 94.8978 193.911H122.024C128.012 193.911 132.866 189.057 132.866 183.069V155.944C132.866 149.956 128.012 145.102 122.024 145.102Z" fill="#651FFF"/>
<path d="M122.024 215.121H94.8978C88.9097 215.121 84.0554 219.976 84.0554 225.963V253.089C84.0554 259.077 88.9097 263.931 94.8978 263.931H122.024C128.012 263.931 132.866 259.077 132.866 253.089V225.963C132.866 219.976 128.012 215.121 122.024 215.121Z" fill="#E2E4E9"/>
<path d="M122.024 288.435H94.8978C88.9097 288.435 84.0554 293.289 84.0554 299.277V326.402C84.0554 332.39 88.9097 337.244 94.8978 337.244H122.024C128.012 337.244 132.866 332.39 132.866 326.402V299.277C132.866 293.289 128.012 288.435 122.024 288.435Z" fill="#E2E4E9"/>
<path d="M180.803 164.055H12.8414C6.85331 164.055 1.99902 168.909 1.99902 174.897V348.988C1.99902 354.976 6.85331 359.83 12.8414 359.83H180.803C186.791 359.83 191.645 354.976 191.645 348.988V174.897C191.645 168.909 186.791 164.055 180.803 164.055Z" fill="white"/>
<path d="M180.803 164.055H12.8414C6.85331 164.055 1.99902 168.909 1.99902 174.897V348.988C1.99902 354.976 6.85331 359.83 12.8414 359.83H180.803C186.791 359.83 191.645 354.976 191.645 348.988V174.897C191.645 168.909 186.791 164.055 180.803 164.055Z" stroke="#0B0D0E" stroke-width="3" stroke-miterlimit="10"/>
<path d="M190.5 181.348H3.00867V212.499H190.5V181.348Z" fill="#F4F5F6"/>
<path d="M49.1159 197.137L51.0133 199.847H49.658L47.8623 197.191H47.083V199.834H45.9648V192.61H48.7906C49.0974 192.592 49.4044 192.643 49.6884 192.761C49.9725 192.878 50.2262 193.058 50.4305 193.288C50.8058 193.745 51.0032 194.323 50.9862 194.914C51 195.449 50.8356 195.974 50.5186 196.405C50.35 196.619 50.1378 196.796 49.896 196.922C49.6541 197.048 49.3882 197.121 49.1159 197.137ZM48.7364 193.64H47.083V196.161H48.6958C48.8567 196.173 49.0182 196.146 49.1659 196.081C49.3137 196.016 49.4431 195.915 49.5428 195.788C49.7347 195.535 49.835 195.225 49.8274 194.908C49.8363 194.588 49.7412 194.274 49.5564 194.013C49.4617 193.887 49.3371 193.787 49.1938 193.722C49.0506 193.657 48.8933 193.629 48.7364 193.64Z" fill="#651FFF"/>
<path d="M56.4548 197.367C56.4548 197.557 56.4548 197.693 56.4548 197.76H52.5583C52.5745 197.935 52.6262 198.104 52.71 198.258C52.7939 198.412 52.9083 198.547 53.0463 198.655C53.3332 198.881 53.6908 198.998 54.0559 198.987C54.3266 198.989 54.5938 198.926 54.8352 198.804C55.0681 198.691 55.2601 198.509 55.3841 198.282L55.8653 198.499L56.2651 198.675C56.0626 199.075 55.7405 199.402 55.3435 199.61C54.9246 199.826 54.4592 199.935 53.9882 199.929C53.6601 199.936 53.3338 199.878 53.0288 199.757C52.7238 199.636 52.4463 199.455 52.2127 199.224C51.9725 198.98 51.7852 198.69 51.6628 198.37C51.5403 198.051 51.4853 197.709 51.5012 197.367C51.486 197.027 51.5421 196.687 51.6657 196.37C51.7894 196.052 51.9781 195.764 52.2195 195.524C52.4582 195.299 52.7392 195.123 53.0463 195.006C53.3533 194.89 53.6803 194.836 54.0085 194.846C54.3328 194.834 54.6562 194.888 54.9591 195.004C55.262 195.121 55.538 195.298 55.7704 195.524C56.0028 195.769 56.1832 196.059 56.3008 196.376C56.4184 196.693 56.4708 197.03 56.4548 197.367ZM52.5583 196.974H55.3977C55.363 196.634 55.2008 196.319 54.9437 196.093C54.6791 195.876 54.3441 195.762 54.0017 195.775C53.6504 195.765 53.307 195.88 53.0327 196.1C52.7656 196.318 52.5952 196.632 52.5583 196.974Z" fill="#651FFF"/>
<path d="M58.4741 197.706C58.0595 197.625 57.6806 197.416 57.3899 197.11C57.2812 196.971 57.2018 196.812 57.1563 196.642C57.1109 196.472 57.1005 196.295 57.1256 196.121C57.1413 195.936 57.199 195.758 57.2941 195.6C57.3892 195.441 57.5193 195.306 57.6745 195.206C58.0214 194.956 58.4398 194.825 58.8672 194.833C59.3051 194.818 59.7366 194.941 60.1005 195.185C60.271 195.312 60.4095 195.476 60.5048 195.666C60.6001 195.855 60.6497 196.064 60.6494 196.276H59.6329C59.6265 196.197 59.6017 196.12 59.5605 196.052C59.5194 195.984 59.463 195.926 59.3957 195.883C59.2535 195.795 59.0886 195.75 58.9214 195.755C58.7807 195.753 58.6409 195.776 58.508 195.822C58.3946 195.856 58.2963 195.928 58.2302 196.026C58.187 196.09 58.1606 196.164 58.1535 196.241C58.1464 196.318 58.1588 196.395 58.1895 196.466C58.237 196.615 58.4335 196.744 58.7858 196.839L59.538 197.029C59.8897 197.064 60.2153 197.23 60.451 197.493C60.6867 197.756 60.8155 198.098 60.812 198.452C60.8188 198.663 60.7728 198.873 60.6782 199.062C60.5835 199.252 60.4432 199.414 60.2699 199.536C59.8561 199.813 59.3647 199.951 58.8672 199.929C58.3973 199.933 57.9395 199.78 57.5661 199.495C57.3848 199.361 57.2385 199.185 57.1394 198.982C57.0404 198.779 56.9915 198.555 56.9969 198.33H57.9862C57.9976 198.43 58.0293 198.526 58.0794 198.614C58.1295 198.701 58.197 198.777 58.2776 198.838C58.4759 198.975 58.7145 199.042 58.9553 199.028C59.1736 199.035 59.3896 198.981 59.5787 198.872C59.6539 198.828 59.7165 198.766 59.7604 198.691C59.8044 198.617 59.8281 198.532 59.8294 198.445C59.8294 198.16 59.599 197.97 59.1518 197.869L58.4741 197.706Z" fill="#651FFF"/>
<path d="M63.1839 193.085V194.935H64.2207V195.836H63.1839V199.834H62.1064V195.836H61.2255V194.948H62.1064V193.098L63.1839 193.085Z" fill="#651FFF"/>
<path d="M68.9438 199.224C68.7008 199.451 68.4152 199.628 68.1035 199.745C67.7918 199.861 67.4602 199.914 67.1277 199.902C66.7972 199.916 66.4673 199.863 66.1576 199.746C65.8479 199.63 65.5648 199.452 65.3252 199.224C65.0797 198.986 64.8871 198.699 64.7599 198.381C64.6326 198.064 64.5736 197.723 64.5866 197.381C64.5724 197.04 64.6309 196.7 64.7582 196.383C64.8856 196.067 65.0789 195.781 65.3252 195.545C65.5662 195.318 65.8495 195.142 66.1588 195.026C66.4682 194.91 66.7974 194.856 67.1277 194.867C67.8009 194.844 68.4561 195.087 68.9506 195.545C69.4303 196.037 69.6988 196.697 69.6988 197.384C69.6988 198.072 69.4303 198.732 68.9506 199.224H68.9438ZM67.1277 198.892C67.3227 198.898 67.5168 198.864 67.6984 198.793C67.8801 198.722 68.0455 198.615 68.1849 198.479C68.3272 198.335 68.4385 198.163 68.5119 197.974C68.5853 197.785 68.6193 197.583 68.6118 197.381C68.6197 197.183 68.5857 196.985 68.5122 196.8C68.4386 196.616 68.3271 196.449 68.1849 196.31C68.0443 196.176 67.8785 196.071 67.697 196.001C67.5156 195.931 67.3221 195.898 67.1277 195.904C66.9355 195.899 66.7443 195.932 66.5651 196.002C66.3859 196.072 66.2225 196.177 66.0842 196.31C65.9396 196.448 65.8262 196.614 65.7514 196.799C65.6766 196.983 65.6421 197.182 65.6505 197.381C65.6431 197.583 65.6779 197.784 65.7525 197.972C65.8272 198.16 65.9401 198.33 66.0842 198.472C66.2211 198.608 66.3843 198.713 66.5638 198.783C66.7433 198.853 66.9352 198.886 67.1277 198.879V198.892Z" fill="#651FFF"/>
<path d="M71.7018 198.065V199.82H70.6244V194.935H71.7018V196.053C71.9368 195.24 72.3885 194.833 73.0571 194.833C73.3585 194.812 73.6596 194.878 73.9245 195.023L73.7483 196.012C73.5222 195.903 73.2742 195.848 73.0233 195.85C72.8192 195.843 72.6177 195.895 72.4432 196.001C72.2687 196.107 72.1288 196.262 72.0407 196.446C71.7956 196.949 71.6792 197.506 71.7018 198.065Z" fill="#651FFF"/>
<path d="M79.0814 197.368C79.0814 197.557 79.0814 197.693 79.0814 197.761H75.2188C75.2365 197.935 75.2888 198.103 75.3726 198.257C75.4564 198.411 75.57 198.546 75.7067 198.655C75.994 198.881 76.3513 198.998 76.7164 198.987C76.9871 198.989 77.2543 198.926 77.4957 198.804C77.7286 198.692 77.9205 198.509 78.0446 198.282L78.5257 198.499L78.9255 198.675C78.7231 199.075 78.4009 199.402 78.0039 199.61C77.5853 199.827 77.1198 199.936 76.6486 199.929C76.3178 199.938 75.9887 199.879 75.6812 199.757C75.3737 199.634 75.0942 199.451 74.8597 199.217C74.619 198.975 74.431 198.686 74.3074 198.367C74.1838 198.049 74.1273 197.709 74.1414 197.368C74.1262 197.027 74.1822 196.687 74.3059 196.37C74.4296 196.053 74.6182 195.765 74.8597 195.524C75.0984 195.299 75.3793 195.123 75.6864 195.007C75.9934 194.89 76.3205 194.836 76.6486 194.847C76.973 194.833 77.2967 194.887 77.5997 195.003C77.9027 195.12 78.1786 195.297 78.4105 195.524C78.6405 195.771 78.8184 196.061 78.9337 196.378C79.049 196.694 79.0992 197.031 79.0814 197.368ZM75.1849 196.974H78.0243C77.9896 196.634 77.8274 196.319 77.5702 196.094C77.3057 195.876 76.9707 195.763 76.6283 195.775C76.277 195.765 75.9336 195.881 75.6593 196.1C75.4087 196.327 75.2516 196.638 75.2188 196.974H75.1849Z" fill="#651FFF"/>
<path d="M48.6144 232.388H45.809V225.178H48.6144C49.0608 225.158 49.5059 225.239 49.9165 225.415C50.3272 225.591 50.6929 225.857 50.9862 226.194C51.5852 226.926 51.8961 227.851 51.8604 228.796C51.8981 229.734 51.5893 230.653 50.993 231.378C50.6973 231.713 50.3301 231.978 49.9185 232.153C49.5068 232.328 49.0612 232.408 48.6144 232.388ZM46.9203 226.214V231.364H48.6144C48.9166 231.38 49.2182 231.323 49.4932 231.196C49.7682 231.07 50.0085 230.879 50.1933 230.639C50.5811 230.105 50.7769 229.456 50.749 228.796C50.7768 228.132 50.5811 227.479 50.1933 226.939C50.0077 226.701 49.7673 226.51 49.4925 226.384C49.2176 226.258 48.9165 226.2 48.6144 226.214H46.9203Z" fill="#5C5F6E"/>
<path d="M57.478 229.928C57.478 230.124 57.478 230.253 57.478 230.327H53.5883C53.606 230.502 53.6583 230.67 53.7421 230.824C53.8259 230.978 53.9395 231.113 54.0762 231.222C54.3649 231.444 54.7218 231.559 55.0859 231.547C55.3565 231.549 55.6235 231.486 55.8652 231.364C56.0949 231.25 56.2859 231.071 56.4141 230.849L56.8885 231.066L57.295 231.235C57.0945 231.637 56.7718 231.964 56.3734 232.171C55.9557 232.389 55.4895 232.499 55.0182 232.489C54.6897 232.502 54.362 232.449 54.0547 232.332C53.7473 232.216 53.4665 232.039 53.2292 231.811C52.9876 231.57 52.7986 231.28 52.6738 230.962C52.5491 230.644 52.4913 230.303 52.5041 229.962C52.4899 229.622 52.547 229.283 52.6719 228.966C52.7968 228.65 52.9867 228.364 53.2292 228.125C53.4681 227.9 53.7491 227.724 54.0561 227.608C54.3631 227.492 54.69 227.437 55.0182 227.448C55.3414 227.435 55.6638 227.489 55.9655 227.605C56.2673 227.722 56.5422 227.899 56.7733 228.125C57.0052 228.363 57.1871 228.645 57.3082 228.955C57.4292 229.265 57.487 229.595 57.478 229.928ZM53.5883 229.541H56.4209C56.392 229.197 56.2289 228.879 55.9669 228.654C55.7038 228.438 55.3716 228.325 55.0317 228.335C54.6781 228.324 54.3323 228.44 54.0559 228.66C53.9238 228.769 53.8146 228.903 53.7343 229.054C53.6541 229.206 53.6045 229.371 53.5883 229.541Z" fill="#5C5F6E"/>
<path d="M58.359 232.387V224.839H59.4365V232.387H58.359Z" fill="#5C5F6E"/>
<path d="M65.3319 229.928C65.3319 230.124 65.3319 230.253 65.3319 230.328H61.4355C61.4532 230.502 61.5054 230.67 61.5892 230.824C61.673 230.978 61.7866 231.113 61.9234 231.222C62.2126 231.443 62.5691 231.558 62.9331 231.547C63.2037 231.549 63.4709 231.487 63.7123 231.364C63.9448 231.254 64.1368 231.074 64.2612 230.849L64.7356 231.066L65.1422 231.236C64.9436 231.638 64.6204 231.966 64.2206 232.171C63.8029 232.389 63.3367 232.499 62.8653 232.489C62.5369 232.502 62.2092 232.449 61.9018 232.332C61.5944 232.216 61.3137 232.039 61.0763 231.812C60.8357 231.569 60.6477 231.28 60.524 230.962C60.4004 230.643 60.3439 230.303 60.358 229.962C60.3429 229.622 60.399 229.284 60.5227 228.967C60.6464 228.651 60.835 228.364 61.0763 228.125C61.3152 227.9 61.5962 227.724 61.9032 227.608C62.2102 227.492 62.5372 227.437 62.8653 227.448C63.1896 227.435 63.513 227.489 63.8159 227.605C64.1188 227.722 64.3948 227.899 64.6272 228.125C64.8592 228.363 65.041 228.646 65.1621 228.955C65.2831 229.265 65.3409 229.595 65.3319 229.928ZM61.4355 229.541H64.2748C64.2418 229.199 64.0794 228.881 63.8208 228.654C63.5547 228.439 63.2207 228.326 62.8788 228.335C62.5275 228.326 62.1841 228.441 61.9098 228.661C61.6412 228.88 61.4706 229.197 61.4355 229.541Z" fill="#5C5F6E"/>
<path d="M67.6767 225.652V227.509H68.7135V228.362H67.6767V232.36H66.5992V228.362H65.7318V227.475H66.6128V225.652H67.6767Z" fill="#5C5F6E"/>
<path d="M74.0397 229.928C74.0397 230.124 74.0397 230.253 74.0397 230.327H70.1568C70.1745 230.502 70.2268 230.67 70.3106 230.824C70.3944 230.977 70.508 231.113 70.6447 231.222C70.934 231.443 71.2905 231.558 71.6544 231.547C71.9251 231.549 72.1923 231.487 72.4337 231.364C72.6661 231.254 72.8581 231.074 72.9826 230.849L73.4637 231.066L73.8636 231.235C73.665 231.638 73.3418 231.966 72.942 232.171C72.5242 232.389 72.058 232.499 71.5867 232.489C71.2582 232.502 70.9306 232.449 70.6232 232.332C70.3158 232.216 70.0351 232.039 69.7977 231.811C69.557 231.569 69.369 231.28 69.2454 230.961C69.1218 230.643 69.0653 230.303 69.0794 229.962C69.0594 229.617 69.1132 229.271 69.237 228.949C69.3609 228.627 69.552 228.334 69.7977 228.091C70.0366 227.866 70.3176 227.69 70.6246 227.574C70.9316 227.458 71.2585 227.403 71.5867 227.414C71.9109 227.401 72.2344 227.455 72.5373 227.571C72.8402 227.688 73.1162 227.865 73.3485 228.091C73.5823 228.334 73.7641 228.623 73.8829 228.938C74.0017 229.254 74.0551 229.591 74.0397 229.928ZM70.1433 229.541H72.9826C72.9496 229.199 72.7872 228.881 72.5286 228.654C72.2625 228.439 71.9285 228.326 71.5867 228.335C71.2353 228.325 70.8919 228.441 70.6176 228.66C70.349 228.88 70.1784 229.196 70.1433 229.541Z" fill="#5C5F6E"/>
<path d="M45.6531 264.771V257.555H49.929V258.585H46.7576V260.719H49.2717V261.736H46.7576V264.771H45.6531Z" fill="#5C5F6E"/>
<path d="M50.7151 264.771V257.223H51.7926V264.771H50.7151Z" fill="#5C5F6E"/>
<path d="M56.3328 262.508V259.879H57.417V264.772H56.3328V264.06C56.1972 264.32 55.9808 264.53 55.7161 264.656C55.4597 264.795 55.1738 264.869 54.8826 264.873C54.6219 264.888 54.3611 264.845 54.1187 264.748C53.8763 264.651 53.6582 264.502 53.4799 264.311C53.1175 263.865 52.9404 263.298 52.9852 262.725V259.879H54.0627V262.59C54.0405 262.915 54.1422 263.237 54.3473 263.491C54.4373 263.596 54.5497 263.68 54.6763 263.737C54.803 263.793 54.9406 263.82 55.0791 263.816C55.4081 263.827 55.7287 263.711 55.9736 263.491C56.1011 263.363 56.1992 263.209 56.2613 263.039C56.3233 262.869 56.3477 262.688 56.3328 262.508Z" fill="#5C5F6E"/>
<path d="M59.8024 262.657C59.3869 262.574 59.0079 262.363 58.7181 262.054C58.6079 261.917 58.527 261.758 58.4804 261.588C58.4338 261.417 58.4224 261.24 58.4471 261.065C58.4655 260.881 58.525 260.703 58.6211 260.545C58.7173 260.386 58.8477 260.251 59.0027 260.15C59.3492 259.899 59.7679 259.769 60.1954 259.777C60.6332 259.763 61.0644 259.887 61.4287 260.13C61.5992 260.256 61.7377 260.42 61.833 260.61C61.9284 260.799 61.9779 261.009 61.9776 261.221H60.9882C60.9803 261.142 60.9549 261.066 60.9139 260.998C60.8729 260.93 60.8173 260.872 60.7511 260.828C60.6088 260.74 60.444 260.695 60.2767 260.699C60.1361 260.698 59.9962 260.721 59.8633 260.767C59.7979 260.785 59.7371 260.817 59.6846 260.86C59.6321 260.903 59.5892 260.956 59.5585 261.017C59.5279 261.077 59.5103 261.144 59.5068 261.212C59.5032 261.279 59.5139 261.347 59.5381 261.411C59.5923 261.56 59.7888 261.688 60.1344 261.783L60.8934 261.973C61.245 262.008 61.5706 262.174 61.8063 262.437C62.0421 262.701 62.1708 263.043 62.1673 263.396C62.1742 263.608 62.1282 263.817 62.0335 264.007C61.9389 264.196 61.7985 264.359 61.6252 264.48C61.2114 264.757 60.72 264.895 60.2225 264.873C59.7522 264.88 59.2934 264.728 58.9214 264.44C58.7405 264.304 58.5941 264.128 58.494 263.926C58.3939 263.723 58.343 263.5 58.3454 263.274H59.3416C59.3521 263.374 59.3835 263.471 59.4336 263.559C59.4838 263.646 59.5517 263.722 59.6329 263.782C59.8312 263.92 60.0698 263.986 60.3106 263.972C60.5289 263.979 60.7449 263.925 60.934 263.816C61.0088 263.773 61.0709 263.711 61.1137 263.636C61.1566 263.561 61.1788 263.476 61.178 263.389C61.178 263.111 60.9544 262.915 60.5003 262.813L59.8024 262.657Z" fill="#5C5F6E"/>
<path d="M64.119 262.142V264.771H63.0212V257.223H64.0987V260.611C64.2436 260.328 64.4835 260.105 64.7763 259.981C65.0576 259.844 65.3651 259.77 65.6776 259.764C65.9477 259.748 66.218 259.792 66.4696 259.891C66.7212 259.991 66.9481 260.144 67.1346 260.34C67.5049 260.801 67.6908 261.383 67.6563 261.973V264.758H66.5721V262.047C66.5896 261.722 66.4775 261.403 66.2604 261.16C66.1614 261.053 66.0406 260.968 65.9061 260.912C65.7717 260.856 65.6267 260.83 65.4811 260.834C65.1366 260.829 64.801 260.944 64.5324 261.16C64.3916 261.28 64.2809 261.431 64.2091 261.602C64.1373 261.773 64.1065 261.958 64.119 262.142Z" fill="#5C5F6E"/>
<path d="M48.9329 302.943H46.1274V295.732H48.9329C49.3799 295.712 49.8257 295.794 50.2365 295.971C50.6474 296.148 51.0126 296.417 51.3047 296.756C51.906 297.486 52.2172 298.412 52.1788 299.358C52.2162 300.295 51.9047 301.212 51.3047 301.933C51.0116 302.27 50.6459 302.536 50.235 302.711C49.8241 302.886 49.3789 302.965 48.9329 302.943ZM47.2388 296.803V301.953H48.9329C49.2345 301.97 49.5357 301.913 49.8107 301.788C50.0856 301.663 50.3262 301.473 50.5118 301.235C50.8763 300.687 51.0708 300.043 51.0708 299.385C51.0708 298.727 50.8763 298.083 50.5118 297.535C50.3281 297.294 50.0882 297.101 49.813 296.973C49.5379 296.846 49.2358 296.787 48.9329 296.803H47.2388Z" fill="#5C5F6E"/>
<path d="M57.7965 300.49C57.7965 300.679 57.7965 300.815 57.7965 300.883H53.9C53.9401 301.233 54.1151 301.554 54.3879 301.777C54.6752 302.003 55.0325 302.12 55.3976 302.109C55.6683 302.111 55.9355 302.049 56.1769 301.926C56.4098 301.814 56.6017 301.631 56.7258 301.404L57.2069 301.621L57.6067 301.791C57.4066 302.194 57.084 302.524 56.6851 302.733C56.2669 302.95 55.8011 303.059 55.3299 303.051C54.9964 303.055 54.6656 302.991 54.3579 302.863C54.0501 302.734 53.7719 302.544 53.5402 302.304C53.3086 302.064 53.1284 301.78 53.0108 301.468C52.8933 301.156 52.8407 300.823 52.8564 300.49C52.8359 300.152 52.8856 299.814 53.0022 299.497C53.1188 299.18 53.2999 298.89 53.5341 298.647C54.0195 298.192 54.6652 297.948 55.3299 297.969C55.6532 297.956 55.9756 298.01 56.2775 298.126C56.5793 298.243 56.8541 298.42 57.085 298.647C57.3222 298.89 57.5076 299.178 57.6299 299.495C57.7522 299.812 57.8089 300.15 57.7965 300.49ZM53.9 300.097H56.7394C56.7047 299.756 56.5425 299.442 56.2853 299.216C56.0229 298.999 55.6903 298.886 55.3502 298.897C54.9966 298.886 54.6507 299.002 54.3744 299.223C54.1112 299.443 53.9416 299.756 53.9 300.097Z" fill="#5C5F6E"/>
<path d="M60.1411 296.207V298.057H61.1779V298.945H60.1411V302.943H59.0637V298.945H58.1827V298.057H59.0637V296.207H60.1411Z" fill="#5C5F6E"/>
<path d="M65.664 302.943V302.265C65.5038 302.526 65.2672 302.732 64.9863 302.854C64.6894 302.994 64.3658 303.068 64.0376 303.071C63.7123 303.076 63.3893 303.016 63.0878 302.894C62.7863 302.772 62.5124 302.59 62.2825 302.36C62.0415 302.119 61.8528 301.831 61.728 301.514C61.6033 301.197 61.5452 300.857 61.5574 300.517C61.5445 300.177 61.6023 299.838 61.7271 299.522C61.8519 299.206 62.041 298.919 62.2825 298.68C62.515 298.456 62.7901 298.28 63.0915 298.164C63.393 298.047 63.7147 297.993 64.0376 298.003C64.3624 298.003 64.6834 298.073 64.9796 298.206C65.2602 298.329 65.4966 298.535 65.6572 298.795V298.118H66.7279V303.004L65.664 302.943ZM63.0889 299.412C62.9446 299.551 62.8313 299.719 62.7566 299.904C62.6818 300.09 62.6473 300.29 62.6552 300.49C62.6497 300.688 62.6846 300.886 62.7577 301.071C62.8308 301.256 62.9407 301.424 63.0807 301.566C63.2207 301.707 63.3879 301.818 63.5722 301.893C63.7565 301.968 63.954 302.004 64.1528 302.001C64.3486 302.005 64.5434 301.971 64.7259 301.9C64.9085 301.829 65.0753 301.723 65.2167 301.587C65.3639 301.446 65.4793 301.275 65.5552 301.086C65.6312 300.897 65.6659 300.693 65.6572 300.49C65.6678 300.286 65.6325 300.083 65.5539 299.896C65.4753 299.708 65.3554 299.54 65.2032 299.405C64.9171 299.142 64.5418 298.997 64.1528 298.999C63.7575 298.991 63.3751 299.139 63.0889 299.412Z" fill="#5C5F6E"/>
<path d="M68.0086 296.559C67.9398 296.5 67.8848 296.426 67.8474 296.343C67.81 296.26 67.791 296.169 67.7918 296.078C67.7914 295.987 67.8106 295.897 67.848 295.814C67.8854 295.731 67.9402 295.657 68.0086 295.597C68.1464 295.469 68.3285 295.398 68.5169 295.401C68.6089 295.396 68.7009 295.411 68.7871 295.444C68.8734 295.476 68.952 295.526 69.0183 295.59C69.0839 295.654 69.1361 295.729 69.1717 295.813C69.2073 295.897 69.2257 295.987 69.2257 296.078C69.2257 296.169 69.2073 296.259 69.1717 296.343C69.1361 296.427 69.0839 296.503 69.0183 296.566C68.8814 296.694 68.701 296.766 68.5135 296.766C68.326 296.766 68.1455 296.694 68.0086 296.566V296.559ZM69.0454 302.943V298.057H67.9815V302.943H69.0454Z" fill="#5C5F6E"/>
<path d="M70.2924 302.943V295.401H71.3698V302.943H70.2924Z" fill="#5C5F6E"/>
<path d="M48.6144 335.483H45.809V328.273H48.6144C49.0612 328.254 49.5065 328.336 49.9172 328.513C50.3278 328.691 50.6932 328.958 50.9862 329.296C51.5512 330.041 51.857 330.95 51.857 331.884C51.857 332.819 51.5512 333.728 50.9862 334.473C50.6922 334.809 50.3263 335.074 49.9156 335.249C49.505 335.424 49.0602 335.503 48.6144 335.483ZM46.9203 329.33V334.48H48.6144C48.9161 334.497 49.2175 334.441 49.4926 334.316C49.7676 334.19 50.0081 334 50.1933 333.761C50.552 333.211 50.743 332.568 50.743 331.912C50.743 331.255 50.552 330.612 50.1933 330.062C50.0084 329.822 49.7683 329.63 49.4935 329.502C49.2186 329.375 48.9171 329.316 48.6144 329.33H46.9203Z" fill="#5C5F6E"/>
<path d="M56.8817 334.873C56.6419 335.107 56.3578 335.292 56.046 335.415C55.7342 335.538 55.4008 335.598 55.0656 335.591C54.7312 335.599 54.3987 335.539 54.0879 335.416C53.7771 335.292 53.4942 335.108 53.2562 334.873C53.0121 334.634 52.8204 334.346 52.6933 334.029C52.5661 333.712 52.5063 333.371 52.5176 333.03C52.5047 332.689 52.5638 332.349 52.6911 332.033C52.8184 331.716 53.0109 331.43 53.2562 331.193C53.7539 330.746 54.3996 330.498 55.0689 330.498C55.7383 330.498 56.384 330.746 56.8817 331.193C57.1289 331.429 57.3232 331.715 57.4517 332.031C57.5802 332.348 57.64 332.688 57.6271 333.03C57.6388 333.372 57.5785 333.713 57.4501 334.03C57.3217 334.348 57.128 334.635 56.8817 334.873ZM55.0656 334.548C55.2647 334.553 55.4626 334.516 55.6472 334.441C55.8317 334.366 55.9987 334.254 56.138 334.112C56.2772 333.969 56.3856 333.8 56.4564 333.614C56.5273 333.427 56.559 333.229 56.5496 333.03C56.5575 332.831 56.5235 332.633 56.45 332.449C56.3764 332.265 56.2649 332.098 56.1227 331.959C55.8371 331.69 55.4576 331.544 55.0656 331.552C54.8724 331.548 54.6801 331.581 54.4999 331.651C54.3197 331.721 54.155 331.826 54.0152 331.959C53.873 332.098 53.7614 332.265 53.6879 332.449C53.6143 332.633 53.5804 332.831 53.5883 333.03C53.5817 333.231 53.6161 333.432 53.6895 333.619C53.7629 333.807 53.8737 333.977 54.0152 334.121C54.1519 334.26 54.3156 334.369 54.4963 334.443C54.6769 334.516 54.8706 334.552 55.0656 334.548Z" fill="#5C5F6E"/>
<path d="M65.7317 330.597L63.9428 335.482H63.0212L61.7811 332.04L60.5884 335.503H59.7075L57.8643 330.617H59.0163L60.1479 333.917L61.2796 330.617H62.2825L63.4142 333.917L64.5526 330.617L65.7317 330.597Z" fill="#5C5F6E"/>
<path d="M67.4666 332.86V335.482H66.4094V330.597H67.4869V331.362C67.6206 331.093 67.8399 330.877 68.1103 330.746C68.3798 330.604 68.6798 330.529 68.9845 330.529C69.2373 330.517 69.4897 330.56 69.7239 330.656C69.9581 330.752 70.1684 330.898 70.3398 331.085C70.6931 331.534 70.8669 332.099 70.8277 332.67V335.516H69.7434V332.806C69.762 332.485 69.6659 332.168 69.4724 331.911C69.3786 331.806 69.2625 331.722 69.1323 331.667C69.0022 331.612 68.8614 331.586 68.7202 331.593C68.3925 331.582 68.0728 331.696 67.8257 331.911C67.7034 332.036 67.6083 332.185 67.5465 332.348C67.4847 332.511 67.4574 332.686 67.4666 332.86Z" fill="#5C5F6E"/>
<path d="M72.0204 335.483V327.975H73.0978V335.517L72.0204 335.483Z" fill="#5C5F6E"/>
<path d="M78.3834 334.873C78.1441 335.108 77.8601 335.292 77.5482 335.416C77.2362 335.539 76.9027 335.599 76.5673 335.591C76.234 335.598 75.9026 335.539 75.5929 335.415C75.2832 335.292 75.0015 335.107 74.7648 334.873C74.5193 334.634 74.3267 334.347 74.1994 334.03C74.0722 333.712 74.0131 333.371 74.0261 333.029C74.0119 332.688 74.0705 332.348 74.1978 332.032C74.3252 331.715 74.5184 331.429 74.7648 331.193C75.2523 330.738 75.9005 330.494 76.5673 330.515C77.2407 330.491 77.8964 330.734 78.3902 331.193C78.8699 331.685 79.1384 332.345 79.1384 333.033C79.1384 333.72 78.8699 334.38 78.3902 334.873H78.3834ZM76.5741 334.547C76.7735 334.552 76.9718 334.516 77.1566 334.441C77.3415 334.366 77.5089 334.254 77.6487 334.112C77.7885 333.969 77.8975 333.8 77.9691 333.614C78.0407 333.428 78.0733 333.229 78.0649 333.029C78.0732 332.83 78.0388 332.632 77.964 332.447C77.8892 332.262 77.7757 332.096 77.6312 331.959C77.3441 331.697 76.9695 331.552 76.5809 331.552C76.1922 331.552 75.8176 331.697 75.5305 331.959C75.3883 332.097 75.2767 332.264 75.2032 332.449C75.1296 332.633 75.0957 332.831 75.1036 333.029C75.097 333.231 75.1314 333.431 75.2048 333.619C75.2782 333.806 75.389 333.977 75.5305 334.12C75.6664 334.259 75.829 334.368 76.0084 334.441C76.1878 334.514 76.3803 334.551 76.5741 334.547Z" fill="#5C5F6E"/>
<path d="M83.8724 335.482V334.805C83.7122 335.066 83.4757 335.272 83.1948 335.394C82.8979 335.534 82.5742 335.608 82.2461 335.611C81.9208 335.616 81.5977 335.556 81.2962 335.434C80.9947 335.312 80.7209 335.13 80.491 334.9C80.25 334.659 80.0612 334.371 79.9364 334.054C79.8117 333.736 79.7536 333.397 79.7659 333.057C79.753 332.725 79.8078 332.393 79.9271 332.083C80.0464 331.773 80.2276 331.491 80.4597 331.253C80.6917 331.015 80.9698 330.827 81.277 330.7C81.5841 330.573 81.9138 330.511 82.2461 330.515C82.5709 330.516 82.8918 330.585 83.188 330.719C83.4687 330.842 83.7051 331.047 83.8657 331.308V330.631H84.9363V335.516L83.8724 335.482ZM81.2974 331.952C81.153 332.091 81.0398 332.258 80.965 332.444C80.8902 332.63 80.8557 332.829 80.8637 333.029C80.8591 333.228 80.8946 333.426 80.968 333.611C81.0414 333.796 81.1512 333.964 81.2909 334.106C81.4306 334.247 81.5974 334.359 81.7812 334.435C81.9651 334.511 82.1624 334.549 82.3613 334.547C82.7575 334.554 83.1401 334.402 83.4252 334.127C83.5723 333.986 83.6877 333.815 83.7636 333.626C83.8396 333.436 83.8744 333.233 83.8657 333.029C83.8762 332.826 83.8409 332.623 83.7623 332.436C83.6837 332.248 83.5638 332.08 83.4116 331.945C83.1255 331.682 82.7502 331.537 82.3613 331.539C81.973 331.536 81.5988 331.684 81.3177 331.952H81.2974Z" fill="#5C5F6E"/>
<path d="M89.978 335.483V334.751C89.8228 335.019 89.5852 335.231 89.3003 335.354C88.9951 335.497 88.6618 335.571 88.3245 335.571C88.0057 335.58 87.6884 335.524 87.3915 335.408C87.0946 335.291 86.8242 335.116 86.5965 334.893C86.1403 334.387 85.8878 333.731 85.8878 333.05C85.8878 332.369 86.1403 331.712 86.5965 331.207C86.8252 330.983 87.0967 330.807 87.3948 330.691C87.6929 330.575 88.0114 330.519 88.3313 330.529C88.6704 330.525 89.0062 330.596 89.3139 330.739C89.5977 330.86 89.8352 331.069 89.9915 331.335V327.947H91.0554V335.489L89.978 335.483ZM89.978 333.03C89.9886 332.826 89.9532 332.623 89.8746 332.436C89.796 332.248 89.6762 332.08 89.524 331.945C89.2418 331.68 88.8677 331.534 88.4804 331.539C88.2843 331.533 88.0891 331.568 87.907 331.641C87.725 331.714 87.5601 331.824 87.4226 331.964C87.2852 332.104 87.1782 332.271 87.1083 332.454C87.0384 332.638 87.0072 332.834 87.0167 333.03C87.0103 333.23 87.0443 333.43 87.1164 333.618C87.1886 333.805 87.2975 333.976 87.4368 334.121C87.5723 334.259 87.7348 334.369 87.9143 334.442C88.0938 334.516 88.2865 334.552 88.4804 334.547C88.6767 334.551 88.8718 334.516 89.0544 334.444C89.2371 334.372 89.4036 334.264 89.5443 334.127C89.6855 333.983 89.7952 333.811 89.8663 333.622C89.9375 333.433 89.9686 333.231 89.9577 333.03H89.978Z" fill="#5C5F6E"/>
<path d="M33.1437 200.857C33.1988 200.905 33.2436 200.963 33.2752 201.028C33.3067 201.094 33.3244 201.165 33.3271 201.238C33.3299 201.311 33.3175 201.383 33.291 201.451C33.2644 201.519 33.2241 201.58 33.1727 201.631C33.1213 201.683 33.0598 201.723 32.992 201.75C32.9243 201.776 32.8519 201.789 32.7792 201.786C32.7065 201.783 32.6351 201.766 32.5696 201.734C32.5041 201.702 32.4457 201.658 32.3983 201.603L32.134 201.359C31.1011 202.217 29.8006 202.686 28.4578 202.686C27.115 202.686 25.8144 202.217 24.7815 201.359L24.5173 201.603C24.4695 201.657 24.4107 201.701 24.3447 201.731C24.2786 201.761 24.2069 201.777 24.1344 201.777C24.0618 201.777 23.9901 201.761 23.9241 201.731C23.8581 201.701 23.7992 201.657 23.7515 201.603C23.7019 201.554 23.6625 201.496 23.6356 201.432C23.6087 201.368 23.5949 201.299 23.5949 201.23C23.5949 201.16 23.6087 201.092 23.6356 201.028C23.6625 200.964 23.7019 200.906 23.7515 200.857L24.0226 200.6C23.1645 199.567 22.6948 198.266 22.6948 196.923C22.6948 195.581 23.1645 194.28 24.0226 193.247L23.7515 192.983C23.6971 192.934 23.6533 192.874 23.6227 192.807C23.5921 192.74 23.5754 192.668 23.5736 192.595C23.5718 192.521 23.5849 192.448 23.6121 192.38C23.6394 192.312 23.6803 192.25 23.7322 192.198C23.7841 192.146 23.846 192.105 23.9142 192.078C23.9824 192.051 24.0554 192.038 24.1289 192.039C24.2023 192.041 24.2746 192.058 24.3413 192.088C24.4081 192.119 24.4679 192.163 24.5173 192.217L24.7815 192.482C25.8161 191.627 27.116 191.16 28.4578 191.16C29.7995 191.16 31.0994 191.627 32.134 192.482L32.3983 192.217C32.4469 192.168 32.5049 192.128 32.5689 192.101C32.6329 192.075 32.7016 192.061 32.771 192.061C32.8404 192.061 32.9091 192.075 32.9731 192.101C33.0371 192.128 33.0951 192.168 33.1437 192.217C33.1983 192.265 33.2422 192.324 33.2722 192.39C33.3022 192.456 33.3177 192.528 33.3177 192.6C33.3177 192.673 33.3022 192.744 33.2722 192.81C33.2422 192.876 33.1983 192.935 33.1437 192.983L32.8997 193.247C33.7541 194.282 34.2214 195.582 34.2214 196.923C34.2214 198.265 33.7541 199.565 32.8997 200.6L33.1437 200.857ZM29.5589 198.784C29.2261 198.979 28.8471 199.082 28.4612 199.082C28.0752 199.082 27.6962 198.979 27.3634 198.784L25.5541 200.579C26.3819 201.233 27.4061 201.589 28.4612 201.589C29.5162 201.589 30.5404 201.233 31.3683 200.579L29.5589 198.784ZM33.1437 196.92C33.145 195.864 32.7865 194.838 32.1272 194.013L30.3179 195.836C30.5175 196.167 30.623 196.547 30.623 196.934C30.623 197.32 30.5175 197.7 30.3179 198.031L32.1272 199.841C32.7865 199.015 33.145 197.99 33.1437 196.934V196.92ZM28.4612 192.238C27.4059 192.236 26.3811 192.592 25.5541 193.247L27.3634 195.057C27.6962 194.861 28.0752 194.758 28.4612 194.758C28.8471 194.758 29.2261 194.861 29.5589 195.057L31.3683 193.247C30.5407 192.593 29.5163 192.237 28.4612 192.238ZM26.5976 198.018C26.4022 197.685 26.2992 197.306 26.2992 196.92C26.2992 196.534 26.4022 196.155 26.5976 195.822L24.7883 194.013C24.1342 194.841 23.7785 195.865 23.7785 196.92C23.7785 197.975 24.1342 198.999 24.7883 199.827L26.5976 198.018ZM28.4612 195.836C28.2461 195.835 28.0356 195.897 27.8563 196.016C27.6769 196.134 27.5369 196.304 27.454 196.502C27.3711 196.7 27.3491 196.919 27.3907 197.13C27.4323 197.341 27.5357 197.535 27.6877 197.687C27.8398 197.839 28.0336 197.942 28.2445 197.984C28.4555 198.025 28.674 198.003 28.8724 197.92C29.0708 197.838 29.2401 197.698 29.3587 197.518C29.4773 197.339 29.54 197.128 29.5386 196.913C29.5368 196.628 29.4228 196.355 29.2211 196.153C29.0194 195.952 28.7464 195.838 28.4612 195.836Z" fill="#651FFF"/>
<path d="M32.8591 258.334C32.934 258.326 33.0098 258.333 33.0817 258.356C33.1535 258.379 33.2197 258.417 33.2759 258.467C33.3321 258.517 33.3771 258.579 33.4079 258.647C33.4387 258.716 33.4546 258.791 33.4546 258.866C33.4546 258.941 33.4387 259.016 33.4079 259.085C33.3771 259.154 33.3321 259.215 33.2759 259.265C33.2197 259.315 33.1535 259.353 33.0817 259.376C33.0098 259.399 32.934 259.406 32.8591 259.398H32.6016L32.073 266.594C32.0457 266.952 31.8848 267.285 31.6222 267.529C31.3597 267.773 31.0149 267.908 30.6567 267.909H26.1978C25.8403 267.908 25.4964 267.772 25.2349 267.528C24.9735 267.285 24.814 266.951 24.7883 266.594L24.253 259.398H23.9955C23.8647 259.383 23.744 259.321 23.6564 259.223C23.5687 259.125 23.5203 258.998 23.5203 258.866C23.5203 258.734 23.5687 258.607 23.6564 258.509C23.744 258.411 23.8647 258.349 23.9955 258.334H25.5405L26.3537 257.114C26.4682 256.945 26.6227 256.806 26.8035 256.71C26.9843 256.615 27.1859 256.565 27.3905 256.565H29.4709C29.6745 256.565 29.8752 256.615 30.0549 256.71C30.2346 256.806 30.3879 256.945 30.5009 257.114L31.3141 258.334H32.8591ZM27.3905 257.656C27.3295 257.656 27.255 257.656 27.2414 257.731L26.8213 258.361H30.0333L29.6132 257.731C29.5971 257.708 29.5757 257.689 29.551 257.677C29.5263 257.664 29.4988 257.657 29.4709 257.656H27.3905ZM31.5377 259.425H25.3169L25.8454 266.547C25.8523 266.636 25.8924 266.718 25.9578 266.779C26.0231 266.839 26.1089 266.872 26.1978 266.872H30.6567C30.7457 266.872 30.8314 266.839 30.8968 266.779C30.9622 266.718 31.0023 266.636 31.0091 266.547L31.5377 259.425Z" fill="#5C5F6E"/>
<path d="M27.1058 232.97C27.1159 233.02 27.1147 233.072 27.1024 233.122C27.09 233.172 27.0668 233.218 27.0344 233.257C27.0019 233.297 26.9611 233.329 26.9149 233.351C26.8687 233.373 26.8181 233.384 26.767 233.384C26.7158 233.384 26.6653 233.373 26.6191 233.351C26.5728 233.329 26.532 233.297 26.4996 233.257C26.4672 233.218 26.444 233.172 26.4316 233.122C26.4193 233.072 26.4181 233.02 26.4282 232.97V228.471C26.4439 228.393 26.4862 228.322 26.548 228.272C26.6098 228.221 26.6871 228.193 26.767 228.193C26.8468 228.193 26.9242 228.221 26.986 228.272C27.0477 228.322 27.0901 228.393 27.1058 228.471V232.97ZM28.8406 232.97C28.8195 233.044 28.7751 233.109 28.714 233.155C28.6528 233.201 28.5783 233.226 28.5018 233.226C28.4252 233.226 28.3507 233.201 28.2896 233.155C28.2284 233.109 28.184 233.044 28.1629 232.97V228.471C28.184 228.397 28.2284 228.332 28.2896 228.286C28.3507 228.24 28.4252 228.215 28.5018 228.215C28.5783 228.215 28.6528 228.24 28.714 228.286C28.7751 228.332 28.8195 228.397 28.8406 228.471V232.97ZM30.5686 232.97C30.5529 233.049 30.5105 233.119 30.4487 233.17C30.387 233.22 30.3096 233.248 30.2298 233.248C30.1499 233.248 30.0725 233.22 30.0108 233.17C29.949 233.119 29.9067 233.049 29.8909 232.97V228.471C29.8809 228.421 29.882 228.369 29.8944 228.319C29.9067 228.27 29.93 228.223 29.9624 228.184C29.9948 228.144 30.0356 228.112 30.0818 228.09C30.1281 228.069 30.1786 228.057 30.2298 228.057C30.2809 228.057 30.3314 228.069 30.3777 228.09C30.4239 228.112 30.4647 228.144 30.4971 228.184C30.5295 228.223 30.5528 228.27 30.5651 228.319C30.5775 228.369 30.5787 228.421 30.5686 228.471V232.97ZM30.5144 224.839L31.3072 226.031H32.8184C32.9456 226.046 33.0631 226.107 33.1484 226.202C33.2337 226.298 33.2808 226.422 33.2808 226.55C33.2808 226.678 33.2337 226.801 33.1484 226.897C33.0631 226.993 32.9456 227.054 32.8184 227.068H32.6422V233.641C32.6422 234.099 32.4601 234.539 32.1361 234.863C31.812 235.187 31.3725 235.369 30.9142 235.369H26.069C25.6107 235.369 25.1712 235.187 24.8471 234.863C24.5231 234.539 24.341 234.099 24.341 233.641V227.068H24.1648C24.0375 227.054 23.9201 226.993 23.8348 226.897C23.7495 226.801 23.7024 226.678 23.7024 226.55C23.7024 226.422 23.7495 226.298 23.8348 226.202C23.9201 226.107 24.0375 226.046 24.1648 226.031H25.676L26.4688 224.839C26.579 224.672 26.7289 224.535 26.9052 224.44C27.0814 224.345 27.2785 224.296 27.4785 224.297H29.5115C29.7115 224.296 29.9085 224.345 30.0848 224.44C30.2611 224.535 30.411 224.672 30.5211 224.839H30.5144ZM26.9228 226.031H30.0603L29.647 225.415C29.6309 225.392 29.6096 225.373 29.5848 225.36C29.5601 225.347 29.5326 225.34 29.5047 225.34H27.4717C27.4175 225.34 27.343 225.34 27.3294 225.415L26.9228 226.031ZM25.3778 233.641C25.3778 233.821 25.4492 233.993 25.5763 234.12C25.7034 234.247 25.8757 234.319 26.0555 234.319H30.9006C31.0804 234.319 31.2527 234.247 31.3798 234.12C31.5069 233.993 31.5783 233.821 31.5783 233.641V227.068H25.3778V233.641Z" fill="#5C5F6E"/>
<path d="M25.7505 299.975C25.7519 299.427 25.9156 298.892 26.2209 298.437C26.5263 297.982 26.9596 297.628 27.4662 297.419C27.9727 297.21 28.5298 297.156 29.067 297.264C29.6042 297.372 30.0974 297.636 30.4843 298.024C30.8712 298.412 31.1345 298.906 31.2409 299.443C31.3473 299.981 31.292 300.538 31.0821 301.044C30.8721 301.55 30.5169 301.982 30.0612 302.286C29.6056 302.591 29.07 302.753 28.5221 302.753C28.1576 302.753 27.7966 302.681 27.4599 302.541C27.1232 302.402 26.8174 302.197 26.5599 301.939C26.3025 301.681 26.0984 301.374 25.9596 301.037C25.8207 300.7 25.7496 300.339 25.7505 299.975ZM28.5221 301.709C28.7586 301.724 28.9956 301.69 29.2185 301.61C29.4414 301.53 29.6455 301.405 29.8182 301.242C29.9909 301.08 30.1286 300.884 30.2226 300.667C30.3167 300.449 30.3653 300.215 30.3653 299.978C30.3653 299.741 30.3167 299.507 30.2226 299.289C30.1286 299.072 29.9909 298.876 29.8182 298.714C29.6455 298.551 29.4414 298.426 29.2185 298.346C28.9956 298.266 28.7586 298.232 28.5221 298.247H28.4611C28.5054 298.356 28.5261 298.474 28.5221 298.592C28.5221 298.952 28.3793 299.296 28.1252 299.551C27.871 299.805 27.5263 299.948 27.1668 299.948C27.0487 299.951 26.9311 299.93 26.8212 299.887V299.934C26.8194 300.163 26.863 300.39 26.9494 300.602C27.0357 300.814 27.1632 301.007 27.3245 301.169C27.4858 301.332 27.6776 301.461 27.889 301.549C28.1003 301.637 28.327 301.682 28.556 301.682L28.5221 301.709ZM24.3478 296.871C24.8935 296.32 25.5431 295.882 26.259 295.583C26.9749 295.285 27.743 295.131 28.5187 295.131C29.2945 295.131 30.0625 295.285 30.7784 295.583C31.4944 295.882 32.144 296.32 32.6897 296.871C33.56 297.663 34.2529 298.631 34.7226 299.71C34.7589 299.795 34.7777 299.886 34.7777 299.978C34.7777 300.07 34.7589 300.161 34.7226 300.246C34.2428 301.319 33.5514 302.285 32.6897 303.085C32.144 303.636 31.4944 304.074 30.7784 304.373C30.0625 304.671 29.2945 304.825 28.5187 304.825C27.743 304.825 26.9749 304.671 26.259 304.373C25.5431 304.074 24.8935 303.636 24.3478 303.085C23.4905 302.281 22.7997 301.316 22.3149 300.246C22.2473 300.074 22.2473 299.882 22.3149 299.71C22.7897 298.634 23.4818 297.667 24.3478 296.871ZM28.5221 296.193C27.2231 296.22 25.9837 296.744 25.0593 297.657C24.3462 298.323 23.7666 299.119 23.3517 300.002C23.7697 300.885 24.3488 301.682 25.0593 302.353C25.5091 302.817 26.0473 303.185 26.6421 303.437C27.237 303.688 27.8763 303.818 28.5221 303.818C29.168 303.818 29.8073 303.688 30.4021 303.437C30.9969 303.185 31.5351 302.817 31.9849 302.353C32.6895 301.679 33.2658 300.882 33.6858 300.002C33.2688 299.122 32.6921 298.327 31.9849 297.657C31.0598 296.745 29.8209 296.222 28.5221 296.193Z" fill="#5C5F6E"/>
<path d="M26.1504 333.396C26.1059 333.351 26.0706 333.298 26.0465 333.24C26.0225 333.182 26.0101 333.12 26.0101 333.057C26.0101 332.93 26.0605 332.808 26.1504 332.718C26.2403 332.628 26.3621 332.578 26.4892 332.578C26.6163 332.578 26.7382 332.628 26.8281 332.718L27.6141 333.491V330.834C27.6141 330.708 27.6641 330.588 27.7531 330.499C27.842 330.41 27.9627 330.36 28.0885 330.36C28.2143 330.36 28.3349 330.41 28.4239 330.499C28.5129 330.588 28.5628 330.708 28.5628 330.834V333.491L29.315 332.718C29.357 332.669 29.409 332.63 29.4675 332.603C29.526 332.577 29.5895 332.563 29.6538 332.563C29.7182 332.563 29.7817 332.577 29.8402 332.603C29.8987 332.63 29.9507 332.669 29.9927 332.718C30.0459 332.757 30.0892 332.808 30.119 332.867C30.1488 332.926 30.1644 332.991 30.1644 333.057C30.1644 333.123 30.1488 333.188 30.119 333.247C30.0892 333.306 30.0459 333.357 29.9927 333.396L28.407 334.981C28.3679 335.035 28.3169 335.078 28.2581 335.108C28.1992 335.137 28.1341 335.153 28.0681 335.153C28.0022 335.153 27.9371 335.137 27.8782 335.108C27.8194 335.078 27.7683 335.035 27.7293 334.981L26.1504 333.396ZM24.585 336.716C23.9136 336.716 23.2637 336.479 22.7503 336.046C22.2369 335.613 21.8931 335.013 21.7795 334.351C21.666 333.689 21.7901 333.009 22.1299 332.43C22.4696 331.851 23.0032 331.41 23.6363 331.187C23.6348 330.508 23.8416 329.844 24.2287 329.286C24.6158 328.729 25.1646 328.303 25.8012 328.066C26.4378 327.83 27.1315 327.795 27.7889 327.965C28.4463 328.135 29.0357 328.503 29.4777 329.018C29.7823 328.882 30.1128 328.812 30.4467 328.815C31.0757 328.815 31.679 329.065 32.1238 329.51C32.5686 329.954 32.8185 330.558 32.8185 331.187C32.8288 331.313 32.8288 331.44 32.8185 331.566C33.3486 331.828 33.7783 332.257 34.0421 332.787C34.3059 333.316 34.3893 333.917 34.2795 334.498C34.1697 335.08 33.8727 335.609 33.434 336.006C32.9952 336.402 32.4388 336.645 31.8494 336.696H24.585V336.716ZM26.9636 328.808C26.6515 328.807 26.3424 328.868 26.0539 328.987C25.7653 329.105 25.5031 329.28 25.2821 329.5C25.0611 329.721 24.8858 329.982 24.7662 330.271C24.6466 330.559 24.585 330.868 24.585 331.18V331.857L23.9074 332.081C23.4895 332.238 23.1401 332.537 22.9203 332.926C22.7006 333.315 22.6244 333.768 22.7051 334.207C22.7858 334.647 23.0183 335.043 23.362 335.329C23.7056 335.614 24.1385 335.769 24.585 335.767H31.8494C32.2394 335.743 32.61 335.588 32.9015 335.328C33.193 335.068 33.3885 334.717 33.4565 334.332C33.5246 333.948 33.4612 333.551 33.2766 333.207C33.0921 332.862 32.797 332.59 32.439 332.433L31.7613 332.135L31.8494 331.363C31.8564 331.286 31.8564 331.209 31.8494 331.132C31.8494 330.755 31.6995 330.393 31.4326 330.126C31.1657 329.859 30.8038 329.709 30.4264 329.709C30.2255 329.706 30.0264 329.748 29.8436 329.831L29.1659 330.116L28.7051 329.581C28.4797 329.321 28.2006 329.113 27.8871 328.971C27.5736 328.83 27.233 328.758 26.889 328.761L26.9636 328.808Z" fill="#5C5F6E"/>
<path d="M107.536 43.504V41.7354H115.356V43.504H112.422V52.1777H110.457V43.504H107.536Z" fill="black"/>
<path d="M117.152 49.657V52.1778H115.308V45.0897H117.152V46.7567C117.278 46.2358 117.557 45.7642 117.951 45.4014C118.283 45.1103 118.709 44.9491 119.151 44.9474C119.552 44.9365 119.95 45.025 120.31 45.2049L119.998 46.8651C119.656 46.727 119.289 46.6601 118.92 46.6686C117.741 46.6618 117.152 47.6647 117.152 49.657Z" fill="black"/>
<path d="M126.347 52.1778V51.2494C126.108 51.6012 125.764 51.869 125.365 52.0152C124.976 52.1885 124.557 52.2808 124.131 52.2862C123.665 52.2918 123.202 52.2048 122.769 52.0303C122.337 51.8558 121.943 51.5973 121.611 51.2698C121.081 50.7641 120.715 50.1115 120.558 49.3961C120.402 48.6806 120.464 47.9348 120.735 47.2544C121.006 46.5741 121.474 45.9903 122.079 45.578C122.684 45.1657 123.399 44.9438 124.131 44.9407C124.55 44.9447 124.965 45.0299 125.351 45.1914C125.75 45.3423 126.092 45.615 126.327 45.9707V45.0898H128.17V52.1778H126.347ZM123.04 47.2717C122.86 47.4484 122.717 47.6593 122.619 47.892C122.521 48.1247 122.471 48.3746 122.471 48.627C122.471 48.8794 122.521 49.1293 122.619 49.362C122.717 49.5947 122.86 49.8056 123.04 49.9823C123.413 50.3156 123.896 50.4999 124.396 50.4999C124.896 50.4999 125.378 50.3156 125.751 49.9823C125.935 49.8013 126.081 49.5856 126.18 49.3477C126.28 49.1098 126.331 48.8544 126.331 48.5965C126.331 48.3386 126.28 48.0832 126.18 47.8453C126.081 47.6074 125.935 47.3917 125.751 47.2107C125.378 46.8774 124.896 46.6931 124.396 46.6931C123.896 46.6931 123.413 46.8774 123.04 47.2107V47.2717Z" fill="black"/>
<path d="M131.606 49.203C131.233 49.108 130.873 48.9668 130.535 48.7829C130.29 48.6533 130.079 48.4675 129.919 48.2408C129.805 48.0663 129.723 47.8738 129.675 47.6716C129.631 47.4644 129.61 47.2531 129.614 47.0414C129.619 46.7537 129.69 46.4711 129.823 46.2159C129.956 45.9607 130.146 45.7399 130.379 45.5709C130.895 45.1505 131.544 44.9271 132.209 44.9407C132.888 44.9221 133.557 45.1112 134.127 45.4828C134.39 45.6754 134.604 45.9287 134.749 46.2212C134.894 46.5137 134.966 46.8369 134.96 47.1633H133.212C133.208 47.0552 133.178 46.9495 133.125 46.8552C133.072 46.7609 132.997 46.6807 132.907 46.6212C132.705 46.4929 132.469 46.4291 132.229 46.4383C131.633 46.4383 131.335 46.6687 131.335 47.1159C131.335 47.3734 131.586 47.5699 132.08 47.7055L133.259 47.9901C133.604 48.0759 133.932 48.2203 134.228 48.417C134.461 48.5675 134.654 48.7721 134.791 49.0133C134.894 49.1978 134.975 49.3933 135.035 49.596C135.081 49.7615 135.103 49.9326 135.103 50.1043C135.113 50.4232 135.039 50.7392 134.889 51.0209C134.74 51.3026 134.519 51.5403 134.249 51.7103C133.644 52.1021 132.936 52.3029 132.216 52.2863C131.501 52.287 130.807 52.0484 130.244 51.6086C129.988 51.4098 129.782 51.1548 129.641 50.8633C129.5 50.5719 129.428 50.2518 129.431 49.9281H131.159C131.172 50.0603 131.217 50.1875 131.288 50.2993C131.36 50.4111 131.457 50.5045 131.572 50.5718C131.832 50.7507 132.144 50.8388 132.46 50.8226C132.702 50.8256 132.939 50.7521 133.137 50.6125C133.22 50.5574 133.287 50.4827 133.333 50.3952C133.379 50.3076 133.403 50.21 133.402 50.111C133.409 50.033 133.396 49.9543 133.366 49.8822C133.335 49.81 133.287 49.7467 133.225 49.6977C133.049 49.5688 132.845 49.4829 132.629 49.447L131.606 49.203Z" fill="black"/>
<path d="M138.24 48.3896V52.1776H136.397V41.2542H138.24V46.1805C138.411 45.7708 138.734 45.443 139.141 45.2657C139.542 45.0605 139.985 44.9492 140.436 44.9405C140.828 44.9184 141.22 44.9842 141.583 45.1331C141.947 45.282 142.272 45.5102 142.536 45.8011C143.067 46.4915 143.33 47.351 143.275 48.2202V52.1776H141.432V48.3151C141.443 48.1024 141.408 47.8898 141.331 47.6913C141.254 47.4928 141.136 47.3128 140.985 47.1631C140.847 47.0263 140.682 46.9186 140.502 46.8464C140.322 46.7742 140.128 46.7391 139.934 46.743C139.504 46.7327 139.084 46.8743 138.748 47.1428C138.572 47.2962 138.434 47.489 138.345 47.7056C138.257 47.9222 138.221 48.1565 138.24 48.3896Z" fill="black"/>
<path d="M90.6421 50.7005C90.6421 50.8227 90.5935 50.9399 90.5071 51.0263C90.4207 51.1128 90.3035 51.1613 90.1813 51.1613C90.059 51.1613 89.9418 51.1128 89.8554 51.0263C89.769 50.9399 89.7204 50.8227 89.7204 50.7005V44.7238C89.7204 44.6016 89.769 44.4844 89.8554 44.398C89.9418 44.3115 90.059 44.263 90.1813 44.263C90.3035 44.263 90.4207 44.3115 90.5071 44.398C90.5935 44.4844 90.6421 44.6016 90.6421 44.7238V50.7005ZM92.9461 50.7005C92.9461 50.8227 92.8975 50.9399 92.8111 51.0263C92.7247 51.1128 92.6075 51.1613 92.4853 51.1613C92.363 51.1613 92.2458 51.1128 92.1594 51.0263C92.073 50.9399 92.0245 50.8227 92.0245 50.7005V44.7238C92.0245 44.6016 92.073 44.4844 92.1594 44.398C92.2458 44.3115 92.363 44.263 92.4853 44.263C92.6075 44.263 92.7247 44.3115 92.8111 44.398C92.8975 44.4844 92.9461 44.6016 92.9461 44.7238V50.7005ZM95.2501 50.7005C95.2501 50.8227 95.2015 50.9399 95.1151 51.0263C95.0287 51.1128 94.9115 51.1613 94.7893 51.1613C94.667 51.1613 94.5498 51.1128 94.4634 51.0263C94.377 50.9399 94.3285 50.8227 94.3285 50.7005V44.7238C94.3285 44.6016 94.377 44.4844 94.4634 44.398C94.5498 44.3115 94.667 44.263 94.7893 44.263C94.9115 44.263 95.0287 44.3115 95.1151 44.398C95.2015 44.4844 95.2501 44.6016 95.2501 44.7238V50.7005ZM95.1755 39.899L96.2259 41.4847H98.2588C98.4385 41.4847 98.6109 41.5561 98.738 41.6832C98.8651 41.8103 98.9365 41.9826 98.9365 42.1623C98.9365 42.3421 98.8651 42.5144 98.738 42.6415C98.6109 42.7686 98.4385 42.84 98.2588 42.84H98.0284V51.6153C98.0284 52.2264 97.7857 52.8124 97.3536 53.2445C96.9215 53.6765 96.3355 53.9193 95.7244 53.9193H89.2732C88.6622 53.9193 88.0761 53.6765 87.644 53.2445C87.2119 52.8124 86.9692 52.2264 86.9692 51.6153V42.8671H86.7388C86.5591 42.8671 86.3867 42.7957 86.2596 42.6686C86.1326 42.5415 86.0612 42.3692 86.0612 42.1894C86.0612 42.0097 86.1326 41.8374 86.2596 41.7103C86.3867 41.5832 86.5591 41.5118 86.7388 41.5118H88.7717L89.8289 39.9261C89.9774 39.7033 90.1791 39.521 90.4157 39.3956C90.6523 39.2702 90.9164 39.2057 91.1842 39.2079H93.8948C94.1627 39.205 94.427 39.2693 94.6637 39.3947C94.9004 39.5202 95.102 39.7029 95.2501 39.9261L95.1755 39.899ZM90.432 41.4847H94.6063L94.0235 40.658C94.0035 40.626 93.9754 40.5998 93.9421 40.582C93.9089 40.5641 93.8715 40.5553 93.8338 40.5563H91.1232C91.0486 40.5563 90.9538 40.5563 90.9334 40.658L90.432 41.4847ZM88.399 51.6492C88.399 51.8936 88.4961 52.128 88.669 52.3009C88.8418 52.4737 89.0762 52.5708 89.3206 52.5708H95.7718C95.8929 52.5708 96.0127 52.5469 96.1245 52.5006C96.2363 52.4543 96.3379 52.3864 96.4235 52.3009C96.5091 52.2153 96.577 52.1137 96.6233 52.0019C96.6696 51.8901 96.6934 51.7702 96.6934 51.6492V42.8671H88.3381L88.399 51.6492Z" fill="#651FFF"/>
</svg>
