<svg width="425" height="421" viewBox="0 0 425 421" fill="none" xmlns="http://www.w3.org/2000/svg">
<path d="M335.953 3.49365H25.5238C13.3422 3.49365 3.46704 13.3662 3.46704 25.5446V394.842C3.46704 407.02 13.3422 416.893 25.5238 416.893H335.953C348.134 416.893 358.009 407.02 358.009 394.842V25.5446C358.009 13.3662 348.134 3.49365 335.953 3.49365Z" fill="white" stroke="#0B0D0E" stroke-width="3" stroke-miterlimit="10"/>
<path d="M205.114 80.4099H105.459C103.175 80.4099 101.323 82.261 101.323 84.5445V94.8877C101.323 97.1712 103.175 99.0222 105.459 99.0222H205.114C207.398 99.0222 209.25 97.1712 209.25 94.8877V84.5445C209.25 82.261 207.398 80.4099 205.114 80.4099Z" fill="#C4C7CF"/>
<path d="M282.148 105.927H105.459C103.175 105.927 101.323 107.778 101.323 110.062V114.203C101.323 116.486 103.175 118.338 105.459 118.338H282.148C284.432 118.338 286.283 116.486 286.283 114.203V110.062C286.283 107.778 284.432 105.927 282.148 105.927Z" fill="#E2E4E9"/>
<path d="M184.526 151.751H105.459C103.175 151.751 101.323 153.603 101.323 155.886V166.229C101.323 168.513 103.175 170.364 105.459 170.364H184.526C186.81 170.364 188.661 168.513 188.661 166.229V155.886C188.661 153.603 186.81 151.751 184.526 151.751Z" fill="#651FFF"/>
<path d="M262.538 177.275H105.459C103.175 177.275 101.323 179.126 101.323 181.41V185.551C101.323 187.835 103.175 189.686 105.459 189.686H262.538C264.822 189.686 266.674 187.835 266.674 185.551V181.41C266.674 179.126 264.822 177.275 262.538 177.275Z" fill="#5C5F6E"/>
<path d="M200.379 223.252H105.459C103.175 223.252 101.323 225.103 101.323 227.386V237.729C101.323 240.013 103.175 241.864 105.459 241.864H200.379C202.663 241.864 204.515 240.013 204.515 237.729V227.386C204.515 225.103 202.663 223.252 200.379 223.252Z" fill="#C4C7CF"/>
<path d="M262.538 248.769H105.459C103.175 248.769 101.323 250.62 101.323 252.903V257.045C101.323 259.328 103.175 261.179 105.459 261.179H262.538C264.822 261.179 266.674 259.328 266.674 257.045V252.903C266.674 250.62 264.822 248.769 262.538 248.769Z" fill="#E2E4E9"/>
<path d="M222.388 297.467H105.459C103.175 297.467 101.323 299.318 101.323 301.601V311.944C101.323 314.228 103.175 316.079 105.459 316.079H222.388C224.672 316.079 226.523 314.228 226.523 311.944V301.601C226.523 299.318 224.672 297.467 222.388 297.467Z" fill="#C4C7CF"/>
<path d="M261.132 322.991H105.459C103.175 322.991 101.323 324.842 101.323 327.125V331.267C101.323 333.55 103.175 335.401 105.459 335.401H261.132C263.416 335.401 265.267 333.55 265.267 331.267V327.125C265.267 324.842 263.416 322.991 261.132 322.991Z" fill="#E2E4E9"/>
<path d="M67.2939 75.9791H39.7022C33.6114 75.9791 28.6738 80.9154 28.6738 87.0046V114.589C28.6738 120.678 33.6114 125.614 39.7022 125.614H67.2939C73.3847 125.614 78.3223 120.678 78.3223 114.589V87.0046C78.3223 80.9154 73.3847 75.9791 67.2939 75.9791Z" fill="#E2E4E9"/>
<path d="M67.2939 147.555H39.7022C33.6114 147.555 28.6738 152.491 28.6738 158.58V186.165C28.6738 192.254 33.6114 197.19 39.7022 197.19H67.2939C73.3847 197.19 78.3223 192.254 78.3223 186.165V158.58C78.3223 152.491 73.3847 147.555 67.2939 147.555Z" fill="#651FFF"/>
<path d="M67.2939 218.759H39.7022C33.6114 218.759 28.6738 223.695 28.6738 229.784V257.368C28.6738 263.458 33.6114 268.394 39.7022 268.394H67.2939C73.3847 268.394 78.3223 263.458 78.3223 257.368V229.784C78.3223 223.695 73.3847 218.759 67.2939 218.759Z" fill="#E2E4E9"/>
<path d="M67.2939 293.311H39.7022C33.6114 293.311 28.6738 298.248 28.6738 304.337V331.921C28.6738 338.01 33.6114 342.947 39.7022 342.947H67.2939C73.3847 342.947 78.3223 338.01 78.3223 331.921V304.337C78.3223 298.248 73.3847 293.311 67.2939 293.311Z" fill="#E2E4E9"/>
<path d="M63.1031 50.1176L66.453 42.9855H68.1348L69.4238 53.5286H67.4593L66.6529 46.5067L63.8958 52.3295H62.338L59.5809 46.5067L58.7538 53.5286H56.7825L58.0783 42.9855H59.7326L63.1031 50.1176Z" fill="black"/>
<path d="M76.9024 46.3827L72.4841 57.0154H70.5059L72.1464 52.9773L69.3893 46.3827H71.3744L73.1527 50.8342L74.9448 46.3827H76.9024Z" fill="black"/>
<path d="M80.2385 53.5286V42.9855H86.6832V44.7289H82.203V47.4852H85.7527V49.2355H82.203V53.5492L80.2385 53.5286Z" fill="black"/>
<path d="M87.4621 44.4119C87.349 44.3121 87.2591 44.1889 87.1984 44.0509C87.1377 43.9129 87.1077 43.7633 87.1105 43.6126C87.1095 43.4614 87.1409 43.3118 87.2028 43.1739C87.2646 43.036 87.3554 42.913 87.469 42.8132C87.7033 42.603 88.0088 42.4896 88.3237 42.4962C88.6322 42.49 88.9312 42.6036 89.1577 42.8132C89.268 42.9148 89.3558 43.0385 89.4151 43.1762C89.4745 43.3139 89.5042 43.4626 89.5023 43.6126C89.5047 43.7626 89.4752 43.9114 89.4158 44.0492C89.3563 44.187 89.2684 44.3106 89.1577 44.4119C89.0472 44.5191 88.9167 44.6035 88.7736 44.6603C88.6305 44.717 88.4776 44.745 88.3237 44.7427C88.0041 44.7502 87.6945 44.6313 87.4621 44.4119ZM89.2404 46.3827V53.5286H87.3862V46.3827H89.2404Z" fill="black"/>
<path d="M90.5845 53.5285V42.5031H92.4524V53.5285H90.5845Z" fill="black"/>
<path d="M100.689 49.9315C100.689 50.1382 100.689 50.3518 100.655 50.5723H95.2095C95.2323 50.7921 95.3004 51.0048 95.4096 51.1969C95.5187 51.3891 95.6665 51.5565 95.8436 51.6887C96.2301 51.9731 96.7012 52.1188 97.1808 52.1021C97.5457 52.1064 97.9067 52.0262 98.2354 51.8678C98.5487 51.7229 98.8072 51.4814 98.9729 51.1787L100.393 51.9436C100.091 52.5186 99.6056 52.9767 99.0143 53.246C98.3947 53.5331 97.719 53.679 97.0361 53.6732C96.5427 53.6848 96.0522 53.5954 95.5947 53.4105C95.1372 53.2256 94.7223 52.9491 94.3757 52.598C94.029 52.2469 93.7578 51.8286 93.5788 51.3689C93.3997 50.9091 93.3167 50.4176 93.3347 49.9246C93.3204 49.4271 93.4106 48.9322 93.5993 48.4717C93.7881 48.0112 94.0713 47.5953 94.4306 47.2509C94.7803 46.9154 95.1931 46.6525 95.645 46.4774C96.097 46.3024 96.5791 46.2187 97.0637 46.2311C97.5433 46.2163 98.021 46.299 98.4677 46.4743C98.9143 46.6496 99.3207 46.9138 99.6622 47.2509C100.007 47.604 100.276 48.024 100.453 48.485C100.63 48.946 100.71 49.4383 100.689 49.9315ZM95.175 49.3044H98.8489C98.804 48.8694 98.5914 48.469 98.2561 48.1881C97.9188 47.9174 97.496 47.7757 97.0637 47.7884C96.6068 47.775 96.1592 47.9185 95.7954 48.195C95.4588 48.4737 95.2417 48.8707 95.1888 49.3044H95.175Z" fill="black"/>
<path d="M103.226 50.5447C102.848 50.4438 102.482 50.3004 102.137 50.1175C101.891 49.9857 101.681 49.7966 101.523 49.5662C101.406 49.389 101.32 49.1933 101.268 48.9874C101.224 48.7791 101.203 48.5664 101.206 48.3534C101.213 48.0583 101.29 47.769 101.43 47.5092C101.57 47.2493 101.77 47.0262 102.013 46.8581C102.535 46.4325 103.193 46.2076 103.867 46.2241C104.553 46.2038 105.229 46.3938 105.804 46.7685C106.071 46.9637 106.287 47.2201 106.435 47.5163C106.582 47.8125 106.657 48.1397 106.651 48.4706H104.873C104.875 48.3602 104.848 48.2514 104.795 48.1547C104.742 48.058 104.664 47.9769 104.57 47.9193C104.374 47.795 104.147 47.7303 103.915 47.7332C103.308 47.7332 103.012 47.9675 103.012 48.4223C103.012 48.6842 103.26 48.884 103.757 49.0149L104.949 49.3044C105.299 49.3911 105.632 49.5355 105.935 49.7316C106.17 49.8866 106.366 50.0942 106.507 50.338C106.611 50.5249 106.692 50.7239 106.748 50.9306C106.795 51.0989 106.818 51.2728 106.817 51.4474C106.828 51.7692 106.755 52.0883 106.603 52.3726C106.452 52.6569 106.229 52.8963 105.955 53.0668C105.343 53.4697 104.621 53.6742 103.887 53.6525C103.165 53.6529 102.463 53.4101 101.895 52.9634C101.615 52.7674 101.388 52.5049 101.234 52.1995C101.08 51.894 101.004 51.5551 101.013 51.2132H102.757C102.766 51.3535 102.809 51.4895 102.882 51.6095C102.956 51.7295 103.057 51.83 103.178 51.9022C103.44 52.0822 103.756 52.1694 104.074 52.1503C104.32 52.1548 104.562 52.0799 104.763 51.9367C104.844 51.8805 104.911 51.8054 104.956 51.7177C105.002 51.63 105.025 51.5325 105.025 51.4337C105.033 51.3548 105.022 51.275 104.992 51.2016C104.962 51.1282 104.914 51.0634 104.852 51.0133C104.673 50.8822 104.465 50.7949 104.246 50.7584L103.226 50.5447Z" fill="black"/>
<path d="M411.649 230.528H163.262C157.171 230.528 152.233 235.465 152.233 241.554V375.913C152.233 382.002 157.171 386.938 163.262 386.938H411.649C417.74 386.938 422.677 382.002 422.677 375.913V241.554C422.677 235.465 417.74 230.528 411.649 230.528Z" fill="white"/>
<path d="M411.649 230.528H163.262C157.171 230.528 152.233 235.465 152.233 241.554V375.913C152.233 382.002 157.171 386.938 163.262 386.938H411.649C417.74 386.938 422.677 382.002 422.677 375.913V241.554C422.677 235.465 417.74 230.528 411.649 230.528Z" stroke="#0B0D0E" stroke-width="3" stroke-miterlimit="10"/>
<path d="M43.6656 41.9794H37.9101L36.2903 40.4703C36.0921 40.2701 35.8558 40.1115 35.5954 40.0038C35.335 39.8961 35.0557 39.8415 34.7739 39.8432H30.8106C30.2439 39.8432 29.7004 40.0682 29.2997 40.4689C28.899 40.8695 28.6738 41.4128 28.6738 41.9794V52.6947C28.6738 53.2613 28.899 53.8046 29.2997 54.2052C29.7004 54.6058 30.2439 54.8309 30.8106 54.8309H43.6656C43.9467 54.8318 44.2253 54.7772 44.4854 54.6703C44.7454 54.5633 44.9818 54.4061 45.1809 54.2077C45.3801 54.0092 45.5381 53.7734 45.6459 53.5138C45.7537 53.2542 45.8092 52.9758 45.8092 52.6947V44.1018C45.8083 43.8216 45.7521 43.5443 45.6438 43.2858C45.5355 43.0274 45.3772 42.7929 45.1781 42.5957C44.9789 42.3985 44.7428 42.2426 44.4833 42.1368C44.2237 42.0311 43.9458 41.9775 43.6656 41.9794ZM44.2032 52.6947C44.2014 52.8361 44.1439 52.971 44.0433 53.0703C43.9427 53.1697 43.807 53.2253 43.6656 53.2253H30.8106C30.6704 53.2235 30.5364 53.1671 30.4373 53.0679C30.3381 52.9688 30.2816 52.8349 30.2798 52.6947V41.9794C30.2816 41.8392 30.3381 41.7053 30.4373 41.6061C30.5364 41.507 30.6704 41.4505 30.8106 41.4488H34.7463C34.817 41.4483 34.8869 41.4621 34.9521 41.4893C35.0172 41.5165 35.0762 41.5567 35.1254 41.6073L37.2208 43.5918H43.6449C43.7152 43.5909 43.7849 43.604 43.8501 43.6302C43.9153 43.6565 43.9746 43.6954 44.0246 43.7448C44.0747 43.7941 44.1144 43.8529 44.1415 43.9178C44.1686 43.9826 44.1825 44.0522 44.1825 44.1224L44.2032 52.6947Z" fill="#651FFF"/>
<path d="M334.995 138.452H30.5005C23.6483 138.452 18.0935 144.005 18.0935 150.856V193.483C18.0935 200.333 23.6483 205.886 30.5005 205.886H334.995C341.847 205.886 347.401 200.333 347.401 193.483V150.856C347.401 144.005 341.847 138.452 334.995 138.452Z" stroke="#651FFF" stroke-miterlimit="10" stroke-dasharray="12 12"/>
<path d="M196.092 251.16V262.185H207.12L196.092 251.16ZM187.435 273.514L184.374 276.656H180.59C180.316 276.656 180.053 276.765 179.859 276.959C179.665 277.153 179.556 277.416 179.556 277.69V282.513C179.556 282.788 179.665 283.05 179.859 283.244C180.053 283.438 180.316 283.547 180.59 283.547H184.381L187.441 286.689C187.586 286.834 187.77 286.932 187.971 286.972C188.171 287.012 188.379 286.991 188.568 286.913C188.756 286.835 188.918 286.702 189.031 286.533C189.145 286.363 189.206 286.163 189.206 285.959V274.258C189.21 274.051 189.152 273.848 189.039 273.674C188.926 273.501 188.764 273.365 188.573 273.285C188.382 273.205 188.171 273.184 187.969 273.225C187.766 273.265 187.58 273.366 187.435 273.514ZM194.258 275.995C193.984 275.751 193.624 275.626 193.258 275.647C192.891 275.668 192.548 275.834 192.304 276.108C192.06 276.382 191.935 276.742 191.956 277.109C191.978 277.475 192.144 277.818 192.418 278.062C192.711 278.321 192.946 278.639 193.107 278.995C193.268 279.352 193.351 279.738 193.351 280.129C193.351 280.52 193.268 280.907 193.107 281.263C192.946 281.62 192.711 281.938 192.418 282.196C192.21 282.383 192.063 282.628 191.998 282.9C191.932 283.171 191.95 283.456 192.051 283.717C192.151 283.978 192.328 284.202 192.558 284.36C192.789 284.518 193.062 284.602 193.342 284.601C193.683 284.6 194.012 284.473 194.265 284.243C194.843 283.726 195.305 283.093 195.621 282.385C195.938 281.678 196.101 280.911 196.101 280.136C196.101 279.361 195.938 278.595 195.621 277.887C195.305 277.179 194.843 276.546 194.265 276.029L194.258 275.995ZM196.878 271.047C196.729 270.943 196.561 270.87 196.384 270.831C196.206 270.793 196.023 270.789 195.845 270.821C195.666 270.853 195.496 270.92 195.343 271.018C195.19 271.116 195.058 271.243 194.955 271.391C194.851 271.54 194.778 271.708 194.739 271.885C194.7 272.063 194.697 272.246 194.729 272.424C194.761 272.603 194.827 272.773 194.925 272.926C195.023 273.079 195.15 273.21 195.299 273.314C196.395 274.075 197.291 275.091 197.91 276.273C198.528 277.456 198.851 278.771 198.851 280.105C198.851 281.44 198.528 282.754 197.91 283.937C197.291 285.119 196.395 286.135 195.299 286.896C195.058 287.064 194.878 287.305 194.783 287.583C194.689 287.861 194.685 288.161 194.774 288.441C194.862 288.721 195.038 288.966 195.275 289.139C195.512 289.312 195.798 289.405 196.092 289.404C196.373 289.404 196.647 289.317 196.878 289.156C198.339 288.141 199.533 286.787 200.358 285.211C201.183 283.634 201.614 281.881 201.614 280.102C201.614 278.322 201.183 276.569 200.358 274.993C199.533 273.416 198.339 272.062 196.878 271.047Z" fill="#651FFF"/>
<path opacity="0.4" d="M196.092 262.185V251.16H178.171C177.074 251.16 176.022 251.595 175.246 252.371C174.471 253.146 174.035 254.198 174.035 255.294V291.127C174.035 292.224 174.471 293.275 175.246 294.051C176.022 294.826 177.074 295.262 178.171 295.262H202.985C204.081 295.262 205.133 294.826 205.909 294.051C206.685 293.275 207.12 292.224 207.12 291.127V262.185H196.092ZM189.199 285.959C189.199 286.163 189.138 286.363 189.025 286.533C188.911 286.702 188.75 286.835 188.561 286.913C188.372 286.991 188.164 287.012 187.964 286.972C187.763 286.932 187.579 286.834 187.435 286.689L184.374 283.547H180.59C180.316 283.547 180.053 283.438 179.859 283.244C179.665 283.05 179.556 282.788 179.556 282.513V277.69C179.556 277.416 179.665 277.153 179.859 276.959C180.053 276.765 180.316 276.656 180.59 276.656H184.381L187.441 273.514C187.586 273.37 187.77 273.271 187.971 273.231C188.171 273.192 188.379 273.212 188.568 273.29C188.756 273.368 188.918 273.501 189.031 273.671C189.145 273.84 189.206 274.04 189.206 274.244L189.199 285.959ZM193.335 284.581C193.054 284.583 192.779 284.5 192.546 284.341C192.314 284.183 192.136 283.958 192.035 283.695C191.935 283.433 191.917 283.146 191.984 282.873C192.051 282.6 192.2 282.355 192.411 282.169C192.704 281.91 192.939 281.592 193.1 281.236C193.261 280.879 193.345 280.493 193.345 280.102C193.345 279.711 193.261 279.324 193.1 278.968C192.939 278.611 192.704 278.293 192.411 278.034C192.137 277.79 191.971 277.447 191.95 277.081C191.928 276.715 192.053 276.355 192.297 276.081C192.541 275.807 192.884 275.641 193.251 275.619C193.617 275.598 193.977 275.723 194.251 275.967C194.829 276.484 195.291 277.117 195.607 277.825C195.924 278.532 196.087 279.299 196.087 280.074C196.087 280.849 195.924 281.616 195.607 282.323C195.291 283.031 194.829 283.664 194.251 284.181C194.007 284.427 193.681 284.574 193.335 284.594V284.581ZM196.885 289.17C196.736 289.274 196.568 289.348 196.391 289.387C196.213 289.426 196.03 289.429 195.851 289.397C195.673 289.365 195.502 289.298 195.349 289.2C195.197 289.102 195.065 288.975 194.961 288.825C194.754 288.526 194.673 288.156 194.738 287.796C194.802 287.437 195.007 287.118 195.306 286.91C196.402 286.148 197.298 285.133 197.916 283.951C198.535 282.768 198.858 281.453 198.858 280.119C198.858 278.784 198.535 277.47 197.916 276.287C197.298 275.105 196.402 274.089 195.306 273.328C195.027 273.111 194.841 272.796 194.788 272.447C194.735 272.098 194.817 271.742 195.019 271.452C195.22 271.162 195.526 270.961 195.871 270.889C196.217 270.817 196.577 270.881 196.878 271.068C198.338 272.083 199.531 273.437 200.355 275.013C201.178 276.589 201.609 278.341 201.609 280.119C201.609 281.897 201.178 283.649 200.355 285.225C199.531 286.801 198.338 288.155 196.878 289.17H196.885Z" fill="#651FFF"/>
<path d="M263.827 275.712H260.546C260.262 275.731 259.994 275.853 259.792 276.054C259.591 276.256 259.469 276.523 259.45 276.808V288.322C259.469 288.607 259.591 288.874 259.792 289.076C259.994 289.277 260.262 289.399 260.546 289.418H263.841C264.122 289.396 264.386 289.274 264.586 289.075C264.786 288.875 264.908 288.611 264.93 288.329V276.808C264.909 276.523 264.786 276.255 264.583 276.054C264.38 275.853 264.112 275.731 263.827 275.712ZM247.388 281.19H244.093C243.809 281.21 243.541 281.331 243.339 281.533C243.138 281.734 243.016 282.002 242.997 282.286V288.322C243.018 288.604 243.139 288.869 243.339 289.069C243.539 289.269 243.804 289.39 244.086 289.411H247.381C247.663 289.391 247.929 289.269 248.13 289.07C248.332 288.87 248.454 288.605 248.477 288.322V282.286C248.456 282.003 248.335 281.737 248.135 281.536C247.935 281.335 247.67 281.213 247.388 281.19ZM255.611 270.234H252.309C252.025 270.254 251.758 270.377 251.557 270.578C251.356 270.779 251.234 271.046 251.213 271.329V288.322C251.235 288.605 251.358 288.87 251.559 289.07C251.76 289.269 252.026 289.391 252.309 289.411H255.611C255.891 289.389 256.155 289.267 256.353 289.067C256.552 288.867 256.672 288.603 256.693 288.322V271.329C256.674 271.047 256.554 270.782 256.356 270.58C256.157 270.379 255.893 270.256 255.611 270.234ZM259.436 251.063V262.02H270.396L259.436 251.063Z" fill="#651FFF"/>
<path opacity="0.4" d="M259.471 261.951V250.925H241.549C240.453 250.925 239.401 251.361 238.625 252.136C237.85 252.912 237.414 253.963 237.414 255.06V290.893C237.414 291.989 237.85 293.041 238.625 293.816C239.401 294.592 240.453 295.027 241.549 295.027H266.363C267.46 295.027 268.512 294.592 269.288 293.816C270.063 293.041 270.499 291.989 270.499 290.893V261.951H259.471ZM248.442 288.419C248.421 288.703 248.299 288.969 248.098 289.17C247.897 289.372 247.63 289.494 247.346 289.514H244.003C243.718 289.495 243.45 289.374 243.247 289.173C243.044 288.971 242.921 288.704 242.9 288.419V282.348C242.92 282.063 243.041 281.795 243.242 281.592C243.444 281.389 243.711 281.266 243.996 281.245H247.312C247.598 281.265 247.867 281.387 248.07 281.59C248.273 281.793 248.395 282.062 248.415 282.348L248.442 288.419ZM256.714 288.419C256.693 288.703 256.571 288.969 256.369 289.17C256.168 289.372 255.901 289.494 255.618 289.514H252.275C251.99 289.495 251.721 289.374 251.518 289.173C251.316 288.971 251.193 288.704 251.172 288.419V271.322C251.191 271.036 251.313 270.767 251.516 270.564C251.719 270.362 251.988 270.239 252.275 270.22H255.59C255.875 270.241 256.143 270.364 256.344 270.567C256.545 270.769 256.667 271.038 256.686 271.322L256.714 288.419ZM264.985 288.419C264.964 288.703 264.842 288.969 264.641 289.17C264.44 289.372 264.173 289.494 263.889 289.514H260.546C260.261 289.495 259.992 289.374 259.79 289.173C259.587 288.971 259.464 288.704 259.443 288.419V276.835C259.462 276.549 259.585 276.28 259.788 276.077C259.99 275.874 260.26 275.752 260.546 275.733H263.861C264.146 275.754 264.414 275.877 264.615 276.079C264.817 276.282 264.938 276.55 264.957 276.835L264.985 288.419Z" fill="#651FFF"/>
<path d="M321.671 264.707V250.925L335.456 264.707H321.671ZM310.642 270.22C311.556 270.22 312.433 270.583 313.079 271.229C313.726 271.875 314.089 272.752 314.089 273.665V274.354C314.089 274.72 313.943 275.071 313.685 275.329C313.426 275.587 313.076 275.733 312.71 275.733C312.345 275.733 311.994 275.587 311.735 275.329C311.477 275.071 311.332 274.72 311.332 274.354V273.665C311.332 273.483 311.259 273.307 311.13 273.178C311 273.049 310.825 272.976 310.642 272.976H309.264C309.081 272.976 308.906 273.049 308.776 273.178C308.647 273.307 308.574 273.483 308.574 273.665V280.556C308.574 280.739 308.647 280.914 308.776 281.044C308.906 281.173 309.081 281.245 309.264 281.245H310.642C310.825 281.245 311 281.173 311.13 281.044C311.259 280.914 311.332 280.739 311.332 280.556V279.867C311.332 279.502 311.477 279.151 311.735 278.893C311.994 278.634 312.345 278.489 312.71 278.489C313.076 278.489 313.426 278.634 313.685 278.893C313.943 279.151 314.089 279.502 314.089 279.867V280.556C314.089 281.47 313.726 282.346 313.079 282.993C312.433 283.639 311.556 284.002 310.642 284.002H309.264C308.35 284.002 307.473 283.639 306.827 282.993C306.18 282.346 305.817 281.47 305.817 280.556V273.665C305.817 272.752 306.18 271.875 306.827 271.229C307.473 270.583 308.35 270.22 309.264 270.22H310.642ZM315.467 274.217C315.467 273.692 315.571 273.172 315.772 272.687C315.972 272.202 316.267 271.762 316.638 271.391C317.009 271.019 317.45 270.725 317.935 270.524C318.42 270.323 318.94 270.22 319.465 270.22H320.981C321.347 270.22 321.698 270.365 321.956 270.624C322.215 270.882 322.36 271.233 322.36 271.598C322.36 271.964 322.215 272.314 321.956 272.573C321.698 272.831 321.347 272.976 320.981 272.976H319.465C319.302 272.975 319.14 273.007 318.989 273.069C318.838 273.131 318.701 273.222 318.586 273.338C318.47 273.453 318.379 273.59 318.317 273.741C318.255 273.892 318.223 274.054 318.224 274.217C318.227 274.434 318.285 274.647 318.394 274.835C318.503 275.023 318.658 275.181 318.845 275.292L321.03 276.539C321.647 276.877 322.16 277.376 322.516 277.982C322.872 278.589 323.056 279.281 323.049 279.984C323.049 280.509 322.946 281.029 322.745 281.514C322.544 281.999 322.25 282.439 321.878 282.81C321.507 283.182 321.066 283.476 320.581 283.677C320.096 283.878 319.576 283.981 319.051 283.981H316.846C316.48 283.981 316.13 283.836 315.871 283.577C315.612 283.319 315.467 282.968 315.467 282.603C315.467 282.237 315.612 281.887 315.871 281.628C316.13 281.37 316.48 281.225 316.846 281.225H319.051C319.215 281.226 319.376 281.194 319.527 281.132C319.678 281.07 319.815 280.979 319.931 280.863C320.046 280.748 320.138 280.611 320.2 280.46C320.262 280.309 320.293 280.148 320.292 279.984C320.29 279.766 320.232 279.552 320.123 279.362C320.015 279.173 319.859 279.015 319.672 278.902L317.48 277.703C316.864 277.354 316.352 276.847 315.999 276.234C315.645 275.621 315.461 274.924 315.467 274.217ZM326.496 274.32C326.495 276.293 326.968 278.238 327.874 279.991C328.78 278.238 329.253 276.293 329.253 274.32V271.598C329.253 271.233 329.398 270.882 329.656 270.624C329.915 270.365 330.266 270.22 330.631 270.22C330.997 270.22 331.348 270.365 331.606 270.624C331.865 270.882 332.01 271.233 332.01 271.598V274.32C332.008 277.313 331.121 280.238 329.46 282.727L329.018 283.416C328.892 283.604 328.722 283.757 328.522 283.864C328.323 283.97 328.1 284.026 327.874 284.026C327.648 284.026 327.425 283.97 327.226 283.864C327.026 283.757 326.856 283.604 326.73 283.416L326.289 282.727C324.627 280.238 323.74 277.313 323.739 274.32V271.598C323.739 271.233 323.884 270.882 324.142 270.624C324.401 270.365 324.751 270.22 325.117 270.22C325.483 270.22 325.833 270.365 326.092 270.624C326.35 270.882 326.496 271.233 326.496 271.598V274.32Z" fill="#651FFF"/>
<path opacity="0.4" d="M302.371 256.438C302.371 254.976 302.952 253.574 303.986 252.54C305.02 251.506 306.423 250.925 307.885 250.925H321.671V264.707H335.456V289.514C335.456 290.977 334.875 292.379 333.841 293.413C332.807 294.446 331.405 295.027 329.942 295.027H307.885C306.423 295.027 305.02 294.446 303.986 293.413C302.952 292.379 302.371 290.977 302.371 289.514V256.438ZM309.264 270.22C308.35 270.22 307.473 270.583 306.827 271.229C306.181 271.875 305.817 272.752 305.817 273.665V280.556C305.817 281.47 306.181 282.346 306.827 282.993C307.473 283.639 308.35 284.002 309.264 284.002H310.642C311.556 284.002 312.433 283.639 313.079 282.993C313.726 282.346 314.089 281.47 314.089 280.556V279.867C314.089 279.502 313.944 279.151 313.685 278.893C313.426 278.634 313.076 278.489 312.71 278.489C312.345 278.489 311.994 278.634 311.735 278.893C311.477 279.151 311.332 279.502 311.332 279.867V280.556C311.332 280.739 311.259 280.914 311.13 281.044C311.001 281.173 310.825 281.245 310.642 281.245H309.264C309.081 281.245 308.906 281.173 308.776 281.044C308.647 280.914 308.575 280.739 308.575 280.556V273.665C308.575 273.483 308.647 273.307 308.776 273.178C308.906 273.049 309.081 272.976 309.264 272.976H310.642C310.825 272.976 311.001 273.049 311.13 273.178C311.259 273.307 311.332 273.483 311.332 273.665V274.354C311.332 274.72 311.477 275.071 311.735 275.329C311.994 275.587 312.345 275.733 312.71 275.733C313.076 275.733 313.426 275.587 313.685 275.329C313.944 275.071 314.089 274.72 314.089 274.354V273.665C314.089 272.752 313.726 271.875 313.079 271.229C312.433 270.583 311.556 270.22 310.642 270.22H309.264ZM317.48 277.703L319.672 278.951C319.859 279.063 320.015 279.221 320.123 279.411C320.232 279.6 320.29 279.814 320.292 280.033C320.293 280.196 320.262 280.357 320.2 280.508C320.138 280.659 320.046 280.796 319.931 280.912C319.816 281.027 319.678 281.118 319.527 281.18C319.376 281.242 319.215 281.274 319.052 281.273H316.846C316.48 281.273 316.13 281.418 315.871 281.677C315.613 281.935 315.467 282.286 315.467 282.651C315.467 283.017 315.613 283.367 315.871 283.626C316.13 283.884 316.48 284.029 316.846 284.029H319.052C319.577 284.029 320.096 283.926 320.581 283.725C321.066 283.524 321.507 283.23 321.878 282.859C322.25 282.488 322.544 282.047 322.745 281.562C322.946 281.077 323.049 280.557 323.049 280.033C323.056 279.329 322.872 278.637 322.516 278.031C322.16 277.424 321.647 276.925 321.03 276.587L318.845 275.34C318.658 275.229 318.503 275.072 318.394 274.883C318.285 274.695 318.227 274.482 318.224 274.265C318.224 274.102 318.255 273.94 318.317 273.789C318.379 273.638 318.47 273.501 318.586 273.386C318.701 273.27 318.838 273.179 318.989 273.117C319.14 273.055 319.302 273.024 319.465 273.025H320.982C321.347 273.025 321.698 272.879 321.956 272.621C322.215 272.362 322.36 272.012 322.36 271.646C322.36 271.281 322.215 270.93 321.956 270.672C321.698 270.413 321.347 270.268 320.982 270.268H319.465C318.591 270.274 317.742 270.567 317.05 271.102C316.359 271.637 315.862 272.384 315.636 273.229C315.411 274.074 315.469 274.969 315.802 275.778C316.135 276.586 316.725 277.263 317.48 277.703ZM326.496 271.626C326.496 271.26 326.35 270.91 326.092 270.651C325.833 270.393 325.483 270.248 325.117 270.248C324.752 270.248 324.401 270.393 324.142 270.651C323.884 270.91 323.739 271.26 323.739 271.626V274.348C323.74 277.34 324.627 280.265 326.289 282.754L326.73 283.444C326.856 283.631 327.026 283.785 327.226 283.891C327.426 283.997 327.648 284.053 327.874 284.053C328.1 284.053 328.323 283.997 328.522 283.891C328.722 283.785 328.892 283.631 329.018 283.444L329.46 282.754C331.121 280.265 332.008 277.34 332.01 274.348V271.626C332.01 271.26 331.865 270.91 331.606 270.651C331.348 270.393 330.997 270.248 330.631 270.248C330.266 270.248 329.915 270.393 329.657 270.651C329.398 270.91 329.253 271.26 329.253 271.626V274.348C329.253 276.321 328.78 278.266 327.874 280.019C326.968 278.266 326.495 276.321 326.496 274.348V271.626Z" fill="#651FFF"/>
<path d="M383.175 264.942V251.16L396.96 264.942H383.175ZM371.457 270.454C372.737 270.454 373.964 270.963 374.869 271.867C375.774 272.772 376.282 273.999 376.282 275.278C376.282 276.557 375.774 277.784 374.869 278.689C373.964 279.593 372.737 280.102 371.457 280.102H370.768V282.858C370.768 283.223 370.623 283.574 370.364 283.832C370.106 284.091 369.755 284.236 369.389 284.236C369.024 284.236 368.673 284.091 368.415 283.832C368.156 283.574 368.011 283.223 368.011 282.858V271.833C368.011 271.467 368.156 271.116 368.415 270.858C368.673 270.6 369.024 270.454 369.389 270.454H371.457ZM373.525 275.278C373.525 274.73 373.307 274.204 372.919 273.816C372.532 273.428 372.006 273.211 371.457 273.211H370.768V277.345H371.457C372.006 277.345 372.532 277.127 372.919 276.74C373.307 276.352 373.525 275.826 373.525 275.278ZM377.661 271.833C377.661 271.467 377.806 271.116 378.064 270.858C378.323 270.6 378.674 270.454 379.039 270.454H381.107C382.204 270.454 383.256 270.89 384.031 271.665C384.807 272.441 385.243 273.492 385.243 274.589V280.102C385.243 281.198 384.807 282.25 384.031 283.025C383.256 283.801 382.204 284.236 381.107 284.236H379.039C378.674 284.236 378.323 284.091 378.064 283.832C377.806 283.574 377.661 283.223 377.661 282.858V271.833ZM380.418 281.48H381.107C381.473 281.48 381.823 281.335 382.082 281.076C382.34 280.818 382.486 280.467 382.486 280.102V274.589C382.486 274.223 382.34 273.873 382.082 273.614C381.823 273.356 381.473 273.211 381.107 273.211H380.418V281.48ZM392.825 270.454C393.19 270.454 393.541 270.6 393.799 270.858C394.058 271.116 394.203 271.467 394.203 271.833C394.203 272.198 394.058 272.549 393.799 272.807C393.541 273.065 393.19 273.211 392.825 273.211H390.068V275.967H392.825C393.19 275.967 393.541 276.112 393.799 276.371C394.058 276.629 394.203 276.98 394.203 277.345C394.203 277.711 394.058 278.061 393.799 278.32C393.541 278.578 393.19 278.723 392.825 278.723H390.068V282.858C390.068 283.223 389.922 283.574 389.664 283.832C389.405 284.091 389.055 284.236 388.689 284.236C388.323 284.236 387.973 284.091 387.714 283.832C387.456 283.574 387.31 283.223 387.31 282.858V271.833C387.31 271.467 387.456 271.116 387.714 270.858C387.973 270.6 388.323 270.454 388.689 270.454H392.825Z" fill="#651FFF"/>
<path opacity="0.4" d="M371.457 277.345H370.768V273.211H371.457C372.005 273.211 372.531 273.428 372.919 273.816C373.307 274.204 373.525 274.73 373.525 275.278C373.525 275.826 373.307 276.352 372.919 276.74C372.531 277.127 372.005 277.345 371.457 277.345ZM380.418 273.211H381.107C381.472 273.211 381.823 273.356 382.082 273.614C382.34 273.873 382.485 274.223 382.485 274.589V280.102C382.485 280.467 382.34 280.818 382.082 281.076C381.823 281.335 381.472 281.48 381.107 281.48H380.418V273.211ZM363.875 256.673C363.875 255.21 364.456 253.808 365.49 252.774C366.524 251.741 367.927 251.16 369.389 251.16H383.175V264.942H396.96V289.749C396.96 291.211 396.379 292.613 395.345 293.647C394.311 294.681 392.908 295.262 391.446 295.262H369.389C367.927 295.262 366.524 294.681 365.49 293.647C364.456 292.613 363.875 291.211 363.875 289.749V256.673ZM369.389 270.454C369.024 270.454 368.673 270.6 368.414 270.858C368.156 271.116 368.011 271.467 368.011 271.833V282.858C368.011 283.223 368.156 283.574 368.414 283.832C368.673 284.091 369.024 284.236 369.389 284.236C369.755 284.236 370.105 284.091 370.364 283.832C370.623 283.574 370.768 283.223 370.768 282.858V280.102H371.457C372.737 280.102 373.964 279.593 374.869 278.689C375.774 277.784 376.282 276.557 376.282 275.278C376.282 273.999 375.774 272.772 374.869 271.867C373.964 270.963 372.737 270.454 371.457 270.454H369.389ZM377.66 282.858C377.66 283.223 377.806 283.574 378.064 283.832C378.323 284.091 378.673 284.236 379.039 284.236H381.107C382.204 284.236 383.256 283.801 384.031 283.025C384.807 282.25 385.243 281.198 385.243 280.102V274.589C385.243 273.492 384.807 272.441 384.031 271.665C383.256 270.89 382.204 270.454 381.107 270.454H379.039C378.673 270.454 378.323 270.6 378.064 270.858C377.806 271.116 377.66 271.467 377.66 271.833V282.858ZM388.689 270.454C388.323 270.454 387.973 270.6 387.714 270.858C387.456 271.116 387.31 271.467 387.31 271.833V282.858C387.31 283.223 387.456 283.574 387.714 283.832C387.973 284.091 388.323 284.236 388.689 284.236C389.055 284.236 389.405 284.091 389.664 283.832C389.922 283.574 390.067 283.223 390.067 282.858V278.723H392.825C393.19 278.723 393.541 278.578 393.799 278.32C394.058 278.061 394.203 277.711 394.203 277.345C394.203 276.98 394.058 276.629 393.799 276.371C393.541 276.112 393.19 275.967 392.825 275.967H390.067V273.211H392.825C393.19 273.211 393.541 273.065 393.799 272.807C394.058 272.549 394.203 272.198 394.203 271.833C394.203 271.467 394.058 271.116 393.799 270.858C393.541 270.6 393.19 270.454 392.825 270.454H388.689Z" fill="#651FFF"/>
<path d="M191.57 336.435H185.415C185.049 336.435 184.699 336.58 184.44 336.838C184.182 337.097 184.036 337.447 184.036 337.813V352.973C184.036 353.338 184.182 353.689 184.44 353.947C184.699 354.206 185.049 354.351 185.415 354.351H186.793C187.159 354.351 187.51 354.206 187.768 353.947C188.027 353.689 188.172 353.338 188.172 352.973V349.527H191.963C192.881 349.527 193.788 349.333 194.627 348.959C195.465 348.586 196.216 348.04 196.83 347.358C197.444 346.676 197.908 345.873 198.191 345C198.475 344.127 198.572 343.205 198.477 342.292C198.125 338.888 194.996 336.435 191.57 336.435ZM191.956 345.393H188.172V340.569H191.963C192.603 340.569 193.216 340.823 193.669 341.276C194.121 341.728 194.375 342.341 194.375 342.981C194.375 343.621 194.121 344.234 193.669 344.686C193.216 345.139 192.603 345.393 191.963 345.393H191.956ZM196.436 315.762V326.787H207.465L196.436 315.762Z" fill="#651FFF"/>
<path opacity="0.4" d="M191.956 340.569H188.172V345.393H191.963C192.603 345.393 193.216 345.139 193.669 344.686C194.121 344.234 194.375 343.621 194.375 342.981C194.375 342.341 194.121 341.728 193.669 341.276C193.216 340.823 192.603 340.569 191.963 340.569H191.956ZM196.436 326.787V315.762H178.522C177.425 315.762 176.373 316.198 175.598 316.973C174.822 317.748 174.386 318.8 174.386 319.897V355.729C174.386 356.826 174.822 357.877 175.598 358.653C176.373 359.428 177.425 359.864 178.522 359.864H203.336C204.433 359.864 205.485 359.428 206.26 358.653C207.036 357.877 207.472 356.826 207.472 355.729V326.787H196.436ZM191.956 349.527H188.172V352.973C188.172 353.338 188.027 353.689 187.768 353.947C187.51 354.206 187.159 354.351 186.793 354.351H185.415C185.049 354.351 184.699 354.206 184.44 353.947C184.182 353.689 184.036 353.338 184.036 352.973V337.813C184.036 337.447 184.182 337.097 184.44 336.838C184.699 336.58 185.049 336.435 185.415 336.435H191.577C195.023 336.435 198.125 338.888 198.47 342.292C198.564 343.204 198.466 344.127 198.182 344.999C197.898 345.871 197.434 346.674 196.82 347.356C196.206 348.038 195.456 348.583 194.618 348.957C193.781 349.331 192.874 349.526 191.956 349.527Z" fill="#651FFF"/>
<path d="M251.096 318.146H245.582V320.903H251.096V318.146ZM251.096 329.172H245.582V331.928H251.096V329.172ZM251.096 323.659H245.582V326.415H251.096V323.659ZM259.367 315.39V326.415H270.396L259.367 315.39ZM251.096 334.684H245.582L242.949 344.724C242.789 345.524 242.809 346.349 243.006 347.141C243.204 347.932 243.575 348.669 244.092 349.3C244.609 349.931 245.26 350.439 245.997 350.787C246.735 351.136 247.54 351.317 248.356 351.317C249.172 351.317 249.977 351.136 250.715 350.787C251.452 350.439 252.103 349.931 252.62 349.3C253.137 348.669 253.508 347.932 253.706 347.141C253.904 346.349 253.923 345.524 253.763 344.724L251.096 334.684ZM249.717 347.088H246.96C246.595 347.088 246.244 346.943 245.986 346.684C245.727 346.426 245.582 346.075 245.582 345.71C245.582 345.344 245.727 344.994 245.986 344.735C246.244 344.477 246.595 344.332 246.96 344.332H249.717C250.083 344.332 250.434 344.477 250.692 344.735C250.951 344.994 251.096 345.344 251.096 345.71C251.096 346.075 250.951 346.426 250.692 346.684C250.434 346.943 250.083 347.088 249.717 347.088Z" fill="#651FFF"/>
<path opacity="0.4" d="M259.367 326.415V315.39H241.446C240.349 315.39 239.297 315.825 238.522 316.601C237.746 317.376 237.31 318.428 237.31 319.524V355.357C237.31 356.454 237.746 357.505 238.522 358.281C239.297 359.056 240.349 359.492 241.446 359.492H266.26C267.357 359.492 268.409 359.056 269.184 358.281C269.96 357.505 270.396 356.454 270.396 355.357V326.415H259.367ZM245.582 318.146H251.096V320.903H245.582V318.146ZM245.582 323.659H251.096V326.415H245.582V323.659ZM245.582 329.172H251.096V331.928H245.582V329.172ZM248.339 351.147C247.529 351.156 246.727 350.984 245.991 350.644C245.256 350.305 244.605 349.806 244.087 349.184C243.568 348.562 243.194 347.832 242.993 347.048C242.791 346.263 242.767 345.444 242.921 344.649L245.554 334.684H251.068L253.736 344.759C253.885 345.544 253.858 346.352 253.656 347.125C253.454 347.898 253.083 348.616 252.569 349.228C252.055 349.84 251.411 350.329 250.684 350.661C249.957 350.993 249.165 351.159 248.366 351.147H248.339Z" fill="#651FFF"/>
<path d="M324.773 315.762V326.787H335.801L324.773 315.762ZM319.258 337.813H310.987C310.256 337.813 309.555 338.103 309.038 338.62C308.52 339.137 308.23 339.838 308.23 340.569V348.838C308.23 349.569 308.52 350.27 309.038 350.787C309.555 351.304 310.256 351.595 310.987 351.595H319.258C319.99 351.595 320.691 351.304 321.208 350.787C321.725 350.27 322.015 349.569 322.015 348.838V340.569C322.015 339.838 321.725 339.137 321.208 338.62C320.691 338.103 319.99 337.813 319.258 337.813ZM328.178 339.129L324.773 341.258V348.149L328.178 350.279C328.386 350.409 328.627 350.481 328.873 350.488C329.119 350.494 329.362 350.434 329.578 350.315C329.793 350.195 329.972 350.02 330.097 349.808C330.222 349.595 330.287 349.353 330.287 349.107V340.3C330.287 340.054 330.222 339.812 330.097 339.6C329.972 339.388 329.793 339.213 329.578 339.093C329.362 338.973 329.119 338.914 328.873 338.92C328.627 338.926 328.386 338.999 328.178 339.129Z" fill="#651FFF"/>
<path opacity="0.4" d="M324.773 326.787V315.762H306.851C305.755 315.762 304.703 316.198 303.927 316.973C303.152 317.748 302.716 318.8 302.716 319.897V355.729C302.716 356.826 303.152 357.877 303.927 358.653C304.703 359.428 305.755 359.864 306.851 359.864H331.665C332.762 359.864 333.814 359.428 334.59 358.653C335.365 357.877 335.801 356.826 335.801 355.729V326.787H324.773ZM322.016 348.838C322.016 349.569 321.725 350.27 321.208 350.787C320.691 351.304 319.99 351.595 319.258 351.595H310.987C310.256 351.595 309.555 351.304 309.038 350.787C308.52 350.27 308.23 349.569 308.23 348.838V340.569C308.23 339.838 308.52 339.137 309.038 338.62C309.555 338.103 310.256 337.813 310.987 337.813H319.258C319.99 337.813 320.691 338.103 321.208 338.62C321.725 339.137 322.016 339.838 322.016 340.569V348.838ZM330.287 349.107C330.286 349.353 330.22 349.594 330.094 349.805C329.969 350.016 329.79 350.191 329.575 350.309C329.36 350.428 329.117 350.487 328.871 350.481C328.625 350.474 328.386 350.402 328.178 350.272L324.773 348.149V341.258L328.178 339.129C328.387 338.999 328.627 338.926 328.873 338.92C329.119 338.914 329.362 338.973 329.578 339.093C329.793 339.213 329.972 339.388 330.097 339.6C330.222 339.812 330.287 340.054 330.287 340.3V349.107Z" fill="#651FFF"/>
<path d="M386.966 314.384V325.409H397.994L386.966 314.384ZM391.791 333.678H371.112C370.747 333.678 370.396 333.824 370.138 334.082C369.879 334.34 369.734 334.691 369.734 335.057V351.595C369.734 351.96 369.879 352.311 370.138 352.569C370.396 352.828 370.747 352.973 371.112 352.973H391.791C392.156 352.973 392.507 352.828 392.765 352.569C393.024 352.311 393.169 351.96 393.169 351.595V335.057C393.169 334.691 393.024 334.34 392.765 334.082C392.507 333.824 392.156 333.678 391.791 333.678ZM376.627 350.217H372.491V346.082H376.627V350.217ZM376.627 343.326H372.491V339.191H376.627V343.326ZM383.519 350.217H379.384V346.082H383.519V350.217ZM383.519 343.326H379.384V339.191H383.519V343.326ZM390.412 350.217H386.276V346.082H390.412V350.217ZM390.412 343.326H386.276V339.191H390.412V343.326Z" fill="#651FFF"/>
<path opacity="0.4" d="M386.966 325.409V314.384H369.045C367.948 314.384 366.896 314.819 366.12 315.595C365.345 316.37 364.909 317.422 364.909 318.518V354.351C364.909 355.448 365.345 356.499 366.12 357.275C366.896 358.05 367.948 358.486 369.045 358.486H393.858C394.955 358.486 396.007 358.05 396.783 357.275C397.558 356.499 397.994 355.448 397.994 354.351V325.409H386.966ZM393.169 351.595C393.169 351.96 393.024 352.311 392.765 352.569C392.507 352.828 392.156 352.973 391.791 352.973H371.112C370.747 352.973 370.396 352.828 370.138 352.569C369.879 352.311 369.734 351.96 369.734 351.595V335.057C369.734 334.691 369.879 334.34 370.138 334.082C370.396 333.824 370.747 333.678 371.112 333.678H391.791C392.156 333.678 392.507 333.824 392.765 334.082C393.024 334.34 393.169 334.691 393.169 335.057V351.595Z" fill="#651FFF"/>
<path d="M205.742 298.445H175.414C174.652 298.445 174.035 299.062 174.035 299.823C174.035 300.585 174.652 301.202 175.414 301.202H205.742C206.503 301.202 207.12 300.585 207.12 299.823C207.12 299.062 206.503 298.445 205.742 298.445Z" fill="#E2E4E9"/>
<path d="M194.713 298.445H175.414C174.652 298.445 174.035 299.062 174.035 299.823C174.035 300.585 174.652 301.202 175.414 301.202H194.713C195.475 301.202 196.092 300.585 196.092 299.823C196.092 299.062 195.475 298.445 194.713 298.445Z" fill="#651FFF"/>
<path d="M269.12 298.445H238.792C238.031 298.445 237.414 299.062 237.414 299.823C237.414 300.585 238.031 301.202 238.792 301.202H269.12C269.882 301.202 270.499 300.585 270.499 299.823C270.499 299.062 269.882 298.445 269.12 298.445Z" fill="#E2E4E9"/>
<path d="M246.188 298.445H238.792C238.031 298.445 237.414 299.062 237.414 299.823C237.414 300.585 238.031 301.202 238.792 301.202H246.188C246.95 301.202 247.567 300.585 247.567 299.823C247.567 299.062 246.95 298.445 246.188 298.445Z" fill="#651FFF"/>
<path d="M334.078 298.445H303.75C302.988 298.445 302.371 299.062 302.371 299.823C302.371 300.585 302.988 301.202 303.75 301.202H334.078C334.839 301.202 335.456 300.585 335.456 299.823C335.456 299.062 334.839 298.445 334.078 298.445Z" fill="#E2E4E9"/>
<path d="M330.99 298.445H303.75C302.988 298.445 302.371 299.062 302.371 299.823C302.371 300.585 302.988 301.202 303.75 301.202H330.99C331.751 301.202 332.368 300.585 332.368 299.823C332.368 299.062 331.751 298.445 330.99 298.445Z" fill="#651FFF"/>
<path d="M395.582 298.445H365.254C364.492 298.445 363.875 299.062 363.875 299.823C363.875 300.585 364.492 301.202 365.254 301.202H395.582C396.343 301.202 396.96 300.585 396.96 299.823C396.96 299.062 396.343 298.445 395.582 298.445Z" fill="#E2E4E9"/>
<path d="M376.282 298.445H365.254C364.492 298.445 363.875 299.062 363.875 299.823C363.875 300.585 364.492 301.202 365.254 301.202H376.282C377.043 301.202 377.66 300.585 377.66 299.823C377.66 299.062 377.043 298.445 376.282 298.445Z" fill="#651FFF"/>
<path d="M206.086 363.137H175.758C174.997 363.137 174.38 363.754 174.38 364.515C174.38 365.276 174.997 365.893 175.758 365.893H206.086C206.848 365.893 207.465 365.276 207.465 364.515C207.465 363.754 206.848 363.137 206.086 363.137Z" fill="#E2E4E9"/>
<path d="M184.946 363.137H175.758C174.997 363.137 174.38 363.754 174.38 364.515C174.38 365.276 174.997 365.893 175.758 365.893H184.946C185.708 365.893 186.325 365.276 186.325 364.515C186.325 363.754 185.708 363.137 184.946 363.137Z" fill="#651FFF"/>
<path d="M269.12 363.137H238.792C238.031 363.137 237.414 363.754 237.414 364.515C237.414 365.276 238.031 365.893 238.792 365.893H269.12C269.882 365.893 270.499 365.276 270.499 364.515C270.499 363.754 269.882 363.137 269.12 363.137Z" fill="#E2E4E9"/>
<path d="M263.344 363.137H238.792C238.031 363.137 237.414 363.754 237.414 364.515C237.414 365.276 238.031 365.893 238.792 365.893H263.344C264.106 365.893 264.723 365.276 264.723 364.515C264.723 363.754 264.106 363.137 263.344 363.137Z" fill="#651FFF"/>
<path d="M334.422 363.137H304.094C303.333 363.137 302.716 363.754 302.716 364.515C302.716 365.276 303.333 365.893 304.094 365.893H334.422C335.184 365.893 335.801 365.276 335.801 364.515C335.801 363.754 335.184 363.137 334.422 363.137Z" fill="#E2E4E9"/>
<path d="M323.394 363.137H304.094C303.333 363.137 302.716 363.754 302.716 364.515C302.716 365.276 303.333 365.893 304.094 365.893H323.394C324.155 365.893 324.773 365.276 324.773 364.515C324.773 363.754 324.155 363.137 323.394 363.137Z" fill="#651FFF"/>
<path d="M396.616 363.137H366.287C365.526 363.137 364.909 363.754 364.909 364.515C364.909 365.276 365.526 365.893 366.287 365.893H396.616C397.377 365.893 397.994 365.276 397.994 364.515C397.994 363.754 397.377 363.137 396.616 363.137Z" fill="#E2E4E9"/>
<path d="M396.616 363.137H366.287C365.526 363.137 364.909 363.754 364.909 364.515C364.909 365.276 365.526 365.893 366.287 365.893H396.616C397.377 365.893 397.994 365.276 397.994 364.515C397.994 363.754 397.377 363.137 396.616 363.137Z" fill="#651FFF"/>
</svg>
