<svg width="23" height="6" viewBox="0 0 23 6" fill="none" xmlns="http://www.w3.org/2000/svg">
<path fill-rule="evenodd" clip-rule="evenodd" d="M0.0979004 2.84544C0.0979004 4.54744 1.43715 5.6152 3.08227 5.6152C4.12391 5.6152 4.92581 5.20576 5.52103 4.57152V2.47614H2.85907V3.62418H4.12391V4.07377C3.9007 4.25039 3.51216 4.3949 3.08227 4.3949C2.18117 4.3949 1.54462 3.72052 1.54462 2.84544C1.54462 1.97036 2.18117 1.29598 3.08227 1.29598C3.60309 1.29598 4.02471 1.57697 4.24792 1.93022L5.43836 1.32007C5.03328 0.65372 4.28925 0.0756836 3.08227 0.0756836C1.43715 0.0756836 0.0979004 1.14345 0.0979004 2.84544ZM6.35599 5.51886V0.163995H8.67074C10.4068 0.163995 11.6551 1.17556 11.6551 2.83741C11.6551 4.49927 10.4068 5.51886 8.67901 5.51886H6.35599ZM7.77791 4.31462H8.67074C9.63798 4.31462 10.2001 3.63221 10.2001 2.83741C10.2001 2.0105 9.68758 1.36824 8.67901 1.36824H7.77791V4.31462ZM12.3661 5.51886V0.163995H15.1272C16.3673 0.163995 17.0452 0.974851 17.0452 1.94627C17.0452 2.90967 16.3673 3.70447 15.1272 3.70447H13.788V5.51886H12.3661ZM15.5985 1.93825C15.5985 1.56894 15.3174 1.3281 14.9371 1.3281H13.788V2.53234H14.9371C15.3174 2.53234 15.5985 2.29952 15.5985 1.93825ZM20.757 5.51886L19.8311 3.70447H19.1036V5.51886H17.6817V0.163995H20.4429C21.6664 0.163995 22.3608 0.950766 22.3608 1.94627C22.3608 2.87755 21.7739 3.37531 21.2613 3.55193L22.3856 5.51886H20.757ZM20.9141 1.93022C20.9141 1.56092 20.6 1.3281 20.228 1.3281H19.1036V2.53234H20.228C20.6 2.53234 20.9141 2.29952 20.9141 1.93022Z" fill="#2B3945"/>
</svg>
