<svg width="243" height="243" viewBox="0 0 243 243" fill="none" xmlns="http://www.w3.org/2000/svg">
<path d="M236.808 226.792H22.842" stroke="#263238" stroke-linecap="round" stroke-linejoin="round"/>
<g opacity="0.3">
<path d="M116.426 19.6685V197.316H174.134V19.6685H116.426ZM171.228 23.6148V49.8588H147.21V23.6148H171.228ZM143.618 23.6148V49.8588H119.318V23.6148H143.618ZM119.318 53.9946H143.618V80.0102H119.318V53.9946ZM171.228 193.37H119.333V84.5057H171.228V193.37ZM147.21 80.0102V53.9946H171.228V80.0102H147.21Z" stroke="black" stroke-linecap="round" stroke-linejoin="round"/>
<path d="M173.91 19.6685V197.316H231.613V19.6685H173.91ZM228.712 23.6148V49.8588H204.694V23.6148H228.712ZM201.102 23.6148V49.8588H176.802V23.6148H201.102ZM176.802 53.9946H201.102V80.0102H176.802V53.9946ZM228.712 193.37H176.817V84.5057H228.712V193.37ZM204.694 80.0102V53.9946H228.712V80.0102H204.694Z" stroke="black" stroke-linecap="round" stroke-linejoin="round"/>
<path d="M158.31 114.011L143.822 132.041" stroke="black" stroke-linecap="round" stroke-linejoin="round"/>
<path d="M161.906 109.535L159.603 112.402" stroke="black" stroke-linecap="round" stroke-linejoin="round"/>
<path d="M128.071 145.188L125.101 148.677" stroke="black" stroke-linecap="round" stroke-linejoin="round"/>
<path d="M147.311 122.584L130.292 142.578" stroke="black" stroke-linecap="round" stroke-linejoin="round"/>
<path d="M216.683 119.517L202.196 137.548" stroke="black" stroke-linecap="round" stroke-linejoin="round"/>
<path d="M220.28 115.041L217.976 117.904" stroke="black" stroke-linecap="round" stroke-linejoin="round"/>
<path d="M186.444 150.694L183.48 154.184" stroke="black" stroke-linecap="round" stroke-linejoin="round"/>
<path d="M205.685 128.085L188.665 148.084" stroke="black" stroke-linecap="round" stroke-linejoin="round"/>
<path d="M223.375 27.7361L216.44 36.3674" stroke="black" stroke-linecap="round" stroke-linejoin="round"/>
<path d="M225.096 25.5928L223.993 26.9682" stroke="black" stroke-linecap="round" stroke-linejoin="round"/>
<path d="M208.902 42.6611L207.478 44.3281" stroke="black" stroke-linecap="round" stroke-linejoin="round"/>
<path d="M218.112 31.8379L209.962 41.4121" stroke="black" stroke-linecap="round" stroke-linejoin="round"/>
<path d="M196.315 27.7361L189.38 36.3674" stroke="black" stroke-linecap="round" stroke-linejoin="round"/>
<path d="M198.035 25.5928L196.932 26.9682" stroke="black" stroke-linecap="round" stroke-linejoin="round"/>
<path d="M181.842 42.6611L180.423 44.3281" stroke="black" stroke-linecap="round" stroke-linejoin="round"/>
<path d="M191.052 31.8379L182.906 41.4121" stroke="black" stroke-linecap="round" stroke-linejoin="round"/>
<path d="M196.315 60.0696L189.38 68.7009" stroke="black" stroke-linecap="round" stroke-linejoin="round"/>
<path d="M198.035 57.9263L196.932 59.3016" stroke="black" stroke-linecap="round" stroke-linejoin="round"/>
<path d="M181.842 74.9946L180.423 76.6616" stroke="black" stroke-linecap="round" stroke-linejoin="round"/>
<path d="M191.052 64.1714L182.906 73.7456" stroke="black" stroke-linecap="round" stroke-linejoin="round"/>
<path d="M220.45 60.0696L213.514 68.7009" stroke="black" stroke-linecap="round" stroke-linejoin="round"/>
<path d="M222.17 57.9263L221.067 59.3016" stroke="black" stroke-linecap="round" stroke-linejoin="round"/>
<path d="M205.977 74.9946L204.558 76.6616" stroke="black" stroke-linecap="round" stroke-linejoin="round"/>
<path d="M215.186 64.1714L207.041 73.7456" stroke="black" stroke-linecap="round" stroke-linejoin="round"/>
<path d="M166.329 27.7361L159.394 36.3674" stroke="black" stroke-linecap="round" stroke-linejoin="round"/>
<path d="M168.049 25.5928L166.946 26.9682" stroke="black" stroke-linecap="round" stroke-linejoin="round"/>
<path d="M151.856 42.6611L150.437 44.3281" stroke="black" stroke-linecap="round" stroke-linejoin="round"/>
<path d="M161.065 31.8379L152.92 41.4121" stroke="black" stroke-linecap="round" stroke-linejoin="round"/>
<path d="M166.329 59.3164L159.394 67.9478" stroke="black" stroke-linecap="round" stroke-linejoin="round"/>
<path d="M168.049 57.178L166.946 58.5485" stroke="black" stroke-linecap="round" stroke-linejoin="round"/>
<path d="M151.856 74.2415L150.437 75.9133" stroke="black" stroke-linecap="round" stroke-linejoin="round"/>
<path d="M161.065 63.4231L152.92 72.9924" stroke="black" stroke-linecap="round" stroke-linejoin="round"/>
<path d="M140.002 59.3164L133.067 67.9478" stroke="black" stroke-linecap="round" stroke-linejoin="round"/>
<path d="M141.723 57.178L140.619 58.5485" stroke="black" stroke-linecap="round" stroke-linejoin="round"/>
<path d="M125.524 74.2415L124.105 75.9133" stroke="black" stroke-linecap="round" stroke-linejoin="round"/>
<path d="M134.734 63.4231L126.589 72.9924" stroke="black" stroke-linecap="round" stroke-linejoin="round"/>
<path d="M138.17 27.7361L131.235 36.3674" stroke="black" stroke-linecap="round" stroke-linejoin="round"/>
<path d="M139.895 25.5928L138.792 26.9682" stroke="black" stroke-linecap="round" stroke-linejoin="round"/>
<path d="M123.697 42.6611L122.278 44.3281" stroke="black" stroke-linecap="round" stroke-linejoin="round"/>
<path d="M132.907 31.8379L124.761 41.4121" stroke="black" stroke-linecap="round" stroke-linejoin="round"/>
</g>
<path d="M49.4019 167.048C49.4019 167.048 44.0559 164.088 43.6719 170.805C43.288 177.521 42.282 221.174 42.282 221.174" stroke="#263238" stroke-miterlimit="10" stroke-linecap="round"/>
<path d="M40.9016 171.393C40.9016 171.393 45.2756 181.074 43.2782 220.581" stroke="#263238" stroke-miterlimit="10" stroke-linecap="round"/>
<path d="M45.1978 168.399C45.1978 168.399 43.1566 169.706 41.9951 168.214C40.8336 166.722 42.7678 163.976 41.0474 162.81C39.327 161.644 36.3721 163.427 36.3721 163.427C36.3721 163.427 38.6514 164.093 38.5785 165.342C38.5056 166.591 37.4024 167.058 37.2566 166.513C37.1108 165.969 36.0222 163.228 34.1705 164.365C33.6362 164.682 33.1716 165.103 32.8049 165.605C32.4382 166.106 32.177 166.676 32.037 167.281C32.037 167.281 36.3478 166.82 36.6102 168.443C36.8727 170.066 34.8412 168.156 33.0624 168.054C31.2837 167.952 29.6604 168.209 29.7771 169.288C29.819 170.239 29.7636 171.192 29.6118 172.131C30.5831 171.325 31.8098 170.891 33.0721 170.907C35.0161 171.023 34.9578 172.268 33.1791 172.166C31.4003 172.063 29.8743 173.755 29.8743 173.755C29.8743 173.755 31.4926 176.515 33.5338 177.876C35.575 179.237 36.3381 178.756 36.5762 177.701C36.8143 176.646 36.2652 173.935 37.5093 174.007C38.7535 174.08 35.4487 178.702 37.0233 178.974C38.598 179.247 39.8907 178.79 40.3087 177.745L40.7266 176.695C40.7266 176.695 40.1726 173.988 40.4156 172.929C40.6586 171.869 40.9453 172.963 41.2272 174.226C41.5091 175.49 41.6889 178.537 42.2332 178.391C42.7776 178.245 44.5126 176.029 44.9208 175.159C45.3291 174.289 42.6318 171.636 42.6609 171.101C42.6901 170.567 44.775 171.587 45.0909 172.136C45.3264 172.554 45.5389 172.984 45.7276 173.424C45.7276 173.424 47.0252 172.608 46.996 170.105C46.9669 167.602 45.1978 168.399 45.1978 168.399Z" fill="#651FFF"/>
<path opacity="0.3" d="M45.1978 168.399C45.1978 168.399 43.1566 169.706 41.9951 168.214C40.8336 166.722 42.7678 163.976 41.0474 162.81C39.327 161.644 36.3721 163.427 36.3721 163.427C36.3721 163.427 38.6514 164.093 38.5785 165.342C38.5056 166.591 37.4024 167.058 37.2566 166.513C37.1108 165.969 36.0222 163.228 34.1705 164.365C33.6362 164.682 33.1716 165.103 32.8049 165.605C32.4382 166.106 32.177 166.676 32.037 167.281C32.037 167.281 36.3478 166.82 36.6102 168.443C36.8727 170.066 34.8412 168.156 33.0624 168.054C31.2837 167.952 29.6604 168.209 29.7771 169.288C29.819 170.239 29.7636 171.192 29.6118 172.131C30.5831 171.325 31.8098 170.891 33.0721 170.907C35.0161 171.023 34.9578 172.268 33.1791 172.166C31.4003 172.063 29.8743 173.755 29.8743 173.755C29.8743 173.755 31.4926 176.515 33.5338 177.876C35.575 179.237 36.3381 178.756 36.5762 177.701C36.8143 176.646 36.2652 173.935 37.5093 174.007C38.7535 174.08 35.4487 178.702 37.0233 178.974C38.598 179.247 39.8907 178.79 40.3087 177.745L40.7266 176.695C40.7266 176.695 40.1726 173.988 40.4156 172.929C40.6586 171.869 40.9453 172.963 41.2272 174.226C41.5091 175.49 41.6889 178.537 42.2332 178.391C42.7776 178.245 44.5126 176.029 44.9208 175.159C45.3291 174.289 42.6318 171.636 42.6609 171.101C42.6901 170.567 44.775 171.587 45.0909 172.136C45.3264 172.554 45.5389 172.984 45.7276 173.424C45.7276 173.424 47.0252 172.608 46.996 170.105C46.9669 167.602 45.1978 168.399 45.1978 168.399Z" fill="#263238"/>
<path d="M34.8364 174.265C36.1632 172.618 38.1266 170.377 39.7693 169.332" stroke="#263238" stroke-miterlimit="10" stroke-linecap="round"/>
<path d="M33.291 176.267C33.291 176.267 33.6361 175.781 34.1853 175.077" stroke="#263238" stroke-miterlimit="10" stroke-linecap="round"/>
<path d="M40.6345 169.74C40.6345 169.74 42.6125 172.535 42.977 175.407" stroke="#263238" stroke-miterlimit="10" stroke-linecap="round"/>
<path d="M38.394 171.393C38.394 171.393 38.9481 171.067 38.7391 174.625" stroke="#263238" stroke-miterlimit="10" stroke-linecap="round"/>
<path d="M39.8521 168.088C39.8521 168.088 40.9796 167.082 40.3867 165.084" stroke="#263238" stroke-miterlimit="10" stroke-linecap="round"/>
<path d="M38.3163 169.779L37.5095 168.307" stroke="#263238" stroke-miterlimit="10" stroke-linecap="round"/>
<path d="M36.6201 171.286C36.6201 171.286 34.0589 169.342 32.4551 169.254" stroke="#263238" stroke-miterlimit="10" stroke-linecap="round"/>
<path d="M52.4491 163.131C52.4491 163.131 52.3664 166.047 50.0774 166.207C47.7883 166.368 46.3692 162.533 44.0267 163.452C41.6842 164.37 41.4606 168.555 41.4606 168.555C41.4606 168.555 43.6816 166.727 44.8626 167.651C46.0436 168.574 45.786 169.993 45.1396 169.765C44.4932 169.536 41.0086 168.764 40.8871 171.393C40.8385 172.143 40.9426 172.895 41.1933 173.603C41.4439 174.311 41.8358 174.962 42.3451 175.514C42.3451 175.514 44.8237 170.887 46.6219 171.728C48.4201 172.569 45.1348 173.308 43.8177 175.013C42.5006 176.719 41.6599 178.527 42.8165 179.144C43.8032 179.759 44.7235 180.474 45.5624 181.278C45.4172 179.755 45.8205 178.229 46.6997 176.977C48.1577 175.096 49.3435 176.005 48.0265 177.725C46.7094 179.446 47.3655 182.099 47.3655 182.099C47.3655 182.099 51.2535 182.367 54.0237 181.239C56.7939 180.112 56.8133 179.033 55.9191 178.07C55.0249 177.108 51.9339 175.815 52.8573 174.62C53.7807 173.424 56.1572 179.883 57.5132 178.479C58.8691 177.074 59.2774 175.48 58.5143 174.348L57.7513 173.215C57.7513 173.215 54.6652 171.927 53.771 170.965C52.8767 170.003 54.1646 170.45 55.6226 171.033C57.0806 171.616 60.2542 173.507 60.4826 172.865C60.7111 172.224 59.671 168.977 59.0781 167.971C58.4852 166.965 53.9897 167.86 53.4745 167.485C52.9594 167.111 55.4185 165.697 56.1718 165.75C56.7506 165.8 57.3265 165.879 57.8971 165.988C57.8971 165.988 57.9652 164.132 55.438 162.46C52.9108 160.788 52.4491 163.131 52.4491 163.131Z" fill="#651FFF"/>
<path opacity="0.2" d="M52.4491 163.131C52.4491 163.131 52.3664 166.047 50.0774 166.207C47.7883 166.368 46.3692 162.533 44.0267 163.452C41.6842 164.37 41.4606 168.555 41.4606 168.555C41.4606 168.555 43.6816 166.727 44.8626 167.651C46.0436 168.574 45.786 169.993 45.1396 169.765C44.4932 169.536 41.0086 168.764 40.8871 171.393C40.8385 172.143 40.9426 172.895 41.1933 173.603C41.4439 174.311 41.8358 174.962 42.3451 175.514C42.3451 175.514 44.8237 170.887 46.6219 171.728C48.4201 172.569 45.1348 173.308 43.8177 175.013C42.5006 176.719 41.6599 178.527 42.8165 179.144C43.8032 179.759 44.7235 180.474 45.5624 181.278C45.4172 179.755 45.8205 178.229 46.6997 176.977C48.1577 175.096 49.3435 176.005 48.0265 177.725C46.7094 179.446 47.3655 182.099 47.3655 182.099C47.3655 182.099 51.2535 182.367 54.0237 181.239C56.7939 180.112 56.8133 179.033 55.9191 178.07C55.0249 177.108 51.9339 175.815 52.8573 174.62C53.7807 173.424 56.1572 179.883 57.5132 178.479C58.8691 177.074 59.2774 175.48 58.5143 174.348L57.7513 173.215C57.7513 173.215 54.6652 171.927 53.771 170.965C52.8767 170.003 54.1646 170.45 55.6226 171.033C57.0806 171.616 60.2542 173.507 60.4826 172.865C60.7111 172.224 59.671 168.977 59.0781 167.971C58.4852 166.965 53.9897 167.86 53.4745 167.485C52.9594 167.111 55.4185 165.697 56.1718 165.75C56.7506 165.8 57.3265 165.879 57.8971 165.988C57.8971 165.988 57.9652 164.132 55.438 162.46C52.9108 160.788 52.4491 163.131 52.4491 163.131Z" fill="#263238"/>
<path d="M51.268 177.482C50.5293 175.028 49.6351 171.548 49.6934 169.181" stroke="#263238" stroke-miterlimit="10" stroke-linecap="round"/>
<path d="M52.2207 180.389C52.2207 180.389 51.9777 179.723 51.6423 178.683" stroke="#263238" stroke-miterlimit="10" stroke-linecap="round"/>
<path d="M50.6946 168.589C50.6946 168.589 54.8353 168.516 57.9846 170.11" stroke="#263238" stroke-miterlimit="10" stroke-linecap="round"/>
<path d="M50.821 171.957C50.821 171.957 50.8745 171.179 54.2911 173.813" stroke="#263238" stroke-miterlimit="10" stroke-linecap="round"/>
<path d="M48.4978 168.258C48.4978 168.258 48.2597 166.441 45.854 165.677" stroke="#263238" stroke-miterlimit="10" stroke-linecap="round"/>
<path d="M49.1541 170.941L47.1274 170.741" stroke="#263238" stroke-miterlimit="10" stroke-linecap="round"/>
<path d="M49.5038 173.667C49.5038 173.667 45.8199 174.911 44.6438 176.447" stroke="#263238" stroke-miterlimit="10" stroke-linecap="round"/>
<path d="M27.8721 182.653C27.8721 182.653 39.5361 190.356 39.3271 220.182" stroke="#263238" stroke-miterlimit="10" stroke-linecap="round"/>
<path d="M42.2382 180.617C42.2382 180.617 41.8688 183.995 39.2152 183.946C36.5617 183.897 35.2835 179.334 32.4939 180.194C29.7042 181.054 29.0481 185.837 29.0481 185.837C29.0481 185.837 31.7843 183.941 33.0819 185.117C34.3795 186.293 33.9178 187.907 33.1986 187.586C32.4793 187.265 28.5232 186.041 28.1393 189.044C28.0123 189.905 28.061 190.782 28.2823 191.623C28.5037 192.464 28.8931 193.252 29.4272 193.938C29.4272 193.938 32.7271 188.83 34.7246 189.973C36.722 191.115 32.8584 191.654 31.1768 193.501C29.4952 195.348 28.3531 197.365 29.6459 198.191C30.7193 198.984 31.7093 199.885 32.6008 200.878C32.6008 200.878 32.4647 198.055 34.3164 196.018C36.168 193.982 37.4608 195.163 35.7744 196.99C34.0879 198.818 34.5934 202.001 34.5934 202.001C34.5934 202.001 39.0451 202.672 42.3694 201.632C45.6936 200.592 45.7714 199.347 44.8577 198.157C43.944 196.966 40.4837 195.178 41.6501 193.885C42.8165 192.592 44.9549 200.271 46.6559 198.779C48.3569 197.287 48.9741 195.484 48.2014 194.108L47.4286 192.728C47.4286 192.728 43.9878 190.944 43.0546 189.754C42.1215 188.563 43.5406 189.2 45.1882 190.007C46.8357 190.813 50.296 193.302 50.6168 192.577C50.9376 191.853 50.0433 188.009 49.4601 186.799C48.8769 185.589 43.5941 186.191 43.0401 185.686C42.486 185.181 45.4263 183.805 46.3157 183.941C46.9788 184.053 47.6358 184.199 48.284 184.379C48.284 184.379 48.5367 182.245 45.7811 180.078C43.0255 177.91 42.2382 180.617 42.2382 180.617Z" fill="#651FFF"/>
<path opacity="0.3" d="M42.2382 180.617C42.2382 180.617 41.8688 183.995 39.2152 183.946C36.5617 183.897 35.2835 179.334 32.4939 180.194C29.7042 181.054 29.0481 185.837 29.0481 185.837C29.0481 185.837 31.7843 183.941 33.0819 185.117C34.3795 186.293 33.9178 187.907 33.1986 187.586C32.4793 187.265 28.5232 186.041 28.1393 189.044C28.0123 189.905 28.061 190.782 28.2823 191.623C28.5037 192.464 28.8931 193.252 29.4272 193.938C29.4272 193.938 32.7271 188.83 34.7246 189.973C36.722 191.115 32.8584 191.654 31.1768 193.501C29.4952 195.348 28.3531 197.365 29.6459 198.191C30.7193 198.984 31.7093 199.885 32.6008 200.878C32.6008 200.878 32.4647 198.055 34.3164 196.018C36.168 193.982 37.4608 195.163 35.7744 196.99C34.0879 198.818 34.5934 202.001 34.5934 202.001C34.5934 202.001 39.0451 202.672 42.3694 201.632C45.6936 200.592 45.7714 199.347 44.8577 198.157C43.944 196.966 40.4837 195.178 41.6501 193.885C42.8165 192.592 44.9549 200.271 46.6559 198.779C48.3569 197.287 48.9741 195.484 48.2014 194.108L47.4286 192.728C47.4286 192.728 43.9878 190.944 43.0546 189.754C42.1215 188.563 43.5406 189.2 45.1882 190.007C46.8357 190.813 50.296 193.302 50.6168 192.577C50.9376 191.853 50.0433 188.009 49.4601 186.799C48.8769 185.589 43.5941 186.191 43.0401 185.686C42.486 185.181 45.4263 183.805 46.3157 183.941C46.9788 184.053 47.6358 184.199 48.284 184.379C48.284 184.379 48.5367 182.245 45.7811 180.078C43.0255 177.91 42.2382 180.617 42.2382 180.617Z" fill="#263238"/>
<path d="M39.5214 197.068C38.8993 194.152 38.1995 190.065 38.4911 187.348" stroke="#263238" stroke-miterlimit="10" stroke-linecap="round"/>
<path d="M40.3381 200.514C40.3381 200.514 40.1242 199.722 39.8521 198.492" stroke="#263238" stroke-miterlimit="10" stroke-linecap="round"/>
<path d="M39.7012 186.75C39.7012 186.75 44.4883 187.057 47.9632 189.18" stroke="#263238" stroke-miterlimit="10" stroke-linecap="round"/>
<path d="M39.5312 190.648C39.5312 190.648 39.6625 189.759 43.3609 193.122" stroke="#263238" stroke-miterlimit="10" stroke-linecap="round"/>
<path d="M37.1985 186.162C37.1985 186.162 37.0964 184.043 34.3894 182.935" stroke="#263238" stroke-miterlimit="10" stroke-linecap="round"/>
<path d="M37.6991 189.321L35.3809 188.898" stroke="#263238" stroke-miterlimit="10" stroke-linecap="round"/>
<path d="M37.8496 192.495C37.8496 192.495 33.4756 193.588 31.9641 195.25" stroke="#263238" stroke-miterlimit="10" stroke-linecap="round"/>
<path d="M32.4163 206.161C32.4163 206.161 39.9201 211.896 40.7123 220.382L39.1279 191.936" stroke="#263238" stroke-miterlimit="10" stroke-linecap="round"/>
<path d="M50.5877 202.011C40.7122 200.232 40.7122 220.382 40.7122 220.382" stroke="#263238" stroke-miterlimit="10" stroke-linecap="round"/>
<path d="M41.8932 220.182C41.8932 220.182 36.1682 178.508 52.7602 178.508" stroke="#263238" stroke-miterlimit="10" stroke-linecap="round"/>
<path d="M46.8211 200.815C45.4749 199.294 42.6075 199.294 40.9211 203.177C39.2346 207.06 40.751 206.38 40.751 206.38C40.751 206.38 43.9586 205.369 45.9803 204.694C48.0021 204.018 50.6994 202.332 50.8695 203.343C51.0396 204.353 49.5233 205.369 47.6668 205.704C45.8102 206.04 40.9211 207.391 41.4265 208.402C41.9319 209.413 43.1129 212.45 43.1129 212.45C44.5556 211.228 46.0768 210.101 47.6668 209.077C49.8586 207.726 51.2097 208.232 50.0287 209.753C48.8477 211.274 45.4749 212.956 46.1407 214.977C46.8065 216.999 50.8598 219.531 50.8598 219.531C50.8598 219.531 51.3458 215.318 52.5462 213.966C53.7466 212.615 53.7272 214.137 53.3918 216.499C53.2216 217.502 53.1081 218.515 53.0516 219.531L57.7755 221.218C58.5477 220.042 59.3918 218.916 60.3028 217.845L61.1484 217.004C61.1484 217.004 57.4354 213.801 57.2604 211.775C57.0854 209.748 59.7876 211.775 60.6332 212.115C61.4789 212.455 62.8251 214.812 62.8251 214.812C62.8251 214.812 63.6659 210.924 63.836 209.583L64.0061 208.232C64.0061 208.232 60.4631 206.885 59.112 206.885C57.761 206.885 57.0903 207.896 57.0903 206.545C57.0903 205.194 58.4414 204.353 59.9577 204.523C61.3315 204.754 62.6851 205.092 64.0061 205.534C64.0061 205.534 65.017 204.694 64.6768 202.162C64.3366 199.629 63.5006 199.634 61.474 200.31C59.4474 200.985 58.1012 202.502 56.5849 202.502C55.0685 202.502 55.9093 200.645 56.9202 200.14C57.9311 199.634 60.4631 198.623 60.9686 198.453C61.474 198.283 58.2713 195.921 56.5946 195.586C54.9179 195.251 52.7066 196.436 52.8864 198.118C53.2314 201.656 48.1722 202.332 46.8211 200.815Z" fill="#651FFF"/>
<path d="M57.6785 218.175C57.7271 218.685 57.7659 219.196 57.7854 219.701" stroke="#263238" stroke-miterlimit="10" stroke-linecap="round"/>
<path d="M54.291 206.064C55.7718 209.406 56.8376 212.917 57.4646 216.518" stroke="#263238" stroke-miterlimit="10" stroke-linecap="round"/>
<path d="M53.6836 204.718C52.8477 202.92 52.2256 201.802 52.2256 201.802C53.1448 201.366 53.9094 200.661 54.4174 199.78C54.8113 198.981 55.3893 198.286 56.1039 197.753" stroke="#263238" stroke-miterlimit="10" stroke-linecap="round"/>
<path d="M46.3157 207.561C46.3157 207.561 52.3858 205.029 52.3858 205.534" stroke="#263238" stroke-miterlimit="10" stroke-linecap="round"/>
<path d="M55.7588 204.353C55.7588 204.353 58.4609 203.007 60.818 203.007" stroke="#263238" stroke-miterlimit="10" stroke-linecap="round"/>
<path d="M54.7478 208.402C53.5795 209.363 52.5069 210.436 51.5451 211.604C50.5592 212.769 49.7621 214.081 49.1831 215.492" stroke="#263238" stroke-miterlimit="10" stroke-linecap="round"/>
<path d="M56.6042 209.077C56.6042 209.077 60.1472 208.066 61.9988 209.753" stroke="#263238" stroke-miterlimit="10" stroke-linecap="round"/>
<path d="M63.0196 186.289C61.1826 185.205 59.1316 185.18 58.1596 184.034C57.1876 182.887 59.1316 182.308 60.162 182.741C61.1923 183.173 63.6271 184.422 64.0888 184.685C64.5505 184.947 64.2298 180.986 63.3793 179.494C62.5288 178.002 60.2008 177.127 59.0344 178.347C56.6044 180.928 52.7553 177.545 53.0178 175.533C53.2802 173.521 51.3994 171.354 47.3656 172.617C43.3318 173.881 44.8384 174.591 44.8384 174.591C44.8384 174.591 47.7009 176.35 49.538 177.434C51.3751 178.517 54.398 179.451 53.7613 180.243C53.1247 181.035 51.3313 180.549 49.8733 179.373C48.4153 178.197 44.1823 175.397 43.74 176.442C43.2978 177.487 41.796 180.369 41.796 180.369C43.6647 180.656 45.5123 181.067 47.3267 181.599C49.7567 182.367 50.2864 183.718 48.3667 183.825C46.447 183.931 42.9624 182.483 41.8738 184.311C40.7851 186.138 41.5336 190.862 41.5336 190.862C41.5336 190.862 45.0474 188.48 46.8407 188.485C48.634 188.49 47.4871 189.486 45.4848 190.779C44.6144 191.313 43.7739 191.893 42.9673 192.519L44.7898 197.19C46.1848 196.999 47.5906 196.899 48.9985 196.888L50.1844 196.971C50.1844 196.971 50.1844 192.067 51.5889 190.614C52.9935 189.161 53.251 192.524 53.5329 193.384C53.8148 194.244 52.9303 196.786 52.9303 196.786C52.9303 196.786 56.4149 194.881 57.5424 194.123L58.6748 193.37C58.6748 193.37 57.3675 189.807 56.4829 188.791C55.5984 187.776 54.3931 187.926 55.4137 187.042C56.4343 186.157 57.9555 186.624 58.8157 187.878C59.5604 189.074 60.2072 190.329 60.75 191.63C60.75 191.63 62.0476 191.839 63.7389 189.929C65.4302 188.019 64.8567 187.377 63.0196 186.289ZM47.0594 191.688C45.7083 191.012 48.9159 189.666 48.9159 189.666C50.0969 189.496 48.4105 192.364 47.0594 191.688ZM49.329 185.394C48.7555 185.108 50.4808 184.529 50.4808 184.529C52.974 185.01 49.9074 185.681 49.329 185.394Z" fill="#651FFF"/>
<path d="M47.0252 195.124C46.6753 195.494 46.3108 195.853 45.9414 196.203" stroke="#263238" stroke-miterlimit="10" stroke-linecap="round"/>
<path d="M53.946 184.631C52.3877 187.937 50.429 191.038 48.114 193.865" stroke="#263238" stroke-miterlimit="10" stroke-linecap="round"/>
<path d="M54.5681 183.285C55.404 181.473 55.7928 180.306 55.7928 180.306C56.7241 180.717 57.7587 180.832 58.7574 180.637C59.6189 180.411 60.5216 180.393 61.3916 180.583" stroke="#263238" stroke-miterlimit="10" stroke-linecap="round"/>
<path d="M47.594 179.582C47.594 179.582 53.4843 182.498 53.1004 182.843" stroke="#263238" stroke-miterlimit="10" stroke-linecap="round"/>
<path d="M56.2058 184.617C56.2058 184.617 58.9906 185.769 60.5409 187.533" stroke="#263238" stroke-miterlimit="10" stroke-linecap="round"/>
<path d="M52.488 186.503C50.9951 186.252 49.4815 186.146 47.9682 186.187C46.4458 186.204 44.9355 186.46 43.4922 186.945" stroke="#263238" stroke-miterlimit="10" stroke-linecap="round"/>
<path d="M53.1926 188.344C53.1926 188.344 56.2787 190.357 56.2204 192.864" stroke="#263238" stroke-miterlimit="10" stroke-linecap="round"/>
<path d="M36.8144 209.655C35.3564 208.786 33.704 208.766 32.9264 207.843C32.1488 206.919 33.6991 206.453 34.5399 206.803C35.3807 207.153 37.3295 208.154 37.6989 208.372C38.0682 208.591 37.8107 205.398 37.1303 204.193C36.4499 202.988 34.569 202.293 33.6359 203.274C31.6579 205.35 28.5815 202.628 28.7759 201.01C28.9703 199.391 27.4734 197.646 24.227 198.667C20.9805 199.688 22.1906 200.256 22.1906 200.256C22.1906 200.256 24.4991 201.67 25.9766 202.54C27.454 203.41 29.8986 204.169 29.3786 204.805C28.8585 205.442 27.4346 205.048 26.2536 204.1C25.0726 203.153 21.6706 200.893 21.3207 201.734C20.9708 202.574 19.7509 204.893 19.7509 204.893C21.2544 205.12 22.7415 205.444 24.2027 205.865C26.1807 206.487 26.5841 207.575 25.0386 207.658C23.4931 207.741 20.6646 206.579 19.8189 208.057C18.9733 209.534 19.5273 213.354 19.5273 213.354C19.5273 213.354 22.3559 211.41 23.8139 211.434C25.2719 211.459 24.3339 212.241 22.7204 213.281C22.021 213.708 21.346 214.174 20.6986 214.676L22.1566 218.433C23.2845 218.282 24.4207 218.202 25.5586 218.194L26.5306 218.263C26.5306 218.263 26.5306 214.316 27.663 213.145C28.7954 211.974 28.9946 214.681 29.2328 215.371C29.4709 216.061 28.7468 218.126 28.7468 218.126C28.7468 218.126 31.551 216.596 32.4598 215.983L33.3686 215.376C33.3686 215.376 32.3189 212.513 31.6044 211.692C30.89 210.87 29.9229 210.997 30.7442 210.282C31.5656 209.568 32.7854 209.947 33.4853 210.958C34.0664 211.914 34.5702 212.915 34.9919 213.952C34.9919 213.952 36.0368 214.122 37.4219 212.581C38.807 211.041 38.2918 210.53 36.8144 209.655ZM23.9694 214C22.8856 213.461 25.4663 212.382 25.4663 212.382C26.414 212.236 25.058 214.545 23.9694 214ZM25.8016 208.936C25.3156 208.703 26.725 208.241 26.725 208.241C28.7322 208.625 26.2439 209.165 25.8016 208.936Z" fill="#651FFF"/>
<path d="M23.9403 216.756C23.6584 217.053 23.3716 217.344 23.0703 217.626" stroke="#263238" stroke-miterlimit="10" stroke-linecap="round"/>
<path d="M29.5098 208.319C28.2657 210.991 26.6953 213.498 24.8345 215.784" stroke="#263238" stroke-miterlimit="10" stroke-linecap="round"/>
<path d="M30.0154 207.235C30.6666 205.777 30.9874 204.805 30.9874 204.805C31.737 205.135 32.5696 205.229 33.3736 205.072C34.0683 204.891 34.796 204.876 35.4975 205.029" stroke="#263238" stroke-miterlimit="10" stroke-linecap="round"/>
<path d="M24.4021 204.261C24.4021 204.261 29.1406 206.613 28.8344 206.881" stroke="#263238" stroke-miterlimit="10" stroke-linecap="round"/>
<path d="M31.3323 208.309C31.3323 208.309 33.5727 209.238 34.8169 210.671" stroke="#263238" stroke-miterlimit="10" stroke-linecap="round"/>
<path d="M28.3386 209.831C27.1365 209.626 25.9173 209.54 24.6984 209.573C23.4733 209.587 22.2581 209.794 21.0972 210.185" stroke="#263238" stroke-miterlimit="10" stroke-linecap="round"/>
<path d="M28.9072 211.313C28.9072 211.313 31.3907 212.931 31.3372 214.948" stroke="#263238" stroke-miterlimit="10" stroke-linecap="round"/>
<path d="M30.788 181.813C30.788 181.813 28.9364 183.159 27.7554 181.813C26.5744 180.466 28.2414 177.764 26.5744 176.753C24.9074 175.742 22.2004 177.594 22.2004 177.594C22.2004 177.594 24.3923 178.08 24.3923 179.281C24.3923 180.481 23.3814 180.967 23.2113 180.462C23.0412 179.956 21.8602 177.424 20.1738 178.605C19.687 178.933 19.2718 179.356 18.9535 179.849C18.6352 180.341 18.4204 180.894 18.3221 181.472C18.3221 181.472 22.3657 180.797 22.6961 182.318C23.0266 183.839 21.0097 182.148 19.3233 182.148C17.6369 182.148 16.1206 182.483 16.2858 183.499C16.3781 184.396 16.3781 185.3 16.2858 186.196C17.1594 185.377 18.2972 184.898 19.4934 184.845C21.3451 184.845 21.3451 186.026 19.6586 186.026C17.9722 186.026 16.626 187.713 16.626 187.713C16.626 187.713 18.3124 190.24 20.3342 191.421C22.3559 192.602 23.0315 192.096 23.2016 191.085C23.3717 190.075 22.7156 187.543 23.8771 187.543C25.0387 187.543 22.1907 192.096 23.707 192.266C25.2233 192.437 26.4043 191.931 26.7445 190.915L27.0799 189.904C27.0799 189.904 26.4043 187.377 26.5939 186.362C26.7834 185.346 27.0799 186.362 27.4346 187.543C27.7894 188.724 28.1102 191.591 28.6156 191.431C29.1211 191.27 30.6179 189.054 30.9581 188.218C31.2983 187.382 28.5962 185.015 28.5962 184.51C28.5962 184.004 30.6228 184.845 30.9581 185.351C31.2935 185.856 31.6337 186.532 31.6337 186.532C31.6337 186.532 32.8147 185.691 32.6446 183.329C32.4745 180.967 30.788 181.813 30.788 181.813Z" fill="#651FFF"/>
<path d="M21.345 187.927C22.5065 186.298 24.2367 184.087 25.719 182.989" stroke="#263238" stroke-miterlimit="10" stroke-linecap="round"/>
<path d="M19.9988 189.904C19.9988 189.904 20.2952 189.418 20.7764 188.733" stroke="#263238" stroke-miterlimit="10" stroke-linecap="round"/>
<path d="M26.5745 183.329C26.5745 183.329 28.5962 185.856 29.1017 188.558" stroke="#263238" stroke-miterlimit="10" stroke-linecap="round"/>
<path d="M24.5527 185.015C24.5527 185.015 25.0387 184.675 25.0387 188.048" stroke="#263238" stroke-miterlimit="10" stroke-linecap="round"/>
<path d="M25.7288 181.813C25.7288 181.813 26.7445 180.797 26.069 178.945" stroke="#263238" stroke-miterlimit="10" stroke-linecap="round"/>
<path d="M24.3825 183.499L23.5369 182.148" stroke="#263238" stroke-miterlimit="10" stroke-linecap="round"/>
<path d="M22.8663 185.015C22.8663 185.015 20.3342 183.329 18.8179 183.329" stroke="#263238" stroke-miterlimit="10" stroke-linecap="round"/>
<path d="M47.8175 219.594H34.783V226.476H47.8175V219.594Z" fill="#263238" stroke="#263238" stroke-width="2" stroke-miterlimit="10" stroke-linecap="round"/>
<path opacity="0.2" d="M155.637 14.2883H32.5717C29.7534 14.2883 27.4688 16.573 27.4688 19.3913V168.54C27.4688 171.358 29.7534 173.643 32.5717 173.643H155.637C158.455 173.643 160.74 171.358 160.74 168.54V19.3913C160.74 16.573 158.455 14.2883 155.637 14.2883Z" fill="black"/>
<path d="M151.749 11.3723H28.6838C25.8655 11.3723 23.5808 13.657 23.5808 16.4753V165.624C23.5808 168.442 25.8655 170.727 28.6838 170.727H151.749C154.567 170.727 156.852 168.442 156.852 165.624V16.4753C156.852 13.657 154.567 11.3723 151.749 11.3723Z" fill="#E3E3E3" stroke="#263238" stroke-linecap="round" stroke-linejoin="round"/>
<path d="M137.383 11.3723H38.0491V170.727H137.383V11.3723Z" fill="white" stroke="#263238" stroke-linecap="round" stroke-linejoin="round"/>
<path d="M152.429 11.7466V171.038C153.647 170.903 154.772 170.323 155.589 169.41C156.405 168.498 156.857 167.315 156.857 166.09V16.6941C156.856 15.4694 156.404 14.2878 155.587 13.3752C154.771 12.4626 153.646 11.8828 152.429 11.7466Z" fill="#B2B2B2" stroke="#263238" stroke-linecap="round" stroke-linejoin="round"/>
<path d="M156.857 73.5269H152.429V98.5073H156.857V73.5269Z" fill="#808080" stroke="#263238" stroke-linecap="round" stroke-linejoin="round"/>
<path d="M156.857 32.2945V16.6939C156.857 16.04 156.728 15.3924 156.477 14.7883C156.227 14.1842 155.86 13.6354 155.397 13.1732C154.935 12.711 154.385 12.3445 153.781 12.0947C153.177 11.8449 152.529 11.7166 151.875 11.7173H28.5623C27.9084 11.7166 27.2607 11.8449 26.6563 12.0947C26.052 12.3445 25.5028 12.711 25.0402 13.1732C24.5775 13.6354 24.2105 14.1842 23.9601 14.7883C23.7097 15.3924 23.5808 16.04 23.5808 16.6939V32.2945H156.857Z" fill="#B2B2B2" stroke="#263238" stroke-linecap="round" stroke-linejoin="round"/>
<path d="M87.5966 19.78H30.895V23.5514H87.5966V19.78Z" fill="white" stroke="#263238" stroke-linecap="round" stroke-linejoin="round"/>
<path d="M156.852 25.5781H23.5808V32.2946H156.852V25.5781Z" fill="#263238" stroke="#263238" stroke-linecap="round" stroke-linejoin="round"/>
<path d="M26.6719 27.3228H30.1371" stroke="white" stroke-linecap="round" stroke-linejoin="round"/>
<path d="M26.6719 28.8293H30.1371" stroke="white" stroke-linecap="round" stroke-linejoin="round"/>
<path d="M26.6719 30.3359H30.1371" stroke="white" stroke-linecap="round" stroke-linejoin="round"/>
<path d="M44.6003 27.2598V31.1769" stroke="white" stroke-linecap="round" stroke-linejoin="round"/>
<path d="M65.0269 27.2598V31.1769" stroke="white" stroke-linecap="round" stroke-linejoin="round"/>
<path d="M85.4534 27.2598V31.1769" stroke="white" stroke-linecap="round" stroke-linejoin="round"/>
<path d="M105.875 27.2598V31.1769" stroke="white" stroke-linecap="round" stroke-linejoin="round"/>
<path d="M126.302 27.2598V31.1769" stroke="white" stroke-linecap="round" stroke-linejoin="round"/>
<path d="M156.857 17.5201V16.6939C156.857 16.04 156.728 15.3924 156.477 14.7883C156.227 14.1842 155.86 13.6354 155.397 13.1732C154.935 12.711 154.385 12.3445 153.781 12.0947C153.177 11.8449 152.529 11.7166 151.875 11.7173H28.5623C27.9084 11.7166 27.2607 11.8449 26.6563 12.0947C26.052 12.3445 25.5028 12.711 25.0402 13.1732C24.5775 13.6354 24.2105 14.1842 23.9601 14.7883C23.7097 15.3924 23.5808 16.04 23.5808 16.6939V17.5201H156.857Z" fill="#263238" stroke="#263238" stroke-linecap="round" stroke-linejoin="round"/>
<path d="M137.796 16.1206C138.617 16.1206 139.283 15.4547 139.283 14.6334C139.283 13.8121 138.617 13.1462 137.796 13.1462C136.974 13.1462 136.309 13.8121 136.309 14.6334C136.309 15.4547 136.974 16.1206 137.796 16.1206Z" fill="white" stroke="#263238" stroke-linecap="round" stroke-linejoin="round"/>
<path d="M142.485 16.1206C143.307 16.1206 143.973 15.4547 143.973 14.6334C143.973 13.8121 143.307 13.1462 142.485 13.1462C141.664 13.1462 140.998 13.8121 140.998 14.6334C140.998 15.4547 141.664 16.1206 142.485 16.1206Z" fill="white" stroke="#263238" stroke-linecap="round" stroke-linejoin="round"/>
<path d="M148.663 14.6334C148.663 14.3393 148.575 14.0517 148.412 13.8072C148.249 13.5626 148.016 13.372 147.745 13.2594C147.473 13.1469 147.174 13.1174 146.885 13.1748C146.597 13.2322 146.332 13.3738 146.124 13.5818C145.916 13.7898 145.774 14.0548 145.717 14.3433C145.659 14.6318 145.689 14.9308 145.801 15.2025C145.914 15.4743 146.105 15.7065 146.349 15.8699C146.594 16.0333 146.881 16.1206 147.175 16.1206C147.57 16.1206 147.948 15.9639 148.227 15.685C148.506 15.4061 148.663 15.0278 148.663 14.6334Z" fill="white" stroke="#263238" stroke-linecap="round" stroke-linejoin="round"/>
<path d="M23.5808 161.43V166.09C23.5808 167.412 24.1056 168.679 25.0399 169.613C25.9741 170.547 27.2411 171.072 28.5623 171.072H151.875C153.196 171.072 154.463 170.547 155.398 169.613C156.332 168.679 156.857 167.412 156.857 166.09V161.43H23.5808Z" fill="#B2B2B2" stroke="#263238" stroke-linecap="round" stroke-linejoin="round"/>
<path d="M121.549 54.9568H47.6816V96.364H121.549V54.9568Z" fill="#651FFF" stroke="#263238" stroke-linecap="round" stroke-linejoin="round"/>
<path d="M121.544 78.1827L105.039 67.5491L88.2481 84.3355L76.4966 70.6255L48.4592 95.8975L47.6816 96.3689H121.544V78.1827Z" fill="white" stroke="#263238" stroke-linecap="round" stroke-linejoin="round"/>
<path d="M59.1511 70.3484C62.3962 70.3484 65.0269 67.7177 65.0269 64.4727C65.0269 61.2276 62.3962 58.5969 59.1511 58.5969C55.906 58.5969 53.2754 61.2276 53.2754 64.4727C53.2754 67.7177 55.906 70.3484 59.1511 70.3484Z" fill="white" stroke="#263238" stroke-linecap="round" stroke-linejoin="round"/>
<path d="M47.9585 99.1633H121.267" stroke="#263238" stroke-miterlimit="10"/>
<path d="M47.9585 102.522H91.888" stroke="#263238" stroke-miterlimit="10"/>
<path d="M112.125 108.806H121.544" stroke="#263238" stroke-miterlimit="10"/>
<path d="M100.918 108.806H111.036" stroke="#263238" stroke-miterlimit="10"/>
<path d="M96.8892 108.806H99.8295" stroke="#263238" stroke-miterlimit="10"/>
<path d="M83.0671 108.806H96.126" stroke="#263238" stroke-miterlimit="10"/>
<path d="M66.0864 108.806H81.653" stroke="#263238" stroke-miterlimit="10"/>
<path d="M53.6787 108.806H64.4533" stroke="#263238" stroke-miterlimit="10"/>
<path d="M47.7837 108.806H52.2646" stroke="#263238" stroke-miterlimit="10"/>
<path d="M57.2024 112.698H47.7837" stroke="#263238" stroke-miterlimit="10"/>
<path d="M68.4144 112.698H58.291" stroke="#263238" stroke-miterlimit="10"/>
<path d="M72.4432 112.698H69.5029" stroke="#263238" stroke-miterlimit="10"/>
<path d="M86.2651 112.698H73.2014" stroke="#263238" stroke-miterlimit="10"/>
<path d="M103.241 112.698H87.6794" stroke="#263238" stroke-miterlimit="10"/>
<path d="M115.649 112.698H104.874" stroke="#263238" stroke-miterlimit="10"/>
<path d="M121.544 112.698H117.063" stroke="#263238" stroke-miterlimit="10"/>
<path d="M112.125 116.421H121.544" stroke="#263238" stroke-miterlimit="10"/>
<path d="M100.918 116.421H111.036" stroke="#263238" stroke-miterlimit="10"/>
<path d="M96.8892 116.421H99.8295" stroke="#263238" stroke-miterlimit="10"/>
<path d="M83.0671 116.421H96.126" stroke="#263238" stroke-miterlimit="10"/>
<path d="M66.0864 116.421H81.653" stroke="#263238" stroke-miterlimit="10"/>
<path d="M53.6787 116.421H64.4533" stroke="#263238" stroke-miterlimit="10"/>
<path d="M47.7837 116.421H52.2646" stroke="#263238" stroke-miterlimit="10"/>
<path d="M57.2024 120.314H47.7837" stroke="#263238" stroke-miterlimit="10"/>
<path d="M68.4144 120.314H58.291" stroke="#263238" stroke-miterlimit="10"/>
<path d="M72.4432 120.314H69.5029" stroke="#263238" stroke-miterlimit="10"/>
<path d="M86.2651 120.314H73.2014" stroke="#263238" stroke-miterlimit="10"/>
<path d="M103.241 120.314H87.6794" stroke="#263238" stroke-miterlimit="10"/>
<path d="M115.649 120.314H104.874" stroke="#263238" stroke-miterlimit="10"/>
<path d="M121.544 120.314H117.063" stroke="#263238" stroke-miterlimit="10"/>
<path d="M112.125 124.037H121.544" stroke="#263238" stroke-miterlimit="10"/>
<path d="M100.918 124.037H111.036" stroke="#263238" stroke-miterlimit="10"/>
<path d="M96.8892 124.037H99.8295" stroke="#263238" stroke-miterlimit="10"/>
<path d="M83.0671 124.037H96.126" stroke="#263238" stroke-miterlimit="10"/>
<path d="M66.0864 124.037H81.653" stroke="#263238" stroke-miterlimit="10"/>
<path d="M53.6787 124.037H64.4533" stroke="#263238" stroke-miterlimit="10"/>
<path d="M47.7837 124.037H52.2646" stroke="#263238" stroke-miterlimit="10"/>
<path d="M57.2024 127.93H47.7837" stroke="#263238" stroke-miterlimit="10"/>
<path d="M68.4144 127.93H58.291" stroke="#263238" stroke-miterlimit="10"/>
<path d="M72.4432 127.93H69.5029" stroke="#263238" stroke-miterlimit="10"/>
<path d="M86.2651 127.93H73.2014" stroke="#263238" stroke-miterlimit="10"/>
<path d="M103.241 127.93H87.6794" stroke="#263238" stroke-miterlimit="10"/>
<path d="M115.649 127.93H104.874" stroke="#263238" stroke-miterlimit="10"/>
<path d="M121.544 127.93H117.063" stroke="#263238" stroke-miterlimit="10"/>
<path d="M112.125 131.652H121.544" stroke="#263238" stroke-miterlimit="10"/>
<path d="M100.918 131.652H111.036" stroke="#263238" stroke-miterlimit="10"/>
<path d="M96.8892 131.652H99.8295" stroke="#263238" stroke-miterlimit="10"/>
<path d="M83.0671 131.652H96.126" stroke="#263238" stroke-miterlimit="10"/>
<path d="M66.0864 131.652H81.653" stroke="#263238" stroke-miterlimit="10"/>
<path d="M53.6787 131.652H64.4533" stroke="#263238" stroke-miterlimit="10"/>
<path d="M47.7837 131.652H52.2646" stroke="#263238" stroke-miterlimit="10"/>
<path d="M57.2024 135.545H47.7837" stroke="#263238" stroke-miterlimit="10"/>
<path d="M68.4144 135.545H58.291" stroke="#263238" stroke-miterlimit="10"/>
<path d="M72.4432 135.545H69.5029" stroke="#263238" stroke-miterlimit="10"/>
<path d="M86.2651 135.545H73.2014" stroke="#263238" stroke-miterlimit="10"/>
<path d="M103.241 135.545H87.6794" stroke="#263238" stroke-miterlimit="10"/>
<path d="M115.649 135.545H104.874" stroke="#263238" stroke-miterlimit="10"/>
<path d="M121.544 135.545H117.063" stroke="#263238" stroke-miterlimit="10"/>
<path d="M112.125 139.268H121.544" stroke="#263238" stroke-miterlimit="10"/>
<path d="M100.918 139.268H111.036" stroke="#263238" stroke-miterlimit="10"/>
<path d="M96.8892 139.268H99.8295" stroke="#263238" stroke-miterlimit="10"/>
<path d="M83.0671 139.268H96.126" stroke="#263238" stroke-miterlimit="10"/>
<path d="M66.0864 139.268H81.653" stroke="#263238" stroke-miterlimit="10"/>
<path d="M53.6787 139.268H64.4533" stroke="#263238" stroke-miterlimit="10"/>
<path d="M47.7837 139.268H52.2646" stroke="#263238" stroke-miterlimit="10"/>
<path d="M57.2024 143.161H47.7837" stroke="#263238" stroke-miterlimit="10"/>
<path d="M68.4144 143.161H58.291" stroke="#263238" stroke-miterlimit="10"/>
<path d="M72.4432 143.161H69.5029" stroke="#263238" stroke-miterlimit="10"/>
<path d="M86.2651 143.161H73.2014" stroke="#263238" stroke-miterlimit="10"/>
<path d="M103.241 143.161H87.6794" stroke="#263238" stroke-miterlimit="10"/>
<path d="M115.649 143.161H104.874" stroke="#263238" stroke-miterlimit="10"/>
<path d="M121.544 143.161H117.063" stroke="#263238" stroke-miterlimit="10"/>
<path d="M112.125 146.884H121.544" stroke="#263238" stroke-miterlimit="10"/>
<path d="M100.918 146.884H111.036" stroke="#263238" stroke-miterlimit="10"/>
<path d="M96.8892 146.884H99.8295" stroke="#263238" stroke-miterlimit="10"/>
<path d="M83.0671 146.884H96.126" stroke="#263238" stroke-miterlimit="10"/>
<path d="M66.0864 146.884H81.653" stroke="#263238" stroke-miterlimit="10"/>
<path d="M53.6787 146.884H64.4533" stroke="#263238" stroke-miterlimit="10"/>
<path d="M47.7837 146.884H52.2646" stroke="#263238" stroke-miterlimit="10"/>
<path d="M57.2024 150.772H47.7837" stroke="#263238" stroke-miterlimit="10"/>
<path d="M68.4144 150.772H58.291" stroke="#263238" stroke-miterlimit="10"/>
<path d="M72.4432 150.772H69.5029" stroke="#263238" stroke-miterlimit="10"/>
<path d="M86.2651 150.772H73.2014" stroke="#263238" stroke-miterlimit="10"/>
<path d="M103.241 150.772H87.6794" stroke="#263238" stroke-miterlimit="10"/>
<path d="M115.649 150.772H104.874" stroke="#263238" stroke-miterlimit="10"/>
<path d="M121.544 150.772H117.063" stroke="#263238" stroke-miterlimit="10"/>
<path d="M112.125 154.494H121.544" stroke="#263238" stroke-miterlimit="10"/>
<path d="M100.918 154.494H111.036" stroke="#263238" stroke-miterlimit="10"/>
<path d="M96.8892 154.494H99.8295" stroke="#263238" stroke-miterlimit="10"/>
<path d="M83.0671 154.494H96.126" stroke="#263238" stroke-miterlimit="10"/>
<path d="M66.0864 154.494H81.653" stroke="#263238" stroke-miterlimit="10"/>
<path d="M53.6787 154.494H64.4533" stroke="#263238" stroke-miterlimit="10"/>
<path d="M47.7837 154.494H52.2646" stroke="#263238" stroke-miterlimit="10"/>
<path d="M57.2024 158.387H47.7837" stroke="#263238" stroke-miterlimit="10"/>
<path d="M68.4144 158.387H58.291" stroke="#263238" stroke-miterlimit="10"/>
<path d="M72.4432 158.387H69.5029" stroke="#263238" stroke-miterlimit="10"/>
<path d="M86.2651 158.387H73.2014" stroke="#263238" stroke-miterlimit="10"/>
<path d="M103.241 158.387H87.6794" stroke="#263238" stroke-miterlimit="10"/>
<path d="M115.649 158.387H104.874" stroke="#263238" stroke-miterlimit="10"/>
<path d="M121.544 158.387H117.063" stroke="#263238" stroke-miterlimit="10"/>
<path d="M50.3837 49.5719L49.8685 52.2643H48.4932L51.0301 38.8799H53.1879L55.7443 52.24H54.2571L53.7614 49.5719H50.3837ZM50.5732 48.2937H53.5524L52.0458 40.5857L50.5732 48.2937Z" fill="#263238"/>
<path d="M59.9045 38.8799C62.004 38.8799 62.8837 39.9491 62.8837 41.9368V43.0206C62.8837 44.4786 62.3685 45.4069 61.2216 45.7714C62.4414 46.131 62.9031 47.1224 62.9031 48.5561V50.6362C62.8595 51.1846 62.9513 51.7354 63.1704 52.24H61.6638C61.4505 51.7271 61.3638 51.1703 61.4111 50.6168V48.527C61.4111 47.0204 60.7064 46.5441 59.4671 46.5441H58.4173V52.2497H56.9302V38.8799H59.9045ZM59.5254 45.1979C60.7064 45.1979 61.4111 44.8139 61.4111 43.3657V42.0778C61.4111 40.8773 60.9737 40.2455 59.8656 40.2455H58.4076V45.1979H59.5254Z" fill="#263238"/>
<path d="M66.3732 52.2497V40.2455H63.9141V38.8799H70.305V40.2358H67.8458V52.24L66.3732 52.2497Z" fill="#263238"/>
<path d="M72.8077 38.8799V52.24H71.3157V38.8799H72.8077Z" fill="#263238"/>
<path d="M80.2289 42.1166V43.317H78.8146V42.0388C78.8146 40.8384 78.3286 40.0948 77.2497 40.0948C76.1708 40.0948 75.6848 40.8189 75.6848 42.0388V49.0858C75.6848 50.2862 76.1708 51.0298 77.2497 51.0298C78.3286 51.0298 78.8146 50.3057 78.8146 49.0858V47.3654H80.2289V49.0226C80.2289 51.0444 79.2569 52.3809 77.2157 52.3809C75.1745 52.3809 74.217 51.0444 74.217 49.0226V42.1166C74.217 40.0948 75.189 38.7583 77.2157 38.7583C79.2423 38.7583 80.2289 40.0948 80.2289 42.1166Z" fill="#263238"/>
<path d="M81.585 52.2497V38.8799H83.0721V50.8841H86.8872V52.24L81.585 52.2497Z" fill="#263238"/>
<path d="M92.7677 44.8042V46.1407H89.5018V50.8938H93.5113V52.2497H88.0146V38.8799H93.5113V40.2358H89.5018V44.7945L92.7677 44.8042Z" fill="#263238"/>
<path d="M151.958 158.499C151.958 158.499 140.78 161.172 136.892 166.761C133.004 172.35 123.77 189.846 121.34 193.248C118.91 196.65 110.648 201.51 109.19 208.557C107.732 215.604 109.433 220.464 116.966 224.352C124.499 228.24 134.462 220.221 140.294 218.034L140.537 226.782H201.287L203.474 216.333C203.474 216.333 216.839 217.548 220.484 216.333C224.129 215.118 228.989 218.034 229.475 215.118C229.961 212.202 227.774 206.127 224.858 201.024C221.942 195.921 221.942 197.379 219.026 190.332C216.11 183.285 213.923 176.724 211.493 170.649C209.063 164.574 203.994 159.408 199.289 157.848C194.585 156.288 183.791 157.284 179.66 156.798C175.529 156.312 151.958 158.499 151.958 158.499Z" fill="#651FFF" stroke="#263238" stroke-linecap="round" stroke-linejoin="round"/>
<path d="M202.176 209.529C202.176 209.529 206.385 202.885 214 200.781" stroke="#263238" stroke-linecap="round" stroke-linejoin="round"/>
<path d="M213.796 194.886C214.444 194.555 215.109 194.259 215.789 194.001" stroke="#263238" stroke-linecap="round" stroke-linejoin="round"/>
<path d="M201.043 206.939C201.043 206.939 205.374 200.101 211.838 195.984" stroke="#263238" stroke-linecap="round" stroke-linejoin="round"/>
<path d="M203.959 182.571C201.529 188.68 197.962 199.124 198.613 206.287" stroke="#263238" stroke-linecap="round" stroke-linejoin="round"/>
<path d="M206.064 177.614C206.064 177.614 205.617 178.586 204.946 180.146" stroke="#263238" stroke-linecap="round" stroke-linejoin="round"/>
<path d="M121.675 202.21C124.993 203.132 127.972 205 130.248 207.585" stroke="#263238" stroke-linecap="round" stroke-linejoin="round"/>
<path d="M116.154 201.753C117.253 201.615 118.366 201.623 119.463 201.777" stroke="#263238" stroke-linecap="round" stroke-linejoin="round"/>
<path d="M125.198 197.744C128.051 199.775 131.706 203.148 133.164 207.746" stroke="#263238" stroke-linecap="round" stroke-linejoin="round"/>
<path d="M121.34 195.435C122.177 195.84 122.988 196.297 123.77 196.801" stroke="#263238" stroke-linecap="round" stroke-linejoin="round"/>
<path d="M162.368 170.737C162.368 170.737 165.502 175.961 173.342 175.786C181.181 175.611 184.486 167.077 184.486 162.722C184.486 158.368 181.701 155.408 174.386 157.148C167.072 158.888 158.883 159.068 162.368 170.737Z" fill="white" stroke="#263238" stroke-linecap="round" stroke-linejoin="round"/>
<path d="M163.588 160.458C163.588 160.458 161.498 167.602 162.368 170.737C162.986 172.812 163.864 174.801 164.982 176.656C164.982 176.656 170.902 171.082 171.786 170.387C172.671 169.692 178.056 175.786 178.756 176.481C179.455 177.176 183.455 174.741 184.675 168.992C185.895 163.242 185.025 156.453 183.805 154.713C182.585 152.973 181.19 152.798 181.19 152.798C181.19 152.798 168.117 151.404 163.588 160.458Z" fill="white" stroke="#263238" stroke-linecap="round" stroke-linejoin="round"/>
<path d="M164.807 161.158C164.807 161.158 169.857 169.692 171.427 169.862C172.996 170.032 179.956 164.292 181.876 159.588C183.795 154.883 182.221 149.834 182.221 149.834C182.221 149.834 176.301 157.323 172.297 159.763C168.292 162.202 164.807 161.158 164.807 161.158Z" fill="white" stroke="#263238" stroke-linecap="round" stroke-linejoin="round"/>
<path d="M172.297 159.763C170.155 161.14 167.573 161.661 165.065 161.221L164.895 161.308C165.225 161.857 166.479 163.933 167.84 165.906C168.965 166.153 170.141 165.962 171.13 165.371C176.155 162.718 180.058 153.79 180.058 153.79L177.827 154.898C176.039 156.784 173.988 158.728 172.297 159.763Z" fill="#263238" stroke="#263238" stroke-linecap="round" stroke-linejoin="round"/>
<path d="M147.389 114.827C147.389 114.827 136.182 132.707 138.272 142.981C140.362 153.255 150.004 165.512 147.044 168.817C144.084 172.122 142.514 170.907 143.904 172.826C145.294 174.746 153.833 176.831 160.103 174.741C166.372 172.651 167.072 163.782 163.782 159.068C160.492 154.353 154.378 136.425 156.978 132.245C159.578 128.066 170.042 130.505 173.696 132.245C177.351 133.985 182.06 144.264 181.535 148.964C181.011 153.663 183.105 164.467 190.245 164.637C197.384 164.807 199.299 157.833 199.299 157.833C199.299 157.833 194.599 158.878 194.599 156.263C194.599 153.649 198.429 150.344 196.689 143.03C194.949 135.715 190.94 134.321 190.419 126.656C189.899 118.992 186.935 111.503 181.011 107.153C175.086 102.803 159.408 96.5438 147.389 114.827Z" fill="#263238" stroke="#263238" stroke-linecap="round" stroke-linejoin="round"/>
<path d="M148.39 139.127C147.788 141.464 147.748 143.911 148.274 146.267C149.994 155.175 158.125 164.088 156.56 169.561C154.995 175.033 150.15 174.561 147.326 172.219" stroke="#6B6B6B" stroke-linecap="round" stroke-linejoin="round"/>
<path d="M151.559 134.384C150.638 135.02 149.881 135.864 149.348 136.848" stroke="#6B6B6B" stroke-linecap="round" stroke-linejoin="round"/>
<path d="M153.727 162.693C154.71 164.058 155.262 165.687 155.311 167.369" stroke="#6B6B6B" stroke-linecap="round" stroke-linejoin="round"/>
<path d="M156.536 117.393C152.973 120.309 148.692 124.382 145.62 129.223C139.365 139.074 139.987 141.577 143.428 149.392C145.63 154.397 149.882 157.799 152.662 161.24" stroke="#6B6B6B" stroke-linecap="round" stroke-linejoin="round"/>
<path d="M163.126 112.65C163.126 112.65 161.352 113.714 158.82 115.61" stroke="#6B6B6B" stroke-linecap="round" stroke-linejoin="round"/>
<path d="M165.318 107.022C165.318 107.022 162.348 116.402 162.815 118.278" stroke="#6B6B6B" stroke-linecap="round" stroke-linejoin="round"/>
<path d="M190.245 160.919C190.983 161.473 191.803 161.909 192.675 162.212" stroke="#6B6B6B" stroke-linecap="round" stroke-linejoin="round"/>
<path d="M184.16 129.013C186.901 131 189.215 133.517 190.964 136.415C196.908 145.795 192.373 147.982 189.559 153.143C188.004 155.996 188.072 158.086 189.03 159.597" stroke="#6B6B6B" stroke-linecap="round" stroke-linejoin="round"/>
<path d="M178.449 126.564C179.652 126.732 180.816 127.106 181.89 127.672" stroke="#6B6B6B" stroke-linecap="round" stroke-linejoin="round"/>
<path d="M187.212 124.902C187.908 125.718 188.533 126.593 189.078 127.517" stroke="#6B6B6B" stroke-linecap="round" stroke-linejoin="round"/>
<path d="M165.162 115.153C165.162 115.153 166.1 118.594 174.542 118.749C178.835 118.808 182.936 120.535 185.977 123.565" stroke="#6B6B6B" stroke-linecap="round" stroke-linejoin="round"/>
<path d="M163.413 119.182C163.413 119.182 153.833 127.716 151.919 133.115C150.004 138.515 156.293 151.228 156.968 153.143C157.712 155.185 159.748 157.085 161.148 158.679C163.422 161.264 166.829 164.691 170.605 164.18C175.315 163.544 180.146 156.254 182.221 152.448C184.296 148.643 184.68 142.884 184.68 142.884C184.68 142.884 187.11 143.059 187.11 139.749C187.11 136.439 187.455 131.39 185.715 131.39C184.566 131.449 183.467 131.877 182.58 132.61C178.388 130.988 174.458 128.758 170.916 125.99C165.152 121.446 163.413 119.182 163.413 119.182Z" fill="white" stroke="#263238" stroke-linecap="round" stroke-linejoin="round"/>
<path d="M163.938 150.009C164.007 150.342 164.147 150.656 164.349 150.93C164.55 151.204 164.809 151.431 165.106 151.597C165.404 151.762 165.733 151.861 166.073 151.887C166.412 151.913 166.753 151.866 167.072 151.748C169.682 151.053 170.032 150.183 170.032 150.183" stroke="#263238" stroke-linecap="round" stroke-linejoin="round"/>
<path d="M163.782 153.668C163.782 153.668 169.527 155.758 172.836 152.273" stroke="#263238" stroke-linecap="round" stroke-linejoin="round"/>
<path d="M168.642 135.9C168.642 135.9 170.907 133.29 176.131 134.855" stroke="#263238" stroke-width="2" stroke-linecap="round" stroke-linejoin="round"/>
<path d="M160.973 137.82C160.973 137.82 157.493 136.6 154.528 136.6" stroke="#263238" stroke-width="2" stroke-linecap="round" stroke-linejoin="round"/>
<path d="M164.457 139.91C161.869 138.776 159.095 138.126 156.273 137.99C151.744 137.82 151.049 138.515 151.224 139.21C151.399 139.905 151.569 147.224 155.573 147.919C159.578 148.614 163.413 147.919 164.108 146.004C164.803 144.089 164.457 139.91 164.457 139.91Z" stroke="#263238" stroke-linecap="round" stroke-linejoin="round"/>
<path d="M166.892 139.579C169.271 138.061 171.906 136.988 174.668 136.41C179.11 135.536 179.907 136.114 179.844 136.828C179.781 137.543 180.753 144.794 176.904 146.111C173.055 147.428 169.162 147.331 168.156 145.547C167.15 143.764 166.892 139.579 166.892 139.579Z" stroke="#263238" stroke-linecap="round" stroke-linejoin="round"/>
<path d="M164.458 139.909C164.784 139.619 165.189 139.432 165.622 139.374C166.055 139.315 166.496 139.386 166.888 139.579" stroke="#263238" stroke-linecap="round" stroke-linejoin="round"/>
<path d="M160.968 142.918C161.104 143.89 160.827 144.697 160.351 144.765C159.874 144.833 159.379 144.118 159.243 143.166C159.106 142.213 159.379 141.387 159.855 141.319C160.331 141.251 160.827 141.965 160.968 142.918Z" fill="#263238"/>
<path d="M173.332 142.048C173.468 143.02 173.196 143.827 172.72 143.895C172.243 143.963 171.748 143.248 171.607 142.296C171.466 141.343 171.743 140.517 172.219 140.449C172.695 140.381 173.196 141.095 173.332 142.048Z" fill="#263238"/>
<path d="M179.786 136.075L182.571 132.595" stroke="#263238" stroke-linecap="round" stroke-linejoin="round"/>
<path d="M183.548 203.211C183.548 203.211 183.062 201.267 180.632 199.323C178.202 197.379 172.37 195.921 172.37 197.622C172.37 199.323 178.202 204.426 179.903 206.856C181.604 209.286 183.305 214.632 186.95 217.305C190.595 219.978 208.82 225.81 216.596 226.296C224.372 226.782 229.475 221.679 229.232 216.333C228.989 210.987 225.101 206.127 218.783 205.155C212.465 204.183 209.549 207.342 205.904 208.314C202.259 209.286 199.343 210.258 199.343 210.258C199.343 210.258 201.287 203.697 200.801 201.753C200.315 199.809 197.01 198.579 197.01 198.579L194.483 196.149C194.483 196.149 189.38 192.018 188.651 192.018C187.922 192.018 185.006 188.616 181.361 188.616C177.716 188.616 173.099 191.289 174.557 192.747C176.015 194.205 179.174 193.233 180.875 193.233C182.576 193.233 184.277 196.878 184.277 196.878C184.277 196.878 182.09 198.336 182.819 199.308C183.548 200.28 184.034 201.009 184.034 201.009L183.548 203.211Z" fill="white" stroke="#263238" stroke-linecap="round" stroke-linejoin="round"/>
<path d="M183.907 200.718C183.907 200.718 184.262 202.662 185.769 202.662C187.275 202.662 186.653 200.451 187.183 199.746C187.713 199.041 189.127 196.47 189.127 196.47" stroke="#263238" stroke-linecap="round" stroke-linejoin="round"/>
<path d="M196.213 198.934C196.213 198.934 192.762 202.21 192.495 202.39C192.227 202.569 191.435 204.426 190.813 205.398C190.191 206.37 188.689 206.637 188.247 205.398C187.805 204.159 188.422 202.21 188.952 201.325C189.482 200.441 191.168 197.782 191.168 197.782C191.168 197.782 192.32 196.101 193.914 196.101" stroke="#263238" stroke-linecap="round" stroke-linejoin="round"/>
<path d="M194.356 200.883C194.356 200.883 192.495 203.449 192.495 204.426C192.495 205.403 191.878 207.877 192.675 208.231C193.472 208.586 194.531 208.586 195.066 207.434C195.6 206.283 196.213 204.956 196.213 204.956C196.213 204.956 197.457 204.868 197.987 203.984" stroke="#263238" stroke-linecap="round" stroke-linejoin="round"/>
<path d="M196.213 204.956C196.476 205.548 196.951 206.021 197.544 206.283" stroke="#263238" stroke-linecap="round" stroke-linejoin="round"/>
<path d="M188.082 191.941C187.769 191.907 187.454 191.986 187.195 192.165C186.935 192.343 186.748 192.608 186.668 192.913C186.225 194.065 184.291 196.893 184.291 196.893" stroke="#263238" stroke-linecap="round" stroke-linejoin="round"/>
<path d="M186.473 198.137C186.631 198.777 186.75 199.427 186.828 200.081" stroke="#263238" stroke-linecap="round" stroke-linejoin="round"/>
<path d="M188.51 197.695C188.692 198.394 189.136 198.996 189.749 199.377" stroke="#263238" stroke-linecap="round" stroke-linejoin="round"/>
<path d="M199.343 210.258C199.343 210.258 197.481 216.493 196.023 218.117" stroke="#263238" stroke-linecap="round" stroke-linejoin="round"/>
<path d="M132.498 188.733L146.286 226.393C146.456 226.864 146.767 227.27 147.177 227.557C147.586 227.844 148.075 227.998 148.575 227.997H184.68C185.074 228 185.464 227.907 185.814 227.726C186.165 227.545 186.466 227.282 186.692 226.958C186.918 226.635 187.061 226.261 187.11 225.87C187.159 225.479 187.113 225.081 186.974 224.712L173.502 188.349C173.164 187.435 172.554 186.647 171.753 186.093C170.952 185.538 170 185.243 169.026 185.249L134.753 185.453C134.362 185.456 133.978 185.554 133.634 185.737C133.289 185.92 132.993 186.184 132.772 186.506C132.55 186.828 132.41 187.198 132.362 187.586C132.315 187.974 132.361 188.367 132.498 188.733Z" fill="#263238" stroke="#263238" stroke-linecap="round" stroke-linejoin="round"/>
<path d="M128.63 210.258L129.359 204.426C129.359 204.426 131.789 203.697 130.574 199.566C129.359 195.435 128.63 194.949 130.088 194.949C131.546 194.949 134.462 195.678 135.191 198.108C135.92 200.538 136.163 204.912 136.163 204.912C136.163 204.912 153.416 202.482 154.631 202.482C155.846 202.482 157.061 203.697 155.117 204.669C153.173 205.641 143.453 210.015 143.453 210.015C143.453 210.015 155.846 207.342 156.575 207.342C157.304 207.342 159.734 207.342 158.519 208.557C157.304 209.772 154.145 211.23 154.145 211.23C154.145 211.23 159.734 210.258 159.491 211.959C159.248 213.66 153.416 215.361 153.416 215.361C153.416 215.361 156.089 215.361 155.36 216.576C154.631 217.791 143.939 221.679 141.752 222.651C139.565 223.623 133.004 223.623 133.004 223.623C130.142 225.275 127.019 226.425 123.77 227.025C118.424 227.997 112.835 227.754 110.405 222.165C107.975 216.576 109.919 208.8 114.779 206.37C119.639 203.94 123.041 204.669 124.985 206.127C126.929 207.585 128.63 210.258 128.63 210.258Z" fill="white" stroke="#263238" stroke-linecap="round" stroke-linejoin="round"/>
<path d="M143.453 210.015L138.593 211.473" stroke="#263238" stroke-linecap="round" stroke-linejoin="round"/>
<path d="M154.145 211.23L140.051 215.604" stroke="#263238" stroke-linecap="round" stroke-linejoin="round"/>
<path d="M153.416 215.361L141.509 219.492" stroke="#263238" stroke-linecap="round" stroke-linejoin="round"/>
<path d="M128.629 210.258C128.629 210.258 127.657 212.202 124.741 210.258" stroke="#263238" stroke-linecap="round" stroke-linejoin="round"/>
<path d="M133.004 223.623L127.415 222.408" stroke="#263238" stroke-linecap="round" stroke-linejoin="round"/>
<path d="M136.163 204.912L131.06 205.884" stroke="#263238" stroke-linecap="round" stroke-linejoin="round"/>
<path d="M81.4098 194.779C81.3666 195.608 81.5008 196.436 81.8034 197.209C82.999 200.203 83.3489 201.437 82.8629 203.867" stroke="#263238" stroke-miterlimit="10" stroke-linecap="round"/>
<path d="M82.5665 190.954C82.1958 191.597 81.9083 192.285 81.7112 193" stroke="#263238" stroke-miterlimit="10" stroke-linecap="round"/>
<path d="M86.8482 190.954C86.8482 190.954 84.8605 194.162 86.0803 197.219C87.3002 200.276 87.6307 201.447 87.1447 203.877" stroke="#263238" stroke-miterlimit="10" stroke-linecap="round"/>
<path d="M91.6304 202.113C91.6165 202.706 91.5466 203.297 91.4214 203.877" stroke="#263238" stroke-miterlimit="10" stroke-linecap="round"/>
<path d="M91.1249 190.954C91.1249 190.954 89.1371 194.162 90.3618 197.219C90.7336 198.108 91.0581 199.017 91.3338 199.94" stroke="#263238" stroke-miterlimit="10" stroke-linecap="round"/>
<path d="M94.7991 210.356C94.7991 210.356 96.7819 208.373 98.2254 209.996C99.6688 211.619 99.1245 219.716 97.8609 222.253C96.5973 224.79 93.7056 222.384 93.7056 222.384V220.63C93.7056 220.63 94.9983 221.825 96.4417 220.387C97.8852 218.948 97.4915 213.238 96.9277 212.338C96.364 211.439 94.2256 212.698 94.2256 212.698L94.7991 210.356Z" fill="white" stroke="#263238" stroke-linecap="round" stroke-linejoin="round"/>
<path d="M93.6813 230.082H79.981L78.2703 206.04H95.392L93.6813 230.082Z" fill="white" stroke="#263238" stroke-linecap="round" stroke-linejoin="round"/>
</svg>
