<svg width="242" height="242" viewBox="0 0 242 242" fill="none" xmlns="http://www.w3.org/2000/svg">
<path d="M228.84 230.505H18.5227" stroke="#263238" stroke-miterlimit="10"/>
<path d="M200.705 156.942L193.019 230.408" stroke="#263238" stroke-width="2" stroke-miterlimit="10"/>
<path d="M194.384 215.336L197.801 211.726" stroke="#263238" stroke-width="2" stroke-miterlimit="10"/>
<path d="M196.76 212.81C196.766 212.257 196.891 211.711 197.126 211.211C197.36 210.71 197.699 210.265 198.12 209.906C198.996 209.122 203.614 207.181 204.054 208.807C204.529 210.579 199.805 214.054 196.76 212.81Z" fill="#651FFF" stroke="#263238" stroke-miterlimit="10"/>
<path d="M196.76 212.81L201.155 210.071" stroke="#263238" stroke-width="0.5" stroke-miterlimit="10"/>
<path d="M193.527 223.55L196.944 219.939" stroke="#263238" stroke-width="2" stroke-miterlimit="10"/>
<path d="M195.904 221.023C195.91 220.47 196.034 219.925 196.269 219.424C196.503 218.923 196.843 218.478 197.264 218.119C198.14 217.335 202.757 215.394 203.193 217.021C203.672 218.792 198.924 222.262 195.904 221.023Z" fill="#651FFF" stroke="#263238" stroke-miterlimit="10"/>
<path d="M195.904 221.023L200.298 218.284" stroke="#263238" stroke-width="0.5" stroke-miterlimit="10"/>
<path d="M196.475 195.294L199.892 191.688" stroke="#263238" stroke-width="2" stroke-miterlimit="10"/>
<path d="M198.851 192.768C198.857 192.214 198.982 191.669 199.216 191.168C199.451 190.667 199.79 190.222 200.211 189.864C201.092 189.089 205.7 187.143 206.145 188.76C206.619 190.541 201.896 194.011 198.851 192.768Z" fill="#651FFF" stroke="#263238" stroke-miterlimit="10"/>
<path d="M198.851 192.768L203.246 190.033" stroke="#263238" stroke-width="0.5" stroke-miterlimit="10"/>
<path d="M195.618 203.507L199.035 199.902" stroke="#263238" stroke-width="2" stroke-miterlimit="10"/>
<path d="M197.995 200.981C198.001 200.428 198.125 199.883 198.36 199.382C198.594 198.881 198.934 198.436 199.355 198.077C200.231 197.293 204.848 195.352 205.288 196.978C205.763 198.75 201.039 202.225 197.995 200.981Z" fill="#651FFF" stroke="#263238" stroke-miterlimit="10"/>
<path d="M197.995 200.981L202.389 198.241" stroke="#263238" stroke-width="0.5" stroke-miterlimit="10"/>
<path d="M197.869 181.955L201.286 178.344" stroke="#263238" stroke-width="2" stroke-miterlimit="10"/>
<path d="M200.245 179.428C200.251 178.875 200.376 178.33 200.61 177.829C200.845 177.328 201.184 176.883 201.605 176.524C202.481 175.74 207.099 173.799 207.534 175.426C208.013 177.197 203.28 180.672 200.245 179.428Z" fill="#651FFF" stroke="#263238" stroke-miterlimit="10"/>
<path d="M200.245 179.428L204.64 176.689" stroke="#263238" stroke-width="0.5" stroke-miterlimit="10"/>
<path d="M199.268 168.558L202.685 164.947" stroke="#263238" stroke-width="2" stroke-miterlimit="10"/>
<path d="M201.644 166.012C201.65 165.459 201.775 164.914 202.009 164.413C202.244 163.912 202.583 163.467 203.004 163.108C203.88 162.324 208.497 160.383 208.933 162.009C209.412 163.8 204.688 167.271 201.644 166.012Z" fill="#651FFF" stroke="#263238" stroke-miterlimit="10"/>
<path d="M201.644 166.027L206.039 163.292" stroke="#263238" stroke-width="0.5" stroke-miterlimit="10"/>
<path d="M194.96 210.477L192.361 206.242" stroke="#263238" stroke-width="2" stroke-miterlimit="10"/>
<path d="M193.155 207.515C193.262 206.973 193.251 206.414 193.124 205.877C192.997 205.339 192.757 204.835 192.419 204.398C191.722 203.43 187.608 200.599 186.843 202.099C186.016 203.73 189.917 208.12 193.155 207.515Z" fill="#651FFF" stroke="#263238" stroke-miterlimit="10"/>
<path d="M193.155 207.515L189.195 203.73" stroke="#263238" stroke-width="0.5" stroke-miterlimit="10"/>
<path d="M197.215 188.867L194.616 184.632" stroke="#263238" stroke-width="2" stroke-miterlimit="10"/>
<path d="M195.41 185.899C195.516 185.358 195.505 184.801 195.379 184.264C195.252 183.727 195.012 183.224 194.674 182.787C193.977 181.819 189.863 178.983 189.099 180.483C188.276 182.115 192.148 186.49 195.41 185.899Z" fill="#651FFF" stroke="#263238" stroke-miterlimit="10"/>
<path d="M195.41 185.9L191.451 182.12" stroke="#263238" stroke-width="0.5" stroke-miterlimit="10"/>
<path d="M198.203 179.366L195.608 175.131" stroke="#263238" stroke-width="2" stroke-miterlimit="10"/>
<path d="M196.398 176.404C196.507 175.86 196.499 175.299 196.373 174.758C196.246 174.218 196.006 173.711 195.667 173.272C194.97 172.328 190.856 169.473 190.091 170.973C189.244 172.619 193.164 176.994 196.398 176.404Z" fill="#651FFF" stroke="#263238" stroke-miterlimit="10"/>
<path d="M196.397 176.404L192.443 172.624" stroke="#263238" stroke-width="0.5" stroke-miterlimit="10"/>
<path d="M199.66 165.446L197.061 161.211" stroke="#263238" stroke-width="2" stroke-miterlimit="10"/>
<path d="M197.854 162.479C197.961 161.937 197.951 161.378 197.824 160.841C197.697 160.303 197.456 159.799 197.118 159.362C196.422 158.418 192.308 155.563 191.543 157.063C190.696 158.694 194.616 163.069 197.854 162.479Z" fill="#651FFF" stroke="#263238" stroke-miterlimit="10"/>
<path d="M197.854 162.479L193.895 158.699" stroke="#263238" stroke-width="0.5" stroke-miterlimit="10"/>
<path d="M200.768 156.54C200.875 155.999 200.865 155.442 200.739 154.905C200.613 154.368 200.374 153.865 200.037 153.428C199.34 152.46 195.226 149.624 194.461 151.124C193.629 152.755 197.535 157.131 200.768 156.54Z" fill="#651FFF" stroke="#263238" stroke-miterlimit="10"/>
<path d="M200.768 156.54L196.814 152.76" stroke="#263238" stroke-width="0.5" stroke-miterlimit="10"/>
<path d="M200.54 156.705C201.09 156.754 201.644 156.686 202.165 156.504C202.685 156.322 203.161 156.031 203.561 155.65C204.432 154.861 206.837 150.466 205.264 149.866C203.556 149.208 199.616 153.554 200.54 156.705Z" fill="#651FFF" stroke="#263238" stroke-miterlimit="10"/>
<path d="M200.54 156.705L203.885 152.373" stroke="#263238" stroke-width="0.5" stroke-miterlimit="10"/>
<path d="M180.827 166.888L187.187 230.408" stroke="#263238" stroke-width="2" stroke-miterlimit="10"/>
<path d="M186.664 225.331L189.263 221.096" stroke="#263238" stroke-width="2" stroke-miterlimit="10"/>
<path d="M188.474 222.369C188.367 221.827 188.376 221.269 188.503 220.731C188.629 220.194 188.868 219.689 189.205 219.252C189.902 218.308 194.045 215.457 194.781 216.958C195.613 218.589 191.707 222.959 188.474 222.369Z" fill="#651FFF" stroke="#263238" stroke-miterlimit="10"/>
<path d="M188.474 222.369L192.206 218.782" stroke="#263238" stroke-width="0.5" stroke-miterlimit="10"/>
<path d="M184.583 205.289L187.187 201.054" stroke="#263238" stroke-width="2" stroke-miterlimit="10"/>
<path d="M186.393 202.312C186.286 201.77 186.297 201.211 186.424 200.674C186.55 200.136 186.791 199.632 187.129 199.195C187.821 198.251 191.94 195.4 192.704 196.901C193.532 198.546 189.626 202.917 186.393 202.312Z" fill="#651FFF" stroke="#263238" stroke-miterlimit="10"/>
<path d="M186.393 202.326L190.13 198.745" stroke="#263238" stroke-width="0.5" stroke-miterlimit="10"/>
<path d="M185.44 213.502L188.039 209.267" stroke="#263238" stroke-width="2" stroke-miterlimit="10"/>
<path d="M187.245 210.54C187.138 209.998 187.148 209.439 187.275 208.902C187.402 208.364 187.643 207.86 187.981 207.423C188.678 206.479 192.792 203.628 193.556 205.129C194.384 206.76 190.478 211.13 187.245 210.54Z" fill="#651FFF" stroke="#263238" stroke-miterlimit="10"/>
<path d="M187.245 210.54L190.981 206.958" stroke="#263238" stroke-width="0.5" stroke-miterlimit="10"/>
<path d="M183.199 191.95L185.803 187.715" stroke="#263238" stroke-width="2" stroke-miterlimit="10"/>
<path d="M185.009 188.987C184.901 188.446 184.911 187.887 185.037 187.35C185.163 186.812 185.403 186.308 185.74 185.87C186.437 184.902 190.555 182.071 191.32 183.571C192.148 185.202 188.242 189.573 185.009 188.987Z" fill="#651FFF" stroke="#263238" stroke-miterlimit="10"/>
<path d="M185.009 188.988L188.745 185.401" stroke="#263238" stroke-width="0.5" stroke-miterlimit="10"/>
<path d="M181.81 178.548L184.409 174.312" stroke="#263238" stroke-width="2" stroke-miterlimit="10"/>
<path d="M183.62 175.585C183.512 175.044 183.522 174.485 183.648 173.948C183.774 173.41 184.014 172.906 184.351 172.468C185.048 171.525 189.191 168.674 189.926 170.174C190.759 171.82 186.853 176.176 183.62 175.585Z" fill="#651FFF" stroke="#263238" stroke-miterlimit="10"/>
<path d="M183.62 175.586L187.351 172.004" stroke="#263238" stroke-width="0.5" stroke-miterlimit="10"/>
<path d="M186.229 220.457L182.811 216.846" stroke="#263238" stroke-width="2" stroke-miterlimit="10"/>
<path d="M183.847 217.931C183.842 217.378 183.718 216.833 183.484 216.332C183.25 215.831 182.912 215.386 182.492 215.027C181.616 214.242 176.999 212.297 176.563 213.923C176.084 215.694 180.808 219.17 183.847 217.931Z" fill="#651FFF" stroke="#263238" stroke-miterlimit="10"/>
<path d="M183.847 217.931L179.201 215.046" stroke="#263238" stroke-width="0.5" stroke-miterlimit="10"/>
<path d="M183.983 198.846L180.571 195.236" stroke="#263238" stroke-width="2" stroke-miterlimit="10"/>
<path d="M181.606 196.315C181.6 195.762 181.476 195.217 181.241 194.716C181.007 194.215 180.667 193.77 180.246 193.411C179.37 192.627 174.758 190.686 174.317 192.308C173.843 194.084 178.562 197.559 181.606 196.315Z" fill="#651FFF" stroke="#263238" stroke-miterlimit="10"/>
<path d="M181.606 196.315L176.955 193.431" stroke="#263238" stroke-width="0.5" stroke-miterlimit="10"/>
<path d="M183 189.346L179.583 185.735" stroke="#263238" stroke-width="2" stroke-miterlimit="10"/>
<path d="M180.619 186.824C180.613 186.271 180.49 185.726 180.256 185.225C180.022 184.724 179.684 184.279 179.264 183.92C178.388 183.136 173.77 181.19 173.335 182.816C172.856 184.583 177.579 188.058 180.619 186.824Z" fill="#651FFF" stroke="#263238" stroke-miterlimit="10"/>
<path d="M180.619 186.819L175.972 183.935" stroke="#263238" stroke-width="0.5" stroke-miterlimit="10"/>
<path d="M181.553 175.421L178.141 171.81" stroke="#263238" stroke-width="2" stroke-miterlimit="10"/>
<path d="M179.177 172.894C179.171 172.341 179.046 171.796 178.811 171.295C178.577 170.794 178.238 170.349 177.817 169.99C176.941 169.206 172.328 167.261 171.888 168.887C171.413 170.658 176.132 174.133 179.177 172.894Z" fill="#651FFF" stroke="#263238" stroke-miterlimit="10"/>
<path d="M179.177 172.894L174.526 170.01" stroke="#263238" stroke-width="0.5" stroke-miterlimit="10"/>
<path d="M180.808 166.496C180.802 165.943 180.677 165.398 180.443 164.897C180.208 164.396 179.869 163.951 179.448 163.592C178.572 162.808 173.959 160.867 173.519 162.493C173.044 164.25 177.764 167.725 180.808 166.496Z" fill="#651FFF" stroke="#263238" stroke-miterlimit="10"/>
<path d="M180.808 166.482L176.157 163.597" stroke="#263238" stroke-width="0.5" stroke-miterlimit="10"/>
<path d="M180.619 166.69C181.167 166.625 181.695 166.444 182.168 166.158C182.64 165.873 183.046 165.489 183.358 165.034C184.046 164.066 185.493 159.289 183.842 159.023C182.023 158.752 179.08 163.795 180.619 166.69Z" fill="#651FFF" stroke="#263238" stroke-miterlimit="10"/>
<path d="M180.619 166.69L183 161.762" stroke="#263238" stroke-width="0.5" stroke-miterlimit="10"/>
<path d="M189.413 137.48L189.888 230.52" stroke="#263238" stroke-width="2" stroke-miterlimit="10"/>
<path d="M189.341 215.075L192.366 211.13" stroke="#263238" stroke-width="2" stroke-miterlimit="10"/>
<path d="M191.446 212.311C191.396 211.762 191.464 211.209 191.645 210.688C191.826 210.167 192.116 209.691 192.496 209.291C193.29 208.42 197.675 206.01 198.304 207.578C198.924 209.291 194.602 213.231 191.446 212.311Z" fill="#651FFF" stroke="#263238" stroke-miterlimit="10"/>
<path d="M191.446 212.311L195.531 209.132" stroke="#263238" stroke-width="0.5" stroke-miterlimit="10"/>
<path d="M189.341 197.912L192.366 193.968" stroke="#263238" stroke-width="2" stroke-miterlimit="10"/>
<path d="M191.446 195.149C191.396 194.6 191.464 194.046 191.645 193.525C191.826 193.004 192.116 192.528 192.496 192.129C193.29 191.257 197.675 188.847 198.304 190.42C198.924 192.148 194.602 196.068 191.446 195.149Z" fill="#651FFF" stroke="#263238" stroke-miterlimit="10"/>
<path d="M191.446 195.149L195.531 191.969" stroke="#263238" stroke-width="0.5" stroke-miterlimit="10"/>
<path d="M189.341 177.763L192.366 173.819" stroke="#263238" stroke-width="2" stroke-miterlimit="10"/>
<path d="M191.446 175C191.396 174.451 191.464 173.897 191.645 173.376C191.826 172.855 192.116 172.379 192.496 171.98C193.29 171.109 197.675 168.698 198.304 170.271C198.924 171.98 194.602 175.919 191.446 175Z" fill="#651FFF" stroke="#263238" stroke-miterlimit="10"/>
<path d="M191.446 175L195.531 171.82" stroke="#263238" stroke-width="0.5" stroke-miterlimit="10"/>
<path d="M189.341 164.347L192.366 160.407" stroke="#263238" stroke-width="2" stroke-miterlimit="10"/>
<path d="M191.446 161.588C191.395 161.038 191.463 160.484 191.644 159.962C191.825 159.44 192.116 158.963 192.496 158.563C193.29 157.697 197.675 155.287 198.304 156.855C198.924 158.563 194.602 162.508 191.446 161.588Z" fill="#651FFF" stroke="#263238" stroke-miterlimit="10"/>
<path d="M191.446 161.588L195.531 158.408" stroke="#263238" stroke-width="0.5" stroke-miterlimit="10"/>
<path d="M189.341 150.877L192.366 146.933" stroke="#263238" stroke-width="2" stroke-miterlimit="10"/>
<path d="M191.446 148.104C191.395 147.554 191.463 147 191.644 146.478C191.825 145.956 192.116 145.479 192.496 145.079C193.29 144.208 197.675 141.798 198.304 143.371C198.924 145.094 194.602 149.038 191.446 148.104Z" fill="#651FFF" stroke="#263238" stroke-miterlimit="10"/>
<path d="M191.446 148.119L195.531 144.939" stroke="#263238" stroke-width="0.5" stroke-miterlimit="10"/>
<path d="M189.408 220.312L186.388 216.372" stroke="#263238" stroke-width="2" stroke-miterlimit="10"/>
<path d="M187.308 217.553C187.358 217.003 187.29 216.448 187.108 215.926C186.926 215.405 186.634 214.928 186.253 214.528C185.464 213.662 181.074 211.251 180.469 212.82C179.816 214.528 184.152 218.473 187.308 217.553Z" fill="#651FFF" stroke="#263238" stroke-miterlimit="10"/>
<path d="M187.308 217.553L182.981 214.204" stroke="#263238" stroke-width="0.5" stroke-miterlimit="10"/>
<path d="M189.408 193.019L186.388 189.075" stroke="#263238" stroke-width="2" stroke-miterlimit="10"/>
<path d="M187.308 190.26C187.358 189.71 187.29 189.155 187.108 188.634C186.926 188.112 186.634 187.635 186.253 187.235C185.464 186.364 181.074 183.954 180.469 185.527C179.816 187.235 184.152 191.18 187.308 190.26Z" fill="#651FFF" stroke="#263238" stroke-miterlimit="10"/>
<path d="M187.308 190.26L182.981 186.906" stroke="#263238" stroke-width="0.5" stroke-miterlimit="10"/>
<path d="M189.408 179.545L186.388 175.605" stroke="#263238" stroke-width="2" stroke-miterlimit="10"/>
<path d="M187.308 176.786C187.358 176.235 187.29 175.681 187.108 175.159C186.926 174.637 186.634 174.161 186.253 173.761C185.464 172.894 181.074 170.484 180.469 172.052C179.816 173.756 184.152 177.705 187.308 176.786Z" fill="#651FFF" stroke="#263238" stroke-miterlimit="10"/>
<path d="M187.308 176.786L182.981 173.437" stroke="#263238" stroke-width="0.5" stroke-miterlimit="10"/>
<path d="M189.408 161.738L186.388 157.799" stroke="#263238" stroke-width="2" stroke-miterlimit="10"/>
<path d="M187.308 158.979C187.358 158.429 187.29 157.874 187.108 157.353C186.926 156.831 186.634 156.354 186.253 155.954C185.464 155.088 181.074 152.678 180.469 154.246C179.816 155.954 184.152 159.899 187.308 158.979Z" fill="#651FFF" stroke="#263238" stroke-miterlimit="10"/>
<path d="M187.308 158.979L182.981 155.63" stroke="#263238" stroke-width="0.5" stroke-miterlimit="10"/>
<path d="M189.408 147.741L186.388 143.796" stroke="#263238" stroke-width="2" stroke-miterlimit="10"/>
<path d="M187.308 144.982C187.358 144.432 187.29 143.877 187.108 143.356C186.926 142.834 186.634 142.357 186.253 141.957C185.464 141.086 181.074 138.676 180.469 140.249C179.816 141.957 184.152 145.902 187.308 144.982Z" fill="#651FFF" stroke="#263238" stroke-miterlimit="10"/>
<path d="M187.308 144.982L182.981 141.633" stroke="#263238" stroke-width="0.5" stroke-miterlimit="10"/>
<path d="M189.592 138.772C189.643 138.222 189.574 137.668 189.392 137.146C189.21 136.624 188.919 136.147 188.537 135.747C187.748 134.876 183.358 132.471 182.729 134.039C182.1 135.747 186.437 139.692 189.592 138.772Z" fill="#651FFF" stroke="#263238" stroke-miterlimit="10"/>
<path d="M189.592 138.772L185.265 135.423" stroke="#263238" stroke-width="0.5" stroke-miterlimit="10"/>
<path d="M189.379 138.956C189.932 138.95 190.478 138.826 190.979 138.591C191.48 138.357 191.925 138.017 192.283 137.596C193.063 136.715 194.999 132.098 193.372 131.663C191.601 131.188 188.135 135.917 189.379 138.956Z" fill="#651FFF" stroke="#263238" stroke-miterlimit="10"/>
<path d="M189.379 138.956L192.259 134.305" stroke="#263238" stroke-width="0.5" stroke-miterlimit="10"/>
<path d="M24.0306 27.0071H102.037V135.326H24.0306V27.0071Z" stroke="#263238" stroke-miterlimit="10"/>
<path d="M27.0991 31.2664H98.9683V131.062H27.0991V31.2664Z" stroke="#263238" stroke-miterlimit="10"/>
<path d="M46.7931 58.6172H79.2695V103.711H46.7931V58.6172Z" stroke="#263238" stroke-miterlimit="10"/>
<path d="M113.106 54.8809C113.106 54.8809 118.023 53.9129 122.336 60.7421C126.648 67.5713 126.387 76.7141 126.13 85.4261C125.874 94.1381 126.353 105.415 126.614 109.384C126.876 113.353 131.198 117.172 131.198 117.172L69.4781 118.624C71.7552 111.671 74.39 104.841 77.3721 98.1601C82.1056 87.6041 86.2051 70.6641 86.2051 70.6641C86.2051 70.6641 80.1648 72.0435 80.6827 68.5974C81.2006 65.1513 84.6515 61.2648 94.1379 56.3522C103.624 51.4396 109.916 51.6042 113.106 54.8809Z" fill="#263238" stroke="#263238" stroke-miterlimit="10"/>
<path d="M136.105 230.384L133.676 212.67L60.8144 207.239L54.6676 230.525L136.105 230.384Z" fill="#263238" stroke="#263238" stroke-miterlimit="10"/>
<path d="M64.8317 187.085C66.6352 183.431 68.2348 179.679 69.6233 175.847C68.3407 172.754 64.0331 164.875 64.0331 164.875L61.4776 160.272C61.4776 160.272 61.9616 158.854 61.8406 155.088C61.7573 153.151 61.8074 151.21 61.9906 149.28C61.9906 149.28 59.3044 127.418 59.3044 124.349C59.3044 121.281 59.3044 117.704 60.0691 116.678C60.8338 115.652 66.0804 112.08 76.8155 108.624C87.5506 105.168 91.1371 105.047 91.9018 104.791C92.6665 104.534 106.219 105.686 106.219 105.686C106.219 105.686 127.442 109.263 128.483 110.415C129.523 111.567 125.651 167.948 125.651 167.948C125.651 167.948 127.243 172.067 127.621 175.155C129.431 180.3 135.012 196.669 135.655 204.476C136.42 213.807 136.294 216.493 136.294 216.493C136.294 216.493 119.422 224.16 111.126 225.825C102.831 227.49 95.527 228.893 95.527 228.893L92.7149 221.348L89.1382 228.763C89.1382 228.763 74.8214 223.395 69.8362 219.814C64.851 216.232 58.3267 207.926 58.3267 207.926C58.3267 207.926 61.768 193.223 64.8317 187.085Z" fill="#651FFF" stroke="#263238" stroke-miterlimit="10"/>
<path d="M67.76 118.096C67.76 118.096 72.145 123.904 73.084 126.861" stroke="#263238" stroke-miterlimit="10"/>
<path d="M87.812 177.996C87.812 177.996 81.4813 179.424 80.2568 180.343C79.0323 181.263 74.231 182.691 72.1885 182.691C70.4442 182.637 68.7049 182.476 66.9807 182.207L70.2477 178.528C70.2477 178.528 82.9091 176.66 84.8499 176.66C85.411 176.655 85.9664 176.772 86.4779 177.002C86.9893 177.233 87.4445 177.572 87.812 177.996Z" fill="#263238" stroke="#263238" stroke-miterlimit="10"/>
<path d="M93.5039 212.224C93.2425 214.862 93.0731 216.58 93.0731 216.759" stroke="#263238" stroke-miterlimit="10"/>
<path d="M96.7417 180.784C96.7417 180.784 94.8057 199.418 93.7409 209.867" stroke="#263238" stroke-miterlimit="10"/>
<path d="M93.4942 150.185C93.4361 150.669 93.3732 151.11 93.3103 151.453C92.7973 154.135 93.4361 157.46 94.7139 158.355C95.9917 159.251 97.1339 163.195 96.6499 163.723" stroke="#263238" stroke-miterlimit="10"/>
<path d="M94.075 140.713C94.075 140.713 93.954 144.522 93.712 147.775" stroke="#263238" stroke-miterlimit="10"/>
<path d="M102.937 100.851C102.937 100.851 104.655 100.745 105.086 101.282C105.517 101.819 108.837 105.894 108.958 106.751C109.079 107.608 109.282 120.787 109.282 121.871C109.282 122.955 107.782 126.377 107.032 124.446C106.281 122.515 105.744 120.051 104.989 118.764C104.234 117.476 102.313 120.158 102.313 120.158L89.656 123.589C89.656 123.589 85.5807 121.227 84.816 119.717C84.0513 118.207 84.1723 124.223 83.2043 124.436C82.2363 124.649 81.3796 123.042 82.3476 119.398C83.3156 115.753 83.0978 108.779 84.4917 104.597C85.8857 100.415 86.8537 100.091 89.1043 99.9847C91.3549 99.8782 102.937 100.851 102.937 100.851Z" fill="#651FFF" stroke="#263238" stroke-miterlimit="10"/>
<path d="M104.655 93.054C104.655 93.054 103.794 103.218 103.794 104.956C103.794 106.693 104.225 113.75 102.501 118.406C100.778 123.062 95.861 138.327 94.8252 138.932C93.7895 139.537 92.6714 138.071 90.7741 133.153C88.8769 128.236 84.5644 121 85.3388 113.74C86.1132 106.48 89.4819 92.0957 89.4819 92.0957L104.655 93.054Z" fill="white" stroke="#263238" stroke-miterlimit="10"/>
<path d="M94.1039 101.969L103.798 105.904L104.36 99.7185L94.1039 101.969Z" fill="#263238" stroke="#263238" stroke-miterlimit="10"/>
<path d="M101.078 122.452C98.9004 128.768 95.6479 138.448 94.8251 138.908C93.7893 139.513 92.6713 138.047 90.774 133.129C89.7721 130.54 88.1072 127.321 86.8633 123.764C89.1442 124.792 91.6525 125.211 94.1437 124.981C96.6349 124.751 99.0241 123.88 101.078 122.452Z" fill="#263238" stroke="#263238" stroke-miterlimit="10"/>
<path d="M115.26 83.2481C115.26 83.2481 109.897 96.5049 107.516 98.4167C105.134 100.328 97.0178 103.397 94.1864 103.17C91.355 102.942 88.4413 101.098 87.6718 99.3363C86.9022 97.5745 83.6884 93.0443 84.2257 89.3804C84.7629 85.7165 88.2864 72.2178 88.2864 72.2178C88.2864 72.2178 95.498 71.1481 100.478 69.4541C105.459 67.7601 108.29 63.1621 108.29 63.1621C108.29 63.1621 109.21 72.0484 111.354 76.8738C113.498 81.6993 115.26 83.2481 115.26 83.2481Z" fill="white" stroke="#263238" stroke-miterlimit="10"/>
<path d="M96.6643 79.5793C96.6643 79.5793 95.9286 83.5869 94.5589 84.4193C93.1892 85.2518 92.6568 85.6874 93.1843 86.6361C93.7119 87.5847 95.2946 88.0881 95.7157 88.0881" stroke="#263238" stroke-miterlimit="10"/>
<path d="M100.991 90.1257C100.991 90.1257 97.8258 93.1846 94.6605 92.6571" stroke="#263238" stroke-miterlimit="10"/>
<path d="M108.706 80.0827C108.706 80.0827 105.217 78.0499 102.559 79.076" stroke="#263238" stroke-miterlimit="10"/>
<path d="M96.3934 78.9357C96.3934 78.9357 97.2259 75.3686 93.0441 74.3667" stroke="#263238" stroke-miterlimit="10"/>
<path d="M100.899 83.2481C100.59 84.0999 100.759 84.9469 101.277 85.1357C101.795 85.3244 102.472 84.7872 102.782 83.9305C103.092 83.0738 102.922 82.2365 102.4 82.0478C101.877 81.859 101.209 82.3865 100.899 83.2481Z" fill="#263238"/>
<path d="M91.3598 79.952C91.05 80.8038 91.2194 81.6508 91.7421 81.8395C92.2649 82.0283 92.9328 81.4911 93.2425 80.6392C93.5523 79.7874 93.3829 78.9404 92.865 78.7516C92.3471 78.5629 91.6695 79.1001 91.3598 79.952Z" fill="#263238"/>
<path d="M115.26 83.248L117.196 88.7124C117.196 88.7124 115.129 91.7326 113.919 92.2505C112.709 92.7683 111.334 91.6454 111.334 91.6454L115.26 83.248Z" fill="white" stroke="#263238" stroke-miterlimit="10"/>
<path d="M115.807 164.105C115.807 164.105 90.111 168.326 84.3466 168.326C78.5821 168.326 73.4808 168.069 72.8419 167.813C72.203 167.556 64.1299 166.791 63.5104 167.943C62.8909 169.095 63.1232 171.268 63.1232 171.268C62.8254 172.523 62.6968 173.813 62.7408 175.102C62.8078 176.156 63.1609 177.171 63.7621 178.04C63.614 178.353 63.5595 178.702 63.605 179.045C63.6505 179.389 63.7941 179.712 64.0186 179.976C64.7881 180.997 64.914 181.912 66.3224 182.149C67.7309 182.386 70.9204 181.636 71.4335 181.51C71.9465 181.384 77.3141 180.74 78.7225 179.976C79.6997 179.413 80.727 178.941 81.791 178.567C82.8439 178.329 83.9109 178.157 84.9855 178.054C84.9855 178.054 110.057 179.564 113.74 179.317C117.423 179.071 119.746 179.066 119.746 179.066L115.807 164.105Z" fill="white" stroke="#263238" stroke-miterlimit="10"/>
<path d="M79.5549 158.888C79.5549 158.888 77.4786 167.963 75.6829 170.639C73.8873 173.316 69.9814 177.289 66.4385 175.91C62.8956 174.531 61.947 174.874 61.342 168.306C60.737 161.738 60.9113 156.903 61.8599 155.088C62.5935 153.79 63.4631 152.573 64.4541 151.458L79.5549 158.888Z" fill="#651FFF" stroke="#263238" stroke-miterlimit="10"/>
<path d="M77.135 111.63C77.135 111.63 81.975 107.4 84.395 105.498C86.9769 103.403 89.4288 101.153 91.7373 98.7603C93.4652 96.9453 94.5057 95.9966 94.6751 97.6374C94.8445 99.2782 92.3423 103.165 91.8244 103.857C91.3065 104.549 88.3686 107.83 88.3686 107.83C88.3686 107.83 91.8244 110.25 92.6908 110.943C93.5571 111.635 93.5523 112.395 93.8136 114.398C94.075 116.402 93.1215 117.249 91.655 117.68C91.1974 117.795 90.72 117.809 90.2567 117.719C89.7933 117.63 89.3553 117.44 88.9736 117.162C88.9736 117.162 85.5179 119.495 83.3592 119.838C81.2006 120.182 79.2113 121.828 79.2113 121.828C79.2113 121.828 79.9035 153.772 79.9906 154.57C80.0777 155.369 75.4119 155.175 70.9204 153.704C66.4289 152.233 65.2141 150.51 65.2141 150.51C65.2141 150.51 71.0221 123.038 72.4741 119.146C73.9261 115.255 75.5039 112.583 77.135 111.63Z" fill="white" stroke="#263238" stroke-miterlimit="10"/>
<path d="M88.9688 117.162L91.2145 115.347C91.2145 115.347 91.3017 116.126 91.7324 116.383" fill="white"/>
<path d="M88.9688 117.162L91.2145 115.347C91.2145 115.347 91.3017 116.126 91.7324 116.383" stroke="#263238" stroke-miterlimit="10"/>
<path d="M81.5395 152.499C81.5395 152.499 81.2829 159.406 80.4166 159.928C79.5502 160.451 72.9872 158.888 69.5314 157.678C66.0757 156.468 63.5685 155.001 63.4814 153.878C63.3943 152.755 64.2607 150.006 64.8657 148.52C65.4707 147.034 66.3177 147.397 66.6807 147.746C67.0437 148.094 70.1364 149.198 74.8022 150.422C79.4679 151.647 81.6266 151.202 81.5395 152.499Z" fill="#651FFF" stroke="#263238" stroke-miterlimit="10"/>
<path d="M123.981 137.998C124.141 136.241 124.272 134.639 124.373 133.299L123.981 137.998Z" fill="#651FFF"/>
<path d="M123.981 137.998C124.141 136.241 124.272 134.639 124.373 133.299" stroke="#263238" stroke-miterlimit="10"/>
<path d="M121.431 109.137C121.431 109.137 134.6 109.907 135.113 112.08C135.626 114.253 137.156 131.508 137.669 148.511C138.182 165.514 137.286 177.914 136.135 178.296C134.983 178.678 121.818 178.678 121.818 178.678L120.153 163.853L121.561 161.68C121.561 161.68 122.897 144.847 123.778 135.656" fill="#651FFF"/>
<path d="M121.431 109.137C121.431 109.137 134.6 109.907 135.113 112.08C135.626 114.253 137.156 131.508 137.669 148.511C138.182 165.514 137.286 177.914 136.135 178.296C134.983 178.678 121.818 178.678 121.818 178.678L120.153 163.853L121.561 161.68C121.561 161.68 122.897 144.847 123.778 135.656" stroke="#263238" stroke-miterlimit="10"/>
<path d="M122.839 161.041C122.839 161.041 125.395 177.788 125.777 178.553C126.159 179.317 126.416 180.726 124.886 180.6C123.357 180.474 119.132 181.621 118.619 180.469C118.106 179.317 114.016 166.791 114.403 164.981C114.79 163.171 116.576 162.561 117.215 162.3C117.854 162.038 122.069 160.398 122.839 161.041Z" fill="#651FFF" stroke="#263238" stroke-miterlimit="10"/>
<path d="M128.449 153.685C129.025 152.949 129.494 152.368 129.741 152.092" stroke="#263238" stroke-miterlimit="10"/>
<path d="M131.914 158.994L122.839 161.041C122.839 161.041 125.206 157.886 127.195 155.287" stroke="#263238" stroke-miterlimit="10"/>
<path d="M119.742 93.7896C119.742 93.7896 123.488 115.599 123.614 125.627C123.739 135.656 119.742 141.43 114.224 143.264C108.706 145.098 103.915 141.889 105.062 140.287C106.209 138.685 110.788 141.889 112.39 136.164C113.992 130.438 108.266 125.627 108.034 114.384C107.801 103.14 108.034 100.183 108.034 100.183" fill="#263238"/>
<path d="M119.742 93.7896C119.742 93.7896 123.488 115.599 123.614 125.627C123.739 135.656 119.742 141.43 114.224 143.264C108.706 145.098 103.915 141.889 105.062 140.287C106.209 138.685 110.788 141.889 112.39 136.164C113.992 130.438 108.266 125.627 108.034 114.384C107.801 103.14 108.034 100.183 108.034 100.183" stroke="#263238" stroke-miterlimit="10"/>
<path d="M128.991 41.6239C128.988 39.363 129.552 37.1375 130.629 35.1499C131.707 33.1624 133.264 31.476 135.16 30.2445C137.056 29.0129 139.23 28.2752 141.484 28.0986C143.738 27.922 146.001 28.3122 148.065 29.2335C148.951 27.4966 150.202 25.9714 151.731 24.762C153.261 23.5526 155.033 22.6875 156.928 22.2257C158.822 21.764 160.794 21.7164 162.708 22.0864C164.622 22.4563 166.435 23.235 168.021 24.3693C168.683 22.6176 169.7 21.0221 171.01 19.6835C172.32 18.3448 173.892 17.2922 175.629 16.5918C177.366 15.8915 179.229 15.5587 181.101 15.6144C182.973 15.6702 184.812 16.1132 186.504 16.9157C188.591 14.805 191.313 13.4377 194.252 13.0238C197.191 12.6099 200.185 13.1722 202.773 14.6245C205.361 16.0767 207.401 18.3385 208.58 21.0626C209.758 23.7866 210.01 26.8221 209.296 29.7029C212.355 30.826 215.069 32.7247 217.173 35.2128C219.277 37.7009 220.698 40.693 221.298 43.8958C221.897 47.0987 221.654 50.4022 220.592 53.4827C219.53 56.5632 217.685 59.3148 215.24 61.4679C216.159 64.262 216.145 67.2794 215.198 70.0645C214.252 72.8497 212.425 75.2513 209.994 76.9067C207.562 78.5621 204.658 79.3815 201.72 79.2411C198.782 79.1006 195.969 78.008 193.706 76.1282C192.353 79.4298 190.089 82.2784 187.178 84.3415C184.267 86.4046 180.829 87.597 177.266 87.7797C173.703 87.9624 170.161 87.1278 167.054 85.3732C163.947 83.6186 161.403 81.0165 159.72 77.8706C156.692 79.1123 153.342 79.3334 150.177 78.5004C147.013 77.6675 144.206 75.8259 142.181 73.2546C140.157 70.6833 139.026 67.5223 138.959 64.2505C138.893 60.9787 139.894 57.7743 141.812 55.1226C138.355 54.9359 135.101 53.4334 132.717 50.9233C130.332 48.4131 128.999 45.0858 128.991 41.6239Z" fill="#263238" stroke="#263238" stroke-miterlimit="10"/>
<path d="M138.279 84.1233C135.341 82.6892 133.839 79.7253 134.923 77.5034C136.008 75.2814 139.269 74.6427 142.207 76.0769C145.144 77.511 146.647 80.4748 145.562 82.6968C144.477 84.9188 141.216 85.5574 138.279 84.1233Z" fill="#263238" stroke="#263238" stroke-miterlimit="10"/>
<path d="M138.69 90.7936C137.877 92.4585 135.433 92.9377 133.231 91.8632C131.028 90.7887 129.906 88.5672 130.719 86.9022C131.532 85.2373 133.976 84.7581 136.178 85.8326C138.38 86.9071 139.503 89.1286 138.69 90.7936Z" fill="#263238" stroke="#263238" stroke-miterlimit="10"/>
<path d="M127.389 38.7199C127.386 36.4591 127.949 34.2335 129.027 32.246C130.105 30.2585 131.662 28.5721 133.558 27.3405C135.454 26.1089 137.628 25.3713 139.882 25.1947C142.136 25.0181 144.398 25.4082 146.463 26.3295C147.351 24.5939 148.604 23.0704 150.134 21.8629C151.665 20.6555 153.439 19.7926 155.333 19.3331C157.228 18.8737 159.2 18.8285 161.114 19.2006C163.028 19.5728 164.839 20.3535 166.423 21.4895C167.086 19.7403 168.103 18.1471 169.411 16.8103C170.719 15.4734 172.29 14.4218 174.024 13.7217C175.759 13.0216 177.619 12.688 179.489 12.7421C181.359 12.7962 183.197 13.2367 184.888 14.0359C186.973 11.9181 189.697 10.5445 192.639 10.1266C195.582 9.7087 198.58 10.2697 201.172 11.7233C203.765 13.1768 205.808 15.4423 206.986 18.1708C208.164 20.8992 208.413 23.9395 207.694 26.8232C210.755 27.9457 213.472 29.8446 215.577 32.3337C217.683 34.8228 219.106 37.8166 219.706 41.0213C220.306 44.226 220.062 47.5316 218.999 50.6139C217.936 53.6961 216.09 56.449 213.642 58.6027C214.563 61.3975 214.55 64.4163 213.604 67.2028C212.657 69.9892 210.83 72.392 208.397 74.0478C205.964 75.7037 203.059 76.5227 200.119 76.3811C197.18 76.2396 194.367 75.145 192.104 73.263C190.752 76.564 188.489 79.4125 185.579 81.476C182.67 83.5395 179.233 84.733 175.671 84.9172C172.108 85.1014 168.567 84.2687 165.46 82.5163C162.353 80.7638 159.808 78.1639 158.123 75.0199C155.095 76.2616 151.745 76.4827 148.58 75.6497C145.415 74.8168 142.608 72.9752 140.584 70.4039C138.56 67.8326 137.429 64.6716 137.362 61.3998C137.295 58.128 138.297 54.9236 140.215 52.2719C136.748 52.0859 133.484 50.5764 131.098 48.0548C128.711 45.5332 127.384 42.1918 127.389 38.7199Z" fill="white" stroke="#263238" stroke-miterlimit="10"/>
<path d="M136.684 81.2461C133.746 79.812 132.244 76.8481 133.328 74.6262C134.413 72.4042 137.674 71.7655 140.612 73.1997C143.549 74.6338 145.052 77.5976 143.967 79.8196C142.882 82.0416 139.621 82.6802 136.684 81.2461Z" fill="white" stroke="#263238" stroke-miterlimit="10"/>
<path d="M137.088 87.9137C136.275 89.5787 133.831 90.0578 131.633 88.9882C129.436 87.9185 128.308 85.6921 129.121 84.0223C129.935 82.3525 132.374 81.8782 134.576 82.9527C136.778 84.0272 137.901 86.2487 137.088 87.9137Z" fill="white" stroke="#263238" stroke-miterlimit="10"/>
<path d="M161.53 41.5176C161.529 39.1799 162.09 36.8763 163.168 34.8016C164.245 32.7269 165.806 30.9423 167.719 29.5987C169.632 28.2551 171.841 27.3921 174.158 27.0826C176.475 26.7732 178.832 27.0265 181.031 27.8211C183.229 28.6157 185.204 29.9281 186.788 31.6474C188.372 33.3667 189.518 35.4423 190.13 37.6984C190.742 39.9546 190.802 42.325 190.304 44.609C189.806 46.893 188.765 49.0235 187.269 50.8201C185.127 53.3904 183.953 56.631 183.954 59.9773V61.9714H168.219V59.9773C168.222 56.6343 167.051 53.3964 164.909 50.8297C162.726 48.2177 161.53 44.9217 161.53 41.5176Z" fill="#651FFF" stroke="#263238" stroke-miterlimit="10"/>
<path opacity="0.44" d="M176.099 51.7444C171.001 51.7444 166.869 47.6121 166.869 42.5145C166.869 37.417 171.001 33.2847 176.099 33.2847C181.196 33.2847 185.329 37.417 185.329 42.5145C185.329 47.6121 181.196 51.7444 176.099 51.7444Z" fill="white"/>
<path d="M168.219 61.9858H183.954V65.8772H168.219V61.9858Z" fill="#7D7D7D" stroke="#263238" stroke-linecap="round" stroke-linejoin="round"/>
<path d="M183.954 65.887H168.219V67.4938C168.219 68.101 168.46 68.6833 168.89 69.1126C169.319 69.542 169.901 69.7832 170.508 69.7832H181.665C182.272 69.7832 182.854 69.542 183.283 69.1126C183.713 68.6833 183.954 68.101 183.954 67.4938V65.887Z" fill="#7D7D7D" stroke="#263238" stroke-linecap="round" stroke-linejoin="round"/>
<path d="M181.984 69.7734H170.223V70.5624C170.223 71.3852 170.55 72.1743 171.132 72.7561C171.713 73.3379 172.503 73.6648 173.325 73.6648H178.867C179.69 73.6648 180.479 73.3379 181.061 72.7561C181.643 72.1743 181.97 71.3852 181.97 70.5624V69.7734H181.984Z" fill="white" stroke="#263238" stroke-linecap="round" stroke-linejoin="round"/>
<path d="M159.468 41.595H152.799" stroke="#263238" stroke-linecap="round" stroke-linejoin="round"/>
<path d="M199.999 41.595H193.247" stroke="#263238" stroke-linecap="round" stroke-linejoin="round"/>
<path d="M176.399 24.684V17.9951" stroke="#263238" stroke-linecap="round" stroke-linejoin="round"/>
<path d="M164.313 29.5096L159.71 24.9067" stroke="#263238" stroke-linecap="round" stroke-linejoin="round"/>
<path d="M193.087 58.2834L188.416 53.6128" stroke="#263238" stroke-linecap="round" stroke-linejoin="round"/>
<path d="M188.615 29.3789L193.087 24.9067" stroke="#263238" stroke-linecap="round" stroke-linejoin="round"/>
<path d="M159.71 58.2834L164.163 53.8306" stroke="#263238" stroke-linecap="round" stroke-linejoin="round"/>
</svg>
